<svg xmlns="http://www.w3.org/2000/svg" viewBox="0 0 150 16.77"><defs><style>.cls-1{fill:#f7f2f2;}.cls-2{fill:#dbca3f;}.cls-3{fill:#2c2c2c;}</style></defs><g id="Draw_Layer" data-name="Draw Layer"><path class="cls-1" d="M104.67,9.73s0,.1,0,.14l-.34.32a.23.23,0,0,1-.14.08s0-.06,0-.08a3.56,3.56,0,0,1,.49-.46ZM82.1,8.89c.05,0,.13,0,.14,0-.23.1-.46.19-.7.27,0,0,0-.1.07-.12a4.84,4.84,0,0,1,.49-.18Zm11.72.64-.53.16s-.1,0-.09,0l0,0a5.12,5.12,0,0,1,.67-.19c0,.05,0,.09-.09.1Zm11.46-.47.29-.33a.46.46,0,0,1,.12-.12s0,0,0,0,0,.06,0,.09l-.45.5s0,0,0-.06a.1.1,0,0,1,0-.07ZM66,4.55s.05,0,.08,0,.06,0,0,0L65.57,5s0,0,0-.07,0,0,0-.07L66,4.55ZM68,3.1a4.08,4.08,0,0,1,.58-.32s.11,0,.12,0l-.59.32s-.11,0-.11,0ZM80.81,9.54l-.56.34s-.09,0-.1,0,0-.06,0-.07l.48-.28s.13,0,.14,0Zm19.33,2.59.59,0a.07.07,0,0,1,.06,0s0,0-.06,0a2.14,2.14,0,0,1-.67,0s0-.06.08-.07ZM79.45,10.4l-.49.34a.15.15,0,0,1-.07,0s0,0,0,0a6.3,6.3,0,0,1,.53-.37l.06,0a0,0,0,0,1,0,0l0,0ZM67.33,3.6,66.81,4s-.11.05-.12,0a3.14,3.14,0,0,1,.5-.38s.11-.05.14,0Zm34.81,8,.07,0s0,0,0,.06a2.93,2.93,0,0,1-.65.29s0-.09.06-.11l.5-.22Zm-11.1-1a3.1,3.1,0,0,1-.66.19s-.06,0-.07,0,0-.06.06-.07l.52-.14s.12,0,.15,0ZM73.63,5.92l.1.5a.17.17,0,0,1,0,.07.09.09,0,0,1-.06.06,3.62,3.62,0,0,1-.14-.73s.08,0,.09.1Zm3.83,5.46.62-.22s.1,0,.09,0a2.35,2.35,0,0,1-.57.23c-.06,0-.14,0-.14,0Zm-5.8-8.87s-.06,0-.1,0l-.62-.2s.07-.06.12,0a2.05,2.05,0,0,1,.6.22ZM85.26,9.1s-.08,0-.13,0L84.71,9a.36.36,0,0,1-.15-.08c0-.05.08,0,.12,0a2.48,2.48,0,0,1,.58.25Zm.69.44s.1,0,.15,0l.51.32c0,.05-.06.05-.1,0A6.42,6.42,0,0,1,86,9.54Zm10.8.46-.49-.31a.06.06,0,0,1,0-.08,2.07,2.07,0,0,1,.62.38s-.08,0-.12,0Zm-4.29,0a6.11,6.11,0,0,1-.58.27.11.11,0,0,1-.08,0s0,0,0-.06.36-.16.54-.24.12,0,.13,0ZM74.4,9.57a3.35,3.35,0,0,1-.22-.63s0-.09,0-.08,0,0,0,0l.18.54c0,.05,0,.12,0,.13Zm.73,1.19a3.51,3.51,0,0,1-.29-.36s0-.11,0-.12l.45.53s-.12,0-.17-.05Zm27.84.4.45-.34s.12-.05.13,0a6.12,6.12,0,0,1-.5.39l-.06,0a0,0,0,0,1,0,0s0,0,0,0ZM70.11,2.29v.06l-.71.16c0-.09.13-.12.21-.14l.49-.08ZM73.34,5c-.08-.2-.15-.41-.22-.61,0,0,0,0,0-.06s0,0,.06,0,0,0,0,.06l.14.43c0,.06,0,.15,0,.18Zm.54,2.3c.05.21.1.43.14.64,0,0,0,0,0,.06s-.07,0-.08-.07l-.1-.49c0-.05,0-.13,0-.14ZM72.73,3.6l-.39-.48s0,0,0-.06a0,0,0,0,1,.05,0c.12.14.24.29.35.44s0,.12,0,.14Zm14.61,6.68.59.25s0,0,0,0-.06,0-.09,0l-.47-.2s-.11-.08-.07-.12Zm10.18.26L98,11s.06.08,0,.1,0,0-.07,0a3.33,3.33,0,0,1-.39-.36l-.05-.06a.08.08,0,0,1,0-.07Zm-8.62.23.53,0s.09,0,.07.07a1.78,1.78,0,0,1-.73-.06c0-.05.08-.05.13-.05Zm-12.23.68c0,.05-.11.05-.17,0a2.07,2.07,0,0,1-.55-.17c0-.05.08-.05.12,0l.6.16ZM94.82,9.37s-.09,0-.1,0a1.72,1.72,0,0,1,.75,0c0,.05-.11.05-.18.05l-.47,0Zm3.81,2.25a0,0,0,0,1,.05,0l.07,0,.47.29s0,0,0,.07,0,0-.07,0a3.14,3.14,0,0,1-.55-.34ZM83.1,8.69a3.62,3.62,0,0,1,.57,0s0,0,.06,0a0,0,0,0,1,0,.05l-.66,0h0s0,0,0-.06Z"/><path class="cls-1" d="M110.35,5.21c-.09,0-.19,0-.21.14.24,0,.47-.09.71-.15V5.13l-.49.08Z"/><path class="cls-1" d="M111.67,5.19l.62.19s.1,0,.1,0a2.14,2.14,0,0,0-.6-.21h0s-.08,0-.08.05Z"/><path class="cls-1" d="M109.28,5.62a5.3,5.3,0,0,0-.57.33s.07,0,.1,0l.59-.32s0,0-.05,0Z"/><path class="cls-1" d="M113,5.91a.09.09,0,0,0,0,0l.38.49s0-.1,0-.14a3.13,3.13,0,0,0-.36-.44h0s0,0,0,0Z"/><path class="cls-1" d="M107.91,6.44a4.5,4.5,0,0,0-.5.39s.09,0,.13,0l.51-.39a.05.05,0,0,0,0,0l-.09,0Z"/><path class="cls-1" d="M113.85,7.22a0,0,0,0,0,0,0c.07.21.14.41.22.62.05,0,0-.12,0-.18s-.1-.29-.14-.43a.16.16,0,0,0,0-.07h0l0,0Z"/><path class="cls-1" d="M106.77,7.36a.12.12,0,0,0-.08,0l-.37.33a.13.13,0,0,0-.06.07s0,.06,0,.07l.52-.46s0,0,0,0Z"/><path class="cls-1" d="M114.26,8.67a4.61,4.61,0,0,0,.15.72.1.1,0,0,0,0-.12c0-.17-.06-.34-.1-.51s0-.1-.07-.1Z"/><path class="cls-1" d="M114.56,10.32c0,.17.06.33.1.5s0,.1.08.07a.13.13,0,0,0,0-.06c0-.22-.09-.43-.15-.64,0,0-.06.08,0,.13Z"/><path class="cls-1" d="M123.83,11.53l-.06,0s0,0,0,.06h.7a0,0,0,0,0,0-.06l-.06,0h-.57Z"/><path class="cls-1" d="M125.29,11.72a.39.39,0,0,0,.14.08l.43.16s.11,0,.13,0a2.38,2.38,0,0,0-.59-.25h-.05a.06.06,0,0,0-.06,0Z"/><path class="cls-1" d="M114.9,11.78a3.38,3.38,0,0,0,.23.63c.05,0,.05-.08,0-.13l-.18-.53s0-.05,0-.05h0s0,.05,0,.08Z"/><path class="cls-1" d="M122.83,11.74a4.09,4.09,0,0,0-.49.18s-.11.08-.07.12l.7-.27a.07.07,0,0,0-.07,0Z"/><path class="cls-1" d="M135.45,12.17s.06.05.1.05l.47,0a.17.17,0,0,0,.18-.05,1.74,1.74,0,0,0-.45-.06l-.3,0Z"/><path class="cls-1" d="M134,12.47s0,0,0,0,0,.05.09,0l.53-.16s.11-.06.08-.1a3.1,3.1,0,0,0-.66.19Z"/><path class="cls-1" d="M121.4,12.37l-.48.28s-.06,0,0,.08.07,0,.1,0l.57-.34a.05.05,0,0,0-.06,0l-.08,0Z"/><path class="cls-1" d="M126.68,12.38a4.65,4.65,0,0,0,.56.34s.11,0,.1,0c-.17-.11-.34-.22-.52-.32a.11.11,0,0,0-.08,0,.06.06,0,0,0-.06,0Z"/><path class="cls-1" d="M137,12.53l.49.31s.1,0,.11,0a1.78,1.78,0,0,0-.61-.38,0,0,0,0,0,0,.07Z"/><path class="cls-1" d="M133.06,12.83l-.54.23s0,.06,0,.07a.11.11,0,0,0,.08,0,6.11,6.11,0,0,0,.58-.27.05.05,0,0,0-.06,0l-.07,0Z"/><path class="cls-1" d="M128.14,13.25a3.71,3.71,0,0,0,.46.19s.1,0,.1,0,0,0,0-.05l-.59-.25s0,.1.08.13Z"/><path class="cls-1" d="M115.57,13.25l.29.36s.12.09.17.05l-.45-.53s0,.08,0,.12Z"/><path class="cls-1" d="M120.11,13.2a4.93,4.93,0,0,0-.53.36s0,0,0,0a.09.09,0,0,0,.07,0l.49-.34s0,0,0,0,0,0,0,0h0a.05.05,0,0,0,0,0Z"/><path class="cls-1" d="M138.22,13.45a.18.18,0,0,0,.05.07l.39.36s0,0,.06,0,0-.07,0-.1l-.45-.41s0,0,0,.06Z"/><path class="cls-1" d="M131.61,13.43l-.51.13s-.08,0-.06.07,0,0,.07,0a3.72,3.72,0,0,0,.65-.19.07.07,0,0,0-.07,0Z"/><path class="cls-1" d="M129.49,13.66a1.85,1.85,0,0,0,.74.06s0-.06-.07-.06l-.53,0h0a.14.14,0,0,0-.11,0Z"/><path class="cls-1" d="M118.8,14l-.61.21c0,.06.08.07.14,0a4,4,0,0,0,.57-.23s0,0-.06,0Z"/><path class="cls-1" d="M116.68,14.16a2.09,2.09,0,0,0,.55.18c.06,0,.13,0,.17,0l-.6-.17h0s-.06,0-.07,0Z"/><path class="cls-1" d="M139.36,14.47a3.87,3.87,0,0,0,.55.34s.06,0,.07,0,0-.06,0-.07l-.47-.29s0,0-.06,0a0,0,0,0,0,0,.05Z"/><path class="cls-1" d="M140.86,15s-.1,0-.07.07a1.88,1.88,0,0,0,.67,0s.06,0,.06,0,0,0-.06,0l-.6,0Z"/><path class="cls-1" d="M62.87,8.75c.05,0,0,.11,0,.15l-.33.32a.22.22,0,0,1-.15.08s0-.06,0-.08a4.34,4.34,0,0,1,.49-.47ZM40.3,7.92c.06,0,.13,0,.15,0-.23.1-.47.19-.7.27,0,0,0-.1.07-.12a4.68,4.68,0,0,1,.48-.18ZM52,8.56l-.53.16s-.11,0-.09,0a0,0,0,0,1,0,0,3.93,3.93,0,0,1,.67-.19s0,.08-.08.1Zm11.45-.47.29-.34.13-.12h0s0,.07,0,.1l-.45.49s0,0,0-.06l0-.06ZM24.17,3.58a.1.1,0,0,1,.07,0,.05.05,0,0,1,.06,0l-.53.46a.06.06,0,0,1,0-.07.18.18,0,0,1,.05-.07l.38-.33Zm2-1.45a4,4,0,0,1,.57-.32s.11,0,.12,0l-.59.32s-.1,0-.1,0ZM39,8.57c-.18.12-.37.23-.56.34,0,0-.09,0-.1,0s0-.06,0-.08l.48-.27s.12-.05.13,0Zm19.33,2.59.59,0s.06,0,.06,0,0,0-.05,0a1.89,1.89,0,0,1-.67,0s0-.07.07-.07ZM37.65,9.42l-.48.34a.11.11,0,0,1-.07,0s-.05,0,0,0a6,6,0,0,1,.52-.36.09.09,0,0,1,.06,0,0,0,0,0,1,0,0s0,0,0,0ZM25.53,2.62,25,3s-.11,0-.12,0a3.73,3.73,0,0,1,.5-.39s.12,0,.14,0Zm34.81,8s0,0,.07,0,.05,0,0,.06a3.19,3.19,0,0,1-.66.28s0-.09.07-.11l.49-.22Zm-11.1-1a2.94,2.94,0,0,1-.66.19s-.06,0-.07,0,0-.06.06-.07l.52-.13s.12,0,.15,0Zm-17.4-4.7.1.51s0,0,0,.06a.09.09,0,0,1-.06.06,4.57,4.57,0,0,1-.14-.72c.05,0,.09,0,.1.09Zm3.83,5.46.61-.21s.11,0,.1,0a4.12,4.12,0,0,1-.58.23s-.13,0-.13,0Zm-5.8-8.86s-.07,0-.11,0l-.61-.19c0-.05.07-.06.11-.05a1.94,1.94,0,0,1,.61.22Zm13.6,6.59s-.09,0-.13,0L42.91,8a.32.32,0,0,1-.14-.08s.07,0,.11,0a2.75,2.75,0,0,1,.59.25Zm.69.43c0-.05.09,0,.14,0s.35.21.52.32c0,0-.07,0-.1,0a4,4,0,0,1-.56-.34ZM55,9l-.49-.31s0-.05,0-.07a1.73,1.73,0,0,1,.62.38S55,9.05,55,9ZM50.67,9c-.19.1-.39.19-.58.27a.14.14,0,0,1-.09,0s0-.06,0-.07L50.53,9s.12,0,.14,0ZM32.61,8.59A2.8,2.8,0,0,1,32.38,8s0-.08,0-.08,0,0,0,0l.19.53s0,.12,0,.13Zm.73,1.2a4.57,4.57,0,0,1-.29-.36s0-.12,0-.12l.45.53s-.12,0-.16-.05Zm27.83.39.45-.33c.05,0,.12,0,.13,0a3.66,3.66,0,0,1-.5.38s0,0-.06,0,0,0,0,0a.05.05,0,0,1,0,0ZM28.31,1.31l0,.07q-.36.09-.72.15c0-.08.13-.12.22-.13l.48-.09Zm3.24,2.76c-.08-.21-.16-.41-.23-.62,0,0,0,0,0-.05a.06.06,0,0,1,.07,0s0,0,0,.07l.15.43c0,.06,0,.14,0,.18Zm.53,2.3c.06.21.1.42.14.64a0,0,0,0,1,0,.06s-.07,0-.08-.07L32,6.51c0-.06,0-.14,0-.14ZM30.93,2.63l-.39-.49a.08.08,0,0,1,0-.05,0,0,0,0,1,.05,0,2.94,2.94,0,0,1,.35.44s.06.12,0,.14ZM45.54,9.3l.59.25s0,0,0,0-.05,0-.09,0a4.62,4.62,0,0,1-.47-.19s-.11-.08-.07-.13Zm10.19.27.45.41s0,.08,0,.1a.07.07,0,0,1-.07,0l-.39-.36a.1.1,0,0,1,0-.07,0,0,0,0,1,0-.06Zm-8.62.23.52,0s.09,0,.07.06A2,2,0,0,1,47,9.85s.08-.06.14,0Zm-12.24.68s-.11,0-.17,0a2.21,2.21,0,0,1-.55-.18s.08,0,.12,0l.6.17ZM53,8.4s-.1,0-.1-.05a1.59,1.59,0,0,1,.75,0,.18.18,0,0,1-.19,0L53,8.4Zm3.8,2.25a.05.05,0,0,1,.05-.05.15.15,0,0,1,.07,0l.47.29a.06.06,0,0,1,0,.07s-.05,0-.07,0a4,4,0,0,1-.56-.34ZM41.31,7.71h.57l.06,0a.06.06,0,0,1,0,.06h-.7s0,0,0-.06l.07,0Z"/><path class="cls-1" d="M65,6.38s0,0-.07,0l-.38.33,0,.07s0,.07,0,.07L65,6.43s0,0,0,0Z"/><path class="cls-1" d="M18.49,9.25c.05,0,0,.1,0,.14l-.33.32a.22.22,0,0,1-.15.08s0-.06,0-.08a4.24,4.24,0,0,1,.49-.46ZM-4.08,8.41c.06,0,.13,0,.15,0-.23.1-.47.19-.7.27,0,0,0-.1.07-.12l.48-.18Zm11.73.64-.53.16s-.11,0-.09,0l0,0A5.12,5.12,0,0,1,7.73,9c0,.05,0,.09-.08.1ZM19.1,8.58l.29-.33a.49.49,0,0,1,.13-.12s0,0,0,0,0,.06,0,.09l-.45.5s0,0,0-.06a.43.43,0,0,1,0-.07ZM-20.21,4.07l.07,0a.06.06,0,0,1,.06,0l-.52.46s0,0,0-.07a.18.18,0,0,1,.05-.07l.38-.33Zm2-1.45a4,4,0,0,1,.57-.32s.12,0,.12,0l-.59.32s-.1,0-.1,0ZM-5.37,9.06c-.18.12-.37.23-.56.34,0,0-.09,0-.1,0s0-.06,0-.07l.48-.28s.12,0,.13,0ZM14,11.65l.59,0s.06,0,.06,0,0,0,0,0a2.15,2.15,0,0,1-.67,0s0-.06.07-.07ZM-6.72,9.92l-.49.34-.07,0s0,0,0,0a6.15,6.15,0,0,1,.52-.37l.06,0a0,0,0,0,1,0,0l0,0Zm-12.13-6.8c-.17.13-.34.26-.52.38s-.11,0-.12,0a3.66,3.66,0,0,1,.5-.38s.12-.05.14,0Zm34.81,8,.08,0s0,0,0,.06a3.4,3.4,0,0,1-.65.29s0-.09.06-.11l.49-.22Zm-11.1-1a2.94,2.94,0,0,1-.66.19s-.06,0-.07,0,0-.06.07-.07l.51-.14s.12,0,.15,0Zm-17.4-4.69.1.5s0,0,0,.07a.09.09,0,0,1-.06.06,5.88,5.88,0,0,1-.14-.73c.05,0,.09,0,.1.1Zm3.83,5.46.61-.22s.11,0,.1,0a2.6,2.6,0,0,1-.58.23c-.05,0-.13,0-.13,0ZM-14.51,2s-.07,0-.11,0l-.61-.2c0-.05.07-.05.11-.05a2.23,2.23,0,0,1,.61.22ZM-.91,8.62c0,.05-.09,0-.13,0l-.43-.16a.32.32,0,0,1-.14-.08s.07,0,.11,0a2.75,2.75,0,0,1,.59.25Zm.69.44c0-.05.09,0,.14,0a5.69,5.69,0,0,1,.52.33s-.06,0-.1,0a5.21,5.21,0,0,1-.56-.34Zm10.8.46-.49-.31a.07.07,0,0,1,0-.08,2.07,2.07,0,0,1,.62.38c0,.05-.07,0-.11,0Zm-4.29,0-.58.26a.12.12,0,0,1-.08,0s0-.05,0-.06l.54-.24s.12,0,.14,0Zm-18.06-.44A2.8,2.8,0,0,1-12,8.46s0-.09,0-.08a0,0,0,0,1,0,0l.19.54s0,.12,0,.13Zm.73,1.19a3.51,3.51,0,0,1-.29-.36s-.05-.11,0-.12l.46.53c-.05.05-.13,0-.17-.05Zm27.83.4.45-.34c.05,0,.12,0,.13,0a4.78,4.78,0,0,1-.5.39l-.06,0s0,0,0,0,0,0,0,0ZM-16.07,1.81l0,.06-.72.16c0-.09.13-.12.22-.14l.48-.08Zm3.24,2.75c-.08-.2-.16-.41-.22-.61a.07.07,0,0,1,0-.06,0,0,0,0,1,.07,0A.07.07,0,0,1-13,4l.15.43c0,.06,0,.15,0,.18Zm.53,2.3c.06.21.1.43.14.64,0,0,0,0,0,.06s-.07,0-.08-.07l-.1-.49s0-.13,0-.14Zm-1.15-3.73-.39-.49a.14.14,0,0,1,0-.06s0,0,0,0a3,3,0,0,1,.35.45s.06.11,0,.14ZM1.16,9.8l.59.25s0,0,0,0-.05,0-.09,0l-.47-.2c-.05,0-.1-.08-.07-.12Zm10.19.26.45.42s0,.08,0,.1-.05,0-.07,0l-.39-.37s0,0,0-.06a.05.05,0,0,1,0-.07Zm-8.62.23.52,0s.09,0,.07.07a1.81,1.81,0,0,1-.73-.06c0-.05.08-.05.14-.05ZM-9.51,11s-.11,0-.17,0a2.19,2.19,0,0,1-.55-.17.08.08,0,0,1,.12,0l.6.16ZM8.65,8.89s-.09,0-.1-.05a1.73,1.73,0,0,1,.75,0s-.12,0-.19,0l-.46,0Zm3.8,2.25s0,0,.05,0l.07,0,.47.29s.05.05,0,.07-.05,0-.07,0a3.22,3.22,0,0,1-.56-.34ZM-3.07,8.21a5.42,5.42,0,0,1,.57,0,.07.07,0,0,1,.06,0,0,0,0,0,1,0,0l-.67,0h0s0,0,0,0a.08.08,0,0,1,.07,0Z"/><path class="cls-1" d="M23.11,4.85a4.71,4.71,0,0,0-.58.32s.07,0,.11,0l.59-.32s0,0-.06,0l-.06,0Z"/><path class="cls-1" d="M21.74,6a3.19,3.19,0,0,0-.5.39s.08,0,.12,0L21.88,6s0,0-.05,0l-.09,0Z"/><path class="cls-1" d="M20.59,6.88a.1.1,0,0,0-.07,0l-.38.33a.18.18,0,0,0-.05.07.05.05,0,0,0,0,.07l.52-.46s0,0-.05,0Z"/></g><g id="Draw_Layer-2" data-name="Draw Layer"><path class="cls-2" d="M147.28,13.93a.2.2,0,0,0-.06-.12.5.5,0,0,1-.08-.2.47.47,0,0,1,.19.34V14a7.37,7.37,0,0,1-.05.82.29.29,0,0,1-.05.18s0,0,0,0,0,0,0,0a1.54,1.54,0,0,0,0-.3l0-.6a.49.49,0,0,0,0-.12v-.06Zm-2.53-2.42a.08.08,0,0,1,.08,0l.38.26s0,.05,0,.07a2.75,2.75,0,0,0-.44-.32l0,0Zm-.2-.11.12.08a.13.13,0,0,1-.11-.05l0,0a1.27,1.27,0,0,1-.23-.12h.06l.16.09,0,0Zm.29.2.26.21.09.09h0l-.38-.31.05,0Zm.57.35s0,0,0,0,0,0,0,0a0,0,0,0,1,0,0,.1.1,0,0,1,0,0l0,0v0s0,0,0,0v0h0v0h0a.18.18,0,0,1,.07.08s0,0,0,0l0,0s0,0,0,0,0,0,0,0a.05.05,0,0,1,0,0,0,0,0,0,0,0,0Zm-1.48-1,0,0h0s0,0,0,0h0L144,11l-.08,0,0,0h0l.08.05Zm.4,1.37-.05,0h0l.2,0,0,0h-.19Zm-.22.06h0a0,0,0,0,1,0,0h0v0h.06a0,0,0,0,1,0,0,0,0,0,0,1,0,0h0s0,0,0,0h0Zm.09,0h0Zm1.11-.47h0a.15.15,0,0,1,0-.07h0l.05,0,0,0Zm-1.17.38h.06s0,0,0,0a.05.05,0,0,0,0,0h0Zm.57-.88-.05,0-.09-.06h0l0,0,.05,0Zm.46,1h0s0,0,0,0h-.07l0,0ZM144,11h0l0,0h0l0,0v0l-.06,0,0,0h0Zm1,.6a.05.05,0,0,1,0,0l0,0h0a.16.16,0,0,1,.08.06Zm.28.36s0,0,0,0h0l0,0h0l0,0Zm-2.51,2.26a.09.09,0,0,1-.06,0h0l0,0Zm1.79-2.91h0l0,0h0l.08.05h0Zm-.64,1h0Zm1-.73,0,0,0,0h0a.12.12,0,0,1,0,0Zm-.14-.09s0,0,0,0,0,0,.06,0,0,0,0,0Zm-1-.59s0,0,0,0h0s0,0,0,0h0Zm.46.37s0,0,0,0,0,0,0,0Zm-1.18,4a0,0,0,0,1,0,0,.06.06,0,0,1,0,0Zm1.29-4a0,0,0,0,1,0,0h0v0h0Zm.68,2.54h0s0,0,0,0,0,0,0,0Zm-.26-2.3,0,0a0,0,0,0,1,0,0Zm-.54-.28,0,0s0,0,0,0Zm0,0h0s0,0,0,0Zm-.53,1.34s0,0,0,0h0l0,0Zm1.58-.49h0s0,0,0,0,0,0,0,0Zm-.72.3h0Zm2.51,1a0,0,0,0,1,0,0h0s0,0,0,0Zm-1.23-1.27v0s0,0,0,0a0,0,0,0,1,0,0Zm-1,1.52h0v0a0,0,0,0,1,0,0Zm-1.74-.51a.06.06,0,0,1,0,0s0,0,0,0Zm.55-2.3h0v0l0,0Zm0,0h0v0l0,0Zm.31,1.44h0Zm-.26.11h0Zm2-.24h0s0,0,0,0Zm-1.7.12h0Zm3.19.79v0h0Zm-4.5,1.13h0s0,0,0,0v0Zm.86-1.58h0Zm.12-.22h0Zm1-.83h0Zm.24.81h0Zm-2.18,1.88h0v0Zm.82-1.7h0v0Zm.62-.27h0Zm2.32.48h0s0,0,0,0Zm-.39,1h0Zm1-.57s0,0,0,0h0Zm-1.14-1h0v0h0Zm-2,.13s0,0,0,0h0s0,0,0,0Zm2.12-.11h0Zm-.38,0v0h0Zm-1.17-.73h0Zm-.34,1h0s0,0,0,0Zm.51,1.21h0Zm-.09-2.13h0s0,0,0,0Zm1.47.7s0,0,0,0v0Zm-1.93.11h0Zm.66,1.34s0,0,0,0,0,0,0,0Zm2.3-.48h0a0,0,0,0,1,0,0Zm-.87-.83h0ZM145,13.7h0a0,0,0,0,1,0,0Zm-.27-2.21h0Zm-.24-.06h0Zm1.1.7a0,0,0,0,1,0,0Zm1,.57v0s0,0,0,0Zm-1.34-.34h0Zm.29-.3h0Zm-.68,1.51h0s0,0,0,0Zm-1.33-.93h0Zm3-.07Zm-2.43-.2Zm-.3.1Zm3.37.86Zm-2.22.3h0Zm-1.29,1.16Zm.54-3.7h0ZM144,12.4h0Zm.56-.08h0Zm.7,0h0Zm.6-.29h0Zm-1.47-.65h0Zm.11,0h0Zm1.56,2.15h0Zm-1.73.09h0Zm.68,0h0Zm.39-1.68h0v0Zm-1.06-.71h0Zm.58,2.34h0Zm-.36-2.2h0Zm1.34.65h0Zm-.88.32h0Zm-1.32,0h0Zm1.59-.07h0Zm-1.08,0h0s0,0,0,0Zm-.64.34h0Zm.5-.35h0s0,0,0,0Zm1.62-.13h0Zm-1.47.12h0Zm.57.21h0Zm-1.21-1.73h0Zm2,2.89v0h0l0,0Zm0,.08s0,0,0,0,0,0,0,0Zm.38.49s0,0,0,0a0,0,0,0,1,0,0s0,0,0,0Zm0,.08h0a0,0,0,0,1,0,0Zm-.35-.67s0,0,0,0h0Zm-.87-.92h0s0,0,0,0l0,0v0Zm.09.05h0v0Zm.74.94h0s-.05,0-.05,0l0,0h0v0Zm-.78-1h0s0,0,0,0,0,0,0,0Zm.07.11h0v0h0Zm0,0h0v0Zm-.21-.16h0Zm0,0h0v0s0,0,0,0Zm.12,0Zm-.57.35h0Zm0,0s0,0,0,0Zm0,0h0Zm0,0h0Zm.07,0Zm-.36.51h0s0,0,0,0h0Zm.17-.36h0l0,0a0,0,0,0,1,0,0Zm-.24.3h0v0s0,0,0,0v0Zm3.37.41-.1.67a.51.51,0,0,1-.1.29l.12-.88a.82.82,0,0,0-.18.33.42.42,0,0,1,0,.12.11.11,0,0,1-.1.06s-.07-.07,0-.1a.18.18,0,0,0-.05-.24,1.14,1.14,0,0,0-.23-.15.51.51,0,0,1-.21-.41.1.1,0,0,0,0,.15l-.06-.09-.13,0a.52.52,0,0,0,.37.36.15.15,0,0,1,.11.16.33.33,0,0,1-.08.19,1,1,0,0,1-.54.38.22.22,0,0,0-.11.05s-.07.08-.09,0,0,.05,0,.06a.06.06,0,0,0,0,.07l0,0c0,.05-.1,0-.11,0a.15.15,0,0,1,0-.14.15.15,0,0,1,0-.17.38.38,0,0,1,.12-.13.11.11,0,0,0-.08,0,.28.28,0,0,0-.13-.21,1.53,1.53,0,0,0-.21-.14.64.64,0,0,1-.24-.32.39.39,0,0,0-.06-.13s-.09-.07-.13,0a.06.06,0,0,0,0-.07l0,.05v-.05l-.07.05a.05.05,0,0,0,0-.08.3.3,0,0,1-.36.06.2.2,0,0,0-.08.12.17.17,0,0,1,0-.14l-.34.7a.2.2,0,0,0,0,.17,1.3,1.3,0,0,1,0,.85s0,.08-.08.09-.08,0,0-.07.05-.16,0-.24l-.16-.47v0h-.05s0,0,0,0a.33.33,0,0,1-.14.19l.13-.07s0,0,0,.06.05,0,0,0l0,.1a.16.16,0,0,0,0-.07.13.13,0,0,1-.05.16h0s0,0,0,0-.12.18-.17.27l0,0a.14.14,0,0,1-.22.1.12.12,0,0,0-.05,0s-.06,0,0,0a.11.11,0,0,0-.08-.12l-.14-.25a.57.57,0,0,1-.1-.51.57.57,0,0,1,.18,0,.21.21,0,0,0-.19,0,.22.22,0,0,0,.09-.1s-.07,0-.07-.06l.09,0c-.05,0-.09-.06-.09-.11a.44.44,0,0,1,0-.15l.09-.16.14,0a.05.05,0,0,0,0,0s0,0,0,0,0,0,0,0a.25.25,0,0,1,0-.17.48.48,0,0,1,.08-.16l.26-.42a.75.75,0,0,1,.19-.24l-.05.08a.41.41,0,0,1,.34-.14l-.11,0a.14.14,0,0,0,.12,0,.08.08,0,0,0-.08,0,.11.11,0,0,1,.12-.05.24.24,0,0,1,0-.12,1.9,1.9,0,0,1,.34,0l.55.08h.13a.32.32,0,0,0,.2-.08l-.11,0,.47.12c-.08,0-.16-.07-.15-.14l.05.08v-.13l.13.16a.29.29,0,0,1-.06-.36s0,0,0,0,0,0,0-.05a.12.12,0,0,0,.11-.08.09.09,0,0,1-.06.1l.09,0a0,0,0,0,0,0,.07s.05,0,.08,0l0,.06a.09.09,0,0,0,0-.08l0,.09.15-.08s0,0,0,0,0,0,0,0l0-.08a.07.07,0,0,1,0,.07s0,0,.06,0,0,0,0,.08v-.07s.05,0,.06,0a.07.07,0,0,1,0-.07l0,.1.06-.05a.13.13,0,0,0,.18,0l0,.06.11,0a.3.3,0,0,0-.08.08,1.14,1.14,0,0,1,.27.55s0,0,0,0l0-.15,0,.06,0-.09v.08l.07-.15v.07l.1-.11a.34.34,0,0,0,0,.17.24.24,0,0,0,0-.14s0,0,0,0a.05.05,0,0,0,0-.05.06.06,0,0,1,0,.09l.09,0a.31.31,0,0,0-.06.13.39.39,0,0,1,.18-.06.57.57,0,0,1,.12.42.16.16,0,0,0-.1.11s0,0,0,0a.78.78,0,0,0,0,.4,1.2,1.2,0,0,1,0,.19Zm-2.18-.92,0,0a.14.14,0,0,0,0,.06.12.12,0,0,0,0-.08Zm.52-.62h0s0,0,0,0v0s0,0,0,0v-.09s0,0,0,0Zm-2.32,1.54s0,0,0,0h0s0,0,0,0h0l0,0h0s0,0,0,0Zm3.31-.15,0,0h0a0,0,0,0,0,0-.06.11.11,0,0,1,0-.08s0,0-.05,0h0a0,0,0,0,1,0,0l0,0s0,0,0,.07l0,.08h0s0,0,0,0a.15.15,0,0,0,.06.05s0,0,0,0l0,0,0,0a0,0,0,0,1,0,0l.08,0s0,0,0,0h0a.82.82,0,0,1-.09-.19s0,0,0,0Zm-.75,0a0,0,0,0,1-.07,0l.06-.06h0a.1.1,0,0,0-.07.07h0l0-.07s0,0,0,0,0,0,0,0h0s0,0,0,0,0,0-.08,0-.05,0,0,.07h0l0-.08a.06.06,0,0,0,0,.09s0,.06,0,.08a.61.61,0,0,0,.05.12l0,.11a.41.41,0,0,0,.19.24h0s0,0,0,0a.08.08,0,0,1,0,0,0,0,0,0,0,0,.05s0,0,0-.05,0,0,0,0h.05s0,0,0,0a.45.45,0,0,1,.13-.11.24.24,0,0,0,.1-.05.44.44,0,0,0-.25-.08s-.08,0-.1-.08a.39.39,0,0,0-.1-.08l0,0s0,0,.05,0,0,0,0,0a0,0,0,0,0-.06,0s0,0-.06,0a.05.05,0,0,1,0,0l0,0a0,0,0,0,0,0,0s0,0,0-.05l0,0h0v0l0,0Zm-.75-1a0,0,0,0,1,0,0s0,0,0,0l0,0a0,0,0,0,1,0,0,.17.17,0,0,0-.14,0h-.15v0a.07.07,0,0,0-.06,0l-.1,0h0s0,0,0,0l.09.1a.13.13,0,0,1,0-.09l0,0v0a0,0,0,0,0,0,0,0,0,0,0,1,0,.06h0l0,0,0,0s0,0,0,0v0a.24.24,0,0,1,.05.1.11.11,0,0,0,.08,0,0,0,0,0,1,0,0,0,0,0,0,1,0,0l0,0a.1.1,0,0,1,.07-.07h0a0,0,0,0,1,0-.06s0,0,0,0l0,0Zm-.9.22h0V13h0s0,0-.05.06h0v0s0,0,0,0v0s0,0,0,0h0l0,0s0,0,0,0h0a.83.83,0,0,1,.08-.12h0v0s0,0-.05,0h0s0,0,0,0l0,0h0s0,0,0,0h0Zm2.15,1.36s0,0,0,0h0l0,0,0,0a.17.17,0,0,0,.06-.06.13.13,0,0,0-.06-.07l-.07-.05s0,0,0,.05a.07.07,0,0,1,0,.06l0,.06v0l0,.05h0v0s0,0,0,0Zm-2.49-.92s0,0,0,0l0,0h0a.06.06,0,0,1,0,0s0,0,0,0a0,0,0,0,0,0,.06h0s0,0,0,0,0,0,0,0,0,0,0,0a.05.05,0,0,0,0,0h0l0,0h0l0,0h0ZM146,14.43h-.11s0,0,0,0,0,0,0,0,0,0,0,0h0l0,0a0,0,0,0,1,0,0s0,0,0,0,0,0,0,0v0h0l0,0Zm-.89-1.93,0,0h0l0,0h-.08a0,0,0,0,0,0,0H145s0,0,0,0h0l.06,0Zm1.88.76a0,0,0,0,1,0,0s0-.08,0-.11a1.64,1.64,0,0,1,0,.23,1.1,1.1,0,0,0,0,.16.11.11,0,0,0,0-.08s0,0,0,0v-.12h0v0Zm-1.43-.66-.08,0h0s0,0,0,0l-.16,0,.11,0,.1,0a.91.91,0,0,1,.17.09.13.13,0,0,0-.07-.05Zm-2.41.64s0,0,0,0,0,0,0,0l0,0a.11.11,0,0,1,0-.08s0,0,0,0,0,0,0,0,0,0,0,.06,0,0,0,0,0,0,0,0v0h0v0Zm.15,0,0,0v0l0,0h0l0,0h0l0,0h-.07a0,0,0,0,1,0,0h0v0h0Zm3.43-.3v0h0a0,0,0,0,0,0,0s0,0,0,0l0,0v0a.13.13,0,0,0,0,.06h0s0,0,0,0a0,0,0,0,1,0,0v0h0a.08.08,0,0,0,0,0Zm-1.73-.2h0l0,0s0,0,0,0h-.05s0,0,0,0,0,0,0,0h0s0,0,0,0,0,0,0,0l0,0,0,0h0Zm.16-.22h0a.15.15,0,0,0,.09,0l.13.05h0l-.08,0-.07,0h-.07Zm-1.14.48a.05.05,0,0,1,0,0h0s0,0,0,0a.09.09,0,0,0,0,.05h0a0,0,0,0,0,0,0v0h0Zm1.15-.38a.19.19,0,0,0,.08,0s0,0,0,0a.06.06,0,0,0,.06,0h.06l-.09,0-.08,0s0,0-.05,0Zm-2.25,1.07h0s0,.07,0,.11h0s0,0,0,0l0-.05h0Zm1.79-1h0l0,.06,0,0s0,0,0,0,0,0,0,0v0h0l0,0a.07.07,0,0,1,0-.06l0,0Zm-1-.07h-.07l0,0s0,0,0,0,0,0,0,0,0,0-.05,0h0s0,0,0,0Zm.61.09h0a0,0,0,0,1,0,0h0l0,0h0s0,0,0,0v0h0s0,0,.05,0Zm1.95.75h0l0,0,0-.06h0l0,.07Zm-3.42.8h0s0,0,0,0h0l.05,0h-.08s0,0,0,0Zm3.9-.36.05,0,.05-.05-.05,0a.1.1,0,0,0-.05,0s0,0,0,0Zm-2.63-.44h0a.39.39,0,0,0,.08-.1,0,0,0,0,0,0,0,.1.1,0,0,0,0,.05.1.1,0,0,1,0,.06Zm.23-.76a.09.09,0,0,0,0,.07l0,0a.06.06,0,0,0,0,0s0,0,0-.05Zm0,.55,0,0,0,0h0l.09-.09Zm-1.18.47h0a.07.07,0,0,0,0,0h0l0,0s0,0,0,0Zm2.49-1.47s0,0,0,0a.14.14,0,0,0,0,.07s0,0,0,0a0,0,0,0,0,0,.05,0,0,0,0,0,0,0s0,0,0,0,0,0,0-.05Zm-1.28.61a0,0,0,0,0,0,0,.23.23,0,0,1-.07.1s0,0,0,0l0,0s0,0,0,0Zm-.51.24s0,0,0,0,0,0,0,0a0,0,0,0,0,0,.06s0,0,0,0l0,0h-.05Zm2.8-.17h0v0s0,0,0,0h0a.07.07,0,0,0,0,.06Zm-3.5.74,0,0s0,0,0,0h0s0,0,0,0,0,0,.05,0h0Zm2.11-1s0,0,0,0l.08,0h-.06l0,0Zm-1.48,1.46v0a0,0,0,0,0,0,0,0,0,0,0,0,0,0v0a0,0,0,0,0,0,0,.11.11,0,0,0,0,.05Zm2-.59,0,.06h0a.07.07,0,0,0,0-.06Zm-2.85.36a0,0,0,0,1,0,0h0s0,0,.05,0H143a0,0,0,0,0,0,0Zm.08-.19s0,0,0,0a0,0,0,0,0,0,0h0s0,0,0,0Zm3.33-1.2a.25.25,0,0,0,0-.12h0l0,.13ZM146,13a.07.07,0,0,0,0-.06h0a0,0,0,0,0,0,0l0,0Zm-3,.79h0v0h0s0,0,0,0v0h0v0s0,0,0,0Zm.47-.41v0s0,0,0,0l0,0h0Zm2.27.22h0l0-.08h0a.08.08,0,0,0,0,.05,0,0,0,0,1,0,0Zm-2.48-.39s0,0,0,0,0,0,0,0v0s0,0,0,0v0l0,0Zm.73-.07v0s0,0,0,0h0s0,0,0,0h0s0,0,0,0Zm.28-.39s0,0,0,0h0l.05,0s0,0,0,0a.13.13,0,0,0-.08,0Zm2-.52h-.06s.05,0,.06,0Zm-2.79,2.64a0,0,0,0,0,0,0h0s0,0,0,0Zm3.28-2.17a.05.05,0,0,0,0,0l0,0h0a.2.2,0,0,0,0,.08Zm-1.06,2v0l.06-.06h0l0,0Zm.54-1.56s0,0,0,0l-.06,0a0,0,0,0,0,0,0,.12.12,0,0,0,.05,0ZM144.07,13s0,0,0,0l0,0s0,0,0,0,0,0,0,0Zm2.87.54h0l0,.07,0,0s0,0,0,0h0Zm-2.88.1,0,0v0h0l0,.06s0,0,0,0a.05.05,0,0,0,0,0Zm-.81.34h0l0,0,0,0Zm.32-1.23-.06,0h0s0,0,0,0h0s0,0,0,0l0,0Zm2-.46.07,0h0l-.08-.05ZM143,13.87h0s0,0,0,0,0,0,0,0v0h0Zm1.92-1h0s0,0,0,0v0l0,0Zm-1.9.92h0s0,0,0,0Zm2-1.08h0l0,0Zm-1.43,2.09v-.05s0,0,0,0a.09.09,0,0,0,0,0v0Zm3.13-1.21v.08h0s0,0,0-.07Zm-2.14-.68,0-.06h0a.11.11,0,0,0,0,.08s0,0,0,0Zm.94-.49s0,0,0,0a0,0,0,0,1,0,0h0a.13.13,0,0,0,0,.06Zm-1.26.14-.05-.05h0l.06,0Zm1.23-.07,0-.07s0,0,0,0l0,.09Zm-1.68,0s0,0,0,0l0,0h0s0,0,0,0l0,0Zm3.11,1.1v.07h0v0s0,0,0,0Zm-1.31-.08h0l0,.07a.1.1,0,0,0,0-.06Zm-2,1h0v0s0,0,0,0l0-.06Zm.21-.4v0a0,0,0,0,0,0,0v0a0,0,0,0,0,0,0Zm1.64-1.91v0h0v0h0l0-.07Zm-1.67.49s0,0,0,0h0a0,0,0,0,0,0,0h0Zm.47-.08h0Zm0-.08,0,0h0l0,0a0,0,0,0,0,0,0Zm-.34.24h0Zm-.31.37a.22.22,0,0,0,0-.08.29.29,0,0,0,0,.09Zm.3,1.37h0s0,0,0,0h0s0,0,0,0Zm1.73-2.38,0,0h0l0,0h0Zm-2.62,1.69s0,0,0,0h0s0,0,0,0h0s0,0,0,0Zm3-1.66a.05.05,0,0,0,0,0,.07.07,0,0,0,0-.05s0,0,0,0Zm-.26,1.42,0-.07s0,0,0,0l0,.07Zm-1.79-1.11h0s0,0,0,0Zm1.93.65a.13.13,0,0,0,0,.06v-.07s0,0,0,0Zm-.73-.69,0,0h0Zm1.5.86h0a.11.11,0,0,0,0-.08s0,0,0,.07Zm-3.38-.05v0s0,0,0,0a0,0,0,0,0,0,0Zm.19,0h0s0,0,0,0h0v0Zm-.33.44a0,0,0,0,0,.06,0H143Zm3.39-1,0,0a.07.07,0,0,0,0,0h0Zm-.3.32,0,0h0a.05.05,0,0,0,.05,0Zm-2-.41h.06l0,0,0,0Zm1.32-.51h0l0,0s0,0,0,0Zm-1.5.72h0v0h0s0,0,0,0h0a0,0,0,0,0,0,0Zm-.17-.18h0Zm2.77.9a.12.12,0,0,0,.05,0h0s0,0-.06.06Zm-1.95-.82s0,0,0,0v0s0,0,0,0v-.05Zm2,.23h0a.06.06,0,0,0,0,0h0v0h0Zm-3.29.31,0,0h0s0,0,0,0l0,0Zm.36-.57a0,0,0,0,0,0,0v0l0,0Zm-.31.19v0h0l0,0h0Zm.91-.28a0,0,0,0,0,0,0h0s0,0,0,0Zm.44.29s0,0,0,0l0,0,0,0Zm1.26-.74h0a.06.06,0,0,0,0,.07l0-.06Zm-.21,1.38,0,0v0a.08.08,0,0,0,0,0Zm-.61-.82h-.06a.12.12,0,0,0,.08,0Zm-1.24-.3a.07.07,0,0,0,0,0h0s0,0,0,0Zm-.68.9h0s0,0,0,0Zm3.76.08h0l0,0v0h0s0,0,0,0Zm-3.87-.16s0,0,0,0h0Zm2.34-.89a.19.19,0,0,0,0-.07h0l0,.07Zm-2.3.93h0s0,0,0,0a.05.05,0,0,0-.05,0Zm2-.84h0l0,0,0,0Zm-.11.39,0,0h0s0,0,0,0Zm-.5.12a.08.08,0,0,0,0,0h0s0,0,0,0Zm1.14.36a.09.09,0,0,0,0,.06s0,0,0-.06Zm.23-.24a.08.08,0,0,0,0,0h0a.08.08,0,0,0,0,0Zm-2.68.7h0l0,0h0l0,0Zm2.65-.69h0a.08.08,0,0,0,0,0v0Zm-.23.19,0,.06h0l0-.06Zm-2.47.55h0v0h0a0,0,0,0,0,0,0Zm3.42-.69,0,0s0,0,0,0Zm-3.22.1,0,0h0a0,0,0,0,0,0,0Zm.11,1.51v0l0,0v0l0,0Zm2.41-2.61h0v0Zm-2.92,1.37h0l0,0v0h0s0,0,0,0ZM146,13a.14.14,0,0,0,0,.07.14.14,0,0,0,0-.07Zm-2.53,1.76h0s0,0,0,0v0h0Zm3.57-1v0h0s0,0,0,0l0,0Zm-.49-.61h0s0,0,0,0v0Zm-3.74,1h0l0,0a0,0,0,0,0,0,0Zm1.57-1.12s0,0,0-.06h0l0,.05s0,0,0,0Zm.23-.16h0l0,0a.08.08,0,0,0,0,0Zm-1.07,1.79a.08.08,0,0,0,0-.05h0s0,0,0,.06Zm2.73-1h0v0Zm-1.92-.69a.14.14,0,0,0,0-.06.07.07,0,0,0,0,.06ZM143.24,13h0l0,0,0,0Zm.25.44v0s0,0,0,0l0,0Zm.89-.14,0,0a0,0,0,0,0,0,0Zm1.11-1v0h0a.07.07,0,0,0,0,0Zm-2,2.41h0l0,0h0l0,0Zm-.22-1.38,0,0h0s0,0,0,0,0,0,0,0Zm1.18-.25h0a.05.05,0,0,0,0,0,0,0,0,0,1,0,0Zm.75-.16h0l0,0Zm-.76-.33h0s0,0,0,0a0,0,0,0,0,0,0ZM144,13.68s0,0,0,0a0,0,0,0,0,0,0Zm2.37.19h0s0,0,0,0,0,0,0,0Zm-1.72-.53.06,0-.06,0Zm-.56-.77h0Zm2.07-.28s0,0,0,0h0Zm-.25.44a0,0,0,0,0,0,0h0l0,0Zm-.88.19h0V13s0,0,0-.05Zm1.2-.67h0s0,0,0,0h0Zm-2.66,2.37s0,0,0,0a.06.06,0,0,0,0,0Zm.17-2h0s0,0,0,0Zm2.28.83a0,0,0,0,0,0,.05,0,0,0,0,0,0-.05Zm.9.19v0a.09.09,0,0,0,0,.05v0Zm-1.59-.71s0,0-.05,0Zm.17-.59h0s0,0,0,0h0s0,0,0,0Zm1.33.31s0,0,0,0,0,0,0,0Zm-1.19-.19h0Zm-2.54,1.35h0s0,0,0,0h0Zm2.19-.46a.08.08,0,0,0,0,0,.08.08,0,0,0,0,0Zm.06-1.13s0,0,0,0a0,0,0,0,0,0,0v0Zm.07,1.35,0,0a.08.08,0,0,0,0,0l0,0ZM143,13.7h0s0,0,0,0v0Zm1-.7h0Zm-.08-.29,0,0h0a0,0,0,0,0,0,0Zm-.3,1.82s0,0,0,0v0a.08.08,0,0,0,0-.05Zm1.91-1.41,0,0s0,0,0,0l0,0Zm-.44.51v0s0,0,0,0,0,0,0,0Zm.85-.14v0a.05.05,0,0,0,0,0Zm.27-.47.05,0a.05.05,0,0,0-.05,0Zm.14-.66h0a0,0,0,0,0,0,0Zm-1.38,1,0,0a0,0,0,0,0,0,0Zm0-.47v0s0,0,0,0,0,0,0,0Zm1.48,1h0l0,0h0Zm.11-.79s0,0,0,0l0,0,0,0Zm-.43-.87h0l0,0h0s0,0,0,0Zm-2.24.95h0v0l0,0Zm-.11.85h0s0,0,0,0l0,0Zm2.57-.22s0,0,0,0h0s0,0,0,0Zm-1.71-.91v0h0v0ZM146,13h0s0,0,0,0v0Zm-3.18,1.3h0s0,0,0,0Zm1.6-1.75h0s0,0,0,0Zm1.13-.24a.06.06,0,0,0,0,0v0Zm-1.87,2.23s0,0,0,0a0,0,0,0,0,0,0Zm-.61-1.28s0,0,0,0,0,0,0,0Zm3.73-.58v0l0,0h0Zm.31.52h0v0s0,0,0,0Zm-3.59,1.29h0a0,0,0,0,0,0,0s0,0,0,0ZM144,13h0Zm2,.17h0s0,0,0,0l0,0Zm.07-.86h0ZM146,13.51s0,0,0,0l0,0Zm-.57-.15h0l0,0Zm-.62,0h0v0h0Zm-1.36,0h0v0Zm3.23.26h0v0l0,0Zm-3.27-.77s0,0,0,0h0s0,0,0,0Zm2.81-.66h0s0,0,0,0Zm-1.17.53h0s0,0,0,0Zm-1.29,0s0,0,0,0l0,0Zm1.61-.5h0v0h0v0ZM143,14.43h0v0Zm1.38-.92s0,0,0,0,0,0,0,0Zm2.63-.22v0a0,0,0,0,0,0,0Zm-.08.26h0s0,0,0,0,0,0,0,0Zm-2.11-.6h0s0,0,0,0Zm1.28-.67v0s0,0,0,0Zm-.56.24v0h0a.06.06,0,0,0,0,0Zm-.19-.39h0l0,0s0,0,0,0Zm-2.47,1.74h0v0h0Zm.94-1h0s0,0,0,0h0Zm-.66.38,0,0,0,0Zm2.46-.73v0a.43.43,0,0,1,0,0s0,0,0,0Zm-1.09.56h0s0,0,0,0h0Zm-1,.5v0s0,0,0,0,0,0,0,0Zm2.25,1h0ZM143,14.4v0h0v0Zm.63.06h0s0,0,0,0a0,0,0,0,0,0,0Zm-.2.38h0l0,0v0Zm.31-2.17h0Zm1,.29h0l0,0a0,0,0,0,0,0,0Zm-1.22,1.2,0,0s0,0,0,0Zm.11-.06s0,0,0,0h0v0Zm-.09-1.39a0,0,0,0,0,0,0l0,0Zm2.53-.41h0s0,0,0,0Zm.3,1.11a0,0,0,0,0,0,0l0,0Zm-2.58-.61a0,0,0,0,0,0,0h0Zm2.77.54h0s0,0,0,0Zm-3.23.09h0l0,0Zm2.86-1.08h0Zm-2.67,1.76h0s0,0,0,0,0,0,0,0Zm2.77-.42h0s0,0,0,0h0v0Zm-3.32.69h0s0,0,0,0,0,0,0,0Zm2.85.17s0,0,0,0,0,0,0,0Zm-1.36-1.64,0,0s0,0,0,0Zm1,.71s0,0,0,0l0,0Zm-.88-.74a0,0,0,0,0,0,0,0,0,0,0,0,0,0v0Zm-1.14,0h0l0,0Zm0-.11h0Zm.4.68h0v0h0Zm-1.05.75v0Zm1.66-1.07h0a0,0,0,0,0,0,0s0,0,0,0Zm-1.35,1.2s0,0,0,0a0,0,0,0,0,0,0s0,0,0,0Zm4-.87h0s0,0,0,0Zm-3-.39h0Zm-.37-.43h0Zm-.47,2.53v0a0,0,0,0,0,0,0Zm-.39-1,0,0,0,0Zm.19.19h0Zm.36-1h0v0h0Zm.8-.81h0l0,0Zm2.1-.27h0s0,0,0,0Zm.18.4s0,0,0,0h0s0,0,0,0Zm-2.58.44,0,0,0,0Zm3.21.17v0s0,0,0,0Zm-4.21.57h0Zm1.1-1h0Zm1.85.64h0v0s0,0,0,0Zm.27-.05v0a0,0,0,0,0,0,0Zm-3.27,1.33s0,0,0,0,0,0,0,0Zm1.49-2h0s0,0,0,0Zm1.2.37a0,0,0,0,0,0,0h0Zm-2.07.47v0a0,0,0,0,0,0,0Zm2.27-.55h0a0,0,0,0,0,0,0s0,0,0,0ZM144,12.74s0,0,0,0Zm-.91,1.15a0,0,0,0,0,0,0h0Zm1.38-.83h0v0Zm1.14-.58v0a0,0,0,0,0,0,0Zm.68.15h0s0,0,0,0v0Zm.19,0s0,0,0,0l0,0Zm-3.15,1.85s0,0,0,0l0,0Zm-.17-.41h0s0,0,0,0Zm-.08,0h0Zm1-1.25s0,0,0,0,0,0,0,0Zm-.52.75h0a0,0,0,0,0,0,0Zm.77-.8h0Zm.68.28a0,0,0,0,0,0,0,0,0,0,0,0,0,0Zm1-.85,0,0h0Zm.33.24s0,0,0,0l0,0Zm-.27.69v0s0,0,0,0Zm-2.54.35v0Zm.43-.42h0Zm1,.15v0h0s0,0,0,0Zm.45.05v0h0Zm.24-.78s0,0,0,0,0,0,0,0Zm-2.09,2.34h0s0,0,0,0Zm2.34-1.2h0Zm-.3-1.23h0s0,0,0,0Zm-.19,1.06h0l0,0Zm-1.84-.58h0Zm-.18,2.05s0,0,0,0,0,0,0,0Zm0-1h0s0,0,0,0Zm.11.88a0,0,0,0,0,0,0,0,0,0,0,0,0,0Zm1.7-1.15s0,0,0,0,0,0,0,0Zm-.83-1h0ZM146.54,14v0s0,0,0,0Zm-3,.1h0a0,0,0,0,0,0,0Zm.15-1.21h0Zm2.06.52h0s0,0,0,0v0Zm-2.23-.59h0Zm1.09,0h0ZM143.08,14s0,0,0,0v0Zm.31.91h0s0,0,0,0Zm3-1.31h0s0,0,0,0Zm-2.11-.7s0,0,0,0h0Zm.69.72v0s0,0,0,0Zm1.23.52h0v0h0Zm.84-.78s0,0,0,0v0Zm-3.55-.46s0,0,0,0,0,0,0,0a0,0,0,0,0,0,0Zm.79,0h0Zm2.21,1.07v0s0,0,0,0Zm-.87-.84v0s0,0,0,0Zm.5.36v0s0,0,0,0Zm-.05.94s0,0,0,0,0,0,0,0Zm-.25-2.1s0,0,0,0h0Zm-.23,1,0,0a0,0,0,0,0,0,0Zm-1.75-.55h0Zm-1,1.2h0Zm.55,1h0v0Zm2.12-2.7v0l0,0Zm-.45.33h0Zm-1.33,2s0,0,0,0v0Zm.61-1.84h0s0,0,0,0Zm2.09-.08s0,0,0,0h0Zm-3.5,1.79h0Zm.78-.89h0a0,0,0,0,0,0,0ZM146,12.38a0,0,0,0,0,0,0s0,0,0,0Zm-2.2.31h0Zm-.16,1.7a0,0,0,0,0,0,0v0Zm2.52-2h0Zm-2.93,1.09h0Zm.3,1.37h0s0,0,0,0Zm1.87-2.17h0Zm.54.31s0,0,0,0,0,0,0,0Zm-2.47,1.48v0Zm1-1h0Zm.39-.43,0,0,0,0Zm.87.18v0h0Zm-2.17,1.3v0s0,0,0,0Zm-.09.27h0Zm2.23-1.51h0Zm-1-.41h0Zm-.56-.12h0Zm-.94,1.74h0s0,0,0,0h0Zm3.8-.62h0v0Zm-3.31.69h0Zm-.81-.64s0,0,0,0a0,0,0,0,0,0,0Zm2.92-.26h0ZM143.4,13h0a0,0,0,0,0,0,0Zm2.91-.24h0Zm-3.59,1.63h0Zm3.34-.46h0Zm-.45-1.4s0,0,0,0h0Zm-2.11,1h0s0,0,0,0Zm1-.83h0s0,0,0,0,0,0,0,0Zm-.69,0h0s0,0,0,0Zm.28.2h0Zm1.59.46h0a0,0,0,0,0,0,0Zm.56.34h0Zm-1-.69v0s0,0,0,0Zm1.06-.57Zm-2.47.28h0ZM143,14.34h0Zm.5-.89h0v0Zm2-.07h0Zm-.84-.5s0,0,0,0v0Zm.28,0h0Zm0,0h0Zm.32.75h0s0,0,0,0Zm-2.41.81h0Zm2.62-1v0s0,0,0,0Zm-2.66.93h0v0Zm3.53-.85h0Zm.75.34h0Zm-3.85,0h0Zm2.09-1.48h0s0,0,0,0Zm-.91.79h0Zm1.18-1h0v0Zm-1.66.6h0Zm2,.48h0Zm.18,1.11h0ZM143.51,14s0,0,0,0v0Zm-.44-.07h0Zm0,0h0Zm1.12-1.49h0Zm2.67.25a0,0,0,0,0,0,0,0,0,0,0,0,0,0Zm-3.12.85h0Zm.13-.91h0Zm2.27.51h0s0,0,0,0Zm-.63-.52h0s0,0,0,0Zm.89-.17h0Zm-1.41.25h0Zm.38.68h0Zm-2,1.1h0ZM144.61,13h0v0Zm1.06,1.7h0Zm-1.78-1.86Zm1.89.65v0s0,0,0,0ZM144.05,13h0s0,0,0,0Zm.17-.27h0Zm2,.8h0Zm-2.2.18s0,0,0,0,0,0,0,0Zm2.24,0h0v0s0,0,0,0Zm-2.44-1s0,0,0,0h0Zm1.56-.22s0,0,0,0ZM143.42,14h0Zm.49-.86h0Zm3.07.18a0,0,0,0,0,0,0h0Zm-3.84.66a0,0,0,0,0,0,0,0,0,0,0,0,0,0Zm1-1.26h0a0,0,0,0,0,0,0Zm.29.17s0,0,0,0,0,0,0,0Zm-1.26,1h0Zm3.16-1.18Zm0-.43s0,0,0,0ZM144,13h0Zm1.69.28h0Zm-2,.9s0,0,0,0Zm.12-1.4h0Zm-.1.06a0,0,0,0,0,0,0,0,0,0,0,0,0,0Zm-.15.71h0Zm-.07,1h0ZM147,13.39h0s0,0,0,0Zm-.85-.38s0,0,0,0,0,0,0,0Zm-2.32.62h0Zm-.14.86s0,0,0,0Zm2.86-1.35h0s0,0,0,0Zm.7-.07s0,0,0,0Zm-3.34-.22h0Zm-.07,0Zm3.07.67s0,0,0,0v0Zm-2.11-.09h0Zm-1.17-.69h0s0,0,0,0Zm3.53.36h0s0,0,0,0Zm-.88-.58h0Zm.36,1.08h0Zm.54-.53h0Zm-4,.26h0Zm3.55-.34h0s0,0,0,0Zm-3.53.26h0Zm2.25-1.06Zm-1.81,2.24v0s0,0,0,0Zm2.76-1.93h0Zm-3,2.43h0Zm2.21-2.21s0,0,0,0,0,0,0,0Zm-1.89-.12h0Zm-.34,1.88v0a0,0,0,0,0,0,0Zm2.39-.91h0Zm-2.92.68h0Zm.53-.84h0ZM146,12.26h0ZM144,13h0s0,0,0,0Zm-.33-.29h0s0,0,0,0Zm.25-.3h0Zm.82.48h0Zm.1.34h0Zm-.89-.5h0Zm-.11.38h0Zm1.92-.88Zm.22.87h0Zm-1.13.17h0Zm2.21,0h0Zm-1.55-.79ZM144,13.64Zm.59-.82s0,0,0,0Zm.13.24Zm1.79-.44h0s0,0,0,0ZM145,12.8h0Zm-.72,0h0Zm-1.55,1.86h0Zm1.12-2.17h0Zm-.7,1.28h0Zm.47.78h0s0,0,0,0Zm2.65-1.14h0Zm-.64.05v0Zm-2.65.22h0Zm.4-.26h0Zm-.06,0h0Zm3.77-.29Zm-3.49.27h0Zm.86-.84h0Zm-.84,2.12h0s0,0,0,0Zm2-1.22h0Zm-2.52.43Zm2.08-1.15h0Zm.79-.37h0Zm-2.62.91h0Zm1.37-.45h0s0,0,0,0Zm2.36.38Zm-.92-.77h0Zm-2.34.76Zm1.73-.09h0Zm-1.68-.25h0Z"/></g><g id="Draw_Layer-3" data-name="Draw Layer"><path class="cls-3" d="M143.58,10.74h0Z"/><polygon class="cls-3" points="143.59 10.74 143.59 10.75 143.59 10.74 143.59 10.74 143.59 10.74 143.59 10.74"/><path class="cls-3" d="M143.68,10.81h0l0,0v0Z"/><path class="cls-3" d="M143.7,10.83h0l0,0v0Z"/><path class="cls-3" d="M143.74,10.83h0s0,0,0,0h0s0,0,0,0Z"/><path class="cls-3" d="M143.79,10.87h.05l0,0,.08,0,.05,0h0l0,0,.06,0v0l0,0h0l0,0H144l0,0h0l-.08-.05h0Z"/><path class="cls-3" d="M144.17,11.09Z"/><path class="cls-3" d="M144.2,11.15l0,0s0,0,0,0Z"/><path class="cls-3" d="M144.3,11.19h0s0,0,0,0Z"/><path class="cls-3" d="M144.35,11.22h0v0h0a0,0,0,0,0,0,0h0Z"/><path class="cls-3" d="M144.28,11.27s0,0,0,0a.05.05,0,0,0,0,0Z"/><path class="cls-3" d="M144.46,11.27l0,0s0,0,0,0a0,0,0,0,0,0,0h0l-.08-.05h0Z"/><path class="cls-3" d="M144.34,11.27h0Z"/><path class="cls-3" d="M144.29,11.28a1.27,1.27,0,0,0,.23.12s0,0,0,0a.13.13,0,0,0,.11.05l-.12-.08,0,0-.17-.09h-.06Z"/><path class="cls-3" d="M144.57,11.33l.09.06.05,0s0,0,0,0,0,0,0,0l-.06,0-.05,0a.1.1,0,0,1,0,0h0Z"/><path class="cls-3" d="M144.39,11.4h0Z"/><path class="cls-3" d="M144.57,11.41h0Z"/><path class="cls-3" d="M144.49,11.43h0Z"/><path class="cls-3" d="M144.62,11.43h0Z"/><path class="cls-3" d="M144.52,11.44h0Z"/><path class="cls-3" d="M144.68,11.45v0h0v0Z"/><path class="cls-3" d="M144.81,11.48l0,0a0,0,0,0,0,0,0Z"/><path class="cls-3" d="M144.82,11.5l0,0,0,0h0l0,0a.05.05,0,0,0,0,0,.16.16,0,0,0-.08-.06h0a.12.12,0,0,0,0,0h0Z"/><path class="cls-3" d="M144.74,11.5h0Z"/><path class="cls-3" d="M144.75,11.51h0l0,0a3.54,3.54,0,0,1,.44.32s0,0,0-.07l-.38-.26-.06,0Z"/><path class="cls-3" d="M144.77,11.56h0l0,0Z"/><path class="cls-3" d="M145.17,11.89h0a.76.76,0,0,0-.09-.09l-.26-.21-.05,0,.38.31Z"/><path class="cls-3" d="M145.27,11.83a.15.15,0,0,0,0,.07h0s0,0,0,0l-.05,0h0s0,0,0,0Z"/><path class="cls-3" d="M145.34,11.87v0s0,0,0,0v0l0,0a.1.1,0,0,0,0,0,0,0,0,0,0,0,0s0,0,0,0,0,0,0,0a0,0,0,0,1,0,0,.05.05,0,0,0,0,0s0,0,0,0,0,0,0,0l0,0s0,0,0,0a.18.18,0,0,0-.07-.08h0v0h0Z"/><path class="cls-3" d="M145.26,12s0,0,0,0a.05.05,0,0,1,0,0h0a.07.07,0,0,0,0,0Z"/><path class="cls-3" d="M145.41,12h0v0Z"/><path class="cls-3" d="M145.5,12h0v0l0,0Z"/><path class="cls-3" d="M145,12.43a.32.32,0,0,1-.21.08h-.12l-.55-.08a1.93,1.93,0,0,0-.34,0,.24.24,0,0,0,0,.12.15.15,0,0,0-.13,0l.09,0a.15.15,0,0,1-.12,0l.11,0a.42.42,0,0,0-.34.13l.05-.07a.75.75,0,0,0-.19.24c-.09.13-.18.27-.26.41a.65.65,0,0,0-.08.17.25.25,0,0,0,0,.17s0,0,0,0a0,0,0,0,0,0-.06s0,0,0,.06l-.09,0,.06,0v0h0v0h0v0h0v0h.09v0l0,0h0l.07,0h0s0,0,0,0h0l.13.08h0l0,0h0l0,0h0l.08.06h0l.05,0,0,0h0s0,0,.06.07a.15.15,0,0,1,0,.13h0a0,0,0,0,1,0,0h0s.07.09,0,.14h0v0h0s0,0,0,.05h0l0,0c.05.16.1.31.16.47s0,.19,0,.23,0,.09,0,.08.06,0,.08-.09a1.3,1.3,0,0,0,0-.85.21.21,0,0,1,0-.17c.11-.22.21-.45.32-.67a.21.21,0,0,0,0,.11.2.2,0,0,1,.08-.12.29.29,0,0,0,.36-.07.05.05,0,0,1,0,.08.15.15,0,0,0,.06-.05.14.14,0,0,1,0,.06s0,0,0-.06,0,.06,0,.07a.11.11,0,0,1,.13,0,.59.59,0,0,1,.06.14.68.68,0,0,0,.23.32c.07.05.15.08.22.14a.27.27,0,0,1,.13.21.12.12,0,0,1,.08,0,.41.41,0,0,0-.12.14.15.15,0,0,0,0,.17.19.19,0,0,0,0,.14.06.06,0,0,0,.06,0,.08.08,0,0,1,0-.06.06.06,0,0,1-.05-.06s.07,0,.1-.06.07,0,.11-.05a1,1,0,0,0,.54-.37.36.36,0,0,0,.08-.19.15.15,0,0,0-.11-.16.5.5,0,0,1-.37-.36h-.19a.05.05,0,0,1,0,0h0a.05.05,0,0,0,0,0h-.08l-.06.06a0,0,0,0,0,.07,0l0,0v0h0l0,0a.05.05,0,0,1,0,0,0,0,0,0,1,0,.05s0,0,0,0a.05.05,0,0,0,0,0,.07.07,0,0,1,.06,0,0,0,0,0,1,.06,0,0,0,0,0,1-.05,0s0,0,0,0l0,0a.24.24,0,0,1,.09.08s.06.09.11.08a.44.44,0,0,1,.25.08l-.11.05a.41.41,0,0,0-.12.11s0,0,0,0h-.05a0,0,0,0,0,0,0s0,.05,0,.05a0,0,0,0,1,0-.05s0,0,0,0,0,0,0,0h0a.37.37,0,0,1-.19-.25.38.38,0,0,1,0-.1.61.61,0,0,1-.05-.12s0-.05,0-.08a.08.08,0,0,1,0-.1.29.29,0,0,1,0,.09h0s0-.06,0-.08,0,0,.07,0H145a.26.26,0,0,1-.12-.05l0,0a.08.08,0,0,0,0-.05V13.3a2.81,2.81,0,0,1,0-.29v-.07h0a.11.11,0,0,0,0,0v0s0,0,0,0l0,0h0a0,0,0,0,0,0,0,.13.13,0,0,1-.08,0,.31.31,0,0,0-.05-.1v0s0,0,0,0l0,0,0,0h0a.06.06,0,0,0,0-.06s0,0,0,0,0,0,0,0l0,0a.11.11,0,0,0,0,.09l-.09-.1s0,0,0,0h0l.1,0a.07.07,0,0,1,.06,0v0h.16a.14.14,0,0,1,.13,0v0a.41.41,0,0,0,.05-.09h-.12a0,0,0,0,1,0,0H145s0,0,0,0h0v0l-.14,0,.11,0Zm-1.06,0Zm.2,0h0Zm-.35.05h0Zm0,0a.09.09,0,0,1,0,0l0,0Zm0,0s0,0,0,0a.05.05,0,0,0,0,0s0,0,0,0h0Zm.31,0,0,0h0l0,0s0,0,0,0Zm-.25,0h0Zm.37.05-.06,0s0,0,0,0h0l.06.05h0Zm-.43,0h0s0,0,0,0Zm.58,0h0s0,0,0,0Zm-.24,0h0Zm-.05,0h0Zm.38,0h0Zm0,0s0,0,0,0h0Zm-.31,0h0s0,0,0,0h0Zm-.39,0h0Zm.09,0h0Zm.65,0s0,0,0,0l0,0Zm-.17,0h0l0,0Zm-.13,0h0a0,0,0,0,1,0,0h0a0,0,0,0,1,0,0Zm-.41,0h0Zm-.23.06h0s0,0,.05,0,0,0,0,0,0,0,0,0l0,0h0s0,0,0,0h0Zm.3-.06h0s0,0,0,0h0v0Zm.3,0,0,0h-.06l0,0Zm-.42,0h0Zm-.07,0h0s0,0,0,0Zm.6,0h0Zm-.51,0h0Zm0,0h0Zm-.29,0,0,0s0,0,0,0h0Zm.36,0h0l0,0h0a0,0,0,0,1,0,0Zm.28,0h0Zm-.44,0v0h0s0,0,0,0a0,0,0,0,1,0,0h0Zm.47,0h0s0,0,0,0h0s0,0,0,0Zm-.48,0s0,0,0,0Zm.13,0h0Zm.79,0,0,0h0s0,0,0,0Zm-.4,0h0Zm0,0h0Zm-.73,0s0,0,0,0h0l.06,0,0,0s0,0,0,0h0Zm.14,0s0,0,0,0v0l0,0Zm.19,0h0Zm.14,0h0Zm-.21,0Zm-.09,0,0,0s0,0,0,0h0Zm.29,0h0s0,0,0,0Zm-.36,0s0,0,0,0Zm.6,0h0a.11.11,0,0,1,.07,0h0l-.05,0h0Zm-.68,0h0Zm.29,0h0Zm.49,0h0s0,0,0,0Zm-.38,0Zm.82.12v0l0,0a.25.25,0,0,0,0-.07h0l0,0a.07.07,0,0,0,0,.06l0,0h0v0s0,0,0,0Zm-.74-.12v0s0,0,0,0Zm.19,0,0,0h0s0,0,0,0h0s0,0,0,0h0l0,0Zm-.53,0a0,0,0,0,1,0,0h0a0,0,0,0,1,0,0Zm1,0s0,0,0,0v.05s0,0,0,0a0,0,0,0,1,0,0Zm-1.22,0h0a0,0,0,0,1,0,0h0Zm.93.06a.09.09,0,0,1,0-.07l0,0a0,0,0,0,1,0,.05l0,0Zm-.59,0s0,0,0,0h0Zm.14,0h0Zm.66,0h0Zm-1,0h0Zm.8,0h0Zm.43,0h0Zm-.45,0h0Zm-.42,0h0s0,0,0,0Zm-.17,0h0Zm.39,0h0Zm-.12,0a0,0,0,0,1,0,0h0v0Zm.2,0s.05,0,.06,0v0s0,0,0,0a.76.76,0,0,0-.08.11l0,0a.06.06,0,0,1,0,0s0,0,0,0h0s0,0,0,0,0,0,0,0a0,0,0,0,1,0,0v0h0s0,0,0,0,0,0,.05-.06h0v-.05H144l0,0v0l0,0,0,0h0Zm-.27,0h0v0s0,0,0,0Zm.85,0h0Zm-.47,0h0s0,0,0,0h0Zm-.46,0h0Zm.73,0h0a.14.14,0,0,0,0,.06h0a.11.11,0,0,1,0-.08Zm-1.06,0h0Zm1.19,0v0Zm-.22,0h0s0,0,0,0Zm.13,0s0,0,0,0v0a0,0,0,0,1,0,0Zm0,0h0s0,0,0,0v0h0v0Zm-.7,0h0l0,0h0s0,0,0,0h0s0,0,0,0Zm-.56,0h0s0,0,0,0Zm.53,0h0Zm.89,0Zm-.52.1a.36.36,0,0,0,.07-.1s0,0,0,0l0,0,0,0s0,0,0,0Zm-.8-.1h0l0,0Zm1,0s0,0,0,0l0,0Zm.16,0h0s0,0,0,0,0,0,0,0Zm-1.29,0h0v0h0s0,0,0,0,0,0,0,0Zm1.41,0h0s0,0,0,0l0,0h0ZM144,13s0,0,0,0a0,0,0,0,1,0,0h0s0,0,0,0a0,0,0,0,1,0,0Zm-.63,0h0s0,0,0,0,0,0,0,0Zm.59,0h0Zm.68,0s0,0,0,0a.05.05,0,0,1,0,0l0,0Zm-1.44,0h0l0,0a.08.08,0,0,1,0,0Zm1.24,0h0s0,0,0,0,0,0,0,0Zm.13,0h0s0,0,0,0Zm-.55,0s0,0,0,0v0Zm-.11,0h0Zm.06,0h0Zm.35,0s0,0,0-.05,0,0,0,.05h0ZM144,13h0s0,0,0,0Zm.34.05,0-.05h0a.14.14,0,0,0,0,.06s0,0,0,0Zm-.47,0h0s0,0,0,0h0Zm.11,0h0a.05.05,0,0,0,0,0h0v0s0,0,0,0v0s0,0,0,0,0,0,0,0Zm.54,0h0Zm-.13,0h0a0,0,0,0,0,0,0v0Zm.25,0h0s0,0,0,0Zm-.17,0h0a0,0,0,0,0,0,0,0,0,0,0,1,0,0Zm-1,0a.22.22,0,0,1,0,.08h0a.29.29,0,0,1,0-.09Zm.4.08v0h0s0,0,0,0,0,0,0,0,0,0,0,0Zm.12-.05h0Zm-.14,0h0Zm0,0h0Zm-.76.13,0,0s0,0,0,0v0a.1.1,0,0,0,0-.05s0,0,0,0,0,0,0,0a.13.13,0,0,0,0,.07.1.1,0,0,1-.05,0,0,0,0,0,1,0,0,0,0,0,0,1,0,0l0,0h0s0,0,0,0Zm1.32-.1h0l0,0v0Zm-.59,0,0,0h0l0,0Zm.06,0v0h0l0,0Zm-.72,0h0v0s0,0,0,0v-.05Zm.62,0s0,0,0,0h0s0,0,0,.05,0,0,0,0a0,0,0,0,1,0-.06Zm.6,0h0v0Zm-1.13.08s0,0,0,0h0v0h0l0,0v0a.09.09,0,0,1-.05,0h0s0,0,0,0h0s0,0,0,0h0a0,0,0,0,0,0,0h.05Zm-.09,0h0l0,0,0,0Zm.66,0h0Zm-.66,0s0,0,0,0Zm0,0v0s0,0,0,0a0,0,0,0,1,0,0Zm1.21,0s0,0,0,0l0,0h0Zm-1,0s0,0,0,0h0s0,0,0,0h0Zm-.33,0h0s0,0,0,0Zm.25,0,0,0s0,0,0,0,0,0,0,0Zm-.2,0h0v0Zm.61.09s0,0,0,0h0v0h0v0a.05.05,0,0,0,.05,0h0a.05.05,0,0,1,0,0s0,0,0,0l0,0s0,0,0,0h0a.06.06,0,0,1-.05-.06s0,0,0,0,0,0,0,0h0l0,0Zm-.34-.08h0Zm-.24,0a.09.09,0,0,1,.06,0h-.06Zm1.61,0-.06,0,.06,0Zm-1.57,0h0Zm.2,0,0,0,0,0v0h0Zm.82.08h0l0,0,0,0h0a.2.2,0,0,0-.09.09h0Zm-.95-.08h0l0,0,0,0h0Zm0,0,0,0s0,0,0,0a0,0,0,0,1,0,0Zm-.06,0,0,0h0s0,0,0,0Zm1.52,0s0,0,0,0h0s0,0,0,0h0Zm-1.4,0v0h0v0Zm0,0h0v0Zm.1,0,0,0a.05.05,0,0,1,0,0v0Zm-.07,0h0Zm1.06,0h0Zm-.86,0s0,0,0,0h0Zm-.18,0,0,0s0,0,0,0h0Zm-.13,0s0,0,0,0h0Zm-.1,0s0,0,0,0h0Zm1.56,0h0Zm-.67.11h0l0-.06a.1.1,0,0,1,0-.05s0,0,0,0a.23.23,0,0,1-.07.1Zm-.76-.11h0Zm.07,0h0Zm.3,0h0a0,0,0,0,1,0,0h0Zm-.18,0h0v0Zm.3,0h0v0h0Zm-.34,0v0h0Zm.93,0,0,0s0,0,0,0Zm-.91,0h0Zm0,0h0a0,0,0,0,1,0,0Zm.12,0h0s0,0,0,0a0,0,0,0,1,0,0Zm.12,0h0s0,0,0,0,0,0,0,0Zm-.78,0h0l0,0h0l0,0Zm1.11,0a.21.21,0,0,1,0-.06h0s0,0,0,0,0,0,0,0,0,0,0,0Zm.92,0h0s0,0,0,0Zm.86,0h0v0h0Zm-2.4,0v0h0Zm.38,0h0Zm1.24,0s0,0,0,0a0,0,0,0,1,0,0v0Zm-1.09,0s0,0,0,0Zm1.16,0s0,0,0,0v0Zm-1.1,0v0a0,0,0,0,1,0,0h0Zm-1,0a0,0,0,0,1,0,0h0v0Zm1,0h0s0,0,0,0,0,0,0,0Zm-1,0a0,0,0,0,1,0,0h0Zm0,0h0Zm.08,0h0s0,0,0,0h0Zm.07.05Zm2.87.07h0Zm.13.39,0,0h0l0-.05s0,0,0,0,0-.05,0-.06a.07.07,0,0,0,0-.06l0-.05.07.05s.05,0,.06.07,0,0-.06.06l0,0,0,0h0s0,0,0,0ZM143.51,14v0s0,0,0,0Zm.26,0h0a0,0,0,0,1,0,0s0,0,0,0,0,0,0,0Zm-.31,0,0,0,0,0Zm.1.05h0a0,0,0,0,1,0,0Zm.18,0,0,0a0,0,0,0,1,0,0,.06.06,0,0,1,0,0,.06.06,0,0,1,0,0Zm-.14,0h0s0,0,0,0Zm2.6,0h0s0,0,0,0Zm-2.46.08v-.07a0,0,0,0,1,0,0v0a0,0,0,0,1,0,0,0,0,0,0,1,0,0Zm-.09-.06h0Zm2.44.24h0s0,0,0,0h0Zm0,0v0s0,0,0,0Zm-.17.13s0,0,0,0a0,0,0,0,0,0,0l0,0H146l0,0h0v0s0,0,0,0,0,0,0,0a0,0,0,0,0,0,0l0,0h0Zm-2.1,0h0v0l0,0h0Zm2,0h0v0Zm-2.11,0h0Zm2.08,0h0s0,0,0,0,0,0,0,0Zm-.12.11,0,0h0l-.06.05Zm0,0h0Z"/><path class="cls-3" d="M145.13,12.49v0Z"/><path class="cls-3" d="M146.75,12.63a.17.17,0,0,1,0-.07s0,.1-.07.14a.19.19,0,0,0,0-.07s0,0,0,.08l0-.05,0,.15h0c0,.06,0,.11,0,.17a.41.41,0,0,0,0,.11h0a.43.43,0,0,1,0,.05h0v0s0,0,0,0v0s0,0,0,0l0,0s0,0,0,.05h0a.54.54,0,0,1-.07.13l-.06.07h0a.07.07,0,0,0,0,.08s0,0,0,.06h0v0s0,0,0,0a.61.61,0,0,0,.09.18,0,0,0,0,1,0,0,0,0,0,0,1,0,0,0,0,0,0,0,0,0l-.08,0,0,0,0,0,0,0h0a.18.18,0,0,1-.07-.05s0,0,0,0h0l0-.09a.06.06,0,0,1,0-.07h0l0,0h-.06a.47.47,0,0,0,.21.32,1.5,1.5,0,0,1,.23.15.18.18,0,0,1,.05.24s0,.09,0,.1a.13.13,0,0,0,.1-.06.56.56,0,0,0,0-.12.82.82,0,0,1,.18-.33l-.12.88a.51.51,0,0,0,.1-.29l.09-.67a.61.61,0,0,0,0-.19.64.64,0,0,1,0-.24h0s0,0,0,0h0a.4.4,0,0,1,0-.15s0,0,0,0a.14.14,0,0,1,.1-.11h0s0,0,0,0h0a.53.53,0,0,0-.12-.4.28.28,0,0,0-.18.06.31.31,0,0,1,.06-.13l-.09,0a.07.07,0,0,0,0-.09s0,0,0,.05a0,0,0,0,1,0,0,.31.31,0,0,1,0,.12.47.47,0,0,1,0-.17l-.09.11Zm0,0h0s0,0,0,0,0,0,0,0a.59.59,0,0,1,0-.08Zm.08,0a.05.05,0,0,1,0,0,.08.08,0,0,1,0,0Zm0,.1a0,0,0,0,1,0,0,0,0,0,0,1,0,0Zm-.06,0h0l0,0s0,0,0,0Zm-.17.31a.07.07,0,0,1,0-.06,0,0,0,0,0,0,0h0a0,0,0,0,0,0,0h0a.08.08,0,0,0,0,0Zm0,0v0h0a0,0,0,0,1,0,0h0l0,0,0,0,0,0v0h0a0,0,0,0,1,0,0h0v0a.14.14,0,0,1,0-.07Zm.06,0h0Zm-.15.08s0,0,0,0h0s0,0,0,0Zm.59,0h0Zm0,0h0Zm-.2.25a1.79,1.79,0,0,0,0-.23s0,.08,0,.11a0,0,0,0,0,0,0h0v0h0v.12s0,0,0,0,0,.05,0,.08a.9.9,0,0,1,0-.16Zm.18-.19Zm0,.07h0v0Zm0,0s0,0,0,0Zm-.57.07v0s0,0,0-.06a.11.11,0,0,1,0,.08Zm.55,0h0Zm-.05,0h0s0,0,0,0v0Zm-.07,0h0s0,0,0,0Zm.1,0a0,0,0,0,1,0,0v0Zm0,0h0v0Zm-.51,0h0s0,0,0,0Zm.45,0h0Zm0,.09h0v0h0s0,0,0,0l0,0Zm.12,0h0v0Zm-.15,0h0s0,0,0,0l0,0v-.07Zm0,0h0v0Zm.06,0h0s0,0,0,0,0,0,0,0Zm-.33,0h0s0,0-.05,0a.1.1,0,0,1,.05-.06Zm-.23,0h0s0,0,0,0h0s0,0,0,0Zm.55,0v.05s0,0,0-.05Zm0,.07a0,0,0,0,1,0-.05s0,0,0,0v0h0v0Zm-.29-.05Zm.07.09a0,0,0,0,1,0,0s0,0,0-.06a.22.22,0,0,1,0,.08Zm0-.06v0h0s0,0,0,0Zm-.41,0Zm0,0,0,0h0Zm0,0a0,0,0,0,1,0,0h0a0,0,0,0,1,0,0Zm0,0,0,0h0Zm.73,0v0l0,0,0,0Zm-.71,0h0Zm.71,0h0v0Zm0,0h0Zm-.69,0s0,0,0,0h0a0,0,0,0,1,0,0Zm.06,0h0v0Zm.29.07.05,0,.05,0-.05.05-.05,0s0,0,0,0Zm-.24-.06s0,0,0,0,0,0,0,0Zm0,.06s0,0,0,0h0s0,0,0,0Z"/><path class="cls-3" d="M144.94,12.65s0,0,0,0a.05.05,0,0,0,0,0h0Z"/><polygon class="cls-3" points="145.37 12.73 145.37 12.72 145.37 12.73 145.37 12.73 145.37 12.73"/><polygon class="cls-3" points="144.91 12.74 144.91 12.74 144.91 12.74 144.91 12.74 144.91 12.74 144.91 12.74"/><path class="cls-3" d="M144.88,12.78a.19.19,0,0,0,0,.07h0a.19.19,0,0,1,0-.07Z"/><path class="cls-3" d="M145.86,12.94h0Z"/><path class="cls-3" d="M145.05,13.3h0Z"/><polygon class="cls-3" points="146.5 13.32 146.5 13.32 146.5 13.31 146.5 13.32 146.5 13.32 146.5 13.32"/><path class="cls-3" d="M146.49,13.34v0h0v0Z"/><path class="cls-3" d="M145,13.58Z"/><path class="cls-3" d="M145,13.58Z"/><path class="cls-3" d="M146.13,13.59l0,0a.06.06,0,0,1,0,0Z"/><path class="cls-3" d="M145.58,13.6h0v0s0,0,0,0h0Z"/><path class="cls-3" d="M145.59,13.67h0l0,0a.07.07,0,0,1,0-.05h0l0,.07Z"/><path class="cls-3" d="M145.44,13.62h0Z"/><polygon class="cls-3" points="143.16 13.8 143.16 13.8 143.16 13.8 143.16 13.8 143.16 13.8 143.16 13.8"/><polygon class="cls-3" points="143.01 13.75 143.02 13.75 143.02 13.75 143.02 13.75 143.01 13.75 143.01 13.75 143.01 13.75"/><polygon class="cls-3" points="143.18 13.8 143.18 13.8 143.18 13.8 143.18 13.8 143.18 13.8 143.18 13.8"/><polygon class="cls-3" points="143.31 13.89 143.31 13.89 143.31 13.89 143.31 13.89 143.31 13.89 143.31 13.89"/><polygon class="cls-3" points="143.41 13.97 143.42 13.98 143.41 13.97 143.41 13.97 143.41 13.97 143.41 13.97 143.41 13.97"/><polygon class="cls-3" points="143.56 14.09 143.57 14.09 143.57 14.09 143.56 14.09 143.56 14.09 143.55 14.08 143.56 14.09 143.56 14.09 143.56 14.09"/><polygon class="cls-3" points="143.56 14.09 143.56 14.09 143.56 14.09 143.56 14.09 143.56 14.09 143.56 14.09"/><polygon class="cls-3" points="143.56 14.09 143.56 14.09 143.56 14.09 143.56 14.09 143.56 14.09 143.56 14.09"/><polygon class="cls-3" points="143.57 14.09 143.56 14.09 143.56 14.09 143.57 14.09 143.57 14.09 143.57 14.09"/><polygon class="cls-3" points="143.57 14.09 143.57 14.1 143.57 14.09 143.57 14.09 143.57 14.09 143.57 14.09"/><polygon class="cls-3" points="143.57 14.1 143.57 14.1 143.57 14.09 143.57 14.1 143.57 14.1 143.57 14.1"/><polygon class="cls-3" points="143.57 14.1 143.57 14.09 143.57 14.09 143.57 14.1 143.57 14.1 143.57 14.1"/><path class="cls-3" d="M142.78,14.18a.22.22,0,0,1-.09.1.22.22,0,0,1,.14,0h0a.35.35,0,0,0-.14,0,.57.57,0,0,0,.1.51l.14.25a.1.1,0,0,1,.08.1.05.05,0,0,1,0,0s0,0,.05,0a.14.14,0,0,0,.22-.1l0,0a2.13,2.13,0,0,1,.16-.25h0a.14.14,0,0,0,.05-.16.15.15,0,0,1,0,.07.25.25,0,0,0,0-.07s0,0,0,0,0,0,0-.06l-.13.07a.4.4,0,0,0,.13-.16l0,0h0a.14.14,0,0,1-.15,0l0,0h0l-.06,0-.06,0,0,0h0l-.06,0a.37.37,0,0,1-.12-.07h0s0,0,0,0l0,0h0s0,0-.07,0l-.05,0h0l0,0-.07,0,0,0,0,0a.06.06,0,0,0,.06,0Zm0,0h0a0,0,0,0,1,0,0l0,0Zm0,0h0l0,0Zm.07,0h0Zm.05,0h0Zm-.07.09s0,0,0,0h0s0,0,0,0h0Zm0,0h0v0Zm-.08,0h0Zm.3,0h0Zm0,0h0Zm-.06,0h0s0,0,0,0Zm-.14,0h0v0Zm.16,0v0s0,0,0,0Zm.05,0v0h0v0h0Zm-.16,0h0s0,0,0,0Zm.19,0h0v0h0Zm.21,0h0s0,0,0,0Zm.06,0h0s0,0,0,0Zm.29.13h0a.06.06,0,0,1,0,0,0,0,0,0,1,0,0Zm-.08,0h0a.08.08,0,0,1,0,.05.09.09,0,0,1,0-.06Zm-.74,0h0Zm.87,0s0,0,0,0Zm-.15,0s0,0,0,0h0l0,0Zm.08.06v0a.09.09,0,0,1,0,0s0,0,0,0v.05Zm-.1-.07h0Zm0,0h0v0a.06.06,0,0,0,0,0s0,0,0,0Zm.05,0h0s0,0,0,0Zm-.08,0,0,0a0,0,0,0,1,0,0s0,0,0,0v0Zm-.62,0h0s0,0,0,0,0,0,0,0Zm.6,0a0,0,0,0,1,0,0,0,0,0,0,1,0,0Zm.09,0s0,0,0,0h0a0,0,0,0,1,0,0Zm-.08,0h0v0l0,0Zm-.08,0s0,0,0,0v0Zm0,0h0s0,0,0,0h0Zm.07,0h0s0,0,0,0h0s0,0,0,0h0a0,0,0,0,1,0,0Zm-.08,0h0v0Zm.08,0h0Zm-.26.25s0,0,0,0h0s0,0,0,0Z"/><polygon class="cls-3" points="142.9 14.24 142.9 14.24 142.89 14.24 142.9 14.24 142.9 14.24 142.9 14.24"/><polygon class="cls-3" points="142.9 14.25 142.9 14.24 142.9 14.25 142.9 14.25 142.9 14.25"/><path class="cls-3" d="M143.64,14.27h0Z"/><polygon class="cls-3" points="143.66 14.3 143.65 14.3 143.66 14.3 143.66 14.3 143.66 14.3"/><polygon class="cls-3" points="143.66 14.31 143.66 14.31 143.66 14.31 143.66 14.31 143.66 14.31 143.66 14.31 143.66 14.31"/><polygon class="cls-3" points="143.66 14.31 143.66 14.31 143.66 14.31 143.66 14.31 143.66 14.31 143.66 14.31"/><polygon class="cls-3" points="143.67 14.31 143.67 14.31 143.67 14.31 143.67 14.31 143.67 14.31 143.67 14.31"/><polygon class="cls-3" points="143.67 14.31 143.67 14.31 143.67 14.31 143.67 14.31 143.67 14.31 143.67 14.31"/><polygon class="cls-3" points="143.67 14.31 143.67 14.31 143.67 14.31 143.67 14.31 143.67 14.31"/><polygon class="cls-3" points="143.67 14.32 143.67 14.31 143.67 14.31 143.67 14.32 143.67 14.32 143.67 14.32"/><polygon class="cls-3" points="143.29 14.43 143.29 14.43 143.29 14.43 143.29 14.43 143.29 14.43"/><polygon class="cls-3" points="143.29 14.44 143.29 14.43 143.29 14.44 143.29 14.44 143.29 14.44"/><polygon class="cls-3" points="143.3 14.45 143.29 14.44 143.29 14.44 143.3 14.45 143.3 14.45 143.3 14.45"/><polygon class="cls-3" points="143.3 14.45 143.3 14.45 143.3 14.45 143.3 14.45 143.3 14.45"/><polygon class="cls-3" points="143.47 14.58 143.46 14.58 143.47 14.58 143.47 14.58 143.47 14.58"/><path class="cls-3" d="M145.33,12h0v0s0,0,0,0Z"/><path class="cls-3" d="M144.13,12.27h.05l0,0s0,0,0,0Z"/><path class="cls-3" d="M144.06,12.27h0Z"/><path class="cls-3" d="M143.93,12.27H144s0,0,0,0Z"/><path class="cls-3" d="M144.05,12.27h0s0,0,0,0h0s0,0,0,0Z"/><path class="cls-3" d="M144.24,12.27Z"/><path class="cls-3" d="M144.26,12.28h0Z"/><path class="cls-3" d="M144,12.28h0Z"/><polygon class="cls-3" points="144.23 12.27 144.23 12.28 144.23 12.27 144.23 12.27 144.23 12.27 144.23 12.27 144.23 12.27"/><path class="cls-3" d="M144.27,12.28l.06,0h.19l0,0-.2,0h0Z"/><polygon class="cls-3" points="144.08 12.29 144.08 12.28 144.08 12.28 144.08 12.28 144.08 12.29 144.08 12.29 144.08 12.29"/><path class="cls-3" d="M144.22,12.29s0,0,0,0Z"/><path class="cls-3" d="M144.57,12.32h0Z"/><path class="cls-3" d="M144.6,12.32h0Z"/><path class="cls-3" d="M144.11,12.35s0,0,0,0h0a0,0,0,0,0,0,0h0s0,0,0,0h.05s0,0,0,0a0,0,0,0,0,0,0h-.06Zm.08,0h0Z"/><path class="cls-3" d="M145,12.36h0Z"/><path class="cls-3" d="M144.07,12.37h0a0,0,0,0,0,0,0Z"/><polygon class="cls-3" points="145.03 12.37 145.03 12.38 145.04 12.38 145.03 12.37 145.03 12.37 145.03 12.37 145.03 12.37"/><polygon class="cls-3" points="145 12.37 145.01 12.37 145.01 12.37 145 12.37 145 12.37 145 12.37"/><path class="cls-3" d="M144.29,12.39h0s0,0,0,0Z"/><path class="cls-3" d="M143.71,12.38h0Z"/><path class="cls-3" d="M143.73,12.39h0Z"/><path class="cls-3" d="M144,12.4h0s0,0,0,0Z"/><path class="cls-3" d="M143.77,12.39h0Z"/><path class="cls-3" d="M143.77,12.47Z"/><path class="cls-3" d="M144.8,12.48h0Z"/><path class="cls-3" d="M143.75,12.51s0,0,0,0h0l0,0h0Z"/><path class="cls-3" d="M143.65,12.55h0Z"/><path class="cls-3" d="M146.85,12.57h0Z"/><polygon class="cls-3" points="144.49 12.59 144.49 12.59 144.49 12.59 144.49 12.59 144.49 12.59"/><path class="cls-3" d="M144.59,12.61h0s0,0,0,0v0h0Z"/><path class="cls-3" d="M143.59,12.62h0Z"/><path class="cls-3" d="M143.57,12.62h0Z"/><path class="cls-3" d="M144.55,12.63Z"/><path class="cls-3" d="M143.53,12.64Z"/><path class="cls-3" d="M144.71,12.66Z"/><path class="cls-3" d="M144.65,12.7s0,0,0,0h0v0l0,0Z"/><path class="cls-3" d="M146.59,12.7s0,0,0,0v0Z"/><path class="cls-3" d="M144.72,12.7v0s0,0,0,0Z"/><path class="cls-3" d="M144.73,12.74h0v0Z"/><path class="cls-3" d="M146.59,12.77h0s0,0,0,0Z"/><path class="cls-3" d="M144.76,12.8h0v0Z"/><path class="cls-3" d="M144.8,12.81h0v0h0Z"/><path class="cls-3" d="M144.13,13s0,0,0,0h0Z"/><path class="cls-3" d="M144.17,13h0Z"/><path class="cls-3" d="M144.1,13h0Z"/><path class="cls-3" d="M144.14,13s0,0,0,0h0Z"/><path class="cls-3" d="M144.1,13h0Z"/><path class="cls-3" d="M147.25,13.06h0v0Z"/><polygon class="cls-3" points="147.23 13.07 147.23 13.06 147.23 13.07 147.23 13.07 147.23 13.07"/><path class="cls-3" d="M144,13.1h0a0,0,0,0,0,0,0l0,0Z"/><path class="cls-3" d="M143.13,13.14s0,0,0,0,0,0,0,0Z"/><path class="cls-3" d="M147.19,13.13h0Z"/><path class="cls-3" d="M147.16,13.16h0v0Z"/><path class="cls-3" d="M147.14,13.33h0Z"/><path class="cls-3" d="M143.76,13.4h0v0s0,0,0,0v0h0Z"/><path class="cls-3" d="M143.79,13.45s0,0,0,0h0Z"/><path class="cls-3" d="M144.86,13.58h0s0,0,0,0Z"/><path class="cls-3" d="M144.78,13.58h0Z"/><polygon class="cls-3" points="144.8 13.59 144.81 13.58 144.8 13.59 144.8 13.59 144.8 13.59"/><path class="cls-3" d="M147.22,13.81s.06.07.06.11V14a.49.49,0,0,1,0,.12c0,.2,0,.4,0,.61a1.55,1.55,0,0,1,0,.29s0,0,0,0,0,0,0,0a.29.29,0,0,0,.05-.18c0-.27,0-.54.05-.82V14a.47.47,0,0,0-.19-.34.5.5,0,0,0,.08.2Z"/><path class="cls-3" d="M144.93,13.62s0,0,0,0Z"/><path class="cls-3" d="M144.88,13.62a0,0,0,0,0,0,0v0Z"/><path class="cls-3" d="M144.89,13.63s0,0,0,0h0s0,0,0,0Z"/><path class="cls-3" d="M145.55,13.62h0Z"/><path class="cls-3" d="M144.91,13.63h0Z"/><path class="cls-3" d="M146.17,13.65v0Z"/><path class="cls-3" d="M145.56,13.67h0v0l0,0Z"/><path class="cls-3" d="M145.51,13.65l0,0s0,0,.05,0h0v0s0,0,0,0Z"/><path class="cls-3" d="M145,13.66h0Z"/><path class="cls-3" d="M144.34,13.67h0Z"/><path class="cls-3" d="M145.55,13.72s0,0,0,0,0,0,0,0Z"/><path class="cls-3" d="M145,13.7a0,0,0,0,0,0,0h0Z"/><path class="cls-3" d="M146.21,13.71h0s0,0,0,0Z"/><path class="cls-3" d="M145,13.73s0,0,0,0h0s0,0,0,0Z"/><path class="cls-3" d="M142.75,14.19v0s0,0,0,0Z"/><path class="cls-3" d="M145.93,14.21h0s0,0,0,0a0,0,0,0,0,0,0h0s0,0,0,0Z"/><path class="cls-3" d="M142.73,14.21l0,0h0a.09.09,0,0,0,.07,0Z"/><path class="cls-3" d="M145.88,14.3h0s0,0,0,0Z"/><path class="cls-3" d="M143.68,14.71s0,0,0,0v0Z"/><path class="cls-3" d="M143.63,14.78h0Z"/><polygon class="cls-3" points="143.46 14.8 143.46 14.8 143.46 14.8 143.46 14.8 143.46 14.8 143.46 14.8"/><path class="cls-3" d="M145.65,14.91s0,0,0,0l0,0Z"/><polygon class="cls-3" points="145.65 14.91 145.65 14.91 145.65 14.9 145.65 14.91 145.65 14.91 145.65 14.91"/><path class="cls-3" d="M143.07,15.19h0a.08.08,0,0,0,0,0s0,0,0,0Z"/><path class="cls-3" d="M143,15.18v0s0,0,0,0Z"/></g></svg>