<svg xmlns="http://www.w3.org/2000/svg" viewBox="0 0 150 28.16"><defs><style>.cls-1{fill:#2c2c2c;}.cls-2{fill:#dbca3f;}</style></defs><g id="Draw_Layer" data-name="Draw Layer"><path class="cls-1" d="M70.82,15c.09.05,0,.19,0,.26l-.6.57a.36.36,0,0,1-.26.14s0-.1,0-.14a7.57,7.57,0,0,1,.87-.83ZM30.46,13.54c.09,0,.23,0,.26.05-.41.18-.83.33-1.25.48-.07-.07,0-.18.12-.21.29-.12.58-.23.87-.32Zm21,1.14-1,.28c-.07,0-.19,0-.16-.07a.13.13,0,0,1,.07-.05,6.77,6.77,0,0,1,1.19-.34c0,.08-.07.16-.15.18Zm20.49-.84.52-.6a.84.84,0,0,1,.21-.21.11.11,0,0,1,.08,0c.06,0,0,.12,0,.17-.26.3-.52.6-.8.89a.09.09,0,0,1-.06-.11.19.19,0,0,1,.07-.12ZM1.6,5.78a.29.29,0,0,1,.14-.08c.05,0,.11,0,.1.09L.9,6.61c-.05,0-.07-.07-.06-.12a.22.22,0,0,1,.09-.12l.67-.59Zm3.62-2.6a6.34,6.34,0,0,1,1-.57c.08,0,.21,0,.22,0-.35.19-.7.39-1.06.57-.07,0-.19,0-.18,0ZM28.15,14.7l-1,.61c-.06,0-.16.06-.18,0s0-.1.08-.13l.86-.49c.08,0,.22-.08.24,0Zm34.57,4.63,1.06,0s.09,0,.1,0,0,.07-.09.08a3.46,3.46,0,0,1-1.2.05c-.05-.06,0-.12.13-.13Zm-37-3.1-.88.61a.31.31,0,0,1-.12.05c-.05,0-.09-.05-.07-.09.3-.24.61-.45.93-.66a.25.25,0,0,1,.11,0,.07.07,0,0,1,.07.08l0,.05ZM4,4.07l-.93.69c-.07,0-.19.08-.21,0a6,6,0,0,1,.89-.68C3.87,4,4,4,4,4.07ZM66.3,18.45a.21.21,0,0,1,.13,0s.07.07,0,.1A5.06,5.06,0,0,1,65.3,19c-.06-.06,0-.15.11-.19l.89-.39ZM46.45,16.61a5.48,5.48,0,0,1-1.18.34c-.05,0-.11,0-.13,0s0-.1.11-.12l.92-.24c.1,0,.23,0,.28.05ZM15.32,8.22l.18.9a.49.49,0,0,1,0,.12.16.16,0,0,1-.11.1,8.16,8.16,0,0,1-.25-1.29c.08-.05.15.07.17.17ZM22.17,18l1.1-.39c.07,0,.19,0,.17.06a5.4,5.4,0,0,1-1,.41c-.09,0-.24,0-.24-.08ZM11.8,2.12c0,.08-.12.07-.19,0l-1.1-.35c0-.08.12-.1.21-.08a3.86,3.86,0,0,1,1.08.38ZM36.12,13.91c0,.08-.15.06-.23,0l-.77-.29a.66.66,0,0,1-.26-.14c0-.08.14-.07.21,0a4.89,4.89,0,0,1,1,.45Zm1.24.78c0-.09.17-.06.25,0,.31.18.62.37.92.58,0,.07-.11.08-.18,0a10.13,10.13,0,0,1-1-.61Zm19.31.82L55.79,15a.09.09,0,0,1,0-.14,3.68,3.68,0,0,1,1.1.68c0,.08-.13.06-.2,0Zm-7.68,0c-.34.17-.68.33-1,.47a.2.2,0,0,1-.15,0s-.06-.09,0-.11c.32-.15.64-.29,1-.42.08,0,.21-.05.23,0ZM16.7,14.74a5.35,5.35,0,0,1-.41-1.12c0-.06,0-.15.06-.15a.11.11,0,0,1,.07.08l.33,1c0,.09,0,.22-.05.23ZM18,16.88c-.19-.21-.36-.42-.53-.64-.05-.07-.08-.21,0-.22l.81.95c-.08.08-.22,0-.29-.09Zm49.78.71.8-.6c.07,0,.21-.09.23,0a6.64,6.64,0,0,1-.9.68.16.16,0,0,1-.11,0s-.08,0-.07-.07,0,0,.05-.06ZM9,1.72l0,.12c-.42.1-.84.2-1.27.28,0-.16.22-.22.38-.25L9,1.72ZM14.8,6.65c-.14-.37-.27-.73-.4-1.1a.12.12,0,0,1,0-.1s.08,0,.12,0a.23.23,0,0,1,.06.12l.26.77c0,.11.06.26,0,.32Zm1,4.11c.1.38.18.77.25,1.15,0,0,0,.08,0,.1s-.13,0-.14-.12L15.67,11c0-.1,0-.23.09-.25ZM13.7,4.08,13,3.21a.19.19,0,0,1,0-.1A.08.08,0,0,1,13.05,3a6.91,6.91,0,0,1,.64.79c.05.08.09.21,0,.25ZM39.82,16l1.06.45s.08,0,.08.08-.1.07-.17.05a8.67,8.67,0,0,1-.83-.36c-.09,0-.2-.14-.14-.22Zm18.23.48.8.74c0,.05.1.14,0,.18s-.09,0-.12,0c-.24-.21-.47-.43-.7-.65A.25.25,0,0,1,58,16.6a.09.09,0,0,1,.06-.11Zm-15.42.41.94.07c.07,0,.16.06.12.12A3.43,3.43,0,0,1,42.38,17c0-.08.15-.09.25-.08ZM20.75,18.11c-.06.09-.19.09-.3.07a3.46,3.46,0,0,1-1-.31c0-.08.14-.08.22-.05l1.07.29ZM53.21,14.4c-.07,0-.16,0-.18-.1a2.94,2.94,0,0,1,1.35.07c-.07.09-.21.09-.33.09l-.84-.06Zm6.81,4a.09.09,0,0,1,.09-.08.21.21,0,0,1,.12.05l.84.51s.1.08.07.12-.08,0-.12,0a6.36,6.36,0,0,1-1-.61ZM32.26,13.17c.34,0,.68,0,1,0a.15.15,0,0,1,.1,0,.08.08,0,0,1,0,.11l-1.19,0h0s0-.08,0-.11a.24.24,0,0,1,.12,0Z"/><path class="cls-1" d="M81,7c-.15,0-.34.09-.37.24.42-.07.85-.17,1.27-.27l0-.12c-.3.05-.59.09-.88.15Z"/><path class="cls-1" d="M83.35,6.91l1.1.35c.07,0,.18,0,.18,0a3.69,3.69,0,0,0-1.07-.38H83.5c-.08,0-.15,0-.15.09Z"/><path class="cls-1" d="M79.08,7.69a8,8,0,0,0-1,.58c0,.08.12.07.18,0,.36-.19.72-.38,1.06-.58,0,0-.05-.06-.1-.06l-.11,0Z"/><path class="cls-1" d="M85.8,8.2a.18.18,0,0,0,0,.1l.7.87c.08-.05,0-.17,0-.25a6.06,6.06,0,0,0-.63-.79h0a.08.08,0,0,0-.08.07Z"/><path class="cls-1" d="M76.63,9.16a6.64,6.64,0,0,0-.9.68c0,.08.15.05.22,0l.93-.69a.1.1,0,0,0-.1-.05.27.27,0,0,0-.15.05Z"/><path class="cls-1" d="M87.24,10.54a.12.12,0,0,0,0,.1c.12.37.26.73.4,1.1.09-.07.07-.21,0-.32l-.27-.77a.17.17,0,0,0-.06-.12l0,0a.06.06,0,0,0-.06,0Z"/><path class="cls-1" d="M74.57,10.79s-.09,0-.13.07l-.67.59a.28.28,0,0,0-.09.13.09.09,0,0,0,.06.12l.93-.82c0-.05,0-.09-.09-.09Z"/><path class="cls-1" d="M88,13.13a8.09,8.09,0,0,0,.26,1.3.14.14,0,0,0,.1-.1.57.57,0,0,0,0-.13l-.18-.89c0-.08-.07-.19-.14-.19Z"/><path class="cls-1" d="M88.5,16.1l.18.88c0,.08.09.18.15.12s0-.06,0-.1a11.21,11.21,0,0,0-.25-1.15c-.1,0-.11.15-.09.25Z"/><path class="cls-1" d="M105.09,18.26a.14.14,0,0,0-.11,0,.08.08,0,0,0,0,.11H105l1.19,0a.07.07,0,0,0,0-.1.14.14,0,0,0-.11,0h-.3c-.24,0-.48,0-.72,0Z"/><path class="cls-1" d="M107.7,18.6a.72.72,0,0,0,.26.14l.76.29c.09,0,.2,0,.23,0a4.81,4.81,0,0,0-1-.45h-.1s-.09,0-.11.06Z"/><path class="cls-1" d="M89.13,18.71a5,5,0,0,0,.41,1.12c.09,0,.08-.14,0-.23l-.33-1s0-.08-.07-.08h0c-.05,0-.06.09-.05.15Z"/><path class="cls-1" d="M103.3,18.63c-.3.09-.58.2-.87.31-.09,0-.2.15-.13.22.43-.15.84-.31,1.25-.48,0-.05-.07-.07-.13-.07a.23.23,0,0,0-.12,0Z"/><path class="cls-1" d="M125.87,19.39c0,.07.11.09.18.1l.84.05c.11,0,.26,0,.33-.09a3,3,0,0,0-1.35-.06Z"/><path class="cls-1" d="M123.22,19.93s-.06,0-.07.05.1.1.17.07l.94-.28c.09,0,.2-.1.15-.18a7.3,7.3,0,0,0-1.19.34Z"/><path class="cls-1" d="M100.75,19.76l-.86.5s-.11.08-.08.13.11,0,.17,0c.34-.2.68-.4,1-.61a.09.09,0,0,0-.09-.07.37.37,0,0,0-.15,0Z"/><path class="cls-1" d="M110.19,19.78c.32.22.66.42,1,.61.07,0,.19,0,.18,0-.3-.21-.61-.4-.92-.58a.33.33,0,0,0-.16-.05.11.11,0,0,0-.1.06Z"/><path class="cls-1" d="M128.63,20l.87.56c.07,0,.19.07.21,0a3.81,3.81,0,0,0-1.1-.68.08.08,0,0,0,0,.13Z"/><path class="cls-1" d="M121.59,20.58l-1,.41s0,.1,0,.12a.17.17,0,0,0,.14,0,9.79,9.79,0,0,0,1-.48s-.06-.06-.11-.06a.31.31,0,0,0-.13,0Z"/><path class="cls-1" d="M112.79,21.32a8.76,8.76,0,0,0,.84.35c.07,0,.17,0,.16,0a.1.1,0,0,0-.07-.08c-.35-.16-.7-.31-1.06-.45-.06.08,0,.18.13.22Z"/><path class="cls-1" d="M90.32,21.33c.16.22.34.43.52.64s.22.17.3.09l-.81-.95c-.09,0-.06.15,0,.22Z"/><path class="cls-1" d="M98.43,21.23c-.32.21-.64.42-.94.66,0,0,0,.08.08.08s.08,0,.12,0c.29-.2.58-.4.87-.62a.08.08,0,0,0,0,0,.08.08,0,0,0-.07-.07h0a.18.18,0,0,0-.1,0Z"/><path class="cls-1" d="M130.82,21.69a.27.27,0,0,0,.09.12c.22.22.46.44.7.64,0,0,.07.07.12.05s0-.13,0-.18l-.81-.74a.1.1,0,0,0-.06.11Z"/><path class="cls-1" d="M119,21.65l-.92.24c-.06,0-.14.06-.11.12s.08,0,.12,0a5.32,5.32,0,0,0,1.18-.34.15.15,0,0,0-.14-.07l-.13,0Z"/><path class="cls-1" d="M115.22,22.07a3.42,3.42,0,0,0,1.31.11c0-.06-.06-.11-.12-.12l-1-.07h0a.19.19,0,0,0-.19.09Z"/><path class="cls-1" d="M96.1,22.68l-1.1.39c0,.1.15.11.25.08a5.31,5.31,0,0,0,1-.41s0-.07-.1-.07Z"/><path class="cls-1" d="M92.3,23a3.39,3.39,0,0,0,1,.31c.11,0,.25,0,.31-.07l-1.07-.3h-.1s-.11,0-.12.07Z"/><path class="cls-1" d="M132.86,23.51a6.21,6.21,0,0,0,1,.6c.05,0,.1,0,.13,0s0-.09-.07-.12l-.84-.52a.28.28,0,0,0-.12,0,.08.08,0,0,0-.09.08Z"/><path class="cls-1" d="M135.55,24.42c-.07,0-.17.07-.12.12a3.47,3.47,0,0,0,1.2,0s.1,0,.09-.08-.06-.05-.11-.05l-1.06.05Z"/></g><g id="Draw_Layer-2" data-name="Draw Layer"><path class="cls-2" d="M147,22.54a.58.58,0,0,0-.1-.21.77.77,0,0,1-.15-.36.85.85,0,0,1,.34.62v.16c0,.49,0,1-.09,1.46a.66.66,0,0,1-.09.33s0,0,0,0,0,0,0-.06A3.12,3.12,0,0,0,147,24l.06-1.07a1.61,1.61,0,0,0,0-.22.15.15,0,0,1,0-.07s0,0,0-.05Zm-4.52-4.33s.09,0,.13,0l.68.47c.05,0,.1.08.08.13a6.41,6.41,0,0,0-.79-.58l0,0a0,0,0,0,1-.06,0Zm-.36-.19.2.14a.25.25,0,0,1-.19-.09l-.06,0-.41-.21s0,0,0,0l.09,0a2.69,2.69,0,0,1,.29.16l.07,0Zm.51.37.48.37a1.06,1.06,0,0,1,.15.15s0,0,0,0l-.69-.56a.13.13,0,0,1,.09.05Zm1,.61a0,0,0,0,1,0,0s0,0,0,0,0,0,0,0a.23.23,0,0,1-.09-.08s0-.05,0-.06v0s0,0,0,0a.08.08,0,0,1,0,0s0,0,0,0a0,0,0,0,1,0,0l0,0s0,0,0,0a.25.25,0,0,1,.13.14s0,.05,0,.06l0,0s0,.05,0,.06l0,0a.14.14,0,0,1-.05-.09,0,0,0,0,0,0,0ZM141,17.19l.07,0,.05,0h0s0,0,0,0,0,0,0,0h0l-.08-.06-.15-.07a.1.1,0,0,1-.05,0h0s0,0,0,0l0,0s0,0,.05,0l.14.08.05,0Zm.72,2.43a.12.12,0,0,1-.09,0s0,0,0,0l.35.06s0,0,0,0,0,0-.05,0l-.11,0-.18,0Zm-.38.12s0,0,0,0,0,0,0,0v0h0a0,0,0,0,1,0,0l0,0a0,0,0,0,1,0,0l.11,0s0,0,0,0v0s0,0,0,0h.18v0a0,0,0,0,0,0,0h0a.2.2,0,0,0-.11,0s0,0,0,0h0s0,0,0,0Zm.15,0s0,0,0,0Zm2-.85h0a.21.21,0,0,1-.07-.12v0h0l.1.08,0,.06Zm-2.09.68-.06,0,.05,0h.12a0,0,0,0,1,0,0l-.06,0h-.08Zm1-1.56-.1-.05-.16-.11a.07.07,0,0,1,.07,0l.09.06a.39.39,0,0,1,.1.08Zm.82,1.74.06,0a0,0,0,0,1,0,0h0s0,0,0,0h-.09s0,0,0,0a.08.08,0,0,0,0,0ZM141.2,17.3l.07,0,0,0h0l.09,0v0l-.1-.06-.08,0h0s0,0,0,0Zm1.72,1.08a.13.13,0,0,1-.09-.05s0,0-.05,0,0,0,0,0h0a.36.36,0,0,1,.14.11Zm.49.65s0,0,0,0h0a.16.16,0,0,1,.07.09s0,0,0,0a.11.11,0,0,0-.07-.06Zm-4.49,4-.11.05h0l0,0s0,0,0,0,0,0,0,0Zm3.2-5.2,0,0s0,0,0,0a.08.08,0,0,0-.07,0,0,0,0,0,1,0,0l.15.08h0s0,0,0,0ZM141,19.58h.18s0,0,0,0h0s0,0,0,0a0,0,0,0,1,0,0h0s0,0,0,0Zm1.77-1.31-.06,0-.06,0h0a.76.76,0,0,1,.09.09Zm-.25-.16a.27.27,0,0,1-.08-.07l.12.07s0,0,0,0Zm-1.72-1.05s-.06,0-.08,0,0,0,0,0,0,0,0,0,0,0,.06,0,0,0,0,0Zm.82.65a.11.11,0,0,1,.06.07.07.07,0,0,1-.06-.07Zm-2.11,7.1a.06.06,0,0,1,0-.08s0,.05,0,.07Zm2.31-7.12s0,0,0,.06,0,0,0,0v0h0ZM143,22.22v0s0,0,0,0,0,0,0,0,0,0,0,0Zm-.48-4.1a.18.18,0,0,1,.07.05.08.08,0,0,1-.07-.05Zm-1-.51-.07,0a.06.06,0,0,1,.07,0Zm.07,0s0,0,0,0a0,0,0,0,1-.06,0h0Zm-.95,2.4s0,0,0,0a0,0,0,0,1,0,0,.08.08,0,0,1,0,0Zm2.83-.88v0a0,0,0,0,1,0-.05s0,0,0,0Zm-1.3.53,0,0s0,0,.07,0h-.05Zm4.49,1.87s0,0,0,0a0,0,0,0,1,0,0s0,0,0,0Zm-2.2-2.27a0,0,0,0,1,0,0s0,0,0-.05,0,0,0,0ZM142.73,22v0s0,0,0,0Zm-3.1-.91a.11.11,0,0,1,0,.06,0,0,0,0,1,0-.06Zm1-4.12h0s0,0,0,0l0,0h0Zm.06.05h0a0,0,0,0,0,0,0l0,0s0,0,0,0Zm.55,2.58h-.06a.05.05,0,0,1,.05,0v0Zm-.47.21s0,0,0,0h0s0,0,0,0Zm3.56-.44s0,0,0,0l0,0s0,0,0,0Zm-3,.22h.06s0,0,0,0a0,0,0,0,0,0,0ZM147,21a0,0,0,0,1,0,0l0,0v0s0,0,0,0Zm-8,2h0s0,0,0,0l0,0Zm1.53-2.83h0a.05.05,0,0,1,0,0Zm.22-.4v0l0,0h0Zm1.85-1.49s0,0,0,0h0a0,0,0,0,1,0,0Zm.43,1.46,0,0h0a0,0,0,0,1,0,0Zm-3.89,3.37h0v0a0,0,0,0,1,0,0s0,0,0,0Zm1.47-3.05s0,0,0,0h0a0,0,0,0,1,0,0Zm1.1-.48h0l0,0a0,0,0,0,1,0,0Zm4.15.85s0,0,0,0a0,0,0,0,1,0,0s0,0,0,0Zm-.68,1.71s0,0,0,0h0s0,0,0,0,0,0,0,0Zm1.71-1a0,0,0,0,1,0,0h0s0,0,0,0Zm-2-1.81a0,0,0,0,1,0,0l0,0h0Zm-3.53.23s0,0,0,0h0s0,0,0,0Zm3.79-.19h0Zm-.67,0s0,0,0,0,0,0,0,0h0Zm-2.09-1.3s0,0,0,0Zm-.62,1.7,0,0s0,0,0,0Zm.91,2.17h0v0a0,0,0,0,1,0,0Zm-.16-3.8s0,0,0,0,0,0,0,0,0,0,0,0ZM145,19.38s0,0,0,0l0,0Zm-3.44.2h0v0s0,0,0,0Zm1.17,2.4s0,0,0,0,0,0,0,0Zm4.12-.87s0,0,0,0a0,0,0,0,1,0,0Zm-1.56-1.49a0,0,0,0,1,0,0h0v0ZM143,22.13h0s0,0,0,0,0,0,0,0Zm-.49-3.94h0a0,0,0,0,1,0,0Zm-.43-.12s0,0,0,0l0,0Zm2,1.26s0,0,0,0,0,0,0,0Zm1.76,1s0,0,0,0a0,0,0,0,1,0,0Zm-2.4-.61a0,0,0,0,1,0,0s0,0,0,0Zm.51-.52a0,0,0,0,1,0,0v0h0v0Zm-1.2,2.7h0v0Zm-2.4-1.67h0v0h0Zm5.32-.12h0v0Zm-4.35-.37h0l0,0s0,0,0,0Zm-.52.18a0,0,0,0,1,0,0v0Zm6,1.54s0,0,0,0h0Zm-4,.54s0,0,0,0h0v0Zm-2.3,2.07s0,0,0,0v0s0,0,0,0Zm1-6.62s0,0,0,0h0Zm-.27,2.34h0v0Zm1-.13s0,0,0,0,0,0,0,0Zm1.26,0h0a0,0,0,0,1,0,0Zm1.06-.51s0,0,0,0,0,0,0,0a0,0,0,0,1,0,0ZM141.88,18h0s0,0,0,0Zm.19.05h0a0,0,0,0,1,0,0Zm2.79,3.86h0s0,0,0,0Zm-3.08.16h0a0,0,0,0,1,0,0s0,0,0,0Zm1.21,0h0s0,0,0,0,0,0,0,0Zm.69-3h0a0,0,0,0,1,0,0v0Zm-1.89-1.27h0s0,0,0,0Zm1,4.17a0,0,0,0,1,0,0s0,0,0,0ZM142.18,18s0,0,0,0Zm2.39,1.17h0a0,0,0,0,1,0,0v0Zm-1.56.56s0,0,0,0h0s0,0,0,0Zm-2.36,0s0,0,0,0,0,0,0,0Zm2.83-.11s0,0,0,0,0,0,0,0Zm-1.92,0s0,0,0,0,0,0,0,0Zm-1.15.6h0v0Zm.89-.62s0,0,0,0,0,0,0,0Zm2.91-.24s0,0,0,0,0,0,0,0Zm-2.63.22h0Zm1,.37s0,0,0,0h0Zm-2.16-3.1h0s0,0,0,0ZM144,22v0l0,0a.09.09,0,0,1,0-.06Zm-.05.15s0-.05,0-.05,0,.05,0,.05Zm.68.88a0,0,0,0,1,0,0,.1.1,0,0,1,0,.05s0,0,0,0Zm-.07.14h0a0,0,0,0,1,0,0,0,0,0,0,1,0,0ZM143.94,22s0,0,0,0,0,0,0,0Zm-1.56-1.65,0,0s0,0,0,0l.06-.07v.07Zm.16.09-.07,0,.05,0a.05.05,0,0,1,0,0Zm1.32,1.68,0,0h0a.08.08,0,0,1-.09,0l.06-.07,0,0h0l0,.08Zm-1.4-1.77h0s0,0,0,0,0,0,0,0Zm.14.2s0,0,0,0,0,0,0,0a0,0,0,0,1,0,0h0Zm-.08-.05a0,0,0,0,1,0,0s0,0,0,0Zm-.37-.27s0,0,0,0l0,0Zm.07,0v0s0,0,0,0,0,0,0,0,0,0,0,0Zm.21.07s0,0,0,0h0s0,0,0,0Zm-1,.63s0,0,0,0h0s0,0,0,0Zm-.07,0s0,0,0,0,0,0,0,0Zm.06-.09s0,0,0,0a0,0,0,0,1,0,0s0,0,0,0,0,0,0,0,0,0,0,0Zm0,.06h0s0,0,0,0Zm.12-.08s0,0,0,0,0,0,0,0Zm-.64.91,0,0s0,0,0,0a.09.09,0,0,0,.07,0v0Zm.3-.64s0,0,0,0a.1.1,0,0,1,0-.05.08.08,0,0,1,0,0Zm-.42.54h0s0,0,0,0v.07s0,0,0,0v0Zm6,.74-.17,1.2a.94.94,0,0,1-.18.5l.22-1.57a1.42,1.42,0,0,0-.33.6.74.74,0,0,1-.07.21.2.2,0,0,1-.18.1.11.11,0,0,1-.07-.17.34.34,0,0,0-.09-.44,4.28,4.28,0,0,0-.42-.26.9.9,0,0,1-.38-.73.18.18,0,0,0,0,.26l-.11-.15-.23.05a.89.89,0,0,0,.66.64.27.27,0,0,1,.19.29.57.57,0,0,1-.14.34,1.71,1.71,0,0,1-1,.67.42.42,0,0,0-.19.09c0,.06-.12.16-.17.1a.11.11,0,0,0,.07.1.12.12,0,0,0,0,.12l.09-.06c0,.09-.17.08-.2,0s0-.18.08-.26a.29.29,0,0,1,0-.31.8.8,0,0,1,.22-.23.22.22,0,0,0-.15.06.49.49,0,0,0-.22-.38c-.13-.1-.27-.16-.39-.25a1.13,1.13,0,0,1-.42-.57A1,1,0,0,0,143,22c-.05-.07-.16-.12-.23-.07a.1.1,0,0,0,0-.13l0,.1,0-.1-.13.09a.09.09,0,0,0,0-.14.52.52,0,0,1-.64.11.45.45,0,0,0-.15.21.32.32,0,0,1,0-.25l-.61,1.26a.42.42,0,0,0-.06.31,2.3,2.3,0,0,1,0,1.51c0,.07-.07.15-.14.16s-.14-.09-.08-.13.11-.27.06-.42l-.28-.84s0,0,0-.05h-.08s0-.07,0,0a.66.66,0,0,1-.25.32l.22-.11a.1.1,0,0,0,0,.1s.1,0,.06,0l-.08.18a.27.27,0,0,0-.07-.13.21.21,0,0,1-.09.28s0,0-.05,0,0,0,0,0a3.88,3.88,0,0,0-.3.48l-.07-.06a.24.24,0,0,1-.39.18s-.06-.07-.1-.08-.1,0-.08.06a.17.17,0,0,0-.13-.21l-.26-.46a1,1,0,0,1-.17-.89.59.59,0,0,1,.32-.06.37.37,0,0,0-.34,0A.31.31,0,0,0,139,23a.12.12,0,0,1-.12-.11l.16.06c-.1,0-.16-.11-.16-.2a.62.62,0,0,1,.09-.26l.16-.29a1,1,0,0,0,.24-.07.1.1,0,0,0,0-.1.08.08,0,0,1,0,.1s-.06-.06-.05,0a.51.51,0,0,1,0-.3,1.17,1.17,0,0,1,.14-.3l.46-.75a1.57,1.57,0,0,1,.35-.42l-.09.13a.73.73,0,0,1,.6-.24l-.19,0a.27.27,0,0,0,.22-.08.19.19,0,0,0-.15,0,.18.18,0,0,1,.21-.07.44.44,0,0,1,0-.23,3,3,0,0,1,.6,0l1,.14a.93.93,0,0,0,.23,0,.64.64,0,0,0,.36-.14l-.19-.07.83.2c-.12,0-.28-.11-.26-.24l.09.14,0-.23.23.28a.52.52,0,0,1-.11-.64s.09,0,.08,0,.08-.07,0-.1a.21.21,0,0,0,.19-.14.15.15,0,0,1-.11.18l.17-.06a.07.07,0,0,0,0,.12.17.17,0,0,0,.14,0l0,.12a.19.19,0,0,0,.07-.14l.06.15.27-.14s0,0,0,.06a0,0,0,0,0,.07,0l.07-.12a.09.09,0,0,1,0,.11.07.07,0,0,1,.11,0s0,.08,0,.13v-.12a.07.07,0,0,1,.11,0,.11.11,0,0,1,.07-.12l0,.18.1-.08a.25.25,0,0,0,.34,0l-.05.12.19-.08a.67.67,0,0,0-.14.15,2,2,0,0,1,.49,1s.05,0,.05,0l.06-.28,0,.1,0-.15,0,.14.12-.27,0,.14.17-.2a.74.74,0,0,0-.08.3.38.38,0,0,0,.09-.24s0,.06.06,0,0-.05.05-.08a.12.12,0,0,1,0,.15l.15,0a.57.57,0,0,0-.11.22.76.76,0,0,1,.32-.11,1,1,0,0,1,.22.75.28.28,0,0,0-.18.21s0,.06,0,.05a1.35,1.35,0,0,0,0,.72,1,1,0,0,1,0,.34Zm-3.9-1.65,0,0a.14.14,0,0,0-.05.1.22.22,0,0,0,.08-.13l0,0a0,0,0,0,0,0,0Zm.93-1.12a0,0,0,0,0,0,0,0,0,0,0,0,0,.06v.1s0,0,0,.06v-.18s0,0,0,0,0,0,0,0Zm-4.15,2.76a0,0,0,0,1,0,0h0s0,0,0,0,0,0,0,0,0,0,0,0l0,0s0,0,0,0l0,0,0,0s0-.06,0-.06Zm5.92-.27s0,0,0,0v0a.13.13,0,0,0-.05-.11.15.15,0,0,1,0-.14.08.08,0,0,1-.08,0l0,0s0,0,0,0l0,0a.15.15,0,0,0,0,.13.88.88,0,0,0,.05.15h0s0,0,0,.06a.16.16,0,0,0,.12.08s0,0,0,0,0,0,0,0l.06,0a.06.06,0,0,1,.07,0l.14,0s0,0,0,0,0,0,0,0a0,0,0,0,0,0,0,1.5,1.5,0,0,1-.16-.34.1.1,0,0,0,0-.05Zm-1.34,0a.07.07,0,0,1-.11,0l.1-.1,0,0a.18.18,0,0,0-.13.12l0,0s0,0,0,0h0v0l.06-.12A.14.14,0,0,0,144,22l0,0h0a0,0,0,0,0,0,0,.41.41,0,0,1-.15.07c-.05,0-.09.1-.05.14h-.06l.05-.14a.12.12,0,0,0-.07.17.83.83,0,0,1,0,.15c0,.07.06.13.08.2a1.17,1.17,0,0,1,.06.2.73.73,0,0,0,.35.44s0,0,0,0,.06,0,.07,0a.09.09,0,0,1,0,.08.05.05,0,0,0,0,.08s.06,0,.06-.08,0-.05,0-.07.06,0,.09,0,.06,0,.08-.06a.51.51,0,0,1,.22-.19.87.87,0,0,0,.19-.1.72.72,0,0,0-.45-.13c-.08,0-.14-.08-.19-.15a1.07,1.07,0,0,0-.16-.14s-.05,0-.05-.06.05,0,.08-.06.09,0,.08-.07a.1.1,0,0,0-.11-.05.18.18,0,0,0-.1.07.11.11,0,0,1,0-.09l.06-.05s0,0,0-.08a.25.25,0,0,0,0-.07s0,0,0,0h0l0,0,0,0Zm-1.34-1.72a.08.08,0,0,1,0-.1s.05,0,0,0a.12.12,0,0,0,.08,0,.08.08,0,0,1-.08,0,.28.28,0,0,0-.24-.05h-.28a0,0,0,0,1,0,0s-.06,0-.1-.06l-.19,0s0,0,0,0a0,0,0,0,1,0,0,0,0,0,0,0,0,0l.16.18a.34.34,0,0,1,.1-.16l0,.07a.06.06,0,0,0,0,.07s.06,0,.06,0a.08.08,0,0,1,0,.1l0,0s0,0,0,0,0,0,0,0a0,0,0,0,0,0,.07l0,0a.53.53,0,0,1,.08.17.2.2,0,0,0,.14-.06.13.13,0,0,1,0,.06s0,0,0,0a.08.08,0,0,0,0,0,.16.16,0,0,1,.13-.11.06.06,0,0,0-.08,0,.14.14,0,0,1,0-.12s.05-.05,0-.08l.07-.07Zm-1.6.39s0,0,0,0,0,0,0,0,0,0,0,0h0l0,0a.06.06,0,0,0,0,0l0,0s0,.09-.08.11,0,0,0,0h0s0,0,0,0l0,0a0,0,0,0,0,.06,0v0a.06.06,0,0,0,0,.07s0,0,0,0v0s.05,0,.07-.07a.08.08,0,0,0,0-.07l0,0a1,1,0,0,1,.15-.2s0,0-.06,0v0s-.08,0-.1.05,0,0-.05,0a.11.11,0,0,0-.07,0s0,0,0,0v0a0,0,0,0,0-.06,0,.2.2,0,0,0-.11,0Zm3.83,2.44s0,0,0,0l0,0s0,0,0,0v0l.06-.07.08-.06a.23.23,0,0,0,.1-.12.29.29,0,0,0-.1-.12l-.14-.09a.41.41,0,0,0,.05.09s0,.08,0,.1a.54.54,0,0,0-.05.11l0,0,0,.09a0,0,0,0,1,0,0l0,0s0,0,0,0Zm-4.45-1.65a0,0,0,0,1,0,0,0,0,0,0,1,0,0h0s0,0,0,0,0,0,0,0,0,0,0,0,0,0,0,0,0-.05,0-.06,0,0,0,.06a.08.08,0,0,0,.07.1l0,0a.08.08,0,0,0,.08,0,.07.07,0,0,0,0-.06s-.07,0-.09-.08a.12.12,0,0,0-.08,0h0a.16.16,0,0,1-.08-.06v0l0,0,0,.08h0Zm4.05,1.91h0a.11.11,0,0,1-.08,0l0,0h0s0,0,0,.05a.07.07,0,0,1,0,.06s0,.06,0,.07a.16.16,0,0,0,.09,0l.06,0s0-.06,0-.07,0,.05,0,.05,0,0,0,0v0a0,0,0,0,0,0,0s0,0,0,0l-.05,0ZM143.09,20s0,0-.05,0h0s0,0-.06,0h-.09l-.06,0a0,0,0,0,0,0,0h.13s0,0,0,0h0s.05,0,.07,0a.15.15,0,0,0,.11,0Zm3.36,1.36a0,0,0,0,1,0-.06c0-.05,0-.15,0-.19a1.84,1.84,0,0,1,0,.41,2.93,2.93,0,0,0-.05.29.47.47,0,0,0,.06-.15s0,0,0,0v-.23h0s0,0,0,0,0,0,0,0Zm-2.55-1.19-.14-.08h0s0,0-.07-.05a1.57,1.57,0,0,0-.3-.05l.21.06.16.05a1.37,1.37,0,0,1,.32.16.32.32,0,0,0-.13-.1Zm-4.31,1.15a0,0,0,0,0-.05,0s0,.05,0,.05a.15.15,0,0,0,.09-.06.17.17,0,0,1,.07-.13,0,0,0,0,0,0-.05.08.08,0,0,0,0,0,.12.12,0,0,1-.07.1,0,0,0,0,1,0,0l0,0s0,.05,0,.07,0,0,0,0a.08.08,0,0,1,0-.05Zm.26.09s.06,0,.08-.06a.11.11,0,0,1,0,.05l0-.06h0s0,0,0,0l0,0s0,0,0,0h.05a0,0,0,0,1,0,0s0,0,0,0h-.06l0,0a0,0,0,0,1,0,0l0,0s0,0,0,0,0,0,0,0h0a0,0,0,0,0,0,0s0,0,0,0h0s0,0,0,0Zm6.13-.53,0,0a0,0,0,0,1,0,0,0,0,0,0,0,0,0s0,0,0,0a.13.13,0,0,0,0,.05.09.09,0,0,1,0,.05.36.36,0,0,0,0,.11l0,0s0,0,0,0a0,0,0,0,0,0,0s0,0,0,0,0,0,0,0l.05,0a.18.18,0,0,0-.05-.07Zm-3.08-.36-.05,0s0,0,0,0a0,0,0,0,1,0,0l.06,0s0,0,0,0l0,0,0,0v.05s-.06,0-.05.05,0,0,0,0l0,0s0,0,0,0,0,0,0,0l.07,0h0l0,0Zm.28-.39s0,0,0,0a.47.47,0,0,0,.17,0l.22.07s0,0,0,0l-.14,0-.11,0h-.14Zm-2,.85.06,0,0,0s0,0,0,0a.08.08,0,0,0-.07,0l0,.08v0a0,0,0,0,0,.07,0s0,0,0,0a0,0,0,0,1,0,0h0a0,0,0,0,0,0,0s0,0,0,0h0a.05.05,0,0,1,0,0Zm2-.68a.25.25,0,0,0,.14.06h0a.12.12,0,0,0,.1,0l.05,0h.06a.76.76,0,0,0-.16-.06.7.7,0,0,1-.14,0s-.06,0-.09,0Zm-4,1.92a0,0,0,0,1,0,0s0,0,0,0a1.46,1.46,0,0,0-.07.19s0,0,0,0l0,0s0-.07,0-.08a.28.28,0,0,0,.09-.1h0s0,0,0,0Zm3.2-1.72h0l.08.11a.11.11,0,0,0,.06.07s0,0,0,0a0,0,0,0,0,0,.05v-.06h0l0,0a.07.07,0,0,1-.05-.09l-.07-.06Zm-1.77-.13h-.11s0,0,0,0,.06,0,.06,0a.08.08,0,0,0-.09,0s-.07,0-.1.05h0s.07,0,.09,0a.08.08,0,0,0,.11,0Zm1.1.17-.08,0s0,0,0,0,0,0,0,0a.09.09,0,0,0-.07,0s0,0,0,0,0,0,0,.05a0,0,0,0,0,0,0,0,0,0,0,1,0,0,.1.1,0,0,0,.09,0Zm3.49,1.33h0l.05-.06a.31.31,0,0,0,0-.1,0,0,0,0,0,0,0,0,0,0,0,0,0,0l-.08.12Zm-6.11,1.43a.14.14,0,0,0,.09,0,0,0,0,0,0,0,0s0,0,0,0h.05a.13.13,0,0,0,.07,0h0l-.06,0h0s0,.06,0,.07Zm7-.63.1-.06s.07-.05.09-.09l-.09,0-.1.07s0,0,0,0Zm-4.69-.79v0a.59.59,0,0,0,.13-.18.06.06,0,0,0,0,0s-.05.06-.07.1a.28.28,0,0,1-.09.1Zm.4-1.35a.14.14,0,0,0,0,.11.08.08,0,0,0,0,0,.11.11,0,0,0,0-.08.16.16,0,0,0,0-.07Zm-.08,1-.08.07-.06.05a0,0,0,0,0,0,0s0,0,0,0,0,0,0,0h0a.87.87,0,0,1,.16-.17Zm-2.1.84s0,0,0,0a.07.07,0,0,0-.09,0,.16.16,0,0,0-.07.09h0a.08.08,0,0,0,0,0,.09.09,0,0,1,.08-.05ZM144,19.71s0-.05,0-.07a.21.21,0,0,0,0,.11.11.11,0,0,1,0,.08.09.09,0,0,0,0,.09.07.07,0,0,0,0-.05.11.11,0,0,1,0-.08s0-.05,0-.08Zm-2.29,1.08a.1.1,0,0,0,0-.09.59.59,0,0,1-.13.19,0,0,0,0,0,0,0l.06-.07s0,0,.05-.06Zm-.92.43,0,0s0,0,0,0a.07.07,0,0,0-.05.1s0-.05.05-.07.06,0,.06-.08a0,0,0,0,1-.05,0h0Zm5-.31h0a0,0,0,0,0,0,0l0-.07s0,0,0,0,0,0,0,0h0v0a.11.11,0,0,0,0,.1Zm-6.26,1.33a0,0,0,0,0,0,0,.09.09,0,0,1-.06.06h0s0,0,0,0a.06.06,0,0,0,.08,0h0a0,0,0,0,1,0,0s0,0,0,0Zm3.77-1.88s0,0,0,0a.47.47,0,0,0,.15.06h0a0,0,0,0,0,0,0h0l-.12,0s0,0,0,0ZM140.7,23v0s0,0,0,.07,0,0,0,0a.22.22,0,0,1,0-.08s0-.06,0-.07a.28.28,0,0,0,0,.09Zm3.66-1.07-.06.12h0s0,0,0,0,0,0,0,0a.13.13,0,0,0,0-.12Zm-5.1.65s0,0,.06,0h0a.08.08,0,0,0,.1,0h-.11a.07.07,0,0,0-.07.07Zm.16-.34a.11.11,0,0,0,0,.07.06.06,0,0,0,0-.08s0,0,0,0,0,0,0,0a0,0,0,0,0,0,.05l0,0Zm6-2.14a.51.51,0,0,0,0-.21s0,0,0,0a1.55,1.55,0,0,0,.05.23Zm-.65.78a.12.12,0,0,0,0-.1,0,0,0,0,0,0,0,.06.06,0,0,0,0,.07.1.1,0,0,0,0,.05Zm-5.43,1.43v0h0v0a.13.13,0,0,1,0-.06s0,0,0,0,0,0,0,0l0,0h0a0,0,0,0,1,0,0h0l0,0a0,0,0,0,0,0,.05Zm.83-.74,0,0a0,0,0,0,0,0,0l-.08,0s0,0,0,0h0v0Zm4.07.38a0,0,0,0,0,0,0s0,0,0,0l.07-.14v0h0a.36.36,0,0,0,0,.09.08.08,0,0,1,0,.07Zm-4.45-.7a.15.15,0,0,1,0,.07.07.07,0,0,0,0-.07v0a0,0,0,0,0-.05,0,0,0,0,0,0,0,.05l0,0Zm1.31-.12,0-.07a.08.08,0,0,0,0,.06h0a.08.08,0,0,0,0,0h0a0,0,0,0,0,0-.05Zm.5-.69s0,0,0,0h.06l.09,0a0,0,0,0,0,0,0,.23.23,0,0,0-.15,0Zm3.64-.93a.12.12,0,0,0-.1,0h0a.08.08,0,0,0,.11,0Zm-5,4.73a0,0,0,0,0,0,.06h0s0,0,0,0l0,0h0a0,0,0,0,0,0,0,.07.07,0,0,1-.06,0h0s0,0,0,0a0,0,0,0,0,0,0Zm5.86-3.9s.05-.05.06-.08l0-.07s0,0,0,0a.61.61,0,0,0-.07.14Zm-1.89,3.54s0,0,0,0a.47.47,0,0,0,.1-.1s0,0,0,0l-.08.08Zm1-2.8s0,0,0,0L145,21s0,0,0,0l.1.08Zm-3.85-.23a.05.05,0,0,0,0,0,.1.1,0,0,1-.05,0s0,.06,0,.06a0,0,0,0,0,0-.05s0,0,0,0Zm5.12,1s0,0,0,0l0,.12s0,0,0-.05a.07.07,0,0,1,0-.05v0s0,0,0,0Zm-5.14.18s0,0,0-.05v0s0,0,0,0l-.07.1a0,0,0,0,0,0,.05.07.07,0,0,0,0-.06Zm-1.46.59s-.05,0-.08,0h0a.1.1,0,0,0,.09,0,.19.19,0,0,0,.06-.07s0,0-.06,0Zm.58-2.19-.1.05h0a0,0,0,0,0,0,0h0s0,0,0,0,0,0,0,0Zm3.62-.82a.47.47,0,0,0,.12.07h0a.42.42,0,0,1-.14-.09,0,0,0,0,0,0,0Zm-4.65,2.88s0,0,0,0h-.05s0,0,0,0,0,0,0,0,0,0,0,0h.06Zm3.42-1.75s0,0,0,0a0,0,0,0,0,0,0v0l.06-.09Zm-3.39,1.64,0,0a0,0,0,0,0,0,0h.07s0,0,0,0ZM143,20.4h.12s-.05,0-.08,0a.05.05,0,0,0,0,0Zm-2.56,3.74s0-.06,0-.09a.25.25,0,0,0,0-.07.24.24,0,0,0,0,.08.11.11,0,0,1,0,.08ZM146,22l0,.1v.05a0,0,0,0,0,0,0,.3.3,0,0,0,0-.13Zm-3.83-1.22-.05-.1h0a.2.2,0,0,0,.06.14v0Zm1.67-.86s0,0,0-.05a.17.17,0,0,1,0-.05l0,0a.5.5,0,0,0,0,.12Zm-2.25.24-.1-.08s0,0,0,0,0,0,0,0l.11.06Zm2.2-.13,0-.13s0,0,0,0a.55.55,0,0,0,.05.17v0Zm-3,0a0,0,0,0,0,0,.05s0,0,0,0h0a0,0,0,0,1,0,0l-.07,0Zm5.57,2a.12.12,0,0,0,0,.1l0,0s0,0,0,0v0s0,0,0,0a.06.06,0,0,0,0,0ZM144,21.82v0h0l-.08.13a.39.39,0,0,0,.08-.1Zm-3.67,1.77s0,0,0,0a0,0,0,0,0,0,0s0,.06,0,.08l0-.12Zm.38-.71a.13.13,0,0,0,0-.06,0,0,0,0,0,0-.05s0,0,0,.05a0,0,0,0,0,0,.06Zm2.94-3.41a0,0,0,0,0,0,0,0,0,0,0,0,0,0v.05a0,0,0,0,1,0,0s0,0,0,0a.61.61,0,0,1-.05-.12Zm-3,.87,0,0a.11.11,0,0,0,.08,0s0,0,0,0l-.06,0s0,0,0,0Zm.85-.14,0,0-.09,0a0,0,0,0,0,0,0h.11Zm-.08-.13-.08-.05h0a.1.1,0,0,0,0,.05Zm-.61.41a.17.17,0,0,0,.12,0s0,0-.05,0v0l-.06,0Zm-.55.67a.3.3,0,0,0,0-.13.4.4,0,0,0,0,.15,0,0,0,0,0,0,0Zm.53,2.45,0,0a0,0,0,0,0,0,0s0,0,0,0h0s0,0,0,0v0Zm3.1-4.26,0,.05s0,0,.05,0l0,0a0,0,0,0,0,0,0Zm-4.69,3s0,0,0,0v0s0,0,0,0l0,0a0,0,0,0,0,0,0Zm5.32-2.95a.1.1,0,0,0,0,.05.1.1,0,0,0,0-.09.05.05,0,0,0,0,0Zm-.45,2.53.07-.12s0,0,0,0l-.08.13s0,0,0,0Zm-3.2-2s-.05,0-.07,0v0a.06.06,0,0,0,.08,0Zm3.44,1.16a.2.2,0,0,0,0,.11.57.57,0,0,0,0-.13,0,0,0,0,0,0,0ZM143,19.89l.09,0h0l-.07,0a.07.07,0,0,0-.06,0Zm2.68,1.52a0,0,0,0,1,0,0h0a.33.33,0,0,0,0-.14s0,.08,0,.11Zm-6-.07a0,0,0,0,0,0,0s0,0,0,0l0,0a0,0,0,0,0,0-.05Zm.32.06v0a0,0,0,0,0,0-.05H140a0,0,0,0,0,0,0Zm-.58.79a.08.08,0,0,0,.1,0h-.07s0,0,0,0Zm6.06-1.72-.09,0a.18.18,0,0,0,.09.08s0,0,0,0a0,0,0,0,1,0,0Zm-.54.58s0,0,0-.06h0s0,0,0,0a.16.16,0,0,0,.08.06Zm-3.51-.74v0a.1.1,0,0,0,.09,0l-.07,0s0,0,0,0Zm2.35-.91s0,0,0,0l-.06-.05s0,.05,0,.07,0,0,0,0Zm-2.68,1.28s0,0,0,0l0,0,0,0s0,0,0,0h0s0,0,0-.05a.05.05,0,0,0,.05,0Zm-.3-.31h-.05l.05,0,.05,0a0,0,0,0,0-.05,0Zm5,1.6a.38.38,0,0,0,.09-.09v0a.31.31,0,0,0-.09.11Zm-3.5-1.46s0,0,0,.07a.08.08,0,0,0,0,.05,0,0,0,0,0,0,0l0-.09Zm3.51.42h0a.08.08,0,0,0,0,.07V21s0,0,0,0Zm-5.88.55-.06,0h0a0,0,0,0,0,.05,0,.1.1,0,0,0,0-.05Zm.64-1a.06.06,0,0,0,.06,0,0,0,0,0,0,0,0l-.06.07Zm-.55.33s0,0,0,0,0,0,0,0a.11.11,0,0,0,.08.07v0Zm1.62-.5s0,0,0,0h0l0,0a.08.08,0,0,0,.07.05Zm.79.52h0l.06.08a.11.11,0,0,0,0-.08Zm2.25-1.32h0a.11.11,0,0,0,0,.12l0-.1ZM144.27,22l0-.06s0,0,0,0a.12.12,0,0,0,0,.1Zm-1.09-1.47h-.11a.17.17,0,0,0,.14,0ZM141,20a.11.11,0,0,0-.09.06h0L141,20Zm-1.22,1.6a.05.05,0,0,0,0,0,0,0,0,0,0-.07.05l0,0Zm6.72.15h0s0,0,0,0l0,.08a.11.11,0,0,0,0,0s0,0,0,0a0,0,0,0,1,0,0Zm-6.92-.28a0,0,0,0,0,0,0h0v0a.09.09,0,0,0-.07,0Zm4.19-1.6a.21.21,0,0,0-.05-.12s0,0,0,0l.06.12Zm-4.12,1.65h0a0,0,0,0,1,0,0h0a0,0,0,0,0,0,0,.1.1,0,0,0-.1,0Zm3.54-1.5h0s0,0,0,0a0,0,0,0,0,0,0Zm-.21.71,0,0h-.05s0,0,0,0Zm-.89.21,0-.08,0,0a.12.12,0,0,0,.06.06Zm2,.64a.26.26,0,0,0-.07.11.19.19,0,0,0,.07-.11Zm.41-.43a.09.09,0,0,0,0,.07s0,0,0,0a.09.09,0,0,0,0-.09Zm-4.8,1.25h0l0,.05s0,0,0,0l0,0,0,0Zm4.75-1.23h0a.11.11,0,0,0,0,.09l0-.07Zm-.42.35-.07.1h0s0,0,0,0a.31.31,0,0,0,0-.1Zm-4.42,1,0,0v0a0,0,0,0,0,0,0l0,0Zm6.12-1.24a.22.22,0,0,1-.05.08.05.05,0,0,0,.05-.08Zm-5.76.2-.06.05s0,0,0,0a.1.1,0,0,0,.07-.07Zm.21,2.69v0s0,0,0,0,0,0,0,0,0,0,0,0Zm4.3-4.66a0,0,0,0,0,0,0s0,0,0,0,0,0,0,0a0,0,0,0,0,0,0s0,0,0,0Zm-5.22,2.44s0,0,0,0a0,0,0,0,0,0,0l.06,0v0h0s0,0,0-.06Zm5.47-1a.15.15,0,0,0,0,.11.21.21,0,0,0,0-.11Zm-4.52,3.14h0s0,.06,0,.08v-.07a0,0,0,0,0,0,0s0,0,0,0Zm6.38-1.78,0,0s0,0,0,0,0-.05,0-.07l0,.05Zm-.88-1.1v0h0a.05.05,0,0,0,0-.08l0,.06ZM139,23h0a.07.07,0,0,0,0,0s0,0,0,0Zm2.8-2a.42.42,0,0,0,0-.1s0,0,0,0l0,.1s0,0,0,0Zm.42-.27h0a0,0,0,0,0,0,0,.06.06,0,0,0,0,.06.33.33,0,0,0,0-.06Zm-1.92,3.19,0-.09,0,0a.22.22,0,0,0,.05.11Zm4.88-1.72h0a0,0,0,0,0,0,0l0,0-.05,0ZM141.79,21a.16.16,0,0,0,0-.09.15.15,0,0,0,0,.09Zm-2-.11h0a0,0,0,0,0,0,0,.09.09,0,0,0,0-.08l0,.05Zm.46.79,0,0a.07.07,0,0,0,.05-.08.08.08,0,0,0,0,.05Zm1.58-.27,0,0a0,0,0,0,0-.06,0Zm2-1.73v.08s0,0,0,0a.16.16,0,0,0,0-.1ZM140.33,24h0a.12.12,0,0,0-.07.05h0l.07-.05ZM140,21.51l0,.07s0,0,0,0l0,0a0,0,0,0,0,0,0Zm2.11-.44h0a.1.1,0,0,0,0-.07s0,0,0,.06Zm1.34-.29,0,0a0,0,0,0,0,0,0,.18.18,0,0,0-.07.05l.05,0ZM142,20.19h0s0,0-.05,0a0,0,0,0,0,0,0Zm-.82,1.91s0-.05,0-.05a.07.07,0,0,0,0,.05Zm4.24.35,0,0a0,0,0,0,0-.06,0s0,0,0,0Zm-3.08-1a.21.21,0,0,0,.11,0,.21.21,0,0,0-.11,0Zm-1-1.37h0a.08.08,0,0,0,.08,0Zm3.71-.5s0,0,0,0,0,0-.05,0l.08,0Zm-.45.79a0,0,0,0,0,0,0h0s0,0,0,0Zm-1.57.33h0v.09s0-.05,0-.08Zm2.14-1.2v0a0,0,0,0,0,.06,0h-.05Zm-4.76,4.25a.06.06,0,0,0,0,0,.14.14,0,0,0,0-.07,0,0,0,0,0,0,0Zm.31-3.66.06,0s0,0,0,0a.07.07,0,0,0-.07,0Zm4.08,1.49a.11.11,0,0,0,0,.08.06.06,0,0,0,0-.08Zm1.61.33,0,0a.1.1,0,0,0,0,.09s0,0,0-.06Zm-2.85-1.26a.06.06,0,0,0-.08,0Zm.32-1.05h0v0h0s0,0,0,0Zm2.37.54s0,0,0,.06,0,0,0-.06Zm-2.13-.34a0,0,0,0,0,0,0s0,0,0,0l0,0Zm-4.54,2.42h0s0,0,0,0h0a0,0,0,0,0,0,0Zm3.91-.82a.14.14,0,0,0-.07.06.13.13,0,0,0,.07-.06Zm.12-2s0,0,0,0,0,.06,0,.07,0,0,0,0Zm.12,2.41,0,0a.16.16,0,0,0-.06.08l0,0Zm-4.4.3h0s0,0,.05,0a0,0,0,0,0-.05,0l0,0Zm1.74-1.25h0a0,0,0,0,0,0,0h0Zm-.15-.51,0,0a0,0,0,0,0,0,0s0,0,0,0a0,0,0,0,0,0,0Zm-.54,3.25s0,0,0,0v.07l0-.1Zm3.42-2.52s0,0,0,0,0,0,0,0a.16.16,0,0,0,0,.07ZM143,22l0,0a.05.05,0,0,0,0-.06,0,0,0,0,0,0,0Zm1.53-.27V21.7a.08.08,0,0,0,0,.08s0,0,0,0Zm.48-.83.09,0a.08.08,0,0,0-.09,0Zm.24-1.18.05,0,0,0s0,0,0,0Zm-2.47,1.84.06-.06a.06.06,0,0,0-.06.06Zm.06-.84v0a0,0,0,0,0,0-.07l0,0Zm2.65,1.74v0h0l0,0h0s0,0,0,0Zm.19-1.42a0,0,0,0,0,0,0l0-.06s0,0,0,0ZM145,19.5a0,0,0,0,0,0,0s0,0,0,0h0a0,0,0,0,0,0,0Zm-4,1.7s0,0,0,0h0a.08.08,0,0,0,0,0s0,0,0,0Zm-.21,1.52s0,0,0,0a.09.09,0,0,0,0-.07s0,0,0,0Zm4.6-.39a0,0,0,0,0,0,0l0,0a0,0,0,0,1,0,0s0,0,0,0Zm-3-1.62s0,0,0,0a.15.15,0,0,0,0-.07h0v0Zm2.4.23h0s0,0,0,.05,0,0,0,0ZM139,23.26s0,0,0,0h0l0,0Zm2.86-3.12a0,0,0,0,0,0,0,0,0,0,0,0,.06,0l0,0Zm2-.44a.07.07,0,0,0,0,.07V19.7Zm-3.35,4a0,0,0,0,0,0-.05.06.06,0,0,0,0,.06Zm-1.09-2.28s0,0,0,0a.1.1,0,0,0,0,0s0,0,0,0Zm6.67-1a0,0,0,0,0,0,0l0,0h0a0,0,0,0,0,0,0Zm.55.93s0,0,0,0h0v.05a0,0,0,0,0,0,0Zm-6.41,2.29a0,0,0,0,0,0,0l0,.06s0,0,0,0Zm.92-2.69v0h0s0,0,0,0a0,0,0,0,0,0,0Zm3.66.3,0,0a.08.08,0,0,0,0,.07s0,0,0,0Zm.13-1.53a0,0,0,0,0,0,0,.06.06,0,0,0-.06,0Zm-.34,2.12s0,0,0,0,0,0,0,.06l0,0Zm-1-.27,0,0a.07.07,0,0,0,.06,0Zm-1.11,0,0,0h0s0,0,0,0a0,0,0,0,0,0,0Zm-2.43.05,0,0h-.05v0h0Zm5.78.47,0,0s0,0,0,0a.08.08,0,0,0,0,.06ZM140,20.68s0,0,0,0l0,0,0,0Zm5-1.17h0s.05,0,.05,0Zm-2.1.95h0l-.06,0s0,0,0,0Zm-2.31,0s0,0,0,0l-.05,0s0,0,0,0Zm2.89-.9s0,0,0,0a0,0,0,0,0,0,0h0v0Zm-4.1,3.91v0h0a.09.09,0,0,0,0-.05v0Zm2.46-1.64a.05.05,0,0,0,0-.05,0,0,0,0,0,0,.05Zm4.71-.41v.05a0,0,0,0,0,0-.06,0,0,0,0,0,0,0Zm-.15.48s0,0,0,0,0,0,0,.05,0,0,0,0Zm-3.76-1.08h-.05s0,0,.05,0Zm2.27-1.2a.13.13,0,0,0,0-.06s0,0,0,.06ZM144,20v0s0,0,0,0,0-.05,0-.06Zm-.34-.7h0a.05.05,0,0,0,0,0,0,0,0,0,0,0,0Zm-4.42,3.11h0l0,0s0,0,0,0,0,0,0,0Zm1.69-1.84v0a0,0,0,0,0,0,0,0,0,0,0,0,0,0Zm-1.19.68a.05.05,0,0,0,0,0l0,0v0Zm4.4-1.31V20a.14.14,0,0,0,0-.09.06.06,0,0,0,0,0Zm-1.94,1s0,0,0,0,0,0,0,0,0,0,0,0l0,0v0Zm-1.71.9s0,0,0,0a.05.05,0,0,0,0,0,0,0,0,0,0,0,0Zm4,1.73v0s0,0,0,0a0,0,0,0,0,0,0s0,0,0,0Zm-5.08-.22a0,0,0,0,0,0,0s0,0,0,0l0,.05Zm1.13.12a0,0,0,0,0,0,0s0,0,0,0a0,0,0,0,0,0,0Zm-.35.67s0,0,0,0,0,0,0,0a.08.08,0,0,1,0,0Zm.54-3.88v0l0,0Zm1.74.52s0,0,0,0h0l0-.07a0,0,0,0,0,0,0ZM140.26,23a.08.08,0,0,0,0-.06.09.09,0,0,0,0,.06Zm.21-.1s0,0,0,0h0a0,0,0,0,0,0,0l0,0Zm-.16-2.5s0,0,0,0l-.05,0h0Zm4.51-.73a0,0,0,0,0,0,0s0,0,0,0v0Zm.54,2a0,0,0,0,0,0,0,0,0,0,0,0,0,0Zm-4.62-1.08s0,0,0,0Zm5,.95s0,0,0,0l0,0Zm-5.76.17a.05.05,0,0,0,0,0h0a0,0,0,0,0,0,0Zm5.11-1.92h0l0,0h0s0,0,0,0Zm-4.79,3.13h0a.08.08,0,0,0,0,.05.05.05,0,0,0,0,0Zm5-.74h0a0,0,0,0,0,0,0h0v0Zm-5.93,1.22v0s0,0,0-.05a0,0,0,0,0,0,0Zm5.09.31s0,0,0,0,0,0,0,0ZM142,20.72a.05.05,0,0,0,0,.05.05.05,0,0,0,0-.05ZM143.79,22a0,0,0,0,0,0,0,0,0,0,0,0,0,0Zm-1.57-1.32a0,0,0,0,0,0,0,.14.14,0,0,0,0,.06,0,0,0,0,0,0,0Zm-2,0s0,0,0,0l-.05,0a.05.05,0,0,0,0,0Zm0-.19a0,0,0,0,0,0,0l0,0Zm.73,1.21a0,0,0,0,0,0,0s0,0,0,0ZM139,23.08v0a.05.05,0,0,0,0-.05l0,0Zm3-1.92s0,0,0,0a.08.08,0,0,0,0-.05s0,0,0,0Zm-2.41,2.16a0,0,0,0,0,0,0l0,0,0,0Zm7.15-1.55a0,0,0,0,0,0,0,0,0,0,0,0,0,0Zm-5.43-.71h0Zm-.67-.76s0,0,0,0l0,0s0,0,0,0Zm-.85,4.52s0,0,0,0,0,0,0,.05v0ZM139.06,23a0,0,0,0,0,0,0,.09.09,0,0,0,0,0h0Zm.33.33a0,0,0,0,0,0,0h0Zm.65-1.72h0l0,0a0,0,0,0,0,0,0l0,0Zm1.43-1.45h0a0,0,0,0,0,0,0s0,0,0,0Zm3.76-.5v0a0,0,0,0,0,0,0l0,0Zm.31.72a0,0,0,0,0,0,0h0s0,0,0,0,0,0,0,0Zm-4.6.79-.05,0a0,0,0,0,0,.05,0Zm5.73.31v-.05s0,0,0,.05Zm-7.52,1a0,0,0,0,0,0,0,.05.05,0,0,0,0,0Zm1.95-1.85s0,0,0,0l0,0Zm3.31,1.16h0s0,0,0,0,0,0,0,0Zm.48-.09s0,0,0-.05v.05Zm-5.84,2.38s0,0,0,0,0,0,0,0Zm2.67-3.58a0,0,0,0,0,0,0s0,0,0,0v0Zm2.15.66s0,0,0,0a0,0,0,0,0,0,0s0,0,0,0Zm-3.71.84a0,0,0,0,0,0,0,.06.06,0,0,0,0,0s0,0,0,0Zm4.06-1v0s0,0,0,0a0,0,0,0,0,0,0Zm-3.1-.61s0,0,0,0,0,0,0,0Zm-1.64,2.07s0,0,0,0h0a0,0,0,0,0,0,0s0,0,0,0ZM142,21h0s0,0,0,.05a.05.05,0,0,0,0,0Zm2-1s0,0,0,0a0,0,0,0,0,0,0Zm1.22.28a0,0,0,0,0,0,0l0,0v.05Zm.33-.07s0,0,0,0l0,0Zm-5.62,3.29s0,0,0,0,0,0,0,0h0Zm-.32-.73,0,0a0,0,0,0,0,0,0Zm-.14,0s0,0,0,0h0s0,0,0,0a0,0,0,0,0,0,0Zm1.72-2.23s0,0,0,0,0,0,0,0Zm-.94,1.33v0l0,0s0,0,0,0Zm1.39-1.44h0Zm1.22.51s0,0,0,.05a.05.05,0,0,0,0-.05Zm1.78-1.51,0,0s0,0,0,0h0s0,0,0,0Zm.6.42a.08.08,0,0,0,0,0,0,0,0,0,0,0,0Zm-.49,1.24s0,0,0,0a.05.05,0,0,0,0,0Zm-4.55.62a0,0,0,0,0,0,0l0,0Zm.77-.76a0,0,0,0,0,0,0h0s0,0,0,0Zm1.84.28s0,0,0,0l0,0s0,0,0,0Zm.81.09,0,0a.05.05,0,0,0,0,0Zm.42-1.4s0,0,0,0a0,0,0,0,0,0,0h0Zm-3.72,4.18v0s0,0,0,0,0,0,0,0Zm4.18-2.14v0s0,0,0,0Zm-.54-2.2a0,0,0,0,0,0,0,.06.06,0,0,0,0,0s0,0,0,0Zm-.33,1.9,0,0a.1.1,0,0,0,0,0Zm-3.29-1h0ZM140,24.24a0,0,0,0,0,0,0,0,0,0,0,0,0,0Zm-.07-1.73s0,0,0,0a0,0,0,0,0,0,0Zm.2,1.58a0,0,0,0,0,0,0,0,0,0,0,0,0,0Zm3-2.06s0,0,0,0a0,0,0,0,0,0-.05Zm-1.49-1.72s0,0,0,0h0Zm4,2.28,0,0s0,0,0,0a0,0,0,0,0,0,0Zm-5.33.18v0s0,0,0,0l0,0Zm.28-2.18,0,0h0v0Zm3.67.93s0,0,0,0a.08.08,0,0,0,0,0l0,0Zm-4-1.05h0a0,0,0,0,0,0,0Zm2-.07h0s0,0,0,0,0,0,0,0Zm-2.78,2.22s0,0,0,0,0,0,0,0Zm.54,1.62a0,0,0,0,0,0,0s0,0,0,0a0,0,0,0,0,0,0Zm5.37-2.34h0v0h0s0,0,0,0Zm-3.76-1.25s0,0,0,0,0,0,0,0a0,0,0,0,0,0,0Zm1.23,1.29,0,0s0,0,0,0Zm2.2.93h0s0,0,0,0a0,0,0,0,0,0,0Zm1.51-1.4s0,0,0,0a0,0,0,0,0,0,0Zm-6.35-.81s0,0,0,0a0,0,0,0,0,0,0s0,0,0,0Zm1.4-.06h0l0,0s0,0,0,0Zm4,1.92s0,0,0,0,0,0,0,0ZM144.07,21v0s0,0,0,0Zm.88.64s0,0,0,0a0,0,0,0,0,0,0Zm-.09,1.69s0,0,0,0,0,0,0,0Zm-.45-3.77s0,0,0,0,0,0,0,0h0ZM144,21.4l0,0s0,0,0,0Zm-3.12-1h0Zm-1.79,2.15a0,0,0,0,0,0,0h0s0,0,0,0Zm1,1.72a0,0,0,0,0,0,0,.06.06,0,0,0,0,0l0,0Zm3.8-4.83a0,0,0,0,0,0,0l0,0Zm-.81.59s0,0,0,0v0h0Zm-2.39,3.5a.06.06,0,0,0,0,0,0,0,0,0,0,0,0Zm1.1-3.3,0,0a.05.05,0,0,0,0,0Zm3.74-.14a0,0,0,0,0,0,0h0l0,0Zm-6.26,3.2s0,0,0,0l0,0Zm1.4-1.59h0s0,0,0,0Zm4.06-1.94,0,0a0,0,0,0,0,0,0Zm-3.93.57s0,0,0,0,0,0,0,0l0,0Zm-.29,3a0,0,0,0,0,0,0s0,0,0,0Zm4.5-3.66a0,0,0,0,0,0,0h0Zm-5.25,2v0s0,0,0,0Zm.55,2.45s0,0,0,0a0,0,0,0,0,0,0s0,0,0,0Zm3.33-3.87,0,0,0,0Zm1,.54s0,0,0,0a.06.06,0,0,0,0,0Zm-4.43,2.65s0,0,0,0a0,0,0,0,0,0,0s0,0,0,0ZM142,21.65s0,0,0,0h0Zm.7-.77s0,0,0,0,0,0,0,0Zm1.55.33a0,0,0,0,0,0,0,0,0,0,0,0,0,0v0Zm-3.89,2.32a0,0,0,0,0,0,0,.06.06,0,0,0,0,0Zm-.16.49a0,0,0,0,0,0,0v0h0Zm4-2.7s0,0,0,0,0,0,0,0Zm-1.74-.75h0s0,0,0,0a0,0,0,0,0,0,0Zm-1-.21s0,0,0,0h0s0,0,0,0Zm-1.67,3.12v0s0,0,0,0Zm6.79-1.11a0,0,0,0,0,0,0,0,0,0,0,0,0,0v0Zm-5.92,1.22a0,0,0,0,0,0,0h0s0,0,0,0Zm-1.44-1.13s0,0,0,0,0,0,0,0Zm5.21-.46a0,0,0,0,0,0,0h0a0,0,0,0,0,0,0Zm-4.36-1.2h0a0,0,0,0,0,0,0s0,0,0,0Zm5.21-.44v0h0Zm-6.42,2.93h0Zm6-.83s0,0,0,0,0,0,0,0,0,0,0,0Zm-.79-2.5a0,0,0,0,0,0,0,.06.06,0,0,0,0,0Zm-3.78,1.77v0h0s0,0,0,0Zm1.8-1.47h0l0,0a0,0,0,0,0,0,0Zm-1.23,0h0s0,0,0,0Zm.49.34a0,0,0,0,0,0,0h0v0Zm2.86.83s0,0,0,0,0,0,0,0l0,0Zm1,.6s0,0,0,0,0,0,0,0Zm-1.72-1.22s0,0,0,0l0,0Zm1.89-1s0,0,0,0a0,0,0,0,0,0,0s0,0,0,0Zm-4.42.49v0h0s0,0,0,0Zm-1.49,3h0v0Zm.9-1.6v0h0a0,0,0,0,0,0,0Zm3.54-.13v0s0,0,0,0Zm-1.51-.89a0,0,0,0,0,0,0v0Zm.52,0s0,0,0,0l0,0Zm-.07,0h0Zm.57,1.34v0a.06.06,0,0,0,0,0s0,0,0,0Zm-4.3,1.44h0s0,0,0,0v0Zm4.69-1.72s0,0,0,0a0,0,0,0,0,0,0ZM139,23.33h0a0,0,0,0,0,0,0s0,0,0,0Zm6.32-1.52h0a0,0,0,0,0,0,0Zm1.33.6s0,0,0,0h0s0,0,0,0Zm-6.88.06s0,0,0,0,0,0,0,0Zm3.74-2.65h0a0,0,0,0,0,0,0s0,0,0,0Zm-1.62,1.41s0,0,0,0a0,0,0,0,0,0,0ZM144,19.41s0,0,0,0a0,0,0,0,0,0,0,0,0,0,0,0,0,0Zm-3,1.08a0,0,0,0,0,0,0h0Zm3.55.86s0,0,0,0,0,0,0,0Zm.32,2s0,0,0,0h0s0,0,0,0Zm-4.62-.66s0,0,0,0,0,0,0,0Zm-.78-.13s0,0,0,0,0,0,0,0h0Zm0,0s0,0,0,0h0Zm2-2.66v0s0,0,0,0,0,0,0,0Zm4.78.45s0,0,0,0,0,0,0,0Zm-5.57,1.52s0,0,0,0a0,0,0,0,0,0,0Zm.23-1.62s0,0,0,0,0,0,0,0Zm4.06.9h0s0,0,0,0,0,0,0,0Zm-1.13-.94h0a0,0,0,0,0,0,0Zm1.59-.29s0,0,0,0a0,0,0,0,0,0,0s0,0,0,0Zm-2.52.45h0s0,0,0,0Zm.68,1.21s0,0,0,0a0,0,0,0,0,0,0Zm-3.66,2s0,0,0,0h0Zm2.33-2.69h0s0,0,0,0v0Zm1.89,3s0,0,0,0ZM141,20.57v0h0s0,0,0,0Zm3.37,1.16a0,0,0,0,0,0,0s0,0,0,0Zm-3.08-.87s0,0,0,0,0,0,0,0Zm.3-.49s0,0,0,0l0,0Zm3.53,1.44s0,0,0,0h0s0,0,0,0Zm-3.93.33s0,0,0,0h0Zm4-.07v0l0,0Zm-4.37-1.75a0,0,0,0,0,0,0Zm2.79-.41s0,0,0,0,0,0,0,0Zm-3.48,2.72v0s0,0,0,0Zm.88-1.54a0,0,0,0,0,0,0l0,0s0,0,0,0Zm5.48.33s0,0,0,0h0Zm-6.86,1.18s0,0,0,0a0,0,0,0,0,0,0Zm1.82-2.26a0,0,0,0,0,0,0h0Zm.53.3s0,0,0,0,0,0,0,0Zm-2.25,1.87v0a0,0,0,0,0,0,0Zm5.65-2.12h0s0,0,0,0h0Zm-.08-.77a0,0,0,0,0,0,0s0,0,0,0Zm-4.16,1.18s0,0,0,0,0,0,0,0Zm3,.49s0,0,0,0,0,0,0,0Zm-3.61,1.61a0,0,0,0,0,0,0s0,0,0,0Zm.22-2.5a0,0,0,0,0,0,0h0s0,0,0,0Zm-.19.11a0,0,0,0,0,0,0Zm-.26,1.26h0a0,0,0,0,0,0,0Zm-.14,1.76a0,0,0,0,0,0,0s0,0,0,0h0Zm6.33-2v0s0,0,0,0ZM145,20.9s0,0,0,0,0,0,0,0ZM140.83,22h0Zm-.26,1.54s0,0,0,0v0s0,0,0,0Zm5.13-2.41h0s0,0,0,0h0Zm1.24-.13s0,0,0,0,0,0,0,0Zm-6-.4s0,0,0,0,0,0,0,0Zm-.12,0s0,0,0,0h0s0,0,0,0Zm5.49,1.19s0,0,0,0,0,0,0,0Zm-3.78-.16h0Zm-2.1-1.24h0s0,0,0,0Zm6.32.65s0,0,0,0,0,0,0,0Zm-1.58-1a0,0,0,0,0,0,0h0s0,0,0,0Zm.65,1.93h0s0,0,0,0Zm1-.95s0,0,0,0,0,0,0,0Zm-7.12.47s0,0,0,0h0Zm6.34-.6a0,0,0,0,0,0,0,0,0,0,0,0,0,0Zm-6.31.45s0,0,0,0,0,0,0,0Zm4-1.89s0,0,0,0,0,0,0,0Zm-3.23,4s0,0,0,0,0,0,0,0ZM145.45,20s0,0,0,0,0,0,0,0Zm-5.27,4.35a0,0,0,0,0,0,0s0,0,0,0Zm3.95-4s0,0,0,0,0,0,0,0Zm-3.37-.2a0,0,0,0,0,0,0h0s0,0,0,0Zm-.61,3.36v0s0,0,0,0Zm4.26-1.64a0,0,0,0,0,0,0h0s0,0,0,0Zm-5.21,1.23s0,0,0,0v0Zm.94-1.5s0,0,0,0h0a0,0,0,0,0,0,0Zm4.63-2.07s0,0,0,0h0Zm-3.54,1.34a0,0,0,0,0,0,0s0,0,0,0Zm-.59-.53v0s0,0,0,0Zm.46-.54s0,0,0,0,0,0,0,0Zm1.47.87s0,0,0,0h0a0,0,0,0,0,0,0Zm.17.6h0s0,0,0,0Zm-1.6-.9s0,0,0,0h0s0,0,0,0Zm-.18.68s0,0,0,0,0,0,0,0Zm3.41-1.56a0,0,0,0,0,0,0h0s0,0,0,0Zm.4,1.55s0,0,0,0,0,0,0,0Zm-2,.3h0s0,0,0,0Zm3.95,0s0,0,0,0h0s0,0,0,0ZM143.93,20h0ZM141.1,22s0,0,0,0,0,0,0,0Zm1-1.45s0,0,0,0,0,0,0,0Zm.25.42h0s0,0,0,0Zm3.19-.79h0s0,0,0,0Zm-2.58.33v0a0,0,0,0,0,0,0Zm-1.29,0a0,0,0,0,0,0,0s0,0,0,0ZM139,23.9s0,0,0,0ZM141,20s0,0,0,0,0,0,0,0Zm-1.27,2.29s0,0,0,0a0,0,0,0,0,0,0Zm.84,1.4s0,0,0,0,0,0,0,0Zm4.75-2h0s0,0,0,0Zm-1.16.08s0,0,0,0a0,0,0,0,0,0,0Zm-4.73.4s0,0,0,0Zm.71-.47h0s0,0,0,0Zm-.09,0s0,0,0,0Zm6.74-.52s0,0,0,0h0Zm-6.26.48h0s0,0,0,0ZM142,20.14s0,0,0,0h0Zm-1.51,3.8s0,0,0,0,0,0,0,0Zm3.58-2.18a0,0,0,0,0,0,0,0,0,0,0,0,0,0Zm-4.5.78v0s0,0,0,0Zm3.72-2.07s0,0,0,0Zm1.42-.66s0,0,0,0,0,0,0,0Zm-4.7,1.63s0,0,0,0,0,0,0,0Zm2.46-.8s0,0,0,0,0,0,0,0Zm4.21.67h0Zm-1.64-1.38s0,0,0,0,0,0,0,0Zm-4.18,1.36s0,0,0,0Zm3.1-.15h0s0,0,0,0Zm-3-.45h0Z"/></g><g id="Draw_Layer-3" data-name="Draw Layer"><path class="cls-1" d="M140.42,16.85h0a0,0,0,0,0,0,0Z"/><polygon class="cls-1" points="140.43 16.85 140.43 16.85 140.43 16.85 140.43 16.85 140.43 16.85 140.43 16.85"/><path class="cls-1" d="M140.58,17h0l0,0v0Z"/><path class="cls-1" d="M140.64,17s0,0,0,0h0l0,0v0Z"/><path class="cls-1" d="M140.69,17h0a0,0,0,0,0,0,0s0,.06.08,0,0,0,0,0h0s0,0-.06,0Z"/><path class="cls-1" d="M140.79,17.08h0a0,0,0,0,0,0,0l0,0a.1.1,0,0,0,.05,0l.15.07.08.05,0,0h0l.08,0,.1.06v0l-.09,0h0l0,0-.08,0h0s0,0,0,0h0l-.05,0-.07,0-.05,0-.14-.08h-.05Z"/><path class="cls-1" d="M141.46,17.46h0s0,0,0,0Z"/><path class="cls-1" d="M141.53,17.57l.07,0a.07.07,0,0,0-.06,0Z"/><path class="cls-1" d="M141.69,17.65s0,0,0,0h0a.05.05,0,0,0,.05,0Z"/><path class="cls-1" d="M141.8,17.69h0s0,0,0,0,0,0,0,0a0,0,0,0,0,0-.06h0Z"/><path class="cls-1" d="M141.67,17.78a.08.08,0,0,0-.07-.07.12.12,0,0,0,.07.07Z"/><path class="cls-1" d="M142,17.79a.08.08,0,0,1,.07,0s0,0,0,0l0,0,0,0s0,0,0,0l-.14-.08h0Z"/><path class="cls-1" d="M141.78,17.79h0s0,0,0,0Z"/><path class="cls-1" d="M141.69,17.81c.13.08.27.15.41.22l.06,0a.25.25,0,0,0,.19.09l-.2-.14-.07,0a2.69,2.69,0,0,0-.29-.16l-.08,0Z"/><path class="cls-1" d="M142.18,17.89l.15.11.1.05a.24.24,0,0,0,.08.06s0,0,0,0a.27.27,0,0,0-.12-.06l-.09-.08-.09-.07h-.07Z"/><path class="cls-1" d="M141.87,18s0,0,0,0,0,0,0,0Z"/><path class="cls-1" d="M142.18,18h0Z"/><path class="cls-1" d="M142.05,18.07h0s0,0,0,0Z"/><path class="cls-1" d="M142.28,18.07h0a0,0,0,0,0,0,0Z"/><path class="cls-1" d="M142.1,18.09s0,0,0,0,0,0,0,0Z"/><path class="cls-1" d="M142.39,18.12v0h0a0,0,0,0,0,0,0Z"/><path class="cls-1" d="M142.62,18.17a.18.18,0,0,0-.07-.05.08.08,0,0,0,.07.05Z"/><path class="cls-1" d="M142.64,18.19l.06,0,.06,0h0s0,0,0,0,0,0,.05,0a.16.16,0,0,0,.09.05.36.36,0,0,0-.14-.11h0a.24.24,0,0,0-.09-.08h0Z"/><path class="cls-1" d="M142.49,18.2h0Z"/><path class="cls-1" d="M142.51,18.21a0,0,0,0,0,.06,0l0,0a6.41,6.41,0,0,1,.79.58c0-.05,0-.1-.07-.13l-.69-.47a.18.18,0,0,0-.1,0Z"/><path class="cls-1" d="M142.53,18.3h0a0,0,0,0,0,0,0h0s0,0,0,0Z"/><path class="cls-1" d="M143.26,18.9a0,0,0,0,0,0,0c0-.06-.1-.1-.15-.15l-.48-.37a.13.13,0,0,0-.09-.05l.69.56Z"/><path class="cls-1" d="M143.43,18.79a.26.26,0,0,0,.06.13h0l0-.06-.1-.08h0s0,0,0,0Z"/><path class="cls-1" d="M143.56,18.86s0,0,0,0,0,0,0,0a0,0,0,0,0,0,0,.09.09,0,0,0,0,0s0,0,0,.06a.2.2,0,0,0,.1.08.08.08,0,0,0,0,0s0,0,0,0a0,0,0,0,0,0,0,0,0,0,0,1,0,0s0,.06.05.08a.05.05,0,0,0,0,0s0,0,0-.06,0,0,0,0,0,0,0-.06a.25.25,0,0,0-.13-.14.05.05,0,0,1,0,0l0,0h0Z"/><path class="cls-1" d="M143.42,19s0,0,0,0a.11.11,0,0,1,.07.06s0,0,0,0a.16.16,0,0,0-.07-.09Z"/><path class="cls-1" d="M143.68,19.09a0,0,0,0,0,0,0h0s0,0,0,0Z"/><path class="cls-1" d="M143.85,19.17h.05v-.07a.22.22,0,0,1-.05.08Z"/><path class="cls-1" d="M143,19.86a.61.61,0,0,1-.36.15l-.23,0-1-.14a3,3,0,0,0-.6,0,.36.36,0,0,0,0,.23.19.19,0,0,0-.22.07.16.16,0,0,1,.15,0,.33.33,0,0,1-.22.08l.2,0a.77.77,0,0,0-.6.25l.08-.13a1.53,1.53,0,0,0-.34.42c-.16.25-.31.5-.46.75a1.05,1.05,0,0,0-.15.3.76.76,0,0,0,0,.3s.08,0,0,0a.08.08,0,0,0,0-.1.09.09,0,0,1,0,.09.52.52,0,0,1-.16.06.18.18,0,0,1,.09.06.08.08,0,0,0,0,0s0,0,0,0,0,0,0,0h0a.08.08,0,0,0,0,0s0,0,0,0a0,0,0,0,1,0,0v0a.05.05,0,0,1,0,0s0,0,0,0h0s0,0,0,0v0l.09,0a.08.08,0,0,0,0,0s0,0,0,0l0,0,.12.05h0s0,0,0,0h0l.24.15h0l.07.06h0v0s0,0,.06.05h0l.12.1h0l.08.07s0,0,0,0h0l0,0h0l0,0h0a.41.41,0,0,1,.11.12.34.34,0,0,1,0,.24v0h0l0,0h0a.28.28,0,0,1,.07.26,0,0,0,0,0,0,0,0,0,0,0,1,0,0h0a.35.35,0,0,1,0,.08h.07a.08.08,0,0,1,0,.05c.1.28.19.56.28.84s.08.34-.05.42,0,.15.07.13.12-.09.15-.16a2.33,2.33,0,0,0,0-1.52.36.36,0,0,1,.06-.3l.58-1.2a.31.31,0,0,0,0,.19.46.46,0,0,1,.15-.22.51.51,0,0,0,.64-.11.1.1,0,0,1,0,.14l.11-.08,0,.1,0-.1a.08.08,0,0,1,0,.12A.21.21,0,0,1,143,22a.93.93,0,0,1,.1.25,1.23,1.23,0,0,0,.42.56c.13.09.27.16.39.25a.54.54,0,0,1,.23.39.23.23,0,0,1,.15-.07.72.72,0,0,0-.22.24.29.29,0,0,0,0,.31.33.33,0,0,0-.08.25.15.15,0,0,0,.11.08.16.16,0,0,1,.06-.12.12.12,0,0,1-.08-.1c.06.05.12,0,.17-.1a.37.37,0,0,1,.2-.09,1.83,1.83,0,0,0,1-.67.64.64,0,0,0,.14-.34.28.28,0,0,0-.2-.3.9.9,0,0,1-.66-.63h-.34a.11.11,0,0,1,0,.07s0,0,0,0h0s0,0,0,0h0l0-.07h-.15l-.1.1a.08.08,0,0,0,.12,0s0,0,0,0v0l0,0a0,0,0,0,1,0,0l0,.07a.08.08,0,0,1,0,.08l-.07.05a.19.19,0,0,0-.05.09.26.26,0,0,1,.11-.07.08.08,0,0,1,.1.05s0,.06-.07.07-.09,0-.09.06l0,.06a.73.73,0,0,1,.16.14c.06.07.11.15.2.15a.71.71,0,0,1,.44.13.57.57,0,0,1-.19.1.55.55,0,0,0-.21.19s0,.06-.08.06h0s0,0-.06,0,0,0,0,.07a.06.06,0,0,1,0,.08s-.07-.06,0-.08a.08.08,0,0,0,0-.08,0,0,0,0,0-.07,0s0,0,0,0a.75.75,0,0,1-.35-.45c0-.06,0-.13-.05-.19s-.07-.13-.09-.2a.57.57,0,0,0,0-.15.13.13,0,0,1,.06-.17c0,.05,0,.09,0,.14h.05c0-.05,0-.11.06-.14A.75.75,0,0,0,144,22h-.07l-.08,0h0l-.17,0-.08,0-.17,0h-.11l-.09,0-.14,0h0a.26.26,0,0,1-.21-.08.23.23,0,0,1-.07-.1.15.15,0,0,1,0-.09.41.41,0,0,1,0-.11v-.11a2.85,2.85,0,0,1,0-.51s0,0,0,0v-.09a.15.15,0,0,0,0-.07h0s0,0,0,0,0,0,0,0a0,0,0,0,1,.05,0s0-.07,0-.1v0a.15.15,0,0,0-.06.09.1.1,0,0,1,0,0s0,0,0,0,0,0,0-.06a.39.39,0,0,1-.15.06.44.44,0,0,0-.07-.17l0,0a0,0,0,0,1,0-.06s0,0,0,0a0,0,0,0,0,0,0s0,0,0,0a.08.08,0,0,0,0-.1s-.05,0-.06,0a.11.11,0,0,1,0-.08s0,0,0-.06a.29.29,0,0,0-.09.15l-.17-.17s0,0,0,0h0s0,0,0,0l.18,0c.05,0,.1,0,.1.06l0,0h.28a.3.3,0,0,1,.23,0l0,0A1.29,1.29,0,0,0,143,20h0s-.06,0-.07,0h-.14a.08.08,0,0,1,0,0l.05,0h.1s0,0,.06,0h0l0-.07-.27-.07a.8.8,0,0,0,.2.07Zm-1.89,0h0a0,0,0,0,1,0,0h0a0,0,0,0,1,0,0Zm.36,0h0s0,0,0,0h0Zm-.63.09a0,0,0,0,1,0,0s0,0,.06,0,0,0,0,0,0,0,0,0Zm.05,0s0-.05.09-.05l-.07.06Zm0,0a0,0,0,0,1,0-.05s0,0,.06,0l0,0h0s0,0,0,0Zm.56,0,0-.05h0l.07.05h-.05Zm-.45-.05h0s0,0,0,0Zm.65.1-.11-.06s0,0,0,0h0l.1.07h0Zm-.77,0s0,0,0,0l-.06,0a.09.09,0,0,1,.08,0Zm1,0s0,0,0,0a0,0,0,0,1,0,0h0a.07.07,0,0,1-.06,0Zm-.41,0s0,0,0,0h0a0,0,0,0,1,0,0Zm-.09,0h.07l0,0Zm.68,0h0Zm0,.05s0,0,0,0,0,0,.05,0h0v0h0Zm-.54,0h0s0,0,0,0l.08,0h0Zm-.7,0h0Zm.16,0s0,0,0,0h0a.05.05,0,0,1,0,0Zm1.16,0s0,0,0,0,0,0,0,0h0Zm-.31,0h0s0,0,0,0l0,0Zm-.22,0h.07s0,0,0,0h0s0,0-.06-.05Zm-.74,0h0s0,0,0,0Zm-.4.11h0s.07,0,.09-.05a.07.07,0,0,1,.09,0s0,0-.06,0,0,0,0,0,0,0,0,0h.09a.08.08,0,0,1-.11,0h-.09Zm.53-.1h0s0,0,0,0h0a0,0,0,0,1,0,0Zm.53,0a.08.08,0,0,1,.08,0,.17.17,0,0,1-.1,0v0s0,0,0,0Zm-.75,0h0l0,0v0Zm-.12,0h0s0,0,0,0a0,0,0,0,1,0,0s0,0,0,0Zm1.07,0h0a0,0,0,0,1,0,0Zm-.91,0a0,0,0,0,1,0,0h0l0,0Zm.06,0h0a0,0,0,0,1,0,0Zm-.53,0,.05,0s0,0,0,0h0Zm.65,0h0a0,0,0,0,1,.05,0s0,0,0,0h0a0,0,0,0,1,0,0Zm.5,0a0,0,0,0,1,0,0h0Zm-.78,0,0,0,0,0h.06a0,0,0,0,1,0,0h-.08Zm.83,0s0,0,0,0,0,0,0,0a0,0,0,0,1,0,0l0,0Zm-.85,0s0,0,0,0,0,0,0,0Zm.23,0h-.06s0,0,0,0h0s0,0,.06,0Zm1.41,0,0,0h0l0,0Zm-.7,0a0,0,0,0,1,0,0h0s0,0,0,0Zm0,0h.05s0,0,0,0h0s0,0,0,0Zm-1.31.09s0,0,0,0v0l.1,0s0,0,0,0,0,0,0,.05h0Zm.24,0,.07-.06v0a.07.07,0,0,1,0,0Zm.35-.06h0v0Zm.25,0h0v0Zm-.37,0v0h0a0,0,0,0,1,0,0Zm-.16.05s0,0,.05,0,0,0,0,0h0Zm.51,0h0s0,0,0,0a0,0,0,0,1,0,0Zm-.65,0s0,0,0,0l0,0Zm1.09,0a0,0,0,0,1,0,0,.34.34,0,0,1,.14.05s0,0,0,0a.18.18,0,0,1-.09,0s0,0,0,0h0Zm-1.22,0a0,0,0,0,1,0,0h0Zm.51,0,.06,0s0,0,0,0a0,0,0,0,1,0,0l0,0-.06,0Zm.87,0h0a0,0,0,0,1,0,0s0,0,0,0Zm-.68,0h0Zm1.47.21s0,0,0,0a.13.13,0,0,1-.07-.06l-.07-.11h0l.07.06a.07.07,0,0,0,0,.09.07.07,0,0,1,.05,0h0s0,0,0,.06a0,0,0,0,1,0-.05Zm-1.32-.2s0,0,0,0,0,0,0,0Zm.34.06a.07.07,0,0,1,.06,0h0s0,0,0,0l.07,0a.07.07,0,0,1-.08,0s0,0,0,0,0,0,0,0,0,0,0,0h0Zm-1,0s0,0,0,0h0Zm1.69.07a.17.17,0,0,1,0-.07s0,.06,0,.09a0,0,0,0,1,0,0l0-.05Zm-2.18,0,.06,0s0,0,0,0h0Zm1.67.09a.14.14,0,0,1,0-.11s0,0,0,.08a.11.11,0,0,1,0,.08.12.12,0,0,1-.05-.05Zm-1.05-.08s0,0,0,0h0Zm.25,0h0v0h0s0,0,0,0Zm1.19,0s0,0,0,0,0,0,0,0Zm-1.86,0h0Zm1.42,0h0v0Zm.77,0h0a0,0,0,0,1,0,0s0,0,0,0Zm-.81,0s0,0,0,0h0s0,0,0,0Zm-.75,0s0,0,0,0h0s0,0,0,0,0-.05,0,0Zm-.29,0h0Zm.69,0s0,0,0,0h0Zm-.23,0s0,0,0,0h0a0,0,0,0,1,0,0Zm.38.06s.08,0,.09-.06a0,0,0,0,1,0,0,.06.06,0,0,1,.07,0,.9.9,0,0,0-.15.19.05.05,0,0,1,0,0,.08.08,0,0,1,0,.07s-.07,0-.07.07a0,0,0,0,1,0,0s0,0,0,0a.08.08,0,0,1,.05-.07l0,0a0,0,0,0,1-.06,0s0,0,0,0,0,0,0,0h0s0,0,0,0,.06-.06.09-.1l0,0a.06.06,0,0,1,0,0,.05.05,0,0,1,0,0h0s0,0,0,0h0s0,0-.05,0h-.13a.22.22,0,0,1,.11,0,.09.09,0,0,1,.07,0v0s0,0,0,0a.08.08,0,0,1,.07,0h.05Zm-.5-.06h0v0s0,0,0,0Zm1.53,0h0Zm-.85,0,0,0a0,0,0,0,1,0,0v0Zm-.81,0v0h0Zm1.29,0h0a.42.42,0,0,1,0,.1,0,0,0,0,1,0,0,.35.35,0,0,1-.06-.14Zm-1.89,0s0,0,0,0,0,0,0,0h0s0,0,0,0Zm2.13,0a0,0,0,0,1,0,0s0,0,0,0h0Zm-.4,0s0,0,0,0,0,0,0,0Zm.24,0s0,0,0,0a0,0,0,0,1,0,0s0,0,0-.06Zm.08,0h0s0,0,0,.06l0,0h0s0,0,0,0Zm-1.26.07,0,0,0,0s0,0,0,0,0,0,0,0,0,0,0,.05h0l0,0Zm-1-.06h0s0,0,0,0,0,0,0,0,0,0,0,0Zm1,0h0Zm1.6,0h0v0Zm-.93.17a.59.59,0,0,0,.13-.18.15.15,0,0,1,0,.09l-.05.06-.07.07s0,0,0,0Zm-1.44-.18s0,0,0,0a.05.05,0,0,1,0,0,.1.1,0,0,1,.05,0Zm1.76,0a.09.09,0,0,1,0,.06.06.06,0,0,1,0-.06Zm.28,0h0a.09.09,0,0,1,0,.06.12.12,0,0,1-.06-.06Zm-2.31,0s0,0,0,0l0,0h0s0,0,0,0a.27.27,0,0,1-.08-.07Zm2.54.07,0,0h0s0,0,0,0l0,.08h0a0,0,0,0,1,0,0Zm-1.24,0,.05,0a0,0,0,0,1,0,0s0,0,0,0a.11.11,0,0,1,0,.05s0,0,0-.06Zm-1.14,0,0,0,0,0Zm1.07,0h0s0,0,0,0Zm1.22,0h0a.1.1,0,0,1,0,.08l-.06-.08Zm-2.58.07h0l0-.05a.08.08,0,0,1,0,.07s0,0,0,0Zm2.21,0v0a.35.35,0,0,1,.05.08.09.09,0,0,1-.06-.06Zm.23,0s0,0,0,0,0,0,0,0v0Zm-1,0v0s0,0,0,0Zm-.21,0s0,0,0,0a0,0,0,0,1,0,0h0Zm.11,0h0s0,0,0,0,0,0,0,0a0,0,0,0,1,0,0Zm.62.08a.13.13,0,0,1,0-.1.18.18,0,0,1,0,.1Zm-.55-.08h0s0,0,0,0v0Zm.6.09a.36.36,0,0,0,0-.09,0,0,0,0,1,0,0l0,.1a0,0,0,0,1,0,0Zm-.84-.08s0,0,0,0a0,0,0,0,1,0,0h0s0,0,0,0Zm.2,0,0,0s-.05,0-.06,0h0v0s0,0,0,0h0s0,0,0,0,0,0,0,0,0,0,0,0a0,0,0,0,1-.06,0v0s0-.05,0-.07,0,0,.06,0v0Zm1,0,0,0s0,0,0,0,0,0,0,0,0,0,0,0h0Zm-.23,0h0s0,0,0,0,0,0,0-.05Zm.44,0h0s0,0,0,0Zm-.31.08h0a.13.13,0,0,1,0-.06.08.08,0,0,1,0,.07h0ZM140.3,21a.28.28,0,0,1,0,.13s0,0,0,0a.5.5,0,0,1,0-.16Zm.72.13a0,0,0,0,1,0,0h0a.07.07,0,0,1,0-.06.19.19,0,0,0,0,.07s0,0,0,.05l0,0Zm.21-.07h0Zm-.25,0a0,0,0,0,1,0,0s0,0,0,0h0Zm0,0s0,0,0,0h0a0,0,0,0,1,0,0Zm-1.35.25a.19.19,0,0,0,0-.07l0,0s0,0,0,0a.13.13,0,0,0,.07-.1s0,0,0,.05a.07.07,0,0,1,0,.05.17.17,0,0,0-.07.13.15.15,0,0,1-.09.06.05.05,0,0,1,0-.05.07.07,0,0,1,.05,0,.08.08,0,0,1,0,.05h0l0,0Zm2.34-.18s0,0,0,0,0,0,0,.05v0Zm-1.05,0,0,0h0s0,0,0,0Zm.11,0,0,0h0v0h0s0,0,0,0Zm-1.28,0s0,0,0,0,0,0,0,0a.1.1,0,0,1,0,.07.17.17,0,0,0,0-.07l0,0a.13.13,0,0,1,0-.06Zm1.11.07s0,0,0,0,0,0,0,0h.08s0,.05-.06.07-.06.05-.05.08a.07.07,0,0,1,0-.1Zm1.06-.05s0,0,0,0v0l0,0Zm-2,.14s0,0,0,0a0,0,0,0,0,0,0h-.05s0,0,0,0a.05.05,0,0,1,0,0,0,0,0,0,0,0,0h0l0,.06a.09.09,0,0,0,0-.05.11.11,0,0,1-.07.06s0,0,0,0,0,0,0,0h0v0s0,0,0,0h0a.05.05,0,0,1,0,0h0v0s0,0,0,0l0,0h.07Zm-.17-.1v0a.09.09,0,0,0-.05,0l0-.06Zm1.18,0s0,0,0,0v0Zm-1.17,0s0,0,0,0,0,0,0,0Zm-.08.09,0,0s0,0,0,0,0,0,0,0,0,0,0,0Zm2.18,0s0,0,.06,0,0,0,0,0h0Zm-1.77,0s0,.05,0,.05v0h0v0h.06Zm-.59,0a.05.05,0,0,1,0,0l0,0h0Zm.46,0,.05,0a.06.06,0,0,1-.06.06s0,0,0,0Zm-.37,0a.16.16,0,0,1,.07,0l0,0h0s0,0,0,0Zm1.1.16a0,0,0,0,0,0,0h0l0-.08h0a.08.08,0,0,1,0,0,.08.08,0,0,0,.07.05l0,0a.1.1,0,0,1,.07,0s.09,0,.09.08,0,0,0,.06,0,0-.07,0l0,0c-.05,0-.08-.06-.07-.11s0,0,0-.05a0,0,0,0,0,0,.06s0,0,0,0,0,0-.05,0l0,0h.06l0,0Zm-.61-.14h0Zm-.42,0a.1.1,0,0,1,.1,0,0,0,0,0,1,0,0h0l0,0h0Zm2.86,0a.16.16,0,0,1-.11,0l.11,0Zm-2.79,0h0v0h0Zm.34,0,.09,0s0,0,0,0l0,0s0,0,0,0h-.06l0,0Zm1.48.15h0s0,0,0,0,0,0,0,0l.06-.05.09-.08h0a1.22,1.22,0,0,0-.15.17l0,0a0,0,0,0,1,0,0Zm-1.7-.15s0,0,0,0l.07,0,0,.05h0s0,0,0,0Zm.08.06.06-.06s0,0,0,0,0,0,0,0v0Zm-.11,0a0,0,0,0,1,0,0l0,0a.06.06,0,0,1,.07-.06Zm2.72,0s0,0,0,0h0s0,0,0,0v0h0s0,0,0,0Zm-2.51,0,0,0h0l0,0Zm.08,0h.05l0,0h0v0Zm.18.08a.05.05,0,0,1,0-.05.1.1,0,0,1-.05.08l0,0Zm-.13,0h0v0h0Zm1.9,0h0Zm-1.53,0s0,0,0,0Zm-.32,0s0,0,0,0a0,0,0,0,1,0,0h0Zm-.23,0s0,0,0,0v0h0Zm-.18,0s0,0,0,0a0,0,0,0,1,0,0h0s0,0,0,0Zm2.78,0h0s0,0,0,0Zm-1.19.2h0l.09-.11s0-.07.06-.09,0,0,0,0a.83.83,0,0,1-.13.18v0Zm-1.36-.2h0s0,0,0,0Zm.11,0s0,0,0,0h0a0,0,0,0,1,0,0Zm.54,0h0l0,0s0,0,0,0Zm-.32,0v0h0s0,0,0,0Zm.54,0h0s0,0,0,0h0a0,0,0,0,1,0,0Zm-.61,0v0h0s0,0,0,0h0Zm1.67,0s0,0,0,.05a0,0,0,0,1,0-.05Zm-1.63,0h0s0,0,0,0Zm0,0s0,0,0,0,0,0,0,0v0Zm.21,0h0s0,0,0,0a.05.05,0,0,1,0,.05s0,0,0,0Zm.22,0h0s0,0,0,0,0,0,0,0Zm-1.39.06a0,0,0,0,1,0,0s0,0,0,0a.07.07,0,0,0,0,.05h0s0,0,0,0l-.05,0Zm2,.07a.86.86,0,0,1,.07-.1v0a0,0,0,0,1,0,0s0,.05-.05.05a0,0,0,0,1,0,.05s0,0,0,0Zm1.65,0h0s0,0,0,0l0,0Zm1.54,0s0,0,0,0,0,0,0,0h0s0,0,0,0Zm-4.3,0a.06.06,0,0,1,0,0,0,0,0,0,1,0,0s0,0,0,0Zm.68,0h0a0,0,0,0,1,0,0h0ZM143,22s0,0,0,0a0,0,0,0,1,0,.06.13.13,0,0,0,0,0Zm-1.93,0a0,0,0,0,1,0,0,0,0,0,0,1,0,0Zm2.06,0a0,0,0,0,1,0,0s0,0,0,0Zm-2,.07a.08.08,0,0,1,0,0s0,0,0,.05h0Zm-1.82,0s0,0,0,0h0s0,0,0,0v0Zm1.78,0h0s0,0,0,0Zm-1.76,0h0v0Zm0,.05s0,0,0,0h0s-.05,0-.06,0Zm.15,0h0a0,0,0,0,1,0,0s0,0,0,0h0s0,0,0,0Zm.11.09h0Zm5.13.14s0,0,0,0,0,0,0,0l0,0Zm.25.69,0,0,0,0,0-.08s0,0,0,0a.22.22,0,0,1,.05-.11.09.09,0,0,0,0-.1.19.19,0,0,1-.05-.1.71.71,0,0,0,.14.1.29.29,0,0,1,.1.12c0,.05-.06.08-.1.12l-.08.05-.06.08v0h0s0,0,0,0a0,0,0,0,0,0,0s0,0,0,0Zm-4.79-.48s0,0,0,0a0,0,0,0,1,0,0Zm.47,0h0s0,0,0,0a.1.1,0,0,1,0,.07,0,0,0,0,1,0,0Zm-.56,0,.05,0-.05,0Zm.18.09h0a0,0,0,0,1,0,0,0,0,0,0,1,0,0Zm.34.05,0-.06a.13.13,0,0,1,0,.06.07.07,0,0,1,0,.06s0,0,0-.06Zm-.27,0s0,0,0,0,0,0,0,0l0,0v0Zm4.66,0h0s0,0,0,0,0,0,0,0Zm-4.4.14v0a.14.14,0,0,1,0-.09s0,0,0,.07,0,.05,0,.07,0,0,0,0a.06.06,0,0,1,0-.07Zm-.16-.11s0,0,0,0,0,0,0,0Zm4.36.43h0s0,0,0,0h0s0,0,0,0Zm0,0s0,0,0,0,0,0,0,0Zm-.29.22s0,0,0-.06,0,0,0-.06a.09.09,0,0,1,0-.05h0l.05,0a.11.11,0,0,0,.08,0h0s0,0,.05,0,0,0,0,0a0,0,0,0,1,0,0v0s0,0,0,0,0,0,0-.06,0,0,0,.08,0,0-.05,0l-.07,0Zm-3.77.08,0,0a0,0,0,0,1,0,0s0,0,0,0h0v0Zm3.64-.05a0,0,0,0,1,0,0v0s0,0,0,0Zm-3.78,0h0l0,0Zm3.72.06h0s0,0,0,0,0,0,0,0Zm-.21.21a.27.27,0,0,1,.07-.08,0,0,0,0,1,0,0,.47.47,0,0,1-.1.1s0,0,0,0Zm0,0s0,0,0,0h0a0,0,0,0,1,0,0Z"/><path class="cls-1" d="M143.18,20l0,0s0,0,0,0Z"/><path class="cls-1" d="M146.07,20.23a.68.68,0,0,0,0-.14l-.11.26a.65.65,0,0,0,0-.13l0,.15,0-.1-.06.28s0,0,0,0a1.51,1.51,0,0,1,0,.3V21h0a.28.28,0,0,1,0,.09h0v0s0,.05,0,.08v0a.05.05,0,0,1,0,.07.32.32,0,0,1,0,.09.3.3,0,0,0,0,.08h0a1,1,0,0,1-.12.23l-.11.13,0,0h0a.15.15,0,0,0,0,.14.12.12,0,0,1,0,.11l0,0a.05.05,0,0,0,0,0,.07.07,0,0,1,0,.05,1.71,1.71,0,0,0,.17.33s0,0-.05,0,0,0,0,0,0,0,0,0l-.14,0a.06.06,0,0,0-.06,0l-.06,0s0,0,0,0,0,0,0,0a.14.14,0,0,1-.12-.09.1.1,0,0,0,0-.05,0,0,0,0,1,0,0,.53.53,0,0,1-.05-.15.1.1,0,0,1,0-.12h0l-.06,0h-.1a.89.89,0,0,0,.37.57,3.66,3.66,0,0,1,.42.26c.12.11.19.32.08.44a.12.12,0,0,0,.08.17.2.2,0,0,0,.18-.1,1.72,1.72,0,0,0,.07-.21,1.4,1.4,0,0,1,.32-.6L146.39,24a1,1,0,0,0,.18-.51c.05-.39.1-.8.16-1.19a1,1,0,0,0,0-.34,1.55,1.55,0,0,1,0-.43h0s0,0,0,0,0,0,0,0h0a1.31,1.31,0,0,1,.06-.27s-.05-.05,0-.05a.28.28,0,0,1,.18-.21v0h0a0,0,0,0,1,0,0v0a1,1,0,0,0-.22-.73.76.76,0,0,0-.32.11.38.38,0,0,1,.11-.23l-.16.05a.12.12,0,0,0,0-.16s0,.08,0,.09-.06,0-.06,0a.4.4,0,0,1-.09.21.6.6,0,0,1,.08-.29l-.18.2Zm.06-.06a0,0,0,0,1,0,0l0,.07a.16.16,0,0,1-.06.08,1,1,0,0,1,.07-.15Zm.15,0a.08.08,0,0,1,0,.07.1.1,0,0,1,0-.07Zm0,.17s0,0,0,0a0,0,0,0,1,0,0Zm-.1,0v0h0a.09.09,0,0,1,0,0s0,0,0,0Zm-.32.55a.18.18,0,0,1,0-.1l0,0h0s0,0,0,0,0,0,0,0,0,0,0,.06a0,0,0,0,1,0,0Zm.11,0v-.06a.08.08,0,0,1,0,0,0,0,0,0,1,0,0s0,0,0,0a0,0,0,0,0,0,0l0,0,.05.07-.05,0a.05.05,0,0,0,0,0,0,0,0,0,0,0,0s0,0,0,0,0,0,0,0l0,0a.22.22,0,0,1,0-.11Zm.1-.05s0,0,0,0,0,0,0,0Zm-.27.14a.2.2,0,0,1,0-.07h0v0a.64.64,0,0,1,0,.07,0,0,0,0,1,0,0Zm1.06,0s0,0,0,0,0,0,0,0Zm0,0a0,0,0,0,1,0,0h0s0,0,0,0Zm-.37.46a3,3,0,0,0,0-.42c.05.05,0,.14,0,.2a0,0,0,0,0,0,.06s0,0,0,0v0h0v.22s0,0,0,0a.76.76,0,0,1-.06.16,1.35,1.35,0,0,1,.05-.29Zm.33-.34h0Zm-.07.12h0s0,0,0,0h0s0,0,0,0,0,0,0-.05Zm.06,0s0,0,0,0Zm-1,.12v0s0-.08,0-.11a.22.22,0,0,1,0,.14Zm1-.05h0Zm-.1,0h0s0,0,0,.06l0-.05Zm-.12,0h0a0,0,0,0,1,0,0h0Zm.18,0a.08.08,0,0,1,0-.05.07.07,0,0,0,0,.05h0Zm-.05,0h0a0,0,0,0,1,0,0,0,0,0,0,1,0,0Zm-.91,0h0a.08.08,0,0,1,0,0s0,0,0,0Zm.81.09s0,0,0,0,0,0,0,0Zm-.06.16v0h0v0s0,0,0,0a0,0,0,0,1,0,0l0-.07Zm.22,0s0,0,0,0h0s0,0,0,0Zm-.27.08a0,0,0,0,1,0,0h0s0,0,0,0v.06a.1.1,0,0,1,0,.05.5.5,0,0,0,0-.12Zm-.06,0a0,0,0,0,1,0,0s0,0,0,0Zm.11,0a0,0,0,0,1,0,0h0s0,0,0,0,0,0,0-.06Zm-.59,0s0,0,0,0a.38.38,0,0,1-.09.09.48.48,0,0,1,.09-.11Zm-.42,0h0s0,0,0,0h0s0,0,0,0h0Zm1,0v0a.11.11,0,0,1,0,.05.08.08,0,0,1,0-.08Zm0,.13a.09.09,0,0,1,0-.1s0,0,0,0,0,0,0,0a0,0,0,0,1,0,0s0,0,0,0v0Zm-.53-.09h0a0,0,0,0,1,0,0v0h0Zm.13.16,0-.05s0-.07,0-.11a.33.33,0,0,1,0,.14,0,0,0,0,1,0,0Zm-.06-.11,0,0,0,0a.07.07,0,0,1,0-.06Zm-.74,0h0s0,0,0,0h0s0,0,0,0Zm0,.06,0,0v0h0Zm0,.08a0,0,0,0,1,0,0h0v0Zm.07,0a.05.05,0,0,1,0,0s0,0,0,0h0l0,0Zm1.31.09,0,0,0,0s0,.05,0,.06l0,0Zm-1.27.06a0,0,0,0,0,0,0h0s0,0,0,0h0s0,0,0,0Zm1.27,0h0a0,0,0,0,0,0,0,0,0,0,0,1,0,0Zm.07.05a0,0,0,0,1,0,0h0a0,0,0,0,1,0,0h0Zm-1.24,0a.05.05,0,0,1,.07,0l0,0,0,0Zm.11.05v0s0,0,0,0h0l0,0Zm.52.12.1-.07.09-.05c0,.05-.06.07-.1.1l-.09.06s0,0,0,0Zm-.42-.11a.05.05,0,0,1,0,0s0,0,0,0Zm.06.1v0h0s0,0,0,0Z"/><path class="cls-1" d="M142.85,20.25s0,0,0,.07l0-.07h0Z"/><path class="cls-1" d="M143.61,20.4v0Z"/><polygon class="cls-1" points="142.79 20.42 142.79 20.42 142.79 20.42 142.79 20.42 142.79 20.42 142.79 20.42"/><path class="cls-1" d="M142.74,20.5a.12.12,0,0,0,0,.12l0,0,0-.13,0,0Z"/><path class="cls-1" d="M144.5,20.78v0Z"/><path class="cls-1" d="M143,21.42h0Z"/><polygon class="cls-1" points="145.64 21.45 145.64 21.45 145.64 21.44 145.64 21.45 145.64 21.45 145.64 21.45"/><path class="cls-1" d="M145.62,21.49v0h0l0,0Z"/><path class="cls-1" d="M143,21.91Z"/><path class="cls-1" d="M143,21.91h0Z"/><path class="cls-1" d="M145,21.94,145,22a.14.14,0,0,1,0-.06Z"/><path class="cls-1" d="M144,22h0s0,0,0,0a0,0,0,0,0,0,0s0,0,.07,0H144Z"/><path class="cls-1" d="M144,22.08s0,0,0,0h0l0,0,0,0a.2.2,0,0,1,.07-.09h-.05a.61.61,0,0,1-.05.12Z"/><path class="cls-1" d="M143.73,22h0Z"/><polygon class="cls-1" points="139.66 22.31 139.66 22.31 139.66 22.31 139.66 22.31 139.66 22.31 139.66 22.31"/><path class="cls-1" d="M139.4,22.23h0Z"/><polygon class="cls-1" points="139.69 22.32 139.69 22.32 139.69 22.32 139.69 22.32 139.69 22.32 139.69 22.32"/><polygon class="cls-1" points="139.93 22.48 139.93 22.47 139.93 22.47 139.93 22.48 139.93 22.48 139.93 22.48"/><path class="cls-1" d="M140.11,22.62h0Z"/><polygon class="cls-1" points="140.38 22.83 140.39 22.84 140.39 22.84 140.38 22.83 140.37 22.82 140.36 22.82 140.38 22.83 140.38 22.83 140.38 22.83"/><polygon class="cls-1" points="140.38 22.83 140.38 22.83 140.37 22.82 140.38 22.83 140.38 22.83 140.38 22.83"/><polygon class="cls-1" points="140.38 22.83 140.38 22.83 140.38 22.83 140.38 22.83 140.38 22.83 140.38 22.83"/><polygon class="cls-1" points="140.39 22.84 140.38 22.83 140.38 22.83 140.39 22.84 140.39 22.84 140.39 22.84"/><polygon class="cls-1" points="140.39 22.84 140.4 22.84 140.39 22.84 140.39 22.84 140.39 22.84 140.39 22.84"/><polygon class="cls-1" points="140.39 22.84 140.39 22.84 140.39 22.84 140.39 22.84 140.39 22.84 140.39 22.84"/><polygon class="cls-1" points="140.39 22.84 140.39 22.84 140.39 22.84 140.39 22.84 140.39 22.84 140.39 22.84"/><path class="cls-1" d="M139,23a.31.31,0,0,1-.16.18.37.37,0,0,1,.25,0v0h0a.53.53,0,0,0-.24.06,1,1,0,0,0,.17.89l.26.46a.19.19,0,0,1,.14.17.06.06,0,0,1,.07,0s.06.05.09.08a.25.25,0,0,0,.4-.18l.07.06a4.34,4.34,0,0,1,.28-.46,0,0,0,0,0,.05,0,.21.21,0,0,0,.09-.28.27.27,0,0,1,.07.13l.06-.14s0,0,0,0a.1.1,0,0,1,0-.1l-.22.11a.74.74,0,0,0,.23-.27l0,0h0l0,0h0a.24.24,0,0,1-.27,0l0,0h0l0,0h0l-.11-.07-.1-.08,0-.05-.07,0-.1,0a.67.67,0,0,1-.21-.13h0l0,0s0,0,0,0l0,0,0,0-.14-.05-.08-.06h0l0,0h0l-.07-.06L139,23l-.09,0,0,0A.12.12,0,0,0,139,23Zm0,0h0s0,0,0,0,0,0,0,0Zm0,0,0,0a.05.05,0,0,1,0,.05,0,0,0,0,1,0,0Zm.12.06.05,0h-.05v0Zm.1,0h0v0Zm-.13.15s0-.06.05-.07h0l0,0s.05,0,.06,0a.11.11,0,0,1-.08,0h-.05s0,0,0,0,0,0,0,0h-.09Zm-.06,0v0s0,0,0,0l0,0Zm-.13,0h0s0,0,0,0Zm.53,0h0s0,0,0,0Zm0,0a0,0,0,0,1,0,0h.05a0,0,0,0,1,0,0h0Zm-.11,0h0l0,0s0,0,0,0Zm-.25,0v0s0,0,0,0a0,0,0,0,1,0,0Zm.29,0v0s0,0,0,0v0Zm.08,0s0,0,0,0h0s0,0,0,0h0Zm-.29,0s0,0,0,0h0s0,0,0,0Zm.35.1v-.05a.11.11,0,0,1,0,.05h0Zm.38,0h0s0,0,0,0v0Zm.11.07h0s0,0,0,0Zm.52.24a0,0,0,0,1,0,0,.14.14,0,0,1,0,.07s0,0,0,0Zm-.15,0s0,0,0,0l0,.08a.12.12,0,0,1-.05-.1ZM139,23.9s0,0,0,0h0Zm1.57,0h0Zm-.28.08a.1.1,0,0,1,.07,0s0,0,0,0l-.07.05Zm.14.11a.09.09,0,0,0,0-.07.24.24,0,0,1,0-.08.11.11,0,0,1,0,.07.14.14,0,0,1,0,.09Zm-.17-.11v0s0,0,0,0Zm0,0v0h0v.09s0-.05,0-.07Zm.09,0s0,0,0,0,0,0,0,0v0Zm-.15,0s0,0,0,0v0s0,0,0,0a.06.06,0,0,1,0,0Zm-1.11,0h0s0,0,0,0a0,0,0,0,1,0,0Zm1.07,0a0,0,0,0,1,0,0s0,0,0,0Zm.17,0s0,0,0,0,0,0,0,0,0,0,0,0Zm-.14.07s0,0,0,0h0v.05l0,0Zm-.16.06a.08.08,0,0,1,0,0,0,0,0,0,1,0,0Zm.07,0h0s0,0,0,0,0,0,0,0h0Zm.14,0a0,0,0,0,1,0,0s0,0,0,0h0l.05,0s0,0,0,0a0,0,0,0,1,0,0l0,0s0,0,0,0,0,0,0,0a0,0,0,0,1,0-.06Zm-.14.05h0s0,0,0,0a.06.06,0,0,1,0,0Zm.13.06a0,0,0,0,1,0,0s0,0,0,0Zm-.47.46s0,0,0,0h0s0,0,0,0Z"/><polygon class="cls-1" points="139.19 23.11 139.19 23.11 139.18 23.1 139.19 23.11 139.19 23.11 139.19 23.11"/><polygon class="cls-1" points="139.2 23.11 139.19 23.11 139.2 23.11 139.2 23.11 139.2 23.11"/><path class="cls-1" d="M140.51,23.16s0,0,0,0,0,0,0,0Z"/><polygon class="cls-1" points="140.55 23.21 140.53 23.21 140.55 23.21 140.55 23.21 140.55 23.21"/><polygon class="cls-1" points="140.56 23.23 140.56 23.23 140.56 23.23 140.56 23.22 140.56 23.23 140.56 23.23 140.56 23.23"/><polygon class="cls-1" points="140.56 23.23 140.56 23.23 140.56 23.22 140.56 23.23 140.56 23.23 140.56 23.23"/><polygon class="cls-1" points="140.57 23.23 140.57 23.23 140.57 23.23 140.57 23.23 140.57 23.23 140.57 23.23"/><polygon class="cls-1" points="140.57 23.23 140.57 23.23 140.57 23.23 140.57 23.23 140.57 23.23 140.57 23.23"/><polygon class="cls-1" points="140.57 23.23 140.57 23.23 140.57 23.23 140.57 23.23 140.57 23.23"/><polygon class="cls-1" points="140.57 23.24 140.57 23.23 140.57 23.23 140.57 23.24 140.57 23.24 140.57 23.24"/><polygon class="cls-1" points="139.89 23.45 139.89 23.45 139.89 23.45 139.89 23.45 139.89 23.45"/><polygon class="cls-1" points="139.89 23.45 139.89 23.45 139.89 23.45 139.89 23.45 139.89 23.45"/><polygon class="cls-1" points="139.91 23.48 139.9 23.46 139.9 23.46 139.91 23.48 139.91 23.48 139.91 23.48"/><polygon class="cls-1" points="139.91 23.48 139.9 23.47 139.91 23.48 139.91 23.48 139.91 23.48"/><polygon class="cls-1" points="140.22 23.71 140.2 23.71 140.22 23.71 140.22 23.71 140.22 23.71"/><path class="cls-1" d="M143.55,19.17v0s0,0,0,0,0,.05,0,.05Z"/><path class="cls-1" d="M141.4,19.57s0,0-.05,0a.07.07,0,0,1,.06,0h.07a0,0,0,0,0,0,0l.06,0a0,0,0,0,0,0,0Z"/><path class="cls-1" d="M141.27,19.58h0a0,0,0,0,1,0,0h-.06Z"/><path class="cls-1" d="M141,19.58h0s0,0,0,0h0a0,0,0,0,0,0,0s0,0,0,0h0l0,0Z"/><path class="cls-1" d="M141.24,19.57h0s0,0,0,0h0s0,0,0,0Z"/><path class="cls-1" d="M141.6,19.58h0s0,0,0,0a0,0,0,0,1,0,0h0Z"/><path class="cls-1" d="M141.62,19.59h0a0,0,0,0,0,0,0l0,0Z"/><path class="cls-1" d="M141.16,19.6h.06v0a.05.05,0,0,0-.05,0Z"/><path class="cls-1" d="M141.57,19.58h0Z"/><path class="cls-1" d="M141.65,19.6l.1,0,.17,0,.12,0s.05,0,.06,0,0,0,0,0l-.35-.05h0s0,0,0,0Z"/><path class="cls-1" d="M141.3,19.61h0s0,0,0,0Z"/><path class="cls-1" d="M141.56,19.61s0,0,0,0Z"/><path class="cls-1" d="M142.18,19.67s0,0,0,0,0,0,0,0Z"/><path class="cls-1" d="M142.23,19.67h0s0,0,0,0l0,0h-.07Z"/><path class="cls-1" d="M141.36,19.72s0,0,0,0h0a0,0,0,0,0,0,0l0,0v0s0,0,0,0a0,0,0,0,0,0,0h0v0h0s0,0,0,0a.2.2,0,0,1,.11,0h0a0,0,0,0,1,0,0v0h-.17s0,0,0,0v0s0,0,0,0l-.09,0Zm.15.05s0,0,0,0h0s0,0,0,0Z"/><path class="cls-1" d="M142.92,19.74l0,0h0Z"/><path class="cls-1" d="M141.28,19.76h0Z"/><polygon class="cls-1" points="143.01 19.76 143.01 19.77 143.02 19.77 143.01 19.76 143.01 19.76 143.01 19.76 143.01 19.76"/><polygon class="cls-1" points="142.96 19.76 142.96 19.76 142.96 19.76 142.96 19.76 142.96 19.76 142.96 19.76"/><path class="cls-1" d="M141.68,19.79l0,0h0s0,0,0,0Z"/><path class="cls-1" d="M140.65,19.78s0,0,0,0h0s0,0,0,0Z"/><path class="cls-1" d="M140.69,19.79h0l0,0v0Z"/><path class="cls-1" d="M141.19,19.8h0s0,0,0,0Z"/><path class="cls-1" d="M140.75,19.8s0,0,0,0h0s0,0,0,0Z"/><path class="cls-1" d="M140.74,19.93h0a0,0,0,0,0,0,0v0Z"/><path class="cls-1" d="M142.59,20h0s0,0,0,0v0Z"/><path class="cls-1" d="M140.72,20s0,0,0,0h0s0,0,0,0h0l0,0Z"/><path class="cls-1" d="M140.53,20.08h0s0,0,0,0h0a0,0,0,0,0,0,0Z"/><path class="cls-1" d="M146.26,20.11v0s0,0,0,0Z"/><polygon class="cls-1" points="142.04 20.14 142.04 20.14 142.04 20.14 142.04 20.14 142.04 20.14"/><path class="cls-1" d="M142.23,20.18v0s0,0,0,0a.43.43,0,0,1,0,0,0,0,0,0,0,0,0Z"/><path class="cls-1" d="M140.43,20.2h0l0,0Z"/><path class="cls-1" d="M140.4,20.21h0v0Z"/><path class="cls-1" d="M142.15,20.22h0l0,0s0,0,0,0Z"/><path class="cls-1" d="M140.31,20.24h0v0h0Z"/><path class="cls-1" d="M142.42,20.27h0s0,0,0,0Z"/><path class="cls-1" d="M142.33,20.35s0,0,0,0l0,0a.09.09,0,0,0,0-.07l0,.07Z"/><path class="cls-1" d="M145.8,20.34a0,0,0,0,0,0,0s0,0,0,0Z"/><path class="cls-1" d="M142.46,20.35s0,0,0,0,0,0,0,0Z"/><path class="cls-1" d="M142.47,20.42l.07,0a.05.05,0,0,0,0,0l-.05,0Z"/><path class="cls-1" d="M145.79,20.47s0,0,0,0h0s0,0,0,0Z"/><path class="cls-1" d="M142.52,20.52v0h0s0,0,0,0Z"/><path class="cls-1" d="M142.6,20.55h0a0,0,0,0,0,0,0l0,0h0s0,0,0,0Z"/><path class="cls-1" d="M141.39,20.79s0,0,0,0,0,0,0,0,0,0,0,0a0,0,0,0,0,0,0h0Z"/><path class="cls-1" d="M141.48,20.8s0,0,0,0h0s0,0,0,0Z"/><path class="cls-1" d="M141.35,20.87h0a0,0,0,0,0,0,0Z"/><path class="cls-1" d="M141.4,20.88s0,0,0,0h0s0,0,0,0Z"/><path class="cls-1" d="M141.34,20.92s0,0,0,0,0,0,0,0Z"/><path class="cls-1" d="M147,21h0s0,0,0,0a0,0,0,0,0,0,0l0,0v0Z"/><polygon class="cls-1" points="146.94 21 146.95 21 146.94 21 146.94 21 146.94 21"/><path class="cls-1" d="M141.13,21.07s0,0,0,0h0a.08.08,0,0,0,0,0,.1.1,0,0,0,0,.05Z"/><path class="cls-1" d="M139.61,21.14a.11.11,0,0,0,0-.06,0,0,0,0,0,0,.06Z"/><path class="cls-1" d="M146.87,21.12s0,0,0,0h0s0,0,0,0Z"/><path class="cls-1" d="M146.82,21.16s0,0,0,0,0,0,0,0a0,0,0,0,0,0,0Z"/><path class="cls-1" d="M146.77,21.47h0a0,0,0,0,0,0,0Z"/><path class="cls-1" d="M140.73,21.59h0v0s0,.05,0,0l0-.07s0,0,0,0Z"/><path class="cls-1" d="M140.79,21.68a0,0,0,0,0,0,0l0,0h0s0,0,0,0a.07.07,0,0,1-.06,0Z"/><path class="cls-1" d="M142.69,21.92h0v0Z"/><path class="cls-1" d="M142.55,21.92v0h0a0,0,0,0,0,0,0Z"/><polygon class="cls-1" points="142.59 21.93 142.6 21.92 142.59 21.93 142.59 21.93 142.59 21.93"/><path class="cls-1" d="M146.93,22.33c0,.07.1.13.1.21v.12a.54.54,0,0,1,0,.22L147,24a2.34,2.34,0,0,1-.08.52s0,0,0,.05a0,0,0,0,0,0,0,.66.66,0,0,0,.09-.33c.05-.49.08-1,.09-1.46v-.16a.85.85,0,0,0-.34-.62.82.82,0,0,0,.15.36Z"/><path class="cls-1" d="M142.83,22a0,0,0,0,0,0,0s0,0,0,0Z"/><path class="cls-1" d="M142.73,22s0,0,0,0v0Z"/><path class="cls-1" d="M142.76,22a0,0,0,0,0,0,0h0s0,0,0,0Z"/><path class="cls-1" d="M143.94,22v0s0,0,0,0Z"/><path class="cls-1" d="M142.8,22s0,0,0,0h0v0s0,0,0,0Z"/><path class="cls-1" d="M145.05,22l0,0,0,0Z"/><path class="cls-1" d="M144,22.08l0,0v0a.09.09,0,0,0,0,.06Z"/><path class="cls-1" d="M143.86,22.05l-.06.07a.08.08,0,0,0,.09,0h0s0,0,0,0a.31.31,0,0,1,0-.08h0l0,0Z"/><path class="cls-1" d="M143,22.06h0v0s0,0,0,0Z"/><path class="cls-1" d="M141.78,22.09h0v0Z"/><path class="cls-1" d="M143.94,22.17s0,0,0-.05,0,0,0,.05Z"/><path class="cls-1" d="M143,22.13s0,0,0,0,0,0,0,0h0Z"/><path class="cls-1" d="M145.11,22.15h0v0a0,0,0,0,0,0,0Z"/><path class="cls-1" d="M143,22.19s0,0,0,0,0,0,0,0v0h0s0,0,0,0Z"/><path class="cls-1" d="M138.93,23v0s0,0,0,0h0Z"/><path class="cls-1" d="M144.62,23.05h0s0,0,0,0a.1.1,0,0,0,0-.05h0a0,0,0,0,0,0,0Z"/><path class="cls-1" d="M138.89,23.05s0,0,0,0l0,0h0a.22.22,0,0,0,.11-.05s0,0,0,0Z"/><path class="cls-1" d="M144.52,23.2h0a0,0,0,0,0,0,0,0,0,0,0,0,0,0Z"/><path class="cls-1" d="M140.59,23.93s0,0,0,0l0,0Z"/><path class="cls-1" d="M140.49,24.07v0s0,0,0,0h0Z"/><polygon class="cls-1" points="140.19 24.1 140.19 24.1 140.19 24.1 140.19 24.1 140.19 24.1 140.19 24.1"/><path class="cls-1" d="M144.11,24.29s.09,0,.09-.06l-.09.06Z"/><polygon class="cls-1" points="144.11 24.3 144.11 24.29 144.11 24.29 144.11 24.3 144.11 24.3 144.11 24.3"/><path class="cls-1" d="M139.5,24.81h0a.11.11,0,0,0,0-.06,0,0,0,0,0,0,.07Z"/><path class="cls-1" d="M139.4,24.78s0,0,0,0a.06.06,0,0,0,0,0Z"/></g></svg>