<svg id="Layer_1" data-name="Layer 1" xmlns="http://www.w3.org/2000/svg" viewBox="0 0 145.83 145.85"><defs><style>.cls-1{fill:#e7f6bd;}.cls-2{fill:#2c2c2c;}.cls-3{fill:#fff;}.cls-4{fill:#595959;}.cls-5{fill:#ecbb00;}</style></defs><path class="cls-1" d="M75.23,19.05c-1.16,1.29-2.35,2.55-3.54,3.81a2,2,0,0,0-1-1.91,1.58,1.58,0,0,0-1.9.25c-1.31,1.13-2.62,2.26-3.9,3.43a1.1,1.1,0,0,0-1.28.21c-2.29,2.31-4.56,4.63-6.77,7-2.41,2.61-4.77,5.27-7.13,7.94-.8.92-1.6,1.84-2.38,2.78a1.58,1.58,0,0,0-.57,0c1.44-1.67,2.88-3.33,4.36-5,2.13-2.35,4.3-4.69,6.38-7.1a.9.9,0,0,0,0-1.22.86.86,0,0,0-1.23,0c-4.82,4.93-9.48,10-13.93,15.28-1,1.22-2.11,2.4-3.1,3.65L35.44,53c-2.08,2.62-4,5.34-6,8-2.15,2.9-4.17,5.9-6.18,8.9-1.1,1.64-2.16,3.3-3.2,5-.46.73-.89,1.47-1.32,2.23A14.86,14.86,0,0,0,17.29,80a1.07,1.07,0,0,0,1.31,1.31,7.11,7.11,0,0,0,.75-.33,2.55,2.55,0,0,0,.6-.45c-.53.85-1.05,1.71-1.52,2.59a1.47,1.47,0,0,0,.53,2,.55.55,0,0,0,.15.08c0,.09-.09.16-.12.24a1.92,1.92,0,0,0,.29,2.3,1.9,1.9,0,0,0,2.31.3,9.17,9.17,0,0,0,2.17-2.18l1.13-1.5L27,81.54a2.84,2.84,0,0,0,2.57.12c-.1.15-.19.31-.28.46A2.12,2.12,0,0,0,30.5,85.2a2,2,0,0,0,1.05.08,2.2,2.2,0,0,0,.77.45,2.41,2.41,0,0,0,.3.6.35.35,0,0,1,0,.08,3.19,3.19,0,0,0,.5,3.8,3.15,3.15,0,0,0,4.44,0c.55-.61,1.07-1.25,1.58-1.9a.12.12,0,0,0,0,0,3.33,3.33,0,0,0,4.65,0,3.27,3.27,0,0,0,.66.93A3.68,3.68,0,0,0,47,90.41a3.49,3.49,0,0,0,2.59-1.07l.85-1.09a3.66,3.66,0,0,0,4.18-.44,4,4,0,0,0,1.12,2.82,3.83,3.83,0,0,0,2.68,1.1,3.36,3.36,0,0,0,.79-.08,4.21,4.21,0,0,0,.54.66,4,4,0,0,0,2.79,1.16,4.16,4.16,0,0,0,2.79-1.16l.19-.17a4,4,0,0,0,2.28.32,1.23,1.23,0,0,1,.08-.36l.21-.51.3-.63.48-.88h0a.39.39,0,0,1-.21.06h-.18a.42.42,0,0,1-.16,0l-.22.18a1.75,1.75,0,0,1-.29.18.83.83,0,0,1-.21.06.62.62,0,0,1-.4-.06.54.54,0,0,1-.15-.15l-.1-.24a1.55,1.55,0,0,1,0-.43c0-.12,0-.22,0-.34s.07-.3.12-.45a.32.32,0,0,1,0-.27l0-.11-.36.43c-.26.32-.54.62-.81.93a.44.44,0,0,1-.4.1.45.45,0,0,1-.24-.19h0a.36.36,0,0,1,0-.4c.12-.19.25-.36.38-.53s.21-.28.32-.41a.58.58,0,0,1-.19,0,.44.44,0,0,1-.29-.41.48.48,0,0,1,0-.31,1.69,1.69,0,0,1,.12-.4,3.45,3.45,0,0,1,.24-.47l.14-.23-.1,0a.43.43,0,0,1-.29-.12A.43.43,0,0,1,65.5,86a.5.5,0,0,1-.27,0l0,0h0l-.3.2,0,0,0,0s0,0,0,0,0,0,0,0h0l0,0,0,0c-.18.16-.38.31-.58.46,0,0,0,0,0,0a3.21,3.21,0,0,1-.48.34,1.28,1.28,0,0,1-.31.11.65.65,0,0,1-.34,0,2.28,2.28,0,0,1-.38-.2l-.22-.16a.4.4,0,0,1-.18-.24.42.42,0,0,1,0-.31.41.41,0,0,1,.55-.15l.4.28a1.67,1.67,0,0,0,.35-.24h0s0,0,0,0a1.09,1.09,0,0,0,.17-.13l.43-.34c.16-.14.34-.25.52-.38l.19-.14,0,0s0,0,0,0h0l0,0,.35-.26h0a1.92,1.92,0,0,0,.36-.39l.42-.5.18-.23a1.49,1.49,0,0,1,.28-.23l0,0h0c.11-.1.21-.21.31-.32a2.29,2.29,0,0,1,.27-.27l.19-.15h0l.26-.2a1.23,1.23,0,0,1,.48-.32l.24-.08.16,0,.33-.14a3.85,3.85,0,0,1,.49-.07c.31,0,.61,0,.92,0a4.22,4.22,0,0,1,.93.11l.44.08L72,82c.16,0,.34,0,.51,0l.53.09-.11,0a10.67,10.67,0,0,0,1.13,0h.63c.2,0,.41,0,.61.08l-.11,0a7,7,0,0,0,1,0,1.92,1.92,0,0,1,.57.11l.26.08a1.88,1.88,0,0,1,.3.12l.18.07-.1,0,.47.21.45.22a5.73,5.73,0,0,1,.86.51,4.15,4.15,0,0,0,.34.24l.36.21c.24.12.48.25.73.36h0c.2.09.41.14.61.21a3.18,3.18,0,0,0,.53.14h0l.47.08h0a5.48,5.48,0,0,0,.7,0,2.06,2.06,0,0,1,.26,0,.92.92,0,0,1,.27.16.86.86,0,0,1,.27.48,5.23,5.23,0,0,1,.12.54,1.53,1.53,0,0,1,0,.37c0,.17,0,.35-.06.52l-.06.41c0,.24,0,.48,0,.72v.48a3.11,3.11,0,0,0,0,.43s0-.07,0-.1c0,.15.06.32.09.47s.09.27.14.4,0,0,0,0,0,0,0,0,0,0,0,0a.06.06,0,0,1,0,0c.17.38.39.75.54,1.14a.38.38,0,0,1,0,.31.48.48,0,0,1-.25.19.39.39,0,0,1-.3-.05.38.38,0,0,1-.19-.24.1.1,0,0,1,0,0c-.17-.36-.37-.69-.52-1.07a3.54,3.54,0,0,1-.18-.55,6.37,6.37,0,0,1-.11-.63,5.42,5.42,0,0,1,0-.57c0-.13,0-.27,0-.41l0,0a.55.55,0,0,1-.18-.19l-.08-.14s0,0-.05,0,0,0,0,0h0l0,0h0a1.48,1.48,0,0,0-.25.25s0,0,0,0a1.94,1.94,0,0,1-.16.48,3.89,3.89,0,0,1-.25.5,0,0,0,0,1,0,0c0,.12-.09.24-.14.36s-.11.35-.16.52a.41.41,0,0,1,.11.27.52.52,0,0,1-.14.33l-.26.36-.68.91c-.55.74-1.09,1.49-1.62,2.24-.26.38-.53.76-.81,1.15l-.78,1.14-.39.57a5.21,5.21,0,0,0,1.26-.43,4.77,4.77,0,0,0,4.67-1.29l.3-.32a5.26,5.26,0,0,0,5.56-1.12l.59-.59a5.48,5.48,0,0,0,3.7.52A5.06,5.06,0,0,0,98,95.07a5.19,5.19,0,0,0,.78.56,5,5,0,0,0,3.38.61,5.25,5.25,0,0,0,5.66-1,5.27,5.27,0,0,0,4.39-.44,8.34,8.34,0,0,0,1.49-1.15c.13,0,.26.09.39.12a6.19,6.19,0,0,0,1.09.19,6.23,6.23,0,0,0,2.12,1.16,5.5,5.5,0,0,0,4.64-.71,10.93,10.93,0,0,0,1.1-.83,4,4,0,0,0,1.15-.47l.9-.7a4.23,4.23,0,0,0,1.12-1.87,7.54,7.54,0,0,0,1-3.59l.33-.63a10,10,0,0,0,.75-1.91,6.32,6.32,0,0,0,0-2.87c.12-.16.23-.33.34-.5a4.15,4.15,0,0,0,.38-.76l.53-1.25a16.06,16.06,0,0,0,.21-1.68,4.07,4.07,0,0,0-.2-1.56,6.85,6.85,0,0,0,.51-1.18,5.86,5.86,0,0,0,0-3.37,5.15,5.15,0,0,0-3.76-3.58c0-.17-.07-.34-.11-.51a4.91,4.91,0,0,0-2.32-2.94,4.47,4.47,0,0,0-.59-1.67,4.2,4.2,0,0,0-.33-.49,5.3,5.3,0,0,0-1.45-2.93,5.87,5.87,0,0,0-.72-.6l.24-.36a5.63,5.63,0,0,0,.72-2.62,4.76,4.76,0,0,0-.73-2.49,5,5,0,0,0-1.16-1.31,11.29,11.29,0,0,0-.51-1.25,3.6,3.6,0,0,0-.82-1.06,5.46,5.46,0,0,0,1.61-3.79,4.24,4.24,0,0,0-.72-2.33,3.93,3.93,0,0,0,.17-1.14,4.08,4.08,0,0,0-2-3.43,4,4,0,0,0-3.2-.5,4.22,4.22,0,0,0-1,.41l0-.05a3.23,3.23,0,0,0,.4-1h0a6.22,6.22,0,0,1-5.9-4.56c-.3-.31-.62-.62-.94-.9-.86-.61-1.75-1.19-2.59-1.82a17.37,17.37,0,0,0-1.79-1.19c-1.93-.62-3.94-1-5.84-1.76-1.12-.45-2.23-.85-3.38-1.19A23,23,0,0,1,90,24.82l-.23-.07a13.79,13.79,0,0,0-1.93.1,27.72,27.72,0,0,1-5.51.71A6.13,6.13,0,0,1,76.3,19.5a5.8,5.8,0,0,1,.11-1.11,2.15,2.15,0,0,0-1.18.66ZM41.35,49,41.3,49l.05-.06Zm-16,19.25v0h0l0,0Zm4.87,13.29-.17.13.17-.13Zm36.55,1.86h0ZM65,85.07h0a0,0,0,0,1,0,0,0,0,0,0,0,0,0ZM64,85.89l0,0,0,0Zm-.24.18s0,0,0,0,0,0,0,0ZM50.35,88.4a.83.83,0,0,0-.08.12.5.5,0,0,1,.08-.12ZM84,89.75Z" transform="translate(-1.54 -2.49)"/><path class="cls-1" d="M69.31,82.62h0a.34.34,0,0,1,.15.22c.08-.09.17-.17.25-.25l-.38,0Z" transform="translate(-1.54 -2.49)"/><path class="cls-1" d="M72,82.86h0a1.32,1.32,0,0,0,.3.08,5.38,5.38,0,0,0,.8,0h.23l-.31,0a3,3,0,0,1-.43-.07h0l-.39,0-.26,0,.08,0Z" transform="translate(-1.54 -2.49)"/><path class="cls-1" d="M70.1,83.33a3.61,3.61,0,0,0-.33.35l-.1.15a2.42,2.42,0,0,0-.1.36.35.35,0,0,1,.07.35.56.56,0,0,1,0,.12c0,.17.09.34.14.51a.25.25,0,0,0,0,.07,5.3,5.3,0,0,1,.55-.1h0a.36.36,0,0,1,.08-.09.9.9,0,0,1,.2-.19.24.24,0,0,0,.08-.06,1.4,1.4,0,0,1,.38-.16,1.67,1.67,0,0,1,.39,0l.1,0a2.79,2.79,0,0,1,.37-.57,4,4,0,0,1,.29-.29,2,2,0,0,1-.62-.2,5.8,5.8,0,0,0-.66-.33l-.25-.1-.28-.1a3.11,3.11,0,0,0-.32.31Z" transform="translate(-1.54 -2.49)"/><path class="cls-1" d="M68.14,83.15l-.16.14,0,0-.06,0h0l0,0,0,0a1.7,1.7,0,0,1,.19-.19l.06-.07,0,0Z" transform="translate(-1.54 -2.49)"/><path class="cls-1" d="M67.94,83.31Z" transform="translate(-1.54 -2.49)"/><path class="cls-1" d="M77.12,84s0,.1,0,.15v.23c0,.12,0,.23,0,.34s0,.17-.06.24-.11.28-.16.41l.16.17.46.43a.41.41,0,0,1,.36.15,3,3,0,0,1,.79.21,4,4,0,0,1,.9.55l0,0,.09-.11.26-.31.2-.15a.38.38,0,0,1,.4,0,.41.41,0,0,1,.18.21l.38-.3a4.48,4.48,0,0,1,.72-.44l.48-.2c-.19,0-.37-.06-.56-.09h0a2.23,2.23,0,0,1-.57-.12c-.21-.07-.43-.13-.64-.21a5.51,5.51,0,0,1-.65-.31l-.5-.24c-.16-.09-.31-.21-.46-.31s-.33-.24-.5-.34-.41-.22-.62-.32l-.39-.19a.94.94,0,0,1-.3.58Z" transform="translate(-1.54 -2.49)"/><path class="cls-1" d="M73,84.13h0Z" transform="translate(-1.54 -2.49)"/><path class="cls-1" d="M76.23,84.69l-.06,0s0,0,0,0l.08.06h0l.05-.12-.06,0Z" transform="translate(-1.54 -2.49)"/><path class="cls-1" d="M67.08,85.46l0,.05a0,0,0,0,1,0,0l.27-.4c-.11.12-.21.24-.33.36Z" transform="translate(-1.54 -2.49)"/><path class="cls-1" d="M82.93,85.82a.42.42,0,0,1-.05.31.41.41,0,0,1-.24.19l-.2.08,0,0,.21.11h0a.64.64,0,0,1,.36.09,3.25,3.25,0,0,0,0-.54c0-.08,0-.16-.07-.24a1.18,1.18,0,0,0,0-.2H82.8a.5.5,0,0,1,.13.19Z" transform="translate(-1.54 -2.49)"/><path class="cls-1" d="M74.42,86.29l0,0a.1.1,0,0,0,0,0l0,0Z" transform="translate(-1.54 -2.49)"/><path class="cls-1" d="M78.21,86.6h0Z" transform="translate(-1.54 -2.49)"/><path class="cls-1" d="M72.23,87.29a1.06,1.06,0,0,1-.33.18l-.1,0-.16,0h-.1a.81.81,0,0,1-.3.23l0,.07a1.67,1.67,0,0,1-.24.35.82.82,0,0,1-.29.23.74.74,0,0,1-.08.29c-.39.76-.84,1.5-1.24,2.25l1-1.12,1.07-1.18.44-.47.5-.51a1.65,1.65,0,0,1,.24-.22,0,0,0,0,0,0,0l-.1-.12a.67.67,0,0,1-.09-.14l-.18.13Z" transform="translate(-1.54 -2.49)"/><path class="cls-1" d="M77.49,87.83l-.14.22a2.09,2.09,0,0,0,.08.23l.18-.26a3.83,3.83,0,0,1,.36-.44.42.42,0,0,1,.12-.08l-.31-.22a4.14,4.14,0,0,1-.29.55Z" transform="translate(-1.54 -2.49)"/><path class="cls-1" d="M82.57,87.48a0,0,0,0,1,0,0Z" transform="translate(-1.54 -2.49)"/><path class="cls-1" d="M73.29,88.15c0,.11-.07.22-.1.33v0h0v.14l.11,0,.26-.15a.29.29,0,0,1-.1-.12,1.47,1.47,0,0,1-.1-.22s0-.06,0-.09l-.06.13Z" transform="translate(-1.54 -2.49)"/><path class="cls-1" d="M73.18,88.55a.09.09,0,0,0,0,0h0a.09.09,0,0,1,0,0Z" transform="translate(-1.54 -2.49)"/><path class="cls-1" d="M74.62,89.56l.08-.1.21-.23a0,0,0,0,1,0,0l-.28.36Z" transform="translate(-1.54 -2.49)"/><path class="cls-1" d="M72.36,89.55c-.29.48-.59,1-.89,1.43l-.93,1.57a3.61,3.61,0,0,0-.22.39c.62-.67,1.21-1.35,1.8-2l.72-.82.65-.71-.25.07a.49.49,0,0,1-.24,0l-.11,0a.84.84,0,0,1-.32-.22h0l-.21.33Z" transform="translate(-1.54 -2.49)"/><path class="cls-1" d="M76.24,89.32a1.39,1.39,0,0,1-.21.11H76L75.6,90c-.15.23-.3.46-.46.68-.31.46-.62.91-.92,1.37l-.57.87c.12-.13.23-.27.34-.4l.21-.26c.11-.17.22-.33.32-.5l.71-1c.25-.37.52-.74.79-1.1l.23-.3Z" transform="translate(-1.54 -2.49)"/><path class="cls-1" d="M67.78,89.52Z" transform="translate(-1.54 -2.49)"/><path class="cls-1" d="M70.51,90.87l-1.07,1.18c-.15.17-.3.34-.46.5s-.24.26-.37.38a.42.42,0,0,1-.14.09,4.59,4.59,0,0,0,.66.42,4.82,4.82,0,0,1,.27-.5c.08-.17.16-.33.25-.5.36-.58.71-1.16,1.06-1.75l.07-.12-.27.3Z" transform="translate(-1.54 -2.49)"/><path class="cls-1" d="M73,91.61l0,0s0,0,0,0Z" transform="translate(-1.54 -2.49)"/><path class="cls-1" d="M73,91.64v0s0,0,0,0Z" transform="translate(-1.54 -2.49)"/><path class="cls-1" d="M71.33,94.57l.25.11c.06-.12.13-.23.2-.35.18-.29.35-.58.53-.86.07-.09.12-.18.18-.27-.39.45-.77.91-1.16,1.37Z" transform="translate(-1.54 -2.49)"/><polygon class="cls-1" points="66.42 80.81 66.42 80.81 66.42 80.81 66.42 80.81 66.42 80.81"/><polygon class="cls-1" points="66.4 80.82 66.41 80.82 66.4 80.82 66.4 80.82 66.4 80.82"/><path class="cls-1" d="M63.69,86.1h0Z" transform="translate(-1.54 -2.49)"/><path class="cls-1" d="M72.6,82.87h0Z" transform="translate(-1.54 -2.49)"/><path class="cls-1" d="M66.69,83.41h0Z" transform="translate(-1.54 -2.49)"/><path class="cls-1" d="M65.45,84.76h0l0,0,0,0Z" transform="translate(-1.54 -2.49)"/><path class="cls-1" d="M65.06,85.06l0,0,0,0Z" transform="translate(-1.54 -2.49)"/><polygon class="cls-1" points="63.52 82.57 63.52 82.58 63.52 82.57 63.52 82.57 63.52 82.57 63.52 82.57"/><path class="cls-2" d="M39.27,11.55A73.31,73.31,0,0,0,9.59,42.12,71.81,71.81,0,0,0,2.62,63a72.22,72.22,0,0,0-.27,23.17,73,73,0,0,0,55.76,60.36,74.12,74.12,0,0,0,16.32,1.85h0a73.89,73.89,0,0,0,22.23-3.46,72.93,72.93,0,0,0,35.07-24.41,71.4,71.4,0,0,0,10.88-19.17A73.06,73.06,0,0,0,93.76,5.09,74.85,74.85,0,0,0,82.55,3a69.44,69.44,0,0,0-8.14-.48,73.59,73.59,0,0,0-35.14,9.06Zm44-2a71,71,0,0,1,17.11,4.68,71.9,71.9,0,0,1,14.71,8.63A72.34,72.34,0,0,1,127.18,35a71.08,71.08,0,0,1,8.54,14.65,70.62,70.62,0,0,1,4.63,17,71.16,71.16,0,0,1,0,17.62,70.46,70.46,0,0,1-4.69,17.15,71,71,0,0,1-8.48,14.51A71.6,71.6,0,0,1,115.12,128a71.66,71.66,0,0,1-15,8.77,71.17,71.17,0,0,1-16.44,4.5,70.6,70.6,0,0,1-18.37,0,71.17,71.17,0,0,1-16.44-4.5,71.34,71.34,0,0,1-15-8.77,71.66,71.66,0,0,1-12.07-12.11A71,71,0,0,1,13.11,101a70.35,70.35,0,0,1-4.55-16.8,72.3,72.3,0,0,1,0-17.64,70.88,70.88,0,0,1,4.5-16.7A71.92,71.92,0,0,1,21.73,35,72,72,0,0,1,33.8,22.84a71.49,71.49,0,0,1,14.69-8.63A71.19,71.19,0,0,1,65.62,9.53a71.64,71.64,0,0,1,17.68,0Zm31.3,12.91.21.16-.21-.16Zm-80.29,0-.2.16.2-.16Zm80.75,105.61-.46.35.46-.35Zm-81.2,0,.45.35-.45-.35Z" transform="translate(-1.54 -2.49)"/><path class="cls-2" d="M65.23,16.21a58,58,0,0,0-20.17,7.18A59,59,0,0,0,29.07,37,59.24,59.24,0,0,0,18.84,55.4,58.9,58.9,0,0,0,17.4,88a57.77,57.77,0,0,0,3.46,10.13,58.83,58.83,0,0,0,40.9,33.42A59.58,59.58,0,0,0,74.51,133a60.76,60.76,0,0,0,11-1,58.95,58.95,0,0,0,41.15-30.68,57.61,57.61,0,0,0,4-9.85,58.26,58.26,0,0,0,2.2-10.65,59.52,59.52,0,0,0-1.71-22,58.71,58.71,0,0,0-16.13-27,59.94,59.94,0,0,0-8.2-6.55,58.25,58.25,0,0,0-19.6-8.32A59.41,59.41,0,0,0,76.33,15.5c-.6,0-1.21,0-1.81,0a59.84,59.84,0,0,0-9.29.74Zm7,14.34a6.09,6.09,0,0,1,2.26-.5,2.34,2.34,0,0,1,2,.84c.59.77,1.78.29,2.69-.06a6.49,6.49,0,0,1,3.75-.26,2.51,2.51,0,0,1,1.33.66A8.23,8.23,0,0,1,85,33c.3.58,1.1,1,1.6.62,1.23-1.08,3.12-.31,4.54.5a19.71,19.71,0,0,1,4.77,3.4,6.55,6.55,0,0,1,1.91,5.35c-.21,1.27,1.31,2.21,2.6,2.12s2.46-.78,3.73-1,2.89.38,3,1.66a3,3,0,0,0,4.49,2,54.54,54.54,0,0,0,2.78,9.7c.5,1.27.34,2.69.62,4s1.32,2.74,2.67,2.59c.49-.05.75.54.85,1a9.11,9.11,0,0,1,.21,4.57c-.43,1.49-1.92,2.78-3.42,2.45L117,76.48a8.83,8.83,0,0,0,1.56,3.07,3,3,0,0,0,3.12,1c-.54,1.26.33,2.61.78,3.9s0,3.27-1.4,3.12a2.81,2.81,0,0,0,1.33,1.58,18,18,0,0,1-6,0c-2.82-.3-5.59-.6-7.89.89-1.34.86-3.07,0-4.66,0s-3,.65-4.47,1.07-3.27.49-4.36-.61-2.64-.79-4.26-.49a8.31,8.31,0,0,1-3.16.19,3.77,3.77,0,0,1-2.76-4.53l-6.28,7.44C77,94.83,77,97.29,77.23,99.5a49.5,49.5,0,0,0,1,6.41A98,98,0,0,1,99,108.5q-25.09-.51-50.19,0A91.45,91.45,0,0,1,67.54,106a96.64,96.64,0,0,0,2.14-12.86c.1-1,.1-2.21-.74-2.78a23.64,23.64,0,0,1-5.25-5A32.72,32.72,0,0,0,58,90.9a6.92,6.92,0,0,0-4.48-.46,7.69,7.69,0,0,1-3.15.53c-1.06-.19-1.92-1.59-1.15-2.35a4.6,4.6,0,0,1-7.62-3.51c0-.32-.35-.5-.65-.61A33.59,33.59,0,0,0,34,82.92c-2-.25-1.83-4-3.83-4.38a3.08,3.08,0,0,0,.39-3.23c-.85.52-1.74-.68-1.9-1.68s-.33-2.28-1.32-2.46c-1.35-.25,1-3-.29-3.55,1.77-.45.28-3.44,1.34-4.92a3,3,0,0,1,1.08-.82,23.77,23.77,0,0,1,7.26-2.45c1.4-.23,3-.45,3.81-1.61-1.21-.52-.84-2.32-.26-3.5,1.06-2.18,2.25-4.49,4.38-5.65a5.25,5.25,0,0,1,2.1-5.1A27.61,27.61,0,0,0,49.34,42a2.07,2.07,0,0,0,.6-2.64c1.57,1.31,3.75-.42,5.59-1.31a35.62,35.62,0,0,1,4.59-1.35c1.52-.5,3.05-1.53,3.37-3.09.31.72.61,1.45.91,2.18l3.43-4.49a2.69,2.69,0,0,0,1.11.23,8.83,8.83,0,0,0,3.24-1Z" transform="translate(-1.54 -2.49)"/><path class="cls-2" d="M71,41.81c-.26.22-.23.62-.21,1s-.07.77-.41.84a.26.26,0,0,0-.15.35.51.51,0,0,0,.32.27,1.15,1.15,0,0,0,.37.06,1,1,0,0,0,.34,0,5.41,5.41,0,0,1,.63-.24c.22,0,.5.06.54.28s.32.32.55.37l.9.15a1.82,1.82,0,0,0,.57,0,.56.56,0,0,0,.41-.36c.08-.45-.59-.69-.66-1.14,0-.2.08-.44,0-.62s-.42-.17-.65-.09a.71.71,0,0,1-.68,0l-.6-.53a2.53,2.53,0,0,0-.58-.38.87.87,0,0,0-.28,0,.58.58,0,0,0-.37.13Z" transform="translate(-1.54 -2.49)"/><path class="cls-2" d="M87.29,42.42a3.21,3.21,0,0,0-.31.19,1.06,1.06,0,0,1-.58.16,1,1,0,0,1-.54-.14c-.23.35,0,.85-.15,1.23a1.68,1.68,0,0,1-.64.6,1.38,1.38,0,0,0-.51.56.72.72,0,0,0,.09.72,1.32,1.32,0,0,0,.78.31c.28.06.59.21.64.5s.43.34.64.17a.87.87,0,0,0,.22-.74,7,7,0,0,1-.12-.78.49.49,0,0,1,.28-.49c.06,0,.14,0,.22,0,.24-.07.28-.38.37-.62.14-.41.53-.79.44-1.21a.63.63,0,0,0-.61-.48.42.42,0,0,0-.22.05Zm-1.66,2.86,0,0a.32.32,0,0,1,0,.35.27.27,0,0,1,0-.33Z" transform="translate(-1.54 -2.49)"/><path class="cls-2" d="M59.42,50c.11.11.29.13.43.2s.24.28.12.39l-.47.4c-.16.15-.35.39-.22.56a.46.46,0,0,0,.35.14H60a1.18,1.18,0,0,0,.45-.07.6.6,0,0,0,.42-.58c0-.26-.26-.45-.33-.7s0-.43-.13-.57a.71.71,0,0,0-.33-.1l-.55,0h0c-.16,0-.18.26-.07.36Z" transform="translate(-1.54 -2.49)"/><path class="cls-2" d="M103.33,53.78c-.12,0-.09.23,0,.35.16.39.35.77.54,1.14,0,.09,0,.2-.14.22h0a.54.54,0,0,1-.24-.09,2.24,2.24,0,0,1-.65-.65,2.64,2.64,0,0,0-.33-.47A1.68,1.68,0,0,0,101,54a1.41,1.41,0,0,0-.65.23.52.52,0,0,0-.2.61.62.62,0,0,0,.69.24,5.38,5.38,0,0,1,.76-.21c.26,0,.56.16.57.41a1.33,1.33,0,0,0,.14.66.65.65,0,0,0,.54.36,1.26,1.26,0,0,0,.49-.12c.23-.09.46-.19.66-.07s.31.4.53.36.2-.18.23-.31a1.86,1.86,0,0,0-.28-1.3,4.89,4.89,0,0,0-.91-1,.3.3,0,0,0-.2-.1Z" transform="translate(-1.54 -2.49)"/><path class="cls-2" d="M94,55.24a.44.44,0,0,0-.2.08l-.68.39c-.09.06-.19.13-.19.24a.79.79,0,0,1-.45.6,5.16,5.16,0,0,0-.7.37.54.54,0,0,0,0,.92c.18.17.37.32.56.47a2,2,0,0,0,.88.41h.1a.79.79,0,0,0,.72-.41,1,1,0,0,0-.24-1c-.17-.23-.39-.52-.24-.75s.38-.2.58-.3a.63.63,0,0,0,.23-.89.39.39,0,0,0-.29-.18Z" transform="translate(-1.54 -2.49)"/><path class="cls-2" d="M50.39,56.07a3,3,0,0,1-.42.71c-.41.38-1.18.28-1.46.76a.68.68,0,0,0,.6.33.65.65,0,0,0,.36-.1c.16-.11.3-.29.48-.26s.21.15.3.25.24.18.34.09a.24.24,0,0,0,0-.29,2.26,2.26,0,0,1-.16-.26.56.56,0,0,1,.19-.55,2.41,2.41,0,0,0,.41-.44.39.39,0,0,0-.09-.54.28.28,0,0,0-.13,0,.6.6,0,0,0-.44.33Z" transform="translate(-1.54 -2.49)"/><path class="cls-2" d="M92.07,65a1.65,1.65,0,0,0-.57.63c-.44.73-1,1.56-1.85,1.56h0a3.07,3.07,0,0,0-1.82.49c-.14.08-.3.23-.26.39s.27.23.45.24l1.94.17c-.1.29-.47.34-.77.42a2.35,2.35,0,0,0-1.65,1.74c-.08.42-.66.5-.94.82a1.29,1.29,0,0,0-.23.77,1.5,1.5,0,0,1-.2.79.51.51,0,0,1-.72.14,1.09,1.09,0,0,0-1-.35c-.37.12-.57.67-.26.91a12.84,12.84,0,0,1,2.42,2.57.24.24,0,0,0,.37,0,.53.53,0,0,0,.08-.41,4.53,4.53,0,0,0-.4-1.06,1.17,1.17,0,0,1,0-1.09,1.93,1.93,0,0,0,.25-.72,1,1,0,0,1,.36-.67.43.43,0,0,1,.64.18c.15,0,.25-.18.22-.33s-.14-.29-.14-.45a.56.56,0,0,1,.49-.51,2,2,0,0,1,.76.1,3.43,3.43,0,0,0,2.17-.11l-1.72-.37a.92.92,0,0,1-.41-.17.32.32,0,0,1-.06-.4.43.43,0,0,1,.35-.1l1.77,0c.37,0,.58-.48.46-.83a1.81,1.81,0,0,0-.75-.8,1.55,1.55,0,0,1-.72-.82,1.7,1.7,0,0,1,1.41-.11c.13,0,.25-.12.24-.25s-.09-.26-.11-.4c-.06-.37.3-.66.6-.89s.6-.61.41-.93a.48.48,0,0,0-.44-.23.59.59,0,0,0-.32.08Z" transform="translate(-1.54 -2.49)"/><path class="cls-2" d="M41.48,70.9c0,.21,0,.48-.23.57l-.11,0c-.19,0-.36-.18-.53-.29a1,1,0,0,0-1,0,3.09,3.09,0,0,0-.81.72.51.51,0,0,0-.15.3c0,.2.27.29.45.24a3.82,3.82,0,0,0,.55-.24.81.81,0,0,1,1,.55c0,.2.34.24.51.13a2.35,2.35,0,0,0,.41-.47.48.48,0,0,1,.54-.2.46.46,0,0,1,.18.16A5,5,0,0,1,43,73.62c.15.36.31.78.69.89a1,1,0,0,0,.91-.39.91.91,0,0,0,.27-.51.43.43,0,0,0-.25-.47,2.63,2.63,0,0,1-.42-.07c-.16-.11-.15-.35-.09-.54a1,1,0,0,0,.11-.57,1.23,1.23,0,0,0-.6-.75.68.68,0,0,0-.87.23q-.4-.42-.81-.81a.13.13,0,0,0-.11,0,.39.39,0,0,0-.32.32Z" transform="translate(-1.54 -2.49)"/><path class="cls-2" d="M105.84,77.2a1.42,1.42,0,0,1-.51,1.19,2.63,2.63,0,0,1-.83.7,1.15,1.15,0,0,1-.41.08.74.74,0,0,1-.59-.24c-.13-.16-.2-.39-.39-.45s-.52.23-.59.52-.12.63-.39.74a1,1,0,0,1-.45,0,2,2,0,0,0-1.55.59.39.39,0,0,0-.16.33c0,.25.36.31.6.26s.53-.14.71,0,.66,0,.88-.32.6-.6.87-.38a.77.77,0,0,1,.16.6,1.45,1.45,0,0,0,.31.91.72.72,0,0,0,.89.16.48.48,0,0,0,0-.81.77.77,0,0,1-.45-.94.54.54,0,0,1,.91-.12,2.13,2.13,0,0,0,2.26,1s.11,0,.12-.07a.09.09,0,0,0,0-.1c-.07-.33-.42-.49-.69-.67s-.55-.52-.39-.81,0-.39,0-.59,0-.45.2-.51a1.21,1.21,0,0,0,.88-.84.85.85,0,0,0-.57-1l-.12,0a.67.67,0,0,0-.66.76Z" transform="translate(-1.54 -2.49)"/><path class="cls-2" d="M55.19,80.27c-.42.15-.91.38-1,.83,0,.09-.1.13-.2.13a.2.2,0,0,1-.11,0,.81.81,0,0,0-.37-.07c-.19.06-.2.35-.09.52a1.31,1.31,0,0,0,1.18.32c.42,0,.92,0,1.19.28a.26.26,0,0,0,.33,0,.71.71,0,0,0,.18-.3c.07-.25,0-.61-.21-.66-.1,0-.2,0-.3,0s-.22-.09-.19-.18.07-.31.1-.46,0-.35-.12-.44a.22.22,0,0,0-.16-.05.76.76,0,0,0-.26.06Z" transform="translate(-1.54 -2.49)"/><path class="cls-2" d="M68.4,82a5.7,5.7,0,0,1-1.23,1.61c-.1.1,0,.28,0,.4a4.71,4.71,0,0,0,1,1.08.64.64,0,0,0,.33.14l.11,0c.12-.07.14-.22.16-.35a6,6,0,0,0-.11-1.74,1.47,1.47,0,0,1,0-.66.78.78,0,0,0,.06-.37.19.19,0,0,0-.18-.14.11.11,0,0,0-.09,0Z" transform="translate(-1.54 -2.49)"/><path class="cls-2" d="M77.58,82.84a1.15,1.15,0,0,0-.26.57,19.92,19.92,0,0,0-.63,4.21,1.69,1.69,0,0,0,.14.89.67.67,0,0,0,.55.33.44.44,0,0,0,.22,0,20.4,20.4,0,0,0,5.13-4.12c.12-.13.18-.42,0-.42A10.85,10.85,0,0,1,80.84,84a3.35,3.35,0,0,1-1-.34c-.39-.24-.67-.6-1-.84a1.36,1.36,0,0,0-.7-.21.74.74,0,0,0-.54.21Z" transform="translate(-1.54 -2.49)"/><path class="cls-3" d="M40.75,67.56h-.17a.75.75,0,0,0-.32.08l-.17.11a1.34,1.34,0,0,0-.55.36l-.13.16-.12.14a2.89,2.89,0,0,0-.64,1.18,1.86,1.86,0,0,0,0,.34.3.3,0,0,0-.07.16,3.29,3.29,0,0,0-.13.64c0,.13,0,.25,0,.38a2.16,2.16,0,0,0,0,.35,2.81,2.81,0,0,0,.21.7,3.93,3.93,0,0,0,.81,1.23l.24.22.24.22.38.42.13.11h0l.12.17.2.28-.24,0a2.48,2.48,0,0,0-.41.15,2,2,0,0,0-.86.51,2.69,2.69,0,0,0-.35.42,2.19,2.19,0,0,0-.32.65c0,.11-.08.22-.11.33a3.1,3.1,0,0,0-.07.37,4.21,4.21,0,0,0,0,.57,1.56,1.56,0,0,0,0,.25,1.47,1.47,0,0,0,.13.42,2.42,2.42,0,0,0,.34.53c.07.09.23.25.39.41a4.61,4.61,0,0,0,.6.47l.42.32c.16.1.32.2.48.28a2.53,2.53,0,0,0,.45.19l.23.07.26,0,.17.07a2,2,0,0,0,.32.11l.26.08a.38.38,0,0,0,.17.06l.25.07a1.52,1.52,0,0,0,.28.09l.16,0,.23.07.16.05a2.7,2.7,0,0,1,.4.14l.31.1.32.07.32.05.36.07a2.12,2.12,0,0,1-.17.57l-.14.31a2.82,2.82,0,0,1-.2.42,2.5,2.5,0,0,0-.25.53l-.05.21,0,.2a2.53,2.53,0,0,0-.09.54c0,.14,0,.27,0,.4a2.63,2.63,0,0,0,0,.48,1.74,1.74,0,0,0,.07.29,1.5,1.5,0,0,0,0,.3c0,.17,0,.34.08.53a2.68,2.68,0,0,0,.21.49,1.59,1.59,0,0,0,.22.35,3.64,3.64,0,0,0,.36.41l.18.18.37.35a5.21,5.21,0,0,0,.62.54,1.79,1.79,0,0,0,.61.29l.37.11a2.74,2.74,0,0,0,.43.08h0a1.54,1.54,0,0,0,.39,0,2.6,2.6,0,0,0,.49-.06,1.73,1.73,0,0,0,.27-.08,1.28,1.28,0,0,1,.31-.08,2.51,2.51,0,0,0,1.23-.72A4.49,4.49,0,0,0,51,88l.19-.22a5.62,5.62,0,0,0,.49-.38,6.4,6.4,0,0,0,.62-.53c.13-.13.25-.27.37-.41a.22.22,0,0,0,0,.08.4.4,0,0,0,0,.42,1.51,1.51,0,0,1-.06.33h-.24a.41.41,0,0,0-.41.31l0,.18a3.49,3.49,0,0,0-.08,1.12,2.36,2.36,0,0,0,.32.8,1.13,1.13,0,0,0,.12.21,3.85,3.85,0,0,0,.08.58,2.49,2.49,0,0,0,.4,1,2.9,2.9,0,0,0,.25.36l.07.21a3.91,3.91,0,0,0,.5,1.33c.11.16.19.27.34.31a1.2,1.2,0,0,0,.72.31.32.32,0,0,0,0,.31.76.76,0,0,0,.63.46,1.27,1.27,0,0,0,.34,0,3.31,3.31,0,0,0,.45-.07,1.83,1.83,0,0,0,.58-.27c.17-.11.32-.22.48-.34a2.22,2.22,0,0,0,.38-.44,3.52,3.52,0,0,0,.28-.46l.06-.15a3,3,0,0,0,.54.29l.22.1a4.58,4.58,0,0,1,.54.28l.27.14v0a1.89,1.89,0,0,0,.35.17,2.78,2.78,0,0,0,.4.16,3,3,0,0,1,.4.12l.31.14c.1,0,.19.09.29.12l.23.07a1.83,1.83,0,0,0,.32.07,7.11,7.11,0,0,0,.92.06h0a1.67,1.67,0,0,0,1.23-.57,4,4,0,0,0,.56-.7,5.57,5.57,0,0,0,.45-.83,3,3,0,0,0,.13-.8v-.36a2.53,2.53,0,0,0,0-.64,1.84,1.84,0,0,0-.19-.49c-.07-.15-.12-.27-.19-.39a2.82,2.82,0,0,1-.21-.38c-.09-.18-.19-.34-.29-.51a4.51,4.51,0,0,0-.45-.53.8.8,0,0,1-.15-.17l-.3-.33L63,88l-.12-.15-.11-.16-.2-.27-.12-.16a2.48,2.48,0,0,0-.19-.26,3.92,3.92,0,0,0-.37-.34l-.29-.2-.23-.15-.22-.16L61,86c-.15-.11-.3-.23-.46-.33l-.22-.12-.22-.11v0l-.21-.12a1.94,1.94,0,0,0-.47-.21l-.91-.31L58,84.55l-.46-.13-.31-.09-.36-.11a6.14,6.14,0,0,0-.75-.21L55,83.78c-.35-.06-.71-.1-1.07-.14l-.22,0a.84.84,0,0,1,0-.27,4.93,4.93,0,0,0,.17-1c0-.22,0-.38,0-.55v-.58a.43.43,0,0,0,0-.49,1.88,1.88,0,0,0-.42-.91,3.9,3.9,0,0,0-.66-.47,4,4,0,0,0-.76-.37l-.29-.12-.17-.07-.3-.12-.21-.08-.25-.08a1.19,1.19,0,0,0-.26,0,1.32,1.32,0,0,0-.3,0,1.4,1.4,0,0,0-.55.15l-.15,0a2.52,2.52,0,0,0-.92.26l-.14.08a.53.53,0,0,0,.12-.42l-.11-.15h0l0-.29-.06-.44a1.66,1.66,0,0,0-.09-.37,4.37,4.37,0,0,0-.18-.59,1.83,1.83,0,0,0-.14-.28,1.05,1.05,0,0,1-.12-.21l-.1-.23-.13-.32-.16-.41-.12-.33,0-.15-.08-.16,0-.16a.29.29,0,0,0,0-.16,3.15,3.15,0,0,0-.09-.37l0-.18a1.21,1.21,0,0,0-.09-.31l-.06-.17L47,72.88l-.08-.24-.08-.24-.06-.21L46.7,72c-.06-.18-.14-.35-.21-.51l-.14-.27-.28-.44a3.64,3.64,0,0,0-.31-.5l-.13-.15L45.52,70a2.21,2.21,0,0,0-.32-.29l-.13-.11-.38-.29L44.3,69,44.13,69l-.2-.25-.13-.11a2.88,2.88,0,0,0-.46-.42,3,3,0,0,0-.49-.3l-.32-.11a3.6,3.6,0,0,0-1-.19c-.26,0-.53,0-.78,0Z" transform="translate(-1.54 -2.49)"/><path class="cls-4" d="M45.78,80.11c-.14.27-.29.55-.45.81a1,1,0,0,0-.15.25.37.37,0,0,0,0,.32,1.43,1.43,0,0,0-.08.22.58.58,0,0,0,0,.39.45.45,0,0,0,.32.31.33.33,0,0,0,.17,0l0,.09a1.7,1.7,0,0,0,.23.3,2.72,2.72,0,0,0,.24.24,4.81,4.81,0,0,0,.48.42c.29.22.61.41.92.6l.6.39,0,0a.69.69,0,0,0,.3.2h0l.08,0c.18.23.35.46.54.68s.36.44.56.65.21.19.31.3l.24.27c.08.08.15.17.24.25a3.33,3.33,0,0,0,.39.36h0a.43.43,0,0,0,.2.42.59.59,0,0,0,.47,0l.27-.07a1.59,1.59,0,0,0,.26-.14h0a1,1,0,0,0,.24-.17l.09-.11h0a.42.42,0,0,0,.21-.26v0l.13-.15a.65.65,0,0,0,.09-.16.46.46,0,0,0,.23-.06.44.44,0,0,0,.21-.37.93.93,0,0,0-.05-.29c0-.14-.09-.27-.14-.41a1.53,1.53,0,0,0-.22-.42.71.71,0,0,0-.26-.23l-.12-.12c-.16-.14-.34-.25-.52-.38a7.76,7.76,0,0,1-.61-.55l-.46-.47c-.08-.12-.16-.25-.23-.38a3.62,3.62,0,0,0-.24-.43l-.26-.4a2.37,2.37,0,0,0-.32-.46,3.63,3.63,0,0,0-.46-.34,5.29,5.29,0,0,0-.52-.29,5.46,5.46,0,0,0-.6-.27,3.82,3.82,0,0,0-.36-.13,2,2,0,0,0-.58-.43.58.58,0,0,0-.41,0l-.15,0-.29,0h0a.1.1,0,0,0-.05,0,.36.36,0,0,0-.2-.06.39.39,0,0,0-.35.2Zm.67.72v0h0Zm4.39,2.44,0,0,0,0Zm-1.48,1.19,0,0,0,0v0Zm3.75,1.46h0Z" transform="translate(-1.54 -2.49)"/><path class="cls-5" d="M59.1,77.08a2.81,2.81,0,0,1,1.26.72,3,3,0,0,1,.93,1.3,1.38,1.38,0,0,1-.41,1.48.88.88,0,0,1-1.29-.25c-.2-.46.4-1.06.82-.78a2.5,2.5,0,0,0-3.55-1.37A3.78,3.78,0,0,1,54.76,83l0,.5a21.45,21.45,0,0,1,6.31,1.75,9.41,9.41,0,0,1,4.6,4.5,4.48,4.48,0,0,1,.1,3.8,3.74,3.74,0,0,1-3.57,1.87,5.43,5.43,0,0,1-3.65-2,3.86,3.86,0,0,1-2.42,2,3,3,0,0,1-2.92-.89,4.85,4.85,0,0,1-.82-1.75,25.06,25.06,0,0,1-.76-3.54l-.53.36a2.39,2.39,0,0,1-.67,3.52L50.29,90l-.89.33a1.51,1.51,0,0,1-.18,1.41.69.69,0,0,1-.34.29c-.33.09-.66-.25-.68-.59a1.72,1.72,0,0,1,.34-1,5.42,5.42,0,0,1-5.91-5.86,1.83,1.83,0,0,1-.93.37c-.33,0-.7-.26-.67-.6a.75.75,0,0,1,.44-.53,1.69,1.69,0,0,1,1.36-.06l.37-.93L40,82.81a2.38,2.38,0,0,1,3.62-.63l.41-.67a26.84,26.84,0,0,1-3.78-.73A4.93,4.93,0,0,1,38.43,80a2.94,2.94,0,0,1-.93-2.92,3.82,3.82,0,0,1,2-2.44,5.13,5.13,0,0,1-2.09-3.85,3.79,3.79,0,0,1,2.3-3.58,4.61,4.61,0,0,1,3.43.3,9.64,9.64,0,0,1,4.42,4.37,19.08,19.08,0,0,1,1.83,6l.65-.07a3.35,3.35,0,0,1,5-1.68,2.39,2.39,0,0,0-1.47-3.33.61.61,0,0,1-.53.87.79.79,0,0,1-.7-.87,1.09,1.09,0,0,1,.82-.86,1.84,1.84,0,0,1,1.22.14,3,3,0,0,1,1.15,4.36,7.25,7.25,0,0,1,1.09,1.26,3.73,3.73,0,0,1,2.49-.64Zm4.95,16.38a2.85,2.85,0,0,0,.7-1.37,3.37,3.37,0,0,0-.7-2.53,8.42,8.42,0,0,0-2-1.81,17.64,17.64,0,0,0-7.15-3.4c-.1,0-.24,0-.26.09a6.11,6.11,0,0,1-.75,2.12c-.08.14,0,.31.13.44a51.41,51.41,0,0,0,5.43,6,4.11,4.11,0,0,0,2.86,1.37,2.61,2.61,0,0,0,1.74-.9Zm-21.93-25a3,3,0,0,0-2.61.4,2.66,2.66,0,0,0-1.06,2.4,4.6,4.6,0,0,0,1.46,2.49,54.05,54.05,0,0,0,6.16,5.35.37.37,0,0,0,.12.07.33.33,0,0,0,.14,0l2.06-1a.14.14,0,0,0,.1-.07.25.25,0,0,0,0-.17,13.13,13.13,0,0,0-1.75-4.35A19.6,19.6,0,0,0,44.17,70a5,5,0,0,0-2.05-1.46Zm-3.5,8.87a2,2,0,0,0,.62,1.48,6.77,6.77,0,0,0,3.19,1.67c.58.17,1.16.32,1.74.47a.38.38,0,0,0,.15,0,.36.36,0,0,0,.14-.1l1.14-1.17a.18.18,0,0,0,0-.21.65.65,0,0,0-.17-.16,63.49,63.49,0,0,1-5.06-3.89c-.1-.08-.25,0-.36.06a4.55,4.55,0,0,0-.93.76,1.83,1.83,0,0,0-.47,1.08Zm14,13.35a6.48,6.48,0,0,0,1.66,3,2.1,2.1,0,0,0,1.52.59,1.86,1.86,0,0,0,1-.48,3.8,3.8,0,0,0,.72-.88c.09-.15.18-.34.07-.47a63.66,63.66,0,0,1-4-5c-.05-.06-.13-.14-.2-.1a.1.1,0,0,0,0,0l-1.19,1.3a.38.38,0,0,0-.09.12.42.42,0,0,0,0,.22c.15.57.32,1.14.5,1.7ZM46.8,80.62l-1.13,1.25c-.07.08-.14.21-.05.27a24.31,24.31,0,0,1,5.9,5.36c.07.08.19,0,.27-.06.28-.28.55-.56.82-.85a3.23,3.23,0,0,0,.53-.7.18.18,0,0,0,0-.14c0-.06,0-.11-.09-.16a27.73,27.73,0,0,0-5.44-4.89,1.16,1.16,0,0,0-.42-.2.48.48,0,0,0-.43.12Zm3.37,8s.06-.05.06-.08,0,0,0-.06a11.31,11.31,0,0,0-1.28-1.31c-1.35-1.22-2.73-2.42-4.13-3.58a.14.14,0,0,0-.09-.05.12.12,0,0,0-.08.09,3.68,3.68,0,0,0,.68,4.09,4.32,4.32,0,0,0,1.32.91,3.87,3.87,0,0,0,3.55,0Zm3.9-6.55a.83.83,0,0,0-.22-.34c-1-1-2-2-3.05-2.88a.52.52,0,0,0-.19-.11.44.44,0,0,0-.2,0,10.08,10.08,0,0,0-2.2.77c-.09,0-.2.12-.2.22a14.07,14.07,0,0,1,5.7,4.57,14.28,14.28,0,0,0,.37-1.93.8.8,0,0,0,0-.31Z" transform="translate(-1.54 -2.49)"/><path class="cls-5" d="M61.89,83.23a1.79,1.79,0,1,0,1.79-1.78,1.81,1.81,0,0,0-1.79,1.78Z" transform="translate(-1.54 -2.49)"/><path class="cls-5" d="M61.76,80.73A1.79,1.79,0,1,0,63.55,79a1.81,1.81,0,0,0-1.79,1.78Z" transform="translate(-1.54 -2.49)"/><path class="cls-5" d="M60.09,82.53a1.79,1.79,0,1,0,1.79-1.79,1.81,1.81,0,0,0-1.79,1.79Z" transform="translate(-1.54 -2.49)"/><path class="cls-5" d="M61.2,84.27A1.79,1.79,0,1,0,63,82.48a1.81,1.81,0,0,0-1.79,1.79Z" transform="translate(-1.54 -2.49)"/><path class="cls-5" d="M58.8,82.07a1.79,1.79,0,1,0,1.78-1.79,1.81,1.81,0,0,0-1.78,1.79Z" transform="translate(-1.54 -2.49)"/><path class="cls-5" d="M63.41,78.35a1.79,1.79,0,1,0,1.79-1.79,1.81,1.81,0,0,0-1.79,1.79Z" transform="translate(-1.54 -2.49)"/><path class="cls-5" d="M59.82,73.93a1.79,1.79,0,1,0,1.78-1.79,1.81,1.81,0,0,0-1.78,1.79Z" transform="translate(-1.54 -2.49)"/><path class="cls-5" d="M58,73.38a1.79,1.79,0,1,0,1.79-1.79A1.81,1.81,0,0,0,58,73.38Z" transform="translate(-1.54 -2.49)"/><path class="cls-5" d="M56.59,69.35a3.73,3.73,0,0,0,.14.8.54.54,0,0,0,1.05-.29c-.05-.17-.09-.34-.13-.51a.52.52,0,0,0-.16-.37.51.51,0,0,0-.37-.16.53.53,0,0,0-.53.53Zm1.07.08v0Z" transform="translate(-1.54 -2.49)"/><path class="cls-5" d="M55.64,65.7a1.4,1.4,0,0,0-.5,1.9c.06.07.11.16.17.24a1.48,1.48,0,0,0,.83.64,1.43,1.43,0,0,0,1.07-.14,1.39,1.39,0,0,0,.5-1.9,2.49,2.49,0,0,0-.17-.24,1.47,1.47,0,0,0-.83-.64,1.12,1.12,0,0,0-.36,0,1.35,1.35,0,0,0-.71.19Z" transform="translate(-1.54 -2.49)"/><path class="cls-5" d="M51.89,66.28a1.79,1.79,0,1,0,1.79-1.78,1.8,1.8,0,0,0-1.79,1.78Z" transform="translate(-1.54 -2.49)"/><path class="cls-5" d="M45.05,63.64a1.79,1.79,0,1,0,1.79-1.79,1.81,1.81,0,0,0-1.79,1.79Z" transform="translate(-1.54 -2.49)"/><path class="cls-5" d="M37,63.06a1.79,1.79,0,1,0,1.78-1.78A1.8,1.8,0,0,0,37,63.06Z" transform="translate(-1.54 -2.49)"/><path class="cls-5" d="M34,64.31a1.79,1.79,0,1,0,1.79-1.79A1.81,1.81,0,0,0,34,64.31Z" transform="translate(-1.54 -2.49)"/><path class="cls-5" d="M30.18,72.37A1.79,1.79,0,1,0,32,70.58a1.8,1.8,0,0,0-1.79,1.79Z" transform="translate(-1.54 -2.49)"/><path class="cls-5" d="M32.22,74.58A1.79,1.79,0,1,0,34,72.79a1.8,1.8,0,0,0-1.78,1.79Z" transform="translate(-1.54 -2.49)"/><path class="cls-5" d="M30.56,78.52a1.79,1.79,0,1,0,1.78-1.79,1.81,1.81,0,0,0-1.78,1.79Z" transform="translate(-1.54 -2.49)"/><path class="cls-5" d="M32.37,81.82A1.79,1.79,0,1,0,34.16,80a1.81,1.81,0,0,0-1.79,1.78Z" transform="translate(-1.54 -2.49)"/><path class="cls-5" d="M40.5,92.31a2.06,2.06,0,1,0,2.06-2.06,2.08,2.08,0,0,0-2.06,2.06Z" transform="translate(-1.54 -2.49)"/><path class="cls-5" d="M54.28,98.16a1.79,1.79,0,1,0,1.78-1.79,1.8,1.8,0,0,0-1.78,1.79Z" transform="translate(-1.54 -2.49)"/><path class="cls-5" d="M57,99.3a1.79,1.79,0,1,0,1.79-1.79A1.81,1.81,0,0,0,57,99.3Z" transform="translate(-1.54 -2.49)"/><path class="cls-5" d="M61.14,97.79A1.79,1.79,0,1,0,62.92,96a1.81,1.81,0,0,0-1.78,1.79Z" transform="translate(-1.54 -2.49)"/><path class="cls-5" d="M65.5,93.41a1.79,1.79,0,1,0,1.79-1.79,1.8,1.8,0,0,0-1.79,1.79Z" transform="translate(-1.54 -2.49)"/><path class="cls-5" d="M70.76,89.87a1.79,1.79,0,1,0,1.79-1.79,1.81,1.81,0,0,0-1.79,1.79Z" transform="translate(-1.54 -2.49)"/><path class="cls-5" d="M68.92,84.31a1.79,1.79,0,1,0,1.79-1.79,1.8,1.8,0,0,0-1.79,1.79Z" transform="translate(-1.54 -2.49)"/><path class="cls-5" d="M48.9,96.91A1.92,1.92,0,1,0,50.81,95a1.93,1.93,0,0,0-1.91,1.91Z" transform="translate(-1.54 -2.49)"/><path class="cls-5" d="M32.74,88.79a1.74,1.74,0,0,0-.8,2,2.83,2.83,0,0,0,.58,1c.11.13.23.25.35.37a1.79,1.79,0,0,0,2.53-2.52c-.19-.19-.35-.38-.53-.57a1.78,1.78,0,0,0-1.25-.51,1.74,1.74,0,0,0-.88.24Z" transform="translate(-1.54 -2.49)"/></svg>