<svg id="Layer_3" data-name="Layer 3" xmlns="http://www.w3.org/2000/svg" viewBox="0 0 147 147.02"><defs><style>.cls-1{fill:#2c2c2c;}.cls-2{fill:#fff;}.cls-3{fill:#d4b32c;}</style></defs><path class="cls-1" d="M65.77,2.44a71.82,71.82,0,0,0-21.39,6A73.46,73.46,0,0,0,15,118.33a74.06,74.06,0,0,0,33.7,25.86,72.9,72.9,0,0,0,25.93,4.73h0a74.81,74.81,0,0,0,21.94-3.33A73.64,73.64,0,0,0,131.48,122a72.08,72.08,0,0,0,11.13-18.63A73.47,73.47,0,0,0,65.77,2.44ZM83.48,8.82a71.7,71.7,0,0,1,17,4.6,71.83,71.83,0,0,1,15,8.75,72.36,72.36,0,0,1,12.31,12.3,71.85,71.85,0,0,1,8.58,14.67,70.88,70.88,0,0,1,4.77,17.45,72.21,72.21,0,0,1,0,17.69,71,71,0,0,1-4.76,17.4,72,72,0,0,1-8.74,14.86,72.51,72.51,0,0,1-12.15,12.11,71.8,71.8,0,0,1-14.79,8.64,71.15,71.15,0,0,1-17,4.66,70.76,70.76,0,0,1-18.39,0,71.15,71.15,0,0,1-17-4.66,72.05,72.05,0,0,1-15-8.8,72.33,72.33,0,0,1-11.93-11.92,72.44,72.44,0,0,1-8.76-14.87A71.86,71.86,0,0,1,8,84.31,73.2,73.2,0,0,1,8,66.56a71.69,71.69,0,0,1,4.77-17.44,72.28,72.28,0,0,1,8.59-14.66,72.76,72.76,0,0,1,12.1-12.14,72,72,0,0,1,15.24-8.9,71.78,71.78,0,0,1,17-4.6,72,72,0,0,1,17.73,0Zm17.11,4.63.64.27-.64-.27Zm-51.95,0-.64.27.64-.27ZM127.51,34l.25.33-.25-.33Zm.5,82.13-.2.25.2-.25Zm-26.78,20.94-.28.12.28-.12Zm-53.23,0,.28.12-.28-.12Z" transform="translate(-1.1 -1.9)"/><path class="cls-1" d="M75.19,16.71c-1.18,0-2.36,0-3.53.1A59.24,59.24,0,0,0,61,18.42a58.24,58.24,0,0,0-10,3.42A59.85,59.85,0,0,0,21.64,50.19,60.45,60.45,0,0,0,17.89,60a58.7,58.7,0,0,0-2,10.54A59.63,59.63,0,0,0,33.53,118.9a61.41,61.41,0,0,0,8,6.56,59.22,59.22,0,0,0,33.73,10.46,60.76,60.76,0,0,0,10.86-1,59.45,59.45,0,0,0,10.32-2.88,59.59,59.59,0,0,0,17.76-10.61,59.43,59.43,0,0,0,13.08-16,59.4,59.4,0,0,0,6.89-20,59.64,59.64,0,0,0-.63-21.71,59,59,0,0,0-8-19.42,60.32,60.32,0,0,0-6.28-8.2,59.22,59.22,0,0,0-7.59-7A59.19,59.19,0,0,0,75.19,16.71Z" transform="translate(-1.1 -1.9)"/><path class="cls-2" d="M44.54,30.91a.76.76,0,0,0-.5.18.72.72,0,0,0-.12.59,7.34,7.34,0,0,0,.75,2.92,9.17,9.17,0,0,0,2.41,2.6,4.4,4.4,0,0,0-1.16,5.48,6.45,6.45,0,0,0,.86,1.16A4.29,4.29,0,0,0,48.31,45c.47.18,1.18,0,1.21-.45a3.88,3.88,0,0,1,.56-1.84.81.81,0,0,1,.25-.27.6.6,0,0,1,.76.34,4.57,4.57,0,0,1,.23.9c.27,1,1.3,1.6,1.45,2.59,0,.26.44.32.63.13a.74.74,0,0,0,.06-.75c-.1-.24-.26-.46-.34-.7a12,12,0,0,1-.21-1.34c-.25-1-1.28-1.6-1.39-2.58a.31.31,0,0,1,0-.23c.13-.16.37.05.48.23.5.94,1,1.88,1.44,2.84.11.21.46.13.56-.09a1,1,0,0,0-.07-.68,29.47,29.47,0,0,0-1.34-3,1,1,0,0,1-.16-.76c.09-.25.53-.32.59-.06a9,9,0,0,0,1.53,3.24,1.2,1.2,0,0,0,.82-.87,3.62,3.62,0,0,0,.08-1.23l-.12-2a.39.39,0,0,1,.06-.3c.17-.2.48.08.58.33a5.68,5.68,0,0,1,.39,2.38.83.83,0,0,0,.05.44c.08.13.27.2.37.1a.27.27,0,0,0,.08-.17,3.92,3.92,0,0,0,.17-2.73c-.09-.22-.13-.58.1-.57s.18.51.42.61.33-.14.41-.31a7.31,7.31,0,0,0,.55-3.36c0-.28.3-.44.56-.53l.77-.26c-.44.27-.47.89-.46,1.4s0,1.1,0,1.64c0,.19.09.45.28.41a.3.3,0,0,0,.13-.12,1.3,1.3,0,0,0,.12-.89,2.79,2.79,0,0,1-.05-.91.69.69,0,0,1,.59-.6c.31,0,.56.42.34.62a1.29,1.29,0,0,0-.16,1.62A6.54,6.54,0,0,1,61.32,36a1.09,1.09,0,0,0-.07-1.26c-.26-.25-.77-.38-.72-.75s-.39-.6-.74-.59-.71.18-1.06.18c-.85,0-1.66-1-2.4-.56-.32.17-.46.54-.69.82s-.71.45-.94.17a1.93,1.93,0,0,0-1.51-.59h-.5a4.15,4.15,0,0,1-1.17-.1,3.92,3.92,0,0,1-1-.43c-1.75-1-3.62-2-5.6-2Zm1,3.68a.59.59,0,0,1-.41-.21.69.69,0,0,1-.1-.19,1.37,1.37,0,0,1,.26-1.34,2.45,2.45,0,0,1,1.21-.74,1.58,1.58,0,0,1,1.28,0,.52.52,0,0,1-.48.25,1.73,1.73,0,0,0-.56.08c-.17.09-.27.35-.13.48a.27.27,0,0,1-.08.43.47.47,0,0,1-.49-.08,1.27,1.27,0,0,1-.31-.41c-.27,0-.45.31-.38.57a1.2,1.2,0,0,0,.51.61.26.26,0,0,1,0,.35.37.37,0,0,1-.33.15ZM48,33.35a1,1,0,0,1,.06-.54l.08,0c0-.17.28-.23.38-.08a.43.43,0,0,1-.08.49.42.42,0,0,1-.32.2.16.16,0,0,1-.12,0Zm-1.08-.15a.46.46,0,0,1,.38.53l-.06,0a6.22,6.22,0,0,1-.32-.56Zm-.37,2.15a8.29,8.29,0,0,1-.06-.85.69.69,0,0,1,.44-.66c.28-.08.6.26.43.5s-.26.15-.4.23-.24.28-.12.38.13.55,0,.8l-.51,0a.15.15,0,0,1-.27,0,.34.34,0,0,1,.39-.22h0c.07,0,.11-.11.1-.18Zm1.93-.77a.55.55,0,0,0-.32-.14c-.1,0-.22-.15-.19-.26s.3-.24.47-.14a3.63,3.63,0,0,0,.47.33.78.78,0,0,0,.3,0h.12a.46.46,0,0,1,.37.16.21.21,0,0,1-.12.33,1.48,1.48,0,0,0-1.06.46c-.19-.2.12-.56,0-.78Zm1.83.5a.46.46,0,0,1,.35-.12,16.77,16.77,0,0,1,1.87-.06.7.7,0,0,1,.5.16c.12.14,0,.42-.14.4a12.84,12.84,0,0,0-2.48-.09h0c-.13,0-.18-.19-.1-.29ZM47,36.62a.7.7,0,0,1,.11-.37.35.35,0,0,0,.3-.18.29.29,0,0,1,0-.42.3.3,0,0,1,.42,0,.4.4,0,0,1-.06.49,1,1,0,0,1-.47.25c0,.09,0,.17,0,.25a.32.32,0,0,1-.14,0,.25.25,0,0,1-.17-.06Zm-.53-.42a.23.23,0,0,1,.23-.3h0l.23.1a.72.72,0,0,1-.11.37h-.07a.3.3,0,0,1-.28-.19Zm2,1.65,0-.05a.43.43,0,0,1,.6,0,.33.33,0,0,1-.3.16.35.35,0,0,1-.25-.1Zm-.5.5a1.11,1.11,0,0,1-.45-.22.31.31,0,0,1,.53.06.14.14,0,0,1-.09.16Zm1.84.56-.32-.52a7.56,7.56,0,0,1,1.49.85.13.13,0,0,1,.06.07s0,.1-.08.13c-.33.14-.62-.31-1-.34h-.3c-.1,0-.2-.11-.17-.21a.21.21,0,0,0,.17.08.19.19,0,0,0,.13-.06Zm-.79-.42a1.38,1.38,0,0,1,.48.17c0,.1-.21.07-.19,0h0a.16.16,0,0,0-.17.07.21.21,0,0,1-.11-.21Zm5.79.79a.39.39,0,0,1-.6,0,.22.22,0,0,1,.09-.17h0a.6.6,0,0,1,.51.17ZM47,40.48a.31.31,0,0,1-.19-.35.58.58,0,0,1,.56.13l0,0a.31.31,0,0,1-.28.19Zm-.19,1.89c0-.11.12-.18.23-.2a1.6,1.6,0,0,1,1.36.13L47,42.47H47c-.09,0-.18,0-.2-.11Zm1.64,1.75a.29.29,0,0,1,.39-.1.47.47,0,0,1-.21.23h0a.08.08,0,0,1-.07,0c-.07,0-.16-.09-.1-.16Z" transform="translate(-1.1 -1.9)"/><path class="cls-2" d="M114.63,42.47a18.09,18.09,0,0,0-5.17,1.45,2.7,2.7,0,0,1-2,.43,3.7,3.7,0,0,0-3.23.48.5.5,0,0,1-.64-.17,4.28,4.28,0,0,1-.33-.64,1.53,1.53,0,0,0-2.21-.43c-.18.15-.46.08-.68,0a4.89,4.89,0,0,0-1.9-.14c-.2,0-.44.09-.49.29s0,.26,0,.38-.44.22-.66.35a.89.89,0,0,0-.31.78,12.12,12.12,0,0,0,.16,2.33,2,2,0,0,0,.38-2c-.1-.27.2-.56.48-.51a.69.69,0,0,1,.53.59,2,2,0,0,1-.1.84L98.1,48c.78-.07,1.1-1.07,1-1.86a1.86,1.86,0,0,1,0-.94c.14-.29.59-.44.78-.18,0,1.25.09,2.49.13,3.73a.64.64,0,0,0,.19.52c.27.18.58-.13.77-.4s.56-.54.78-.31a3.07,3.07,0,0,0-.79,1.83,5.78,5.78,0,0,1-.13,1.91c0,.26.41.33.61.16a1.09,1.09,0,0,0,.29-.71l.18-1.13a2.44,2.44,0,0,1,.42-1.22.85.85,0,0,1,1.15-.23c-.54.47-.42,1.31-.44,2a4,4,0,0,1-.73,2.13c-.16.23-.29.61,0,.69a1.4,1.4,0,0,0,.94-1.28c.28,0,.34.42.22.68a2.07,2.07,0,0,0-.34.76c0,.28.41.53.55.28l1.86-3.4c.16-.28.54-.6.74-.35s0,.34,0,.5c-.64,1.43-1.76,2.61-2.26,4.09-.11.32,0,.82.29.78.14,0,.24-.16.32-.28l1.87-2.87c.11-.18.32-.38.5-.27s.13.27.09.42c-.21.92-1.19,1.45-1.65,2.27-.11.22-.19.44-.28.66-.23.66-.47,1.32-.71,2a1,1,0,0,0,0,.84c.14.26.62.25.64,0,.06-1.25,1.63-1.87,2-3,.15-.4.2-.93.59-1.1s.93.28,1,.75a13.85,13.85,0,0,1,0,1.44c0,.48.39,1,.86,1a5,5,0,0,0,4.1-6.88,26.33,26.33,0,0,0-1.44-2.46c0-.08-.09-.17,0-.24a1.92,1.92,0,0,1,1-.88.93.93,0,0,1,1.13.51,3.09,3.09,0,0,0,1.94-2.4c.09-.62.78-1,.9-1.61a1.27,1.27,0,0,0-.87-1.29,2.39,2.39,0,0,0-.8-.12,6.09,6.09,0,0,0-.85.07ZM116.32,44a.59.59,0,0,1-.41-.33.13.13,0,0,1,0-.13.14.14,0,0,1,.07-.08.7.7,0,0,1,.5-.1.36.36,0,0,1,.29.38.35.35,0,0,1-.35.27Zm-1.89.34c.11-.05.1-.21,0-.29a.5.5,0,0,0-.32-.09l-2.22-.16v-.19l1.55-.17a1.44,1.44,0,0,1,.92.09.53.53,0,0,1,.18.8.06.06,0,0,1-.06.05.08.08,0,0,1-.07,0ZM99,44.46c-.16,0-.36-.1-.33-.26a.24.24,0,0,1,.22-.16,1.18,1.18,0,0,1,1,.26.75.75,0,0,1-.56.2,2.33,2.33,0,0,1-.38,0Zm12.58-.22a.52.52,0,1,1,0,1c0-.34,0-.69,0-1Zm1.2,1.39a.67.67,0,0,1,.17-.82,1.74,1.74,0,0,1,.82-.33,1,1,0,0,1,.61,0,.5.5,0,0,1,.22.67.53.53,0,0,1-.68.21c-.21-.11-.43,0-.65.11a1.21,1.21,0,0,1-.47.14Zm2.37-.77a.23.23,0,0,1,.1-.23l.25.1a1.06,1.06,0,0,1-.18.37.27.27,0,0,1-.17-.24Zm-1.06,1.74a.41.41,0,0,1,.17-.26l.95-.94a.31.31,0,0,1,.14-.09c.06,0,.13,0,.11.11a.66.66,0,0,1-.24,1c-.23.08-.38.29-.59.39a.58.58,0,0,1-.19,0c-.18,0-.36-.1-.35-.27ZM111,45.73a1,1,0,0,1,.64-.33.57.57,0,0,1-.18.56,1.31,1.31,0,0,0-.34.51.24.24,0,0,1-.07.16.3.3,0,0,1-.13,0,1,1,0,0,1-.71-.42c-.34-.46-1.16-.07-1.62-.43a.3.3,0,0,1,.32-.21,3,3,0,0,0,.42,0c.23,0,.46-.24.66-.14s.2.28.34.37a.31.31,0,0,0,.2.07.79.79,0,0,0,.47-.2Zm1.69.6c0-.2.16-.35.35-.4a.56.56,0,0,1,.46.06.31.31,0,0,1,.09.42.52.52,0,0,1-.33.13h-.14c-.19,0-.39,0-.43-.21Zm-6,.18c-.22,0-.51-.14-.46-.35s.24-.2.4-.21a4.35,4.35,0,0,1,1.34.15c.11.13-.1.29-.27.32a4,4,0,0,1-.84.09Zm2.16.31a.13.13,0,0,1,0-.21.62.62,0,0,1,.53,0h.35a.14.14,0,0,1,0,.22.45.45,0,0,1-.25,0h-.36a.4.4,0,0,1-.24,0Zm2.81.49a1.11,1.11,0,0,1,0-.48v0a.33.33,0,0,1,.47.3.33.33,0,0,1-.34.27.27.27,0,0,1-.17-.06Zm-.82.38a.42.42,0,0,1,.05-.4s0-.06.07-.08.19.06.23.16,0,.22.13.28l-.11.17v0a.19.19,0,0,1-.12,0,.29.29,0,0,1-.24-.15Zm-.95,2.2a.56.56,0,0,1,.61-.06l-.38.31-.41.34a.55.55,0,0,1,.18-.59Zm1.87.25a.2.2,0,0,1,.22.15.18.18,0,0,1,.29,0,.67.67,0,0,1-.16.12l0,0a.54.54,0,0,1-.42.21l.09-.47Zm-7.6.4c.11,0,.26,0,.28.14s-.07.18-.14.24l-.46.43a.53.53,0,0,1,.32-.81Zm6.67.05c.08.08-.12.2-.16.1h0c0-.09.11-.17.17-.1Zm-2.78.73a.38.38,0,0,1,0-.28.76.76,0,0,1,1.2-.11,1.81,1.81,0,0,1-1.14.39Zm1.28,1.42a.39.39,0,0,1,.29-.08h2a3.12,3.12,0,0,1,1,.09c-.14.29-.55.26-.87.22a7.47,7.47,0,0,0-2.36,0h0c-.1,0-.15-.15-.07-.23Zm.75,2.07a.33.33,0,0,1,.24-.14,2.78,2.78,0,0,1,2,.34c.12.08.07.3-.07.36a.42.42,0,0,1-.41-.09c-.13-.09-.23-.2-.36-.28a1.34,1.34,0,0,0-.69-.09h-.17a1,1,0,0,1-.53-.1Zm0,2.1c-.14,0-.22-.26-.1-.35l0,.07a.58.58,0,0,1,.32,0,.23.23,0,0,1,.18.24.78.78,0,0,1-.33.09.23.23,0,0,1-.11,0Z" transform="translate(-1.1 -1.9)"/><path class="cls-2" d="M76.25,45.73c-5.86.32-12.29.87-16.48,5a36,36,0,0,1-2.65,2.73A28.36,28.36,0,0,0,48,66.84c-.86,2.73-3.21,5.16-2.77,8,.19,1.19.82,2.62-.05,3.46a8.05,8.05,0,0,0-1.53,9,9.79,9.79,0,0,0-2.38,7.9c.46,3.07-2.28,5.84-2.12,8.93a6.59,6.59,0,0,0,4,5.25,18.59,18.59,0,0,0,6.7,1.41,317,317,0,0,0,55.28-.36c.14-.16.27-.34.41-.5l.47-.51a9.8,9.8,0,0,0,.75-.84c.15-.19.29-.38.45-.56l.44-.55h0a0,0,0,0,1,0,0l0-.06,0,0a9.17,9.17,0,0,0,.55-.83,11,11,0,0,0,.58-1.13l0,.09c.15-.37.31-.75.43-1.14.07-.18.13-.36.19-.55a3.48,3.48,0,0,0,.14-.64c0-.24,0-.47,0-.72s0-.48,0-.71a1.71,1.71,0,0,0-.09-.3,2.64,2.64,0,0,0-.29-.49,5.32,5.32,0,0,0-.47-.48,4.3,4.3,0,0,1-.52-.61,3,3,0,0,1-.39-.78,2.31,2.31,0,0,1-.12-.52,2.23,2.23,0,0,1,0-.37c0-.3,0-.59.07-.89s0-.4.08-.59.07-.34.11-.52.12-.52.19-.77.1-.3.14-.45a4.21,4.21,0,0,0,.09-.49,4.5,4.5,0,0,0,0-.64l0-.61h0v0a3.15,3.15,0,0,0-.09-.42c0-.17-.12-.34-.19-.52,0,0,0,0,0,0v0l0,0c-.11-.25-.23-.49-.35-.73s-.24-.45-.35-.68a7.18,7.18,0,0,1-.32-.81,4.76,4.76,0,0,1-.13-.57.34.34,0,0,1-.08-.09l-.07.09a.4.4,0,0,1-.39.1.43.43,0,0,1-.2-.11.48.48,0,0,1-.12-.16c0-.09-.08-.18-.11-.27s-.09-.23-.13-.35a2.45,2.45,0,0,1-.12-.41c0-.13,0-.26,0-.39a4.18,4.18,0,0,1,0-.51,2.93,2.93,0,0,1,.1-.67A4.74,4.74,0,0,1,106,86a2.65,2.65,0,0,1,.26-.39,3.26,3.26,0,0,1,.41-.42.39.39,0,0,1,.3-.11l.12-.24a1.07,1.07,0,0,1,.26-.52,7.26,7.26,0,0,0-2.78-6.47,6.69,6.69,0,0,0,1.12-7.08c-1-2.15-3.15-4-2.7-6.37.31-1.6-.71-3.15-1.84-4.31s-2.48-2.23-3.09-3.73a9.14,9.14,0,0,0-2.69-3.25c-3.39-3-7-6.08-11.38-7.11a19.81,19.81,0,0,0-4.35-.42c-1.13,0-2.27.06-3.4.11ZM61.74,52a.35.35,0,0,1,.33-.3c0,.1-.1.2-.14.3h0s0,.07-.09.07-.08,0-.08-.06Zm11.83-.07a.15.15,0,0,1-.21.14h0c-.06-.11.14-.24.22-.14Zm7.36.95a.2.2,0,0,1,.12-.17.11.11,0,0,1,.15.1h0a.18.18,0,0,1-.17.1s-.07,0-.09,0Zm-20.12-.16c.13.08,0,.32-.11.28l0,0a.23.23,0,0,1,.14-.31Zm4.24,0c.1,0,.2.1.3.08a.31.31,0,0,1-.42.06v0c-.09-.06,0-.19.13-.16Zm7.88.13A.13.13,0,0,1,73,53h0l-.14.14a.21.21,0,0,1,.08-.33Zm4.58.43a1.18,1.18,0,0,1,.32-.38L78,53h0a.32.32,0,0,1-.31.23.18.18,0,0,1-.1,0ZM63,53.3a.43.43,0,0,1,0-.44.27.27,0,0,1,.17.1.48.48,0,0,0-.07.31h0a.28.28,0,0,1-.11.27c-.1,0-.19-.12-.14-.2h0a.23.23,0,0,0,.14,0ZM79,53.85c0-.15-.09-.29-.14-.43a.28.28,0,0,1,.26.18.2.2,0,0,1-.13.27v0Zm-11.34,0h0l-.44-.17a.33.33,0,0,1,0-.24l.59.45a.11.11,0,0,1-.08,0,.09.09,0,0,1-.09-.07Zm.66-.26a.16.16,0,0,1,.16.09,2.61,2.61,0,0,0-.06.27l-.06,0c0-.14,0-.27,0-.4Zm-.33.05.24,0v0a.2.2,0,0,1-.1.16h0a.15.15,0,0,1-.12-.21Zm11,.28a.28.28,0,0,1-.07.35.47.47,0,0,1-.09-.22c0-.08.09-.15.16-.11v0Zm-7,1.4h0c0-.07.09-.13.12-.07s0,.12,0,.14h0s-.08,0,0-.08Zm-14.34.5-.43-.07a1,1,0,0,1,.59-.4c0,.17-.08.33-.12.48Zm3-.45h0c.07,0,.11.08.1.16l-.24.1a.22.22,0,0,1,.14-.26ZM61.6,56a.81.81,0,0,1,.3-.31.72.72,0,0,1,0,.5h0a1.7,1.7,0,0,0-.19.19A.29.29,0,0,1,61.6,56ZM72,55.72a.77.77,0,0,1-.27.54.24.24,0,0,1-.22,0,.32.32,0,0,1,.1-.18h0a.54.54,0,0,1,.38-.35Zm-13.36.11.06,0a.43.43,0,0,1-.25.63.73.73,0,0,1,.19-.58Zm-2.44.44a.36.36,0,0,1,.4-.11h0l-.4.51a.35.35,0,0,1,0-.41Zm33.06.17c.08-.07.21-.12.26,0a.17.17,0,0,1,0,.12,4.11,4.11,0,0,1-.48,1.26,1.17,1.17,0,0,1,.22-1.34Zm-24.6.36c-.1,0-.17-.17-.06-.18h0c.09,0,.15.13.07.18Zm1.06.11a.25.25,0,0,1,.17,0c.07.08,0,.21-.14.21a.28.28,0,0,1,0-.18Zm26.55,4.85a.3.3,0,0,1,0,.42.28.28,0,0,1-.4-.1.3.3,0,0,1,.41-.28l0,0Zm-32.57,0a.27.27,0,0,1-.22.38l0,0a.32.32,0,0,1,.27-.43Zm-7.36.14a.24.24,0,0,1-.11.42v0l-.19.24a.72.72,0,0,1,.29-.68Zm8.28.16,0,0a.17.17,0,0,1,.29.1l-.09,0a.2.2,0,0,1-.17-.11Zm-8.93,1h0a.24.24,0,0,1,.17-.25,1.28,1.28,0,0,1-.09.55h0a.17.17,0,0,1-.09-.3Zm37.9.1c-.09-.05,0-.23.11-.17h0c0,.08,0,.18-.07.18Zm-24.52-.14.18,0,0,.18h0a.15.15,0,0,1-.11-.22Zm27.68.3a.27.27,0,0,1,.4-.11c.06.08,0,.19-.12.21h0a.49.49,0,0,1-.25-.1Zm5.83.46c.15,0,.3.2.17.31v0a.22.22,0,0,1-.17-.33Zm-47.37.38a.23.23,0,0,1,0-.17c.06,0,.16,0,.13.07h0a.1.1,0,0,1-.1.12l-.05,0Zm21.51.05a.68.68,0,0,1,.86,0,.62.62,0,0,1-.45.19.61.61,0,0,1-.41-.15Zm21.71-.1,0,0c.07,0,.09.1,0,.15a.27.27,0,0,1-.17.08c-.07-.08,0-.2.14-.21Zm-36.14.13a1.39,1.39,0,0,1,1.16.13.82.82,0,0,1-.49.16.88.88,0,0,1-.67-.29Zm17.64.4a.11.11,0,0,1-.19,0h0a.11.11,0,0,1,.2-.06ZM61.78,65c.08-.28.45-.32.74-.31l1.66.11c0,.13-.17.18-.3.19a7.69,7.69,0,0,1-1.07.07,8.89,8.89,0,0,1-1-.06ZM61.11,65c0-.1.11-.18.21-.16a.64.64,0,0,1,.25.18.22.22,0,0,1-.27,0h-.07a.19.19,0,0,1-.12,0Zm4,.31a.17.17,0,0,1,.24,0,.25.25,0,0,1-.21.28.17.17,0,0,1,0-.24Zm1.1.5a.43.43,0,0,1,.13-.19.14.14,0,0,1,.21.06,1.14,1.14,0,0,1-.64.79l.3-.66Zm-1.79.69c0-.08,0-.18.06-.26a1.61,1.61,0,0,1,.56-.51,1.06,1.06,0,0,1-.55.86.13.13,0,0,1-.07-.09Zm3.2-.06c-.08,0-.09-.12-.09-.2a.57.57,0,0,1,.11-.46c.13-.1.39,0,.3.18h0c-.09.06-.09.19-.11.29s-.09.2-.17.2Zm2.4-.14h0a.58.58,0,0,1,.26-.37.45.45,0,0,1,.09.41.16.16,0,0,1-.16.1c-.08,0-.15,0-.14-.13Zm5.22.19c.08-.11.31-.13.34,0h0a1.09,1.09,0,0,1-.23.25l-.09-.26Zm24.09.22a.47.47,0,0,1-.31.16.2.2,0,0,1,0-.17h0a.19.19,0,0,1,.33,0ZM94.42,67a.12.12,0,1,1,.22,0l0,0a.12.12,0,0,1-.1,0,.13.13,0,0,1-.1,0Zm-14.77.33a.28.28,0,0,1,.08-.41.23.23,0,0,1-.07.43v0ZM92,67.41a.29.29,0,0,1,.19-.11.21.21,0,0,1,0,.17,1.51,1.51,0,0,1-.18.09v0c-.08,0-.11-.12-.06-.18Zm.38,1.33c.09,0,.19.07.19.16a.21.21,0,0,1-.17,0h0c-.08,0-.1-.17,0-.2Zm2.1.72a.6.6,0,0,1,.62-.23.39.39,0,0,1-.44.27l0,.06-.16-.1Zm-2.66.74A.65.65,0,0,1,92.1,70a.77.77,0,0,1,.67.18l0,.12a.58.58,0,0,1-.42.16.59.59,0,0,1-.48-.22Zm-26.09.55h0c-.06,0,0-.14,0-.14a.09.09,0,1,1,0,.17l0,0ZM52.57,71a.5.5,0,0,1,.69,0L53.2,71A1,1,0,0,1,53,71a1.27,1.27,0,0,1-.39-.06Zm27.35.86a1.41,1.41,0,0,1,1.4-.13.12.12,0,0,1,0,.13.25.25,0,0,1-.21.06l-1.18-.06Zm10.74-.06c.06-.1.24,0,.18.1v0a.06.06,0,0,1,0,0,.12.12,0,0,1-.12-.1Zm1.61.76a.88.88,0,0,1,.4-.36.34.34,0,0,1,.22,0,.12.12,0,0,1,0,.19h0a.56.56,0,0,1-.47.24.48.48,0,0,1-.2,0Zm-3.48,0,.38-.4h0l.33.06a.9.9,0,0,1-.7.33Zm-41.45.21a.36.36,0,0,1-.09.37L47.08,73a.27.27,0,0,1,.1-.17h0a.09.09,0,0,1,.15,0Zm23.91.54a.79.79,0,0,0,.3-.4l0-.06a.29.29,0,0,1,0,.37.28.28,0,0,1-.23.13.28.28,0,0,1-.13,0Zm-24,1.29a1.46,1.46,0,0,1,0-1.35,1.7,1.7,0,0,1,.12,1.29s-.07.09-.1.09a0,0,0,0,1,0,0Zm40.9-.2a.15.15,0,0,1-.26,0h0a.18.18,0,0,1,.28,0Zm13.15.92a.21.21,0,0,1,.06-.1,1.1,1.1,0,0,1,.56-.3.62.62,0,0,1-.53.5.09.09,0,0,1-.09-.1Zm.46,1.19a2.34,2.34,0,0,1,.6-.28l.05,0a.44.44,0,0,1-.45.35.35.35,0,0,1-.2,0Zm-6.25.34s.1-.06.14,0,0,.11,0,.1h0s0,0,0,0-.1,0-.08-.09ZM73.58,78c.07-.1.27,0,.26.11h-.08a.19.19,0,0,1-.18-.1Zm16.69,1.59v0a.47.47,0,0,1,.27-.21,1.18,1.18,0,0,1-.24.44.12.12,0,0,1,0-.21Zm-13,.52.27-.21v.08c0,.1-.07.18-.16.18a.14.14,0,0,1-.1-.05ZM45.86,80a.81.81,0,0,1-.12.37.18.18,0,0,1-.2-.06h0a.25.25,0,0,1,.32-.32Zm28.43.36a.3.3,0,0,1,0,.38c-.11.1-.32-.07-.21-.16l0,0,.18-.25Zm26.39.53,0,0a.21.21,0,0,1,0-.28.24.24,0,0,1,.3,0c-.11,0-.05.16,0,.26a.17.17,0,0,1-.15.2h0a.17.17,0,0,1-.16-.17Zm-55.54.2h0a.3.3,0,0,1,.1-.31.56.56,0,0,1-.07.83v-.52Zm20.53.29a.19.19,0,0,1,.09-.16.49.49,0,0,1,.32-.06l1.51.1a4.26,4.26,0,0,1-1.23.18,4,4,0,0,1-.69-.06ZM53,82c0-.11.14-.15.25-.15a.87.87,0,0,1,.45.12.31.31,0,0,1-.25.13h0a.55.55,0,0,1-.25.07h0A.17.17,0,0,1,53,82Zm2.33.53a.24.24,0,0,1,.12-.2.53.53,0,0,1,.18,0l1.43,0c.17,0,.38,0,.45.17l-.31.23a14.56,14.56,0,0,0-1.87-.12Zm6.9,0c.07-.13.24-.15.39-.15,1.29-.07,2.59-.09,3.89-.09a.76.76,0,0,1,.59.18c0,.13-.21.15-.34.15q-2.27,0-4.53-.09ZM61,82.29a.21.21,0,0,1,.17.1.14.14,0,0,1-.09.13,1.23,1.23,0,0,0-.66,0,.45.45,0,0,1,.57-.23v0Zm-1,0a.26.26,0,0,1,.19.15h0a.15.15,0,0,1-.15-.16Zm19.2.13a.4.4,0,0,1,.34-.08.54.54,0,0,1-.38.38v0a.26.26,0,0,1,0-.34ZM76.8,83.56a3.14,3.14,0,0,1,1.09-1,3.62,3.62,0,0,1-.88,1,.24.24,0,0,1-.14.05s-.07,0-.07-.06ZM76,83a1,1,0,0,1-.83.63c.1-.13.18-.27.28-.4h0A.38.38,0,0,1,76,83Zm2.4.59A.87.87,0,0,1,79,83c-.09.15-.19.29-.27.44h0a.26.26,0,0,1-.24.18l-.06,0Zm-6.88-.3a.18.18,0,0,1,.22-.09.18.18,0,0,1-.08.26h0a.13.13,0,0,1-.1-.17Zm31.31.28h0c.12,0,.23.19.11.25a.22.22,0,0,1-.1-.24ZM47.28,85.62v0a.63.63,0,0,1-.14.38.25.25,0,0,1,.14-.41Zm.86,1,0,0a.51.51,0,0,1,.1-.38.22.22,0,0,1-.05.44l-.08,0Zm46.8,1c0-.06,0-.12,0-.17h0a.27.27,0,0,1,.16.1.14.14,0,0,1-.13.09l-.08,0Zm-44.33.48a.68.68,0,0,0-.06-.42.27.27,0,0,1,.32.09,1.42,1.42,0,0,1-.06.84.74.74,0,0,1-.2-.51Zm50,.12a.34.34,0,0,1-.18-.09.21.21,0,0,1,.08-.28.52.52,0,0,1,.3-.08l.41,0c0,.2-.12.4-.17.6l-.44-.12ZM50.43,89.42a.79.79,0,0,1,.39-.74,1.39,1.39,0,0,1,0,.73.46.46,0,0,1-.2,0,.39.39,0,0,1-.18,0Zm4.72-.65a.14.14,0,0,1,.07.19h0a.11.11,0,0,1-.06-.19Zm.93.52c.07-.12.28-.16.34,0h0a.36.36,0,0,1-.34.42h0a.55.55,0,0,1,0-.4Zm39,.11c0-.13.29-.07.26.07h0a.1.1,0,0,1-.1.07c-.08,0-.17-.05-.15-.14Zm-41.82,1a1.71,1.71,0,0,1,1.13-.33c0,.1.14.08.23.1a.18.18,0,0,1,.1.27l-.47,0c-.33,0-.66,0-1-.06Zm9.36,0a2,2,0,0,1,1.4-.19.14.14,0,0,1,0,.15,2.84,2.84,0,0,1-.76.1,3.05,3.05,0,0,1-.6-.06Zm38.95-.09a.42.42,0,0,1,.24,0,.21.21,0,0,1-.33.12l0,0a.15.15,0,0,1,.12-.2Zm-27.89.38c.47,0,.94,0,1.41,0h1.08a.42.42,0,0,1,.25,0c.06,0,.1.17,0,.22l-3.09,0c-.09-.14.14-.27.32-.28Zm26.68.4c-.09-.07,0-.2.12-.25a.7.7,0,0,1,.6-.11.75.75,0,0,1-.59.36h-.13ZM47.55,91v0l.11-.1a.17.17,0,0,1,0,.18.05.05,0,0,1,0,0,.08.08,0,0,1-.08-.09Zm54.72.64c-.09,0-.1-.16,0-.24a.45.45,0,0,1,.25-.12v0a.36.36,0,0,1,.37.08.83.83,0,0,1-.47.31h-.11Zm-51.74.14a1,1,0,0,1-.35-.15.31.31,0,0,1-.08-.35l.61.11c.13,0,.28.07.31.2a.22.22,0,0,1-.18.22h-.08a.85.85,0,0,1-.23,0Zm11.36-.32c.08,0,.08.16,0,.17v0c-.1,0-.1-.2,0-.2ZM59,91.84a.25.25,0,0,1,.37-.06l.07,0a.64.64,0,0,1-.32.46.28.28,0,0,1-.12-.37Zm-4.29.22h0a.27.27,0,0,1,.45-.07,1.62,1.62,0,0,1-.36.59l-.12-.52Zm-2.07.07s0-.07.06-.09.2.11.19.23a.9.9,0,0,1-.27.53,1.09,1.09,0,0,1,0-.67Zm48,.27c0-.06.11-.11.16-.18a.69.69,0,0,1,.32,0,.29.29,0,0,1-.3.23.21.21,0,0,1-.18-.09Zm2.18.14a.41.41,0,0,1,.41-.16c0,.12-.14.23-.24.18h0a.09.09,0,0,1-.07,0,.11.11,0,0,1-.1-.06Zm-31.85.51,0,0,.25-.47c.12.18,0,.51-.18.51ZM99.18,93a.34.34,0,0,1,.49-.09h0a.27.27,0,0,1-.46.09Zm-28.61.74c0-.07,0-.15.11-.17s.12.11.06.13h0a.11.11,0,0,1-.1.06.09.09,0,0,1-.07,0Zm30.6,0c0-.06.06-.12.11-.1a.1.1,0,0,1,0,.15v0s0,0-.06,0-.09,0-.09-.06Zm-28.43,1.7a5.11,5.11,0,0,1,.45-.48c.19-.25.28-.55.48-.79a1.23,1.23,0,0,1,.75-.44l-1,1.19c-.07.09-.15.2-.11.31a2.06,2.06,0,0,1-.57.82.51.51,0,0,1,0-.61ZM102.9,94a1.89,1.89,0,0,0,.3-.19.33.33,0,0,1,.34,0c.1.06.08.26,0,.26v0a.53.53,0,0,1-.27.08.51.51,0,0,1-.34-.13Zm-32.62.44a.61.61,0,0,1-.12.52l0,0a.36.36,0,0,1,.15-.56Zm-.77,1.78a.68.68,0,0,1,.29-.82c0,.2,0,.39-.08.59h0v.2a.22.22,0,0,1-.13,0Zm2.67.76a1.47,1.47,0,0,1,.16-.53,1,1,0,0,1,.14-.34c.09-.1.28-.1.32,0a.23.23,0,0,1,0,.14c-.05.25-.09.49-.15.74a.3.3,0,0,1-.08.19.15.15,0,0,1-.11,0,.32.32,0,0,1-.27-.26Zm9,2c0-.19,0-.4,0-.6s0-.24,0-.33c.31-.35-.15-.94.06-1.36.12,0,.18.14.19.27a22.22,22.22,0,0,1,0,2.45c-.2,0-.33-.23-.35-.43Zm-30.4-2a.21.21,0,0,1,.1.23.1.1,0,0,1-.16,0h0a.14.14,0,0,1,.07-.2Zm45.42.19h0c0-.08.15-.12.14,0s0,.08-.08.08,0,0-.07,0Zm-.71.18c0-.1.17-.13.18,0h0a.12.12,0,0,1-.1.06.08.08,0,0,1-.07,0Zm-23.17-.07a.66.66,0,0,1,.1.38c0,.13-.18.24-.29.17a1.36,1.36,0,0,1,0-.49h0a.08.08,0,0,1,.11-.07Zm-23.61.4c0-.07.06-.15.1-.23a.44.44,0,0,1,.23.17.3.3,0,0,1-.1.17h0a.21.21,0,0,1-.19-.12Zm-1.95-.16c.08,0,.09.15,0,.2a.32.32,0,0,1-.23.07.24.24,0,0,1,.21-.27Zm47.62.13a.39.39,0,0,1,.26,0,.15.15,0,0,1,.06.22.21.21,0,0,1-.16.06l-.63,0c0-.22.25-.33.47-.35Zm-39.89.77a.63.63,0,0,1,.21-.44c0,.15,0,.31-.05.46a.11.11,0,0,1-.07,0,.1.1,0,0,1-.09,0Zm38-.05a1,1,0,0,1,.94-.16.75.75,0,0,1-.58.26.7.7,0,0,1-.36-.1Zm6.71-.18c.12,0,.21.15.14.25a.47.47,0,0,1-.35.15.28.28,0,0,1-.2,0c-.11-.07-.07-.26,0-.33a.64.64,0,0,1,.39,0l0,0Zm-49,0a.15.15,0,0,1,.16,0v.54a.32.32,0,0,1-.1.18.31.31,0,0,0-.4-.1,1.79,1.79,0,0,1,.34-.64Zm-2,.36a.63.63,0,0,1,.27-.29v0l.24.18c-.15,0-.13.34-.29.4h0c-.11,0-.19-.14-.17-.27Zm21.25.93c0-.13,0-.26,0-.39a2.45,2.45,0,0,1,0-.27c0-.09.09-.19.18-.17a1.66,1.66,0,0,1,0,1.1c-.13,0-.21-.14-.22-.27Zm21.27-.65c0-.08.08-.14.17-.15a1.46,1.46,0,0,1,.51.07c0,.07,0,.13-.11.16a.41.41,0,0,1-.21,0,.59.59,0,0,1-.36-.13Zm2.23.45.46,0,0,0a.22.22,0,0,1-.21.11.23.23,0,0,1-.23-.16Zm-11.78,1.43a.26.26,0,0,1,0-.12,1.76,1.76,0,0,1,.15-1.06l.19,0a5.89,5.89,0,0,1,0,.84.42.42,0,0,1-.06.27.21.21,0,0,1-.14.07.12.12,0,0,1-.09,0Zm9.4-.74a.44.44,0,0,1,.57-.19.27.27,0,0,1-.34.17l0,0a.11.11,0,0,1-.08,0,.19.19,0,0,1-.13,0Zm-24.85,0a.23.23,0,0,1,0-.18c.1,0,.12.13.09.23h0s0,0,0,0a.12.12,0,0,1-.1-.08Zm20.43.19h0c.09,0,.25,0,.21.07a.11.11,0,0,1-.09,0s-.12,0-.12-.1Zm-20.54.14v0a.36.36,0,0,1,.13.5.34.34,0,0,1-.14-.45Zm-23.41.36a.73.73,0,0,1,.16.23.42.42,0,0,1-.18.5.57.57,0,0,1,0-.73Zm43.3.68a3.39,3.39,0,0,1,2,.09,4,4,0,0,1-.84.08,4.46,4.46,0,0,1-1.2-.17Zm-33.67.11a.23.23,0,0,1,.11-.16c.1,0,.17.16.06.19h0a.19.19,0,0,1-.12,0Zm40.55.35a1.31,1.31,0,0,1,.32-.1c.12,0,.25.08.22.19a.55.55,0,0,1,.68.06,1.19,1.19,0,0,1-.7.13l-1.16,0c0-.1,0-.2,0-.3a1.34,1.34,0,0,0,.44.1.51.51,0,0,0,.17,0Zm-50.79.36c0-.11.23-.15.29,0s-.05.2-.13.26v0l-.17.09a.47.47,0,0,1,0-.35Zm30.41.14.6,0,1.66,0c.94,0,1.88,0,2.82,0,.19,0,.44.08.43.28l-2.62,0H73.88c-.57,0-1.14,0-1.71,0l-.09-.27Zm6.1.27c-.16,0-.35-.09-.33-.24a.8.8,0,0,1,.53-.06l1.09.11a2.78,2.78,0,0,1-1.06.21l-.23,0Zm-6.52-.09a.26.26,0,0,1,.36-.09v0a.22.22,0,0,1-.35.07Zm8,.14h0a.21.21,0,0,1-.1-.17s.12,0,.15.07,0,.12,0,.12ZM43,103.49a.78.78,0,0,1,.72-.2,2,2,0,0,1-.74.43c-.1,0-.05-.17,0-.23Zm7.85.82h0a.27.27,0,0,1,.37,0,.22.22,0,0,1-.2.1.3.3,0,0,1-.15,0ZM48,106.76a.22.22,0,0,1,.11-.24,1.37,1.37,0,0,0,.23-.17.27.27,0,0,1-.16.39l0,0s0,.07-.09.07a.12.12,0,0,1-.12-.07Zm1.81.14a1.06,1.06,0,0,1,.33-.3l.11.15h0a.32.32,0,0,1-.28.18.2.2,0,0,1-.13,0Zm44.38.33a.31.31,0,0,1,.07-.37.4.4,0,0,1,.24.38l0,0a.16.16,0,0,1-.14.07.25.25,0,0,1-.2-.1Zm-43.07.36a.53.53,0,0,1,.6-.38.67.67,0,0,1-.3.4h0c-.1,0-.2,0-.3,0Zm3.73-.21c.05.1-.16.17-.19.07h0a.11.11,0,0,1,.18-.08Zm52.82,0a.05.05,0,0,0,0,0h0l0,0Zm-54.1,1c-.12,0,0-.2.07-.27l.58-.42c.1,0,.07.15,0,.23a1.94,1.94,0,0,1-.55.44.13.13,0,0,1-.08,0Zm20.91-.46c0-.08.06-.16.15-.16a.43.43,0,0,1,.24.1h0a.27.27,0,0,1-.24.14.21.21,0,0,1-.17-.07Z" transform="translate(-1.1 -1.9)"/><path class="cls-2" d="M108.26,93.25h0v0Z" transform="translate(-1.1 -1.9)"/><polygon class="cls-2" points="107.16 91.36 107.16 91.35 107.16 91.36 107.16 91.36 107.16 91.36"/><polygon class="cls-2" points="107.16 91.37 107.16 91.37 107.16 91.36 107.16 91.37 107.16 91.37 107.16 91.37"/><path class="cls-2" d="M109.49,101.78s0-.06,0-.09a.28.28,0,0,0,0,.09Z" transform="translate(-1.1 -1.9)"/><path class="cls-2" d="M113,47.93a.69.69,0,0,0-.2,1,.83.83,0,0,0,.42-.36c.08-.14.29-.1.45-.07a.49.49,0,0,0,.41-.07.26.26,0,0,0,0-.38L114,48a2.21,2.21,0,0,0-.62-.13.85.85,0,0,0-.35.08Z" transform="translate(-1.1 -1.9)"/><path class="cls-2" d="M39.86,65.61c-.61.13-1.22.61-1.8.35-.27-.12-.56.13-.7.39s-.27.56-.53.69-.69,0-1,0a5.19,5.19,0,0,0-1.6.49c-1.21.34-2.46-.38-3.7-.39a6.53,6.53,0,0,0-2.07.46A.94.94,0,0,0,28,68.8a2.7,2.7,0,0,0,.93,1.06,2.1,2.1,0,0,1,1.65,0,2.17,2.17,0,0,1-1.52.17,3.77,3.77,0,0,0,2.3,1.55c.21,0,0-.38-.2-.38s-.51,0-.53-.22a.28.28,0,0,1,0-.09c.14-.41.82-.24.95.16a2.12,2.12,0,0,1-.19,1.25,3.78,3.78,0,0,0,3,4.82,1,1,0,0,0,1.07-.29c.22-.36,0-.81-.06-1.22s.13-1,.54-.89a.62.62,0,0,1,.32.21l2.27,2.16c.13.12.36,0,.39-.2a.81.81,0,0,0-.18-.5l-1.41-2.11a1.23,1.23,0,0,1,.77.77.75.75,0,0,0,.18-1,3.41,3.41,0,0,0-.84-.81,3.81,3.81,0,0,1-1.11-1.41c.23-.19.55.06.73.29l.59.73a1.93,1.93,0,0,0,.81.69.67.67,0,0,0,.87-.39c.07-.32-.19-.6-.4-.86a3.16,3.16,0,0,1-.68-1.85c-.11-.11,0-.3.19-.28s.25.14.34.26A6.09,6.09,0,0,1,39.52,72c0,.16.31.16.4,0a.68.68,0,0,0,.09-.49,2.78,2.78,0,0,0-.63-1.8.41.41,0,0,0,.52-.21,1.25,1.25,0,0,0,.09-.61,3.73,3.73,0,0,0-.4-1.93c-.16-.26.24-.56.51-.43a.87.87,0,0,1,.37.77,1.85,1.85,0,0,0,.13.88c.15.26.56.4.74.15-.49-.16-.51-.85-.43-1.36a.44.44,0,0,1,.15-.32c.19-.1.4.13.4.34s-.09.42-.07.62.26.42.43.28a.33.33,0,0,0,.09-.21,1.87,1.87,0,0,0-1.75-2.09,1,1,0,0,0-.3,0Zm-9.22,3.77c.06-.1,0-.23-.12-.28a.91.91,0,0,0-.33,0A1.32,1.32,0,0,1,29.8,69a.26.26,0,0,1-.17-.11c-.07-.1,0-.24.12-.31.34-.2.78.06,1.05.34a.82.82,0,0,1,.23.36.31.31,0,0,1-.18.35H30.8c-.12,0-.24-.14-.16-.25Zm3.83-.61c0-.13.17-.18.31-.18h.47a.31.31,0,0,1,.19,0,.2.2,0,0,1,0,.27.4.4,0,0,1-.27.12H35.1a.89.89,0,0,1-.63-.26Zm-2.4.94a.5.5,0,0,1,.49-.6.29.29,0,0,1,.2.11c.07.13-.08.29-.23.35s-.34.11-.39.26a.35.35,0,0,1-.07-.12Zm5.57,1.68a.18.18,0,0,1,0-.21.22.22,0,0,1,.17.11l-.16.12,0,0Zm-5.49,1c0-.16.15-.27.31-.31a3.57,3.57,0,0,1,1,0l1.47.09a.42.42,0,0,1,.24.07.16.16,0,0,1,0,.22.25.25,0,0,1-.12,0h-.94c-.65,0-1.3,0-2,0ZM36.65,74a.81.81,0,0,1-.24-.21c-.08-.1-.17-.19-.26-.29a.27.27,0,0,1-.1-.19c0-.1.12-.18.22-.18a.5.5,0,0,1,.28.14,1.8,1.8,0,0,1,.53.72.43.43,0,0,1-.22.06.5.5,0,0,1-.21,0Zm-3.74-.2a.21.21,0,0,1,0,.17.16.16,0,0,0-.27,0v0a.94.94,0,0,1-.46.13.5.5,0,0,1,.77-.28Zm.14,1.57a.39.39,0,0,1,.55-.09h0a.34.34,0,0,1-.31.17.3.3,0,0,1-.22-.08Zm1.47,1.1a.09.09,0,0,1-.08-.12.15.15,0,0,1,.15-.07.15.15,0,0,1-.08.2Z" transform="translate(-1.1 -1.9)"/><path class="cls-3" d="M45,30.93a.46.46,0,0,0-.26.07.15.15,0,0,0,0,.23.21.21,0,0,0,.1.06,2.34,2.34,0,0,0,1.31,0,.9.9,0,0,0-.86-.36Z" transform="translate(-1.1 -1.9)"/><path class="cls-3" d="M47,31.49c.14.26.5.3.8.31a.3.3,0,0,0,.21-.05c.06,0,.08-.16,0-.19a1.41,1.41,0,0,0-.6-.13,1.47,1.47,0,0,0-.42.06Z" transform="translate(-1.1 -1.9)"/><path class="cls-3" d="M45.75,32.11c.1.08.25-.14.13-.2h-.05c-.09,0-.17.15-.08.21Z" transform="translate(-1.1 -1.9)"/><path class="cls-3" d="M47.79,32.8h0a.53.53,0,0,0,.24-.18.46.46,0,0,0-.18-.23.22.22,0,0,0-.05.4Z" transform="translate(-1.1 -1.9)"/><path class="cls-3" d="M56.13,33.5a4.08,4.08,0,0,1-.36.61.45.45,0,0,1-.62.12,3.57,3.57,0,0,0-4.28-.34c0,.31.4.39.71.38a2.71,2.71,0,0,1,1.76.62c.26.2,0,.66-.33.69a2,2,0,0,1-.95-.24c-1.29-.44-2.63.44-3.71,1.28l-.19.15c-1.2.93-2.51,2.06-2.58,3.59-.06,1.33.87,2.47,1.75,3.48a1,1,0,0,0,.41.33.35.35,0,0,0,.45-.19c0-.18-.22-.35-.33-.21.17-.32.56-.33,1-.33a1.31,1.31,0,0,0,1-.23c.31-.3.26-.89.63-1.12s.87.11,1,.52.17.87.35,1.28c.35.76,1.35,1.26,1.26,2.08,0,.22.3.33.46.19a.45.45,0,0,0,0-.58A1.37,1.37,0,0,0,53,45.2a2.41,2.41,0,0,0-.17-1.89,14.2,14.2,0,0,0-1.06-1.63,1.15,1.15,0,0,1-.28-.88c.08-.31.58-.47.72-.19l1.49,2.92a.31.31,0,0,0,.16.19c.13.06.28-.07.3-.21a.76.76,0,0,0-.1-.41l-1.3-2.79a1.35,1.35,0,0,1-.18-1.11c.16-.36.82-.4.87,0a4.91,4.91,0,0,0,1.06,2.5,3.34,3.34,0,0,0,.24-1.21,1.21,1.21,0,0,0-.54-1.06c-.18-.11,0-.41.15-.49s.42,0,.62-.09.36-.34.2-.47a.49.49,0,0,1,.05-.76l1.22.4a28.21,28.21,0,0,0,.36,3.17,3.55,3.55,0,0,0-.05-3.39c-.19-.23.21-.56.47-.43a1,1,0,0,1,.41.76c0,.11.19.14.28.07a.61.61,0,0,0,.17-.29,7.41,7.41,0,0,0,.45-3.41A1.87,1.87,0,0,0,57.51,33a1.09,1.09,0,0,0-.36-.06,1.24,1.24,0,0,0-1,.53Zm-5.5,6c-.4-.17-.91-.06-1.25-.34-.61-.5-1.67-.19-2.17-.79a.21.21,0,0,1-.07-.16.28.28,0,0,1,.11-.17c.34-.32.69-.63,1-.94a.25.25,0,0,1,.14-.08c.12,0,.18.12.27.21s.51.12.74.25a1,1,0,0,1,.27.26,3.76,3.76,0,0,0,1.15.87,1.86,1.86,0,0,1,.67.42.48.48,0,0,1-.06.69.33.33,0,0,1-.17,0,2.07,2.07,0,0,1-.67-.26Zm-3.45,1.32a1.26,1.26,0,0,1-.84-.23.56.56,0,0,1-.15-.57.47.47,0,0,1,.47-.33,3.81,3.81,0,0,1,1.61.48,1.64,1.64,0,0,0,.79.15l.72,0a.77.77,0,0,1,.43.11c.13.09.18.29.07.38a.38.38,0,0,1-.27.07l-2.83-.08Zm-.49,2a.62.62,0,0,1-.09-.32c0-.25,0-.59.27-.62a6.48,6.48,0,0,1,2.24.07.47.47,0,0,1,.3.16c.07.09,0,.26-.1.25A4.61,4.61,0,0,0,47,42.9l-.08,0a.29.29,0,0,1-.21-.11Z" transform="translate(-1.1 -1.9)"/><path class="cls-3" d="M49.1,33.19a.19.19,0,0,0,.27-.08h0a.1.1,0,0,0-.1-.07.2.2,0,0,0-.18.14Z" transform="translate(-1.1 -1.9)"/><path class="cls-3" d="M59.73,33.47l-1.09.06c0,.22.23.38.46.37s.42-.14.65-.16.49.09.49.32a.18.18,0,0,0,.15.17.25.25,0,0,0,.18-.08.44.44,0,0,0-.16-.6,1,1,0,0,0-.46-.09Z" transform="translate(-1.1 -1.9)"/><path class="cls-3" d="M60,34.46a.18.18,0,0,0-.08.07.92.92,0,0,0-.06,1.09c.18-.11.08-.39.14-.6s.13-.2.17-.31,0-.25-.13-.25Z" transform="translate(-1.1 -1.9)"/><path class="cls-3" d="M60.8,34.59s0,.16.07.12l.31,0a.32.32,0,0,0-.29-.19l-.09,0Z" transform="translate(-1.1 -1.9)"/><path class="cls-3" d="M59.89,36.39a.5.5,0,0,0,.08.44.44.44,0,0,0,0-.5l0,.06Z" transform="translate(-1.1 -1.9)"/><path class="cls-3" d="M55.25,40.66a2,2,0,0,0-.06.42,1.09,1.09,0,0,0,.16.61,1,1,0,0,0,0-1.25l-.06.22Z" transform="translate(-1.1 -1.9)"/><path class="cls-3" d="M115.25,42.73a1.76,1.76,0,0,0,1.55,0,.33.33,0,0,0-.14-.22.6.6,0,0,0-.26-.05h-.08a2.34,2.34,0,0,0-1.07.25Z" transform="translate(-1.1 -1.9)"/><path class="cls-3" d="M114,43.15a1.25,1.25,0,0,0,1.24,0c0-.15-.21-.2-.36-.22h-.25a.74.74,0,0,0-.63.24Z" transform="translate(-1.1 -1.9)"/><path class="cls-3" d="M112.07,43.12a.12.12,0,0,0,0,.15,1.78,1.78,0,0,0,1.07,0,.13.13,0,0,0,.1-.06c.06-.08,0-.18-.15-.22a1.18,1.18,0,0,0-.37-.05,1.24,1.24,0,0,0-.6.15Z" transform="translate(-1.1 -1.9)"/><path class="cls-3" d="M101.83,43.41A2.21,2.21,0,0,0,100.44,45a6.7,6.7,0,0,0-.08,2.19l.08,1c0,.36.23.85.58.74a3,3,0,0,1,1-.92.28.28,0,0,1,.2-.06c.24,0,.14.41,0,.6a4.3,4.3,0,0,0-.71,3.67.26.26,0,0,0,.06.13c.13.11.29-.11.31-.28l.24-1.38a2.82,2.82,0,0,1,.62-1.6,1,1,0,0,1,1.5.09,2.24,2.24,0,0,0-.76,2.27c.22.8.43,1.61.63,2.42.5-.92,1-1.85,1.51-2.77.22-.41.68-.89,1.06-.62s.13.83-.13,1.2a23.71,23.71,0,0,0-1.94,3.2c-.17.34-.29.81,0,1l2-3c.22-.33.71-.67.94-.34a.52.52,0,0,1,0,.41c-.3,1.35-2.14,2.08-2.13,3.47a2.64,2.64,0,0,1-.46,1.1c-.18.36-.21.89.15,1.07a5.08,5.08,0,0,1,1.67-2.31c.4-.3.47-.86.66-1.32s.7-.92,1.15-.68.31,1,.67,1.46,1.29.25,1.73.72a1,1,0,0,0,1.12.21,1.16,1.16,0,0,0,.63-1c0-.06,0-.12-.07-.14l-2.49-.69c-.14-.05-.33-.15-.28-.29a5.26,5.26,0,0,1,2-.19,1.52,1.52,0,0,1,.76.24.61.61,0,0,1,.23.72c.1.19.38,0,.48-.21a5.6,5.6,0,0,0,.8-2.69,5.16,5.16,0,0,0-.82-2.24,7.1,7.1,0,0,0-1.18-1.65,8.19,8.19,0,0,0-3.36-1.71,3.49,3.49,0,0,0-2.17-.24c-.27.09-.48-.32-.33-.57a.89.89,0,0,1,.77-.3,2.15,2.15,0,0,0,.84-.06l-.35-.39c.35-.34.91-.16,1.36,0s1.07.22,1.29-.21l-1.13-.33a5.82,5.82,0,0,0-3.72-.22,4.11,4.11,0,0,1-1,.38.73.73,0,0,1-.84-.51,1.3,1.3,0,0,0-1.32-1,1.5,1.5,0,0,0-.37,0Zm6.26,8.14a.55.55,0,0,1-.56-.47.53.53,0,0,1,.31-.46,2.78,2.78,0,0,1,.56-.17,3.16,3.16,0,0,0,1.46-.76.88.88,0,0,1,.4-.29,2.85,2.85,0,0,1,.41,0c.34-.08.62-.51.94-.37a.55.55,0,0,1,.19.15l.86.88a.66.66,0,0,1,.21.29.46.46,0,0,1-.22.47,1.08,1.08,0,0,1-.53.14,3.16,3.16,0,0,0-1.6.24,4.4,4.4,0,0,1-1.63.27,3.87,3.87,0,0,1-.73.13Zm-4.24-1.26c0-.1.05-.22.15-.23a.2.2,0,0,1,.16,0c.14.08.27.15.4.24s.38.32.23.46a1.76,1.76,0,0,0-.73,1.08,3,3,0,0,1-.21-1.59Zm5.4,2.57a.34.34,0,0,1-.14-.09.2.2,0,0,1,.09-.26.51.51,0,0,1,.3-.06l2.44,0a1.76,1.76,0,0,0,.75-.28.92.92,0,0,1,.79-.07l0,0a.14.14,0,0,1,0,.11l-.12.73c0,.19-.08.39-.25.45a.46.46,0,0,1-.34,0,.53.53,0,0,0-.32-.05c-.31.08-.63-.12-1-.23a3.23,3.23,0,0,0-1.12-.08h-.34a2.23,2.23,0,0,1-.85-.13Z" transform="translate(-1.1 -1.9)"/><path class="cls-3" d="M98.88,43.44a.63.63,0,0,0-.38.08.53.53,0,0,0-.13.57.42.42,0,0,0,.14.27c.1,0,.24,0,.24-.11,0-.31.38-.46.69-.44s.67.12.91-.08c0-.23-.34-.29-.58-.29Z" transform="translate(-1.1 -1.9)"/><path class="cls-3" d="M49.07,44.33l-.52.14a.18.18,0,0,0-.08.05c-.07.08.05.19.15.23a.85.85,0,0,0,.65.11c.22-.07.32-.41.12-.52a.22.22,0,0,0-.13,0l-.19,0Z" transform="translate(-1.1 -1.9)"/><path class="cls-3" d="M111.18,44.87a.46.46,0,0,0,.43-.25l-.2-.13v0h0a.26.26,0,0,0-.19.41Z" transform="translate(-1.1 -1.9)"/><path class="cls-3" d="M98.73,44.62c.09.12.19.25.33.26s.28-.18.18-.28h0a.42.42,0,0,0-.24-.07.48.48,0,0,0-.28.1Z" transform="translate(-1.1 -1.9)"/><path class="cls-3" d="M97.49,44.69a.42.42,0,0,0,.05.57c.11-.14.22-.27.32-.41l0,0a2.18,2.18,0,0,0,.22-.21.38.38,0,0,0-.25-.08.39.39,0,0,0-.32.15Z" transform="translate(-1.1 -1.9)"/><path class="cls-3" d="M116.15,45.82a1.45,1.45,0,0,0,.1-1.12.8.8,0,0,0-.1,1.12Z" transform="translate(-1.1 -1.9)"/><path class="cls-3" d="M112.5,45h0a.33.33,0,0,0,0,.24.2.2,0,0,0,.23-.1.18.18,0,0,0-.1-.23.22.22,0,0,0-.16.09Z" transform="translate(-1.1 -1.9)"/><path class="cls-3" d="M97.49,45.52a.34.34,0,0,0,0,.17,3.19,3.19,0,0,0,.1,1.3.52.52,0,0,0,.2-.48,1.38,1.38,0,0,0-.17-.52.46.46,0,0,0,.17-.58h-.06a.23.23,0,0,0-.19.11Z" transform="translate(-1.1 -1.9)"/><path class="cls-3" d="M75.37,45.94l-5.05.62c-4.18.52-9,1.44-11,5.13a8,8,0,0,1-2.22,2.2,25.73,25.73,0,0,0-8.6,12.56c-.56,1.87-1.74,3.49-2.45,5.31s-.89,4.07.39,5.55a8.48,8.48,0,0,0-2.94,8.33c.22,1,.54,2.16-.21,2.79-3.17,2.67-.19,8.53-2.86,11.7-2,2.39-.77,6.32,1.74,8.19s5.81,2.2,8.93,2.43a323,323,0,0,0,54.49-.59l.29-.09.42-.13.3-.08.37-.2.45-.22.52-.19.32-.38c.18-.21.38-.4.57-.59s.48-.52.7-.79l.45-.59.39-.47-.06.07a6.93,6.93,0,0,0,.9-1.59l0,.09c.08-.2.16-.42.25-.62s.14-.32.22-.49l0,0-.34,0c.13,0,.24,0,.37,0a2.3,2.3,0,0,0,.1-.35,4.38,4.38,0,0,0,0-.51.45.45,0,0,0,0-.11c-.48-.12-1-.27-1.43-.43l1.37-.13a1.34,1.34,0,0,0-.07-.18,3.81,3.81,0,0,0-.43-.76l-.16-.18A4,4,0,0,1,108,98.32h0s0-.08,0-.12a1.85,1.85,0,0,1,0-.47,1.6,1.6,0,0,1,.16-.48,3.36,3.36,0,0,1,.35-.57,6.92,6.92,0,0,0-.56-5.67c-.77-1.31-2-2.82-1.27-4.15a6.73,6.73,0,0,0-1.28-8.09c-.69-.63-.15-1.74.26-2.57a6.92,6.92,0,0,0-.79-7.17c-.9-1.16-2.3-2.43-1.76-3.8.65-1.64-.36-3.47-1.56-4.76s-2.69-2.43-3.3-4.08A7.61,7.61,0,0,0,96,53.6c-3.94-3.51-8.2-7.17-13.43-7.92a17.16,17.16,0,0,0-2.26-.15,38.25,38.25,0,0,0-4.9.41Zm3.75,4.21a.26.26,0,0,1,.41,0h0a.19.19,0,0,1-.2.14.18.18,0,0,1-.2-.14Zm-15.63.49a.31.31,0,0,1,.21-.16.17.17,0,0,1,.2.15.42.42,0,0,1,0,.1l-.26.45c-.23,0-.25-.35-.11-.54Zm-2.77,2.81c-.21-.1-.46-.27-.41-.5a.63.63,0,0,1,.16-.24c.55-.55,1.12-1.07,1.71-1.59A.37.37,0,0,1,62.5,51c.18,0,.2.28.18.47,0,.37-.07.75-.1,1.13a1,1,0,0,0,.68-.48,2.13,2.13,0,0,1,.56-.67c.25-.15.64-.11.74.16.16.44.74.51,1.21.47s1-.1,1.32.24.25.58.46.82.75.15.67-.15a1.33,1.33,0,0,1,.7-1.47c.39-.1.66.37.8.74s.5.81.85.61c.08-.32.17-.63.26-1,.33-.25.84.1.88.52a1.6,1.6,0,0,1-.46,1.11,2.23,2.23,0,0,0-.6,1.09c0,.18-.3.21-.42.07a.68.68,0,0,1-.12-.52c-.21,0-.32.23-.38.43s-.3.42-.45.27a.35.35,0,0,1-.06-.25c0-.32,0-.63,0-.94a1.16,1.16,0,0,0-.6.65,1.05,1.05,0,0,1-1.12.58,1.94,1.94,0,0,1-1.12-.71,1.31,1.31,0,0,1-1.65,0A1.31,1.31,0,0,0,66,53a3,3,0,0,1-2,.62.67.67,0,0,0-.37.15,1.67,1.67,0,0,1-.94.26,4.85,4.85,0,0,1-2-.57Zm13.4-2.21c.08.56.16,1.14.25,1.7.15-.28.32-.55.48-.83l4-.67c0,.31,0,.62,0,.94L82,52.09a1.71,1.71,0,0,1-1.38,1.06,1.64,1.64,0,0,0,2.15.5,1.66,1.66,0,0,1,2,.39,5,5,0,0,1,1,1.93,4.71,4.71,0,0,1,.94-.84,1,1,0,0,1-.57,1.33c2.16,2,4.49,4.37,4.48,7.32a4.76,4.76,0,0,1,1.36-2,1.66,1.66,0,0,1,2.21.1,3.92,3.92,0,0,0-3,1.4l3.8-.84c-.62,1-1.89,1.38-3,1.89s-2.16,1.59-1.82,2.74a6.73,6.73,0,0,1,.38,1c0,.37-.29.81-.63.68a1.59,1.59,0,0,0,1.37.12c.41-.22.45-1,0-1.09a3.59,3.59,0,0,0,.49-2.8.84.84,0,0,1,1,.29,1.53,1.53,0,0,0,.42,1.93,1.92,1.92,0,0,1,2.38-2.07l-1.92,1.28a4.3,4.3,0,0,0,3.44-.86c.21-.21.58.15.48.43a1,1,0,0,1-.68.51L92.76,68.1c.46,1,1.82,1,2.83.67s2.07-.85,3.08-.52A48,48,0,0,1,86.79,71.8l4.87-.22-4.37,2.34.13,0a.73.73,0,0,1-.5.11,1.46,1.46,0,0,0-.37,0,1.26,1.26,0,0,0-.56.47c-.1.15-.17.42,0,.45.11-.3.48-.38.8-.46s.67-.29.63-.6a10.67,10.67,0,0,0,4.3-1.49c.45.37,0,1.06-.51,1.41L88,76.24a1.65,1.65,0,0,1,2.16,1.08l1.09-2-.3,2.07a.92.92,0,0,0,.4-.89l1,.55A4.28,4.28,0,0,1,92,74a4.85,4.85,0,0,0,2.13,2.36,1.68,1.68,0,0,1,.06-1.37.77.77,0,0,1,1.13.44,1.44,1.44,0,0,1-.36,1.32l8.93-2.39a23.92,23.92,0,0,1-8.34,2.84,2,2,0,0,0,1.81.46,3.21,3.21,0,0,1-1.9,2.07,2.83,2.83,0,0,0,.48-1.81l-2.82,1.89c-.33.22-1,.16-.83-.19a.6.6,0,0,0,.38-.95l-1.48,1.11c-.79.59-2.08,1.11-2.6.27a3.38,3.38,0,0,1-4.06.42,2.43,2.43,0,0,1-1.16.82c0,.78.09,1.56.13,2.34A1.39,1.39,0,0,1,85.17,83a3,3,0,0,1,1.38-1.27l-1.26,2.89a5.72,5.72,0,0,0,3.37-2.5c.09.47.17.93.26,1.39l.8-.52-.33,1.52,2.71-3.27L91,84.12l4.45-3A5.34,5.34,0,0,1,93,83.6c.29,1.33.57,2.65.86,4,.82-.49,2.27-.72,2.4.23L92.8,89.34a.94.94,0,0,1,1,.87,2,2,0,0,1-1.84-.42,1,1,0,0,1-.44.75L91,89.37a2.74,2.74,0,0,1-.81,1.51.73.73,0,0,0-1.15.28c.08-.49.15-1,.22-1.46a9.67,9.67,0,0,1-5.06,2.19c.63.28,1.31,1.18.7,1.49a1,1,0,0,1,1.2,1.38,10.28,10.28,0,0,1,4.74-1.13,1.59,1.59,0,0,0,0,1.58,4.49,4.49,0,0,1,4.88-2A43.44,43.44,0,0,1,88,97.48a30.28,30.28,0,0,0,8.13-2.33c.47.14,0,.84-.43,1l-5.14,2.35a65.5,65.5,0,0,0,7.1-2.08,9.08,9.08,0,0,1-4.81,2.41,6.7,6.7,0,0,0,3.45-.56A11.38,11.38,0,0,1,90,100.59c-.69,0-1.39,0-2.09,0a11.77,11.77,0,0,0-3.89.28,62.09,62.09,0,0,0,14.67.56A7.17,7.17,0,0,0,96,103.85a38.43,38.43,0,0,0,4.28-2.75,14.58,14.58,0,0,1-4.35,3.7.65.65,0,0,1,.12,1.1,4.32,4.32,0,0,0-1.63-2.07,18.92,18.92,0,0,1,1.35,2.93,6.74,6.74,0,0,0-1.37-1.07,4.55,4.55,0,0,1,.75,2.3l-1.68-1.28a5.54,5.54,0,0,0,.69,1.88,7.44,7.44,0,0,1-2.47-1.9c-.37.35,0,.92.29,1.35s0,1.27-.43,1a2.45,2.45,0,0,0-.93-1.38c-.17.32-.35.63-.51,1a2.17,2.17,0,0,1-1-1.4,1.76,1.76,0,0,1-.77.9c-.38.15-.92-.13-.85-.53A1.78,1.78,0,0,1,86,108c-.51-.16-.64-1.08-.11-1.15-.57-.37-1.11.52-1.73.8a2,2,0,0,1-.82.13l-13.79.27c-1.21,0-2.57,0-3.37-.91l-1.32,1a1,1,0,0,1,.89-1.27c-.82-.17-1.57.43-2.27.9s-1.72.79-2.3.18a1.09,1.09,0,0,0,.42-1c-.9,1.25-2.81.78-4.34,1a4.44,4.44,0,0,0-2.81,1.57,3,3,0,0,1,1.21-1.85c-.82.34-1.63.69-2.45,1,.35-.46.68-.92,1-1.39a4.8,4.8,0,0,0-1.79.83.8.8,0,0,1,.24-.84l-2.58,1.33,1.3-1.91-2.14.84a1.67,1.67,0,0,1,.6-1.25,3.15,3.15,0,0,1-1.43.73,1.13,1.13,0,0,1-1.29-.86,2.48,2.48,0,0,1-2.39-.16,1.33,1.33,0,0,1,.52-1.1l-1.75.23.18-1a5,5,0,0,1-2.46.23,7.8,7.8,0,0,1,.88-3.61,2.68,2.68,0,0,1,3.19-1.22c2.6,1.24,5.55,1.46,8.43,1.66l9.76.67a2.91,2.91,0,0,0,1.71-.23,1,1,0,0,0,.32-1.48,4.07,4.07,0,0,1-3.18,1.05c-.24-.48-.47-1-.71-1.46a7.69,7.69,0,0,1-1.21,1.73c-.12-.43-.24-.87-.35-1.31l-.64.57a2.37,2.37,0,0,1-2.59-1.78,1.35,1.35,0,0,1-1.17,1.42A1.72,1.72,0,0,0,55.43,98a2.29,2.29,0,0,1-4.11,1.25c-.26.54-1,1-1.47.51-.81-.81,1.27-2.16.64-3.13A7.69,7.69,0,0,0,49,99.55a4.35,4.35,0,0,1-1.46-1.83,1.89,1.89,0,0,1-1.38.9c.29-.64.57-1.3.85-1.94a3,3,0,0,0-1.52,1.81,6.55,6.55,0,0,1,.05-9.29,1.51,1.51,0,0,1,2,.33,4.41,4.41,0,0,1,.78,2.16l.33-1.09a4.85,4.85,0,0,1,3.89,1.66.77.77,0,0,1,.9-.79c0,.55-.07,1.08-.11,1.62.75-1.44,2.65-1.7,4.26-1.8l7.11-.43-7.34-.53c-.11-.29-.23-.57-.34-.86-1.07,1.62-3.54,1.14-5.37.46V88.82c-.39.48-.78,1-1.15,1.45a2.76,2.76,0,0,1,0-2.2c-.36.45-.73.9-1.09,1.36a2.62,2.62,0,0,1-1.38-3.71l-1.26,2a16.6,16.6,0,0,1-.33-6,1.78,1.78,0,0,0-1.08,1.55,3.31,3.31,0,0,1,1.5-4.61.68.68,0,0,0,.1,1c.2-.5.94-.55,1.41-.27a9.45,9.45,0,0,1,1.2,1.09,5.19,5.19,0,0,0,2.67,1,61.1,61.1,0,0,0,15.81.37l-10.39-.87-.84-.77c0,.39-.24.82-.63.86s-.63-.64-.26-.73a1.19,1.19,0,0,0-1.16.19,2.52,2.52,0,0,0-.48-1,.56.56,0,0,0-.12.82c-.15.26-.55-.08-.48-.37s.32-.5.37-.79-.42-.58-.51-.3a.51.51,0,0,1-.24.75,1.56,1.56,0,0,0-.24-1.13c-.45.56-.89,1.12-1.33,1.69a11.81,11.81,0,0,0,.28-3l-1.33,1.17a.53.53,0,0,1,0,1,3.19,3.19,0,0,1,.19-2.53.72.72,0,0,0-1.06.31l-1.28-1.33-.74.81a6.33,6.33,0,0,1,.82-6.71,1.47,1.47,0,0,1,1-.63,1.72,1.72,0,0,1,.63.16l4.18,1.74,6,.45a1.07,1.07,0,0,1,.26.87l.74-.64c2.67.28,5.34.64,8,1.07l.85-.29.59.85a2,2,0,0,1,1.31-.9c0,.32.09.64.14,1,.28-.51,1-.6,1.54-.61l9-.35c-1-.8-2.45-.61-3.74-.54s-2.85-.21-3.35-1.4c0,.27,0,.53,0,.8a2.41,2.41,0,0,1-1.21-.47,14.21,14.21,0,0,1-6.18.54c-.13-.36-.25-.73-.38-1.1a2.42,2.42,0,0,0-.51,1.1l-2.09-.12a.58.58,0,0,0,0-1,1.46,1.46,0,0,1-1,.91c0-.29,0-.58,0-.86a1.89,1.89,0,0,1-1.17.67,1.5,1.5,0,0,0-.46-1,1,1,0,0,1-.51.79l-2.68-1a1.94,1.94,0,0,1-1.85.36l-.33-.79L56.23,70A2.72,2.72,0,0,0,56,68.53a5.34,5.34,0,0,1-1.78.94A2.52,2.52,0,0,0,53.51,68c-.28.32-.55.65-.83,1l-1.2-3c-.38.32-1-.09-1.07-.57a2.09,2.09,0,0,1,.46-1.36l1.38-2.19a1.91,1.91,0,0,1,.61-.71c.78-.49,1.74.2,2.46.78a12.61,12.61,0,0,0,9.32,2.63c-.29.67-.57,1.35-.86,2,.61,0,.88-.72,1.18-1.25s1.21-.89,1.39-.31a1.8,1.8,0,0,0-1,1.74L67,64.71a3.41,3.41,0,0,1-.09,1.82,2.31,2.31,0,0,1,.89-1.18.84.84,0,0,1,1.18.38c0-.21.34-.32.59-.31l5.24.23a2.07,2.07,0,0,0-.39,1.66,2.39,2.39,0,0,1,3.14-1.16l.45.5,7.39-1.25-6-.14c-.14-.25-.28-.51-.41-.77a.6.6,0,0,1-1-.36,3.28,3.28,0,0,1-2.06.89,1.22,1.22,0,0,1-1.12-1.32c-.51.8-1.8.85-2.82.73l-9.4-1.12c-.92-.1-2.08-.44-2.16-1.36a2.61,2.61,0,0,1-1.08,1,5.46,5.46,0,0,1-.52-2.45A2.61,2.61,0,0,0,58,62,2.69,2.69,0,0,1,56.44,59a3.27,3.27,0,0,0-1.66,1,5.57,5.57,0,0,1,3.83-5.33,1.41,1.41,0,0,0-.23,1.46A2.07,2.07,0,0,1,60,54.5a2.47,2.47,0,0,0-.55,1.92A2.72,2.72,0,0,1,61,54.78a1.49,1.49,0,0,1,1.88.91,1.38,1.38,0,0,1,2.57,1,2.14,2.14,0,0,1,2.26-1.06.82.82,0,0,0-.28,1.06,3.1,3.1,0,0,1,4-.73,5.25,5.25,0,0,1,2.66-4.72Zm8.91.7c.12.17,0,.42-.26.46a1,1,0,0,1-.59-.15.26.26,0,0,1,.3-.22l.55-.09Zm3.33.09a.24.24,0,0,1,.4.07.25.25,0,0,1-.23.32h0a.25.25,0,0,1-.14-.39Zm-1,2.35a.3.3,0,0,1-.15-.38.43.43,0,0,1,.29-.17,9.53,9.53,0,0,1,2.38-.31.7.7,0,0,0,.32-.05,1.68,1.68,0,0,0,.26-.27,1.07,1.07,0,0,1,.71-.18l.8,0c.07,0,.17,0,.21.08s0,.19-.11.26c-.23.2-.6.4-.82.19a.28.28,0,0,0-.36,0c0,.22-.17.42-.39.45a3,3,0,0,1-.66-.06.56.56,0,0,0-.58.25c-.08.21-.35.25-.57.26l-.88,0h-.13a.59.59,0,0,1-.32-.06Zm1.87,2.48a.91.91,0,0,1,.08-1,4.51,4.51,0,0,0,.54-.85c.08-.2.41-.14.5.06a.83.83,0,0,1-.09.61l-.39.92c-.08.17-.2.38-.4.38h0a.32.32,0,0,1-.23-.16Zm1.24.26c.22,0,.36-.25.46-.45a1.31,1.31,0,0,1,.45-.6.54.54,0,0,1,.7.06c.19.25,0,.6-.11.89s-.22.68,0,.85.51,0,.73-.16c-.12.27.13.69-.13.84s-.2.91-.59,1.12a6.79,6.79,0,0,1-1.34-1.39,1,1,0,0,1-.32-.83.6.6,0,0,1-.21-.14.29.29,0,0,1,.3-.19Zm2.5-.3a.48.48,0,0,1,.06-.69.69.69,0,0,1,.73,0c0,.28.11.65-.13.8a.42.42,0,0,1-.25.06.66.66,0,0,1-.41-.14Zm1.51,1.52c-.35-.32-.72-.73-.63-1.19.09-.09.25,0,.33.07s.14.22.25.27.45-.14.58-.36a.56.56,0,0,1,.16.65,1.59,1.59,0,0,1-.43.57.17.17,0,0,1-.11.06h0a.21.21,0,0,1-.13-.07Zm-1.92-.85,0,0a.18.18,0,0,1-.08-.26.43.43,0,0,1,.24.17.13.13,0,0,1-.12.14.07.07,0,0,1-.06,0Zm-.11,2.94c-.16-.11-.11-.38-.25-.51h0a.63.63,0,0,0,.61-.68c0-.15.22-.2.32-.1a1.06,1.06,0,0,1,.19.4,4.21,4.21,0,0,0,.36.57.58.58,0,0,1,0,.63c-.14.18-.51.1-.49-.12s-.2-.22-.34-.19a1.35,1.35,0,0,1-.29,0,.3.3,0,0,1-.15,0Zm2.18-.37a.33.33,0,0,1,.24-.07.42.42,0,0,1,.36.13.24.24,0,0,1-.17.34.35.35,0,0,1-.37-.19v0h0c-.08,0-.1-.13,0-.19Zm2.73,2.22c-.16-.19,0-.47.24-.6l.52-.34a1.47,1.47,0,0,1,.48-.29.37.37,0,0,1,.46.2,3.28,3.28,0,0,1-1.07,1,.91.91,0,0,1-.43.16.22.22,0,0,1-.2-.09Zm2.1-.58v0c.07,0,.09.1.05.15a.27.27,0,0,1-.18.08c-.06-.08,0-.2.14-.21ZM98.32,64a.91.91,0,0,1,.48-.74c0-.12-.13-.21-.25-.28a.61.61,0,0,1-.26-.72A.59.59,0,0,1,99,61.9a.56.56,0,0,1,.35.66,2.82,2.82,0,0,0,.05,1.08c0,.36-.09.82-.46.88h-.07a.58.58,0,0,1-.52-.56ZM58.24,62a.27.27,0,0,1,.36,0l0,0a.24.24,0,0,1-.18.37h0a.24.24,0,0,1-.13-.4Zm38.55,1.22a1,1,0,0,1,0-.46c0-.11,0-.23.08-.34s.08-.2.16-.17,0,0,.06.05a1.49,1.49,0,0,1,.26.67c0,.21,0,.47-.24.51h0a.34.34,0,0,1-.3-.26Zm-3,1.35a2.78,2.78,0,0,1,2.28-1l.1,0c.13.08,0,.31-.1.35a1.79,1.79,0,0,1-.46,0c-.15,0-.34.07-.33.22s-.21.33-.39.37a1.4,1.4,0,0,0-.56.14,1.67,1.67,0,0,1-1,.34c-.11,0-.25,0-.27-.13s.16-.2.29-.18l.2,0a.23.23,0,0,0,.19-.07Zm3.1,0c-.07-.2,0-.49.22-.51s.31.23.31.43a.87.87,0,0,1-.33.67,2.17,2.17,0,0,0-.2-.59Zm-1.1.6a.91.91,0,0,1,.28-.56c.08,0,.13.07.17.14a1.87,1.87,0,0,1,.08.34.36.36,0,0,1-.08.35.18.18,0,0,1-.13,0,.35.35,0,0,1-.32-.32Zm-17.9-.06A.28.28,0,0,1,78.2,65a.29.29,0,0,1-.19.4l0,.07a.27.27,0,0,1-.13-.35ZM98.17,67a.87.87,0,0,0,.64-1.12l-.24-.61a.23.23,0,0,1,0-.14.25.25,0,0,1,.16-.1.87.87,0,0,1,.55,0c.17.06.31.27.22.43s.06.44.21.62a1,1,0,0,1,.26.57.41.41,0,0,1-.37.44,3.2,3.2,0,0,0-1.24.35,1.26,1.26,0,0,1-1.25,0,.5.5,0,0,1,.47-.33h.61Zm-7.38-1.57a.33.33,0,1,1-.11.56,1.09,1.09,0,0,0,0-.18h0a.3.3,0,0,1,.13-.38ZM50.37,67a.16.16,0,0,1-.09-.09.8.8,0,0,1,.08-.85.18.18,0,0,1,.1-.07c.1,0,.15.1.17.2a1.42,1.42,0,0,1-.07.65c0,.08-.09.16-.16.16Zm50.17.2-.24.24a1.76,1.76,0,0,1-.62.47.65.65,0,0,1-.73-.12c-.07-.08-.09-.24,0-.28H99l.9.05a.42.42,0,0,1,.61-.36Zm-5.05.54a1.42,1.42,0,0,1,1.14-.09c.1,0,.21.12.17.21a.26.26,0,0,1-.16.11,2.16,2.16,0,0,1-.51.06.68.68,0,0,1-.64-.29Zm-1.07.77c-.12,0-.27-.12-.23-.24a.21.21,0,0,1,.15-.12,1,1,0,0,1,.73-.15c.25.08.39.45.17.6h-.12a2.74,2.74,0,0,1-.7-.09Zm3,2.8c.13-.16.35-.21.51-.32s.39-.64.67-.89.56-.27.69-.53.07-.33.14-.47.31-.24.4-.11a.42.42,0,0,1,0,.15c0,.19,0,.43-.15.53a3.77,3.77,0,0,0-1.13,1c-.28.42-.54.93-1,1h0c-.18,0-.25-.29-.12-.44Zm3.46-1.34c-.2-.11-.1-.41,0-.6l0,0,.25-.32a.58.58,0,0,1,.12.83.42.42,0,0,1-.27.14.19.19,0,0,1-.1,0Zm-1,1a.58.58,0,0,1,0-.41.39.39,0,0,1,.25-.29c.14,0,.27.1.3.25a.67.67,0,0,1-.08.41.34.34,0,0,1-.15.2l-.09,0a.27.27,0,0,1-.24-.18Zm-7.41,1.93a.43.43,0,0,1-.09-.54.85.85,0,0,1,.4-.3l.92-.44a5.58,5.58,0,0,0,1.09-.62,2,2,0,0,1,.44-.33.49.49,0,0,1,.52,0c0,.24-.2.44-.42.56a9.87,9.87,0,0,0-2.31,1.59.44.44,0,0,1-.31.13.38.38,0,0,1-.24-.09Zm9-1.86h0a.52.52,0,0,1,.18-.23l.23.1a.43.43,0,0,1-.33.56l-.09-.42Zm-2.27.24a.51.51,0,0,1,.13.73.27.27,0,0,1-.37-.29h0a.58.58,0,0,1,.24-.44Zm1.25,1a.34.34,0,0,1-.12-.31.53.53,0,0,1,.19-.4.31.31,0,0,1,.42,0,.83.83,0,0,1-.09.49.4.4,0,0,1-.3.21l-.1,0ZM94,74.56a1.74,1.74,0,0,1-.66-.74c-.11-.32,0-.76.38-.8a1.38,1.38,0,0,0,.73-.52,4.11,4.11,0,0,1,1.07-.77c.09,0,.23-.09.29,0a.29.29,0,0,1,0,.1.69.69,0,0,1-.77.7.39.39,0,0,0-.18,0,1.33,1.33,0,0,0-.68,1,1.3,1.3,0,0,0,.39,1.12.27.27,0,0,1-.19.08.79.79,0,0,1-.41-.18Zm3.84-1.78a.53.53,0,0,1,.36-.62.22.22,0,0,1,.23,0,.29.29,0,0,1,0,.26.74.74,0,0,1-.21.4.39.39,0,0,1-.18.06.22.22,0,0,1-.21-.13Zm4.15-.27h0a1,1,0,0,1,.25-.29l.18.11a1,1,0,0,1-.39.34c-.07,0-.09-.13,0-.15Zm-2.57.15a.26.26,0,0,1,.43-.08c0,.12-.07.23-.1.35v0h-.08a.26.26,0,0,1-.25-.3Zm-3.51.4a.27.27,0,0,1-.11-.43.27.27,0,0,1,.42.12.27.27,0,0,1-.26.31Zm3.51.74c0-.13.11-.24.24-.27s.27,0,.39,0,.39-.36.56-.58.48-.4.68-.21,0,.52-.18.65-.5.16-.72.29a3.82,3.82,0,0,1-.49.33.86.86,0,0,1-.17,0,.3.3,0,0,1-.31-.2Zm3.31-.33c-.1-.07,0-.22.11-.28l.63-.42c.17-.1.44-.17.48,0a1.22,1.22,0,0,1-1,.72h-.08a.14.14,0,0,1-.09,0Zm-5.9-.16a.7.7,0,0,1,.94-.1,1.65,1.65,0,0,1-1,.38.71.71,0,0,1-.09.73.69.69,0,0,1-.7.22.7.7,0,0,1-.13-.68.52.52,0,0,1,.61-.29l.05,0c.12,0,.23-.17.31-.28Zm4.85.33a.89.89,0,0,1,.45.09.41.41,0,0,1-.49.07h0a.2.2,0,0,1,0-.16Zm-3.2.66c-.06-.21.25-.3.47-.28s.22,0,.26.11-.14.29-.31.32h-.14c-.13,0-.26,0-.28-.16Zm-1.1.37a.39.39,0,0,1,.39-.16,1.12,1.12,0,0,1,.41.2.48.48,0,0,1-.6.19l0,.1h0a.23.23,0,0,1-.17-.33Zm-1.07.85a.5.5,0,0,1,.37-.5,1.52,1.52,0,0,1,.67,0,.54.54,0,0,1-.15.29.86.86,0,0,1-.63.2Zm4.62,1a1.38,1.38,0,0,0,.54-.24,3.22,3.22,0,0,1,1.39-.42.42.42,0,0,1,.22,0c.21.09.2.39.14.61a5.32,5.32,0,0,1-.79,1.73c-.11.16-.31.35-.5.28s-.19-.44-.06-.65a2,2,0,0,1,.4-.46c.14-.11,0-.36-.19-.36a.7.7,0,0,0-.44.27l-.47.51c-.1.11-.29,0-.35-.1a.61.61,0,0,1,0-.42c.06-.14-.15-.25-.29-.19a.66.66,0,0,0-.27.36,4.42,4.42,0,0,1-.48.68c-.28.34-.55.69-.83,1a.59.59,0,0,1-.25.22.22.22,0,0,1-.28-.1c-.09-.23.38-.36.35-.61,0-.47.7-.85.5-1.28a.61.61,0,0,0-.59.18,2.8,2.8,0,0,0-.37.53,7.29,7.29,0,0,1-.73,1c-.09.1-.25.21-.36.12A15.61,15.61,0,0,1,98,77.77a.38.38,0,0,1-.22-.3c.38.06.66-.4,1-.41a1,1,0,0,1,.56.26c.22-.36.49-.75.91-.78a1.51,1.51,0,0,1,.3,0l.24,0Zm-52.18.25.09,0a2.88,2.88,0,0,0-.13-.31.31.31,0,0,1,.25.21c0,.08-.07.16-.14.16a.07.07,0,0,1-.07,0Zm51.92,1.32a2,2,0,0,1,0,.23.18.18,0,0,1-.17,0h0c-.08-.11,0-.31.18-.27Zm-.62.88c.11.1.13.33,0,.35h0a.21.21,0,0,1,0-.36Zm-5.73.2a.22.22,0,0,1,.34-.14.23.23,0,0,1-.05.36h-.07a.22.22,0,0,1-.22-.23Zm5,3.82a.46.46,0,0,1-.3-.67c.17-.28.58-.31.74-.58a16.3,16.3,0,0,1,1-1.45,1,1,0,0,1,.34-.31.35.35,0,0,1,.43,0c.13.13.08.34,0,.51s-.1.38-.15.57-.1.33-.25.38a.62.62,0,0,1-.4-.05c-.13,0-.31,0-.37.08a1,1,0,0,0-.05.18c-.07.31-.6.44-.53.75a.48.48,0,0,1-.45.54Zm3.11-1.46a1.89,1.89,0,0,1,.27-.38c.12-.17.16-.38.31-.52s.46-.12.47.08a1.79,1.79,0,0,1-.75,1.11.18.18,0,0,1-.09,0h0c-.13,0-.23-.19-.18-.33ZM99,80.73c0-.1.14-.16.23-.11a.3.3,0,0,1,.12.26.39.39,0,0,1-.21.33.29.29,0,0,1-.35-.11.21.21,0,0,1,.18-.29l0-.08Zm-2.7,1.09c0-.49.47-.83.91-1.07a.5.5,0,0,1,.48-.07c.18.12.12.41,0,.56s-.37.22-.53.37-.38.74-.74.86c-.15,0-.35,0-.4.2a2.75,2.75,0,0,1-.49,1c-.12.14-.28.29-.46.26a.4.4,0,0,1-.27-.44A1.13,1.13,0,0,1,95,83c.22-.27.51-.56.86-.52-.11-.25.43-.37.42-.65Zm8.17.32a.35.35,0,0,1,.22-.45l0,0c.14.12,0,.4-.18.4Zm-20.65-.29h0a.2.2,0,0,1,.27.08A.11.11,0,0,1,84,82c-.08,0-.17-.06-.15-.14Zm14.3.27a.26.26,0,0,1-.09.3c-.14,0-.23-.22-.11-.3h0a.15.15,0,0,1,.2,0Zm3,.73c0-.09.06-.16.13-.22a.38.38,0,0,1,.34-.06.21.21,0,0,1,.09.3v0a.53.53,0,0,1-.29.16h0a.2.2,0,0,1-.22-.16ZM103,84a.35.35,0,0,1-.13-.14.92.92,0,0,1,.16-1c.28,0,.35.4.34.68a.69.69,0,0,1-.07.35.29.29,0,0,1-.23.14L103,84ZM86.58,83a.36.36,0,0,1,0,.56h0a.32.32,0,0,1,0-.56ZM97,83.21h0a.12.12,0,0,1,.2,0,.12.12,0,0,1-.07.19.17.17,0,0,1-.11-.15Zm1,.49a.43.43,0,0,1,.15-.47.42.42,0,0,1,.48,0,2.76,2.76,0,0,1-.33.77.62.62,0,0,1-.3-.3Zm1.64.12a.4.4,0,0,1,.65-.1h0a.36.36,0,0,1-.37.25.35.35,0,0,1-.32-.16Zm1.85.77a1.23,1.23,0,0,1,0-.71.26.26,0,0,1,.37-.13.76.76,0,0,1,.26.37c.09.24.15.55-.05.7a.28.28,0,0,1-.18.06.49.49,0,0,1-.41-.29Zm-5.83.49a.33.33,0,0,1,0-.47l.16-.21a.62.62,0,0,1,.28-.25c.11,0,.28,0,.3.14s-.52.37-.42.61.37.07.55.17a.3.3,0,0,1,0,.44.88.88,0,0,1-.43.24l-.45-.67Zm-1.43,1.31a.45.45,0,0,0,0-.7,1.5,1.5,0,0,1-.32-1.36c0-.18.29-.23.42-.11a.54.54,0,0,1,.12.51,1.66,1.66,0,0,0-.06.54c0,.18.17.37.35.34a.51.51,0,0,1,.48.67.48.48,0,0,1-.46.29,1.6,1.6,0,0,1-.56-.18Zm3.16-2.21a.53.53,0,0,1,.34.11l-.31.25a.25.25,0,0,1-.16-.1h0c-.08-.09,0-.26.14-.27ZM100,85.75c-.08,0-.1-.12-.12-.2a.93.93,0,0,1,0-.72.47.47,0,0,1,.85.28c0,.31-.31.53-.61.63l-.11,0Zm3.15-.59c.11-.25.31-.55.58-.49a.44.44,0,0,1,.29.3.64.64,0,0,1-.14.69.48.48,0,0,1-.67,0l-.88.68a.3.3,0,0,1-.17.08.26.26,0,0,1-.13-.06.47.47,0,0,1,.5-.79.27.27,0,0,0,.12,0c.2,0,.39-.23.5-.43Zm-4.22,1a.49.49,0,0,1,0-.16.88.88,0,0,1,0-.43c.07-.13.24-.22.36-.14a.66.66,0,0,1,0,.58.34.34,0,0,1-.27.2.16.16,0,0,1-.11,0Zm-1,.76a.36.36,0,0,1-.08-.12.84.84,0,0,1,.17-.93c.23,0,.32.32.33.55a.68.68,0,0,1-.06.4.3.3,0,0,1-.24.14.17.17,0,0,1-.12,0Zm1.1.5.4-.27,1.24-.82a.68.68,0,0,1,.39-.17.26.26,0,0,1,.3.23c0,.35-.37.58-.72.63a2.18,2.18,0,0,0-1,.22c-.1.07-.18.16-.27.21a.32.32,0,0,1-.16,0,.19.19,0,0,1-.16-.07Zm-2.44-.29a.59.59,0,0,1-.12-.63.62.62,0,0,1,.55-.31,1.81,1.81,0,0,1,.64.15.41.41,0,0,1-.28.25,1,1,0,0,1-.23.93,1.57,1.57,0,0,1-.56-.39Zm4.28.45,1.48-.48a.81.81,0,0,1,.53,0c.17.07.25.33.1.43s-.57.39-.85.59c-.5.34-1,.68-1.53,1a10.6,10.6,0,0,1-1.81.83c-.31.12-.79.13-.85-.2.14-.26-.16-.56-.45-.57a1.76,1.76,0,0,0-.8.31,3.09,3.09,0,0,1-2.25.29,2.92,2.92,0,0,1-.63-.27c.56-.62,1.72-.06,2.37-.58.37-.29.89-.19,1.35-.28a7.94,7.94,0,0,0,1.12-.41,1.14,1.14,0,0,1,1.12.1,1.68,1.68,0,0,1,1.1-.71Zm-2,5.36a.89.89,0,0,1,.62-.35,1.52,1.52,0,0,0,.69-.22,4.43,4.43,0,0,1,1.23-.66,2.38,2.38,0,0,0,.55-.28l1.1-.66c.13-.14.37,0,.54-.12a.48.48,0,0,0,.2-.2.9.9,0,0,1,.5-.4c.21,0,.47.17.38.37a.31.31,0,0,1-.14.16,1.55,1.55,0,0,1-.93.31c-.18,0-.2.26-.29.43a.77.77,0,0,1-.3.26l-1.33.78a2.42,2.42,0,0,1-.49.23,1.79,1.79,0,0,0-.66.18,7.47,7.47,0,0,1-1.25.66.41.41,0,0,1-.17,0h0c-.24,0-.36-.34-.24-.54Zm-3,.16a.31.31,0,0,1,0-.41.8.8,0,0,1,.38-.24l2.82-1.21.9-.38,1.49-.63a1.3,1.3,0,0,1,1.48.38,1.85,1.85,0,0,0-1.44.32,4.91,4.91,0,0,1-1.34.7.87.87,0,0,0-.59.46c0-.2-.31-.26-.5-.18a3.87,3.87,0,0,1-.55.25h-.35a.91.91,0,0,0-.37.21,2.92,2.92,0,0,1-1.67.79.39.39,0,0,1-.24-.06Zm4.88,1.08a1.46,1.46,0,0,0,.14-.31,1.23,1.23,0,0,1,.9-.72c.64-.12,1-.93,1.63-1,.19,0,.46.1.4.29a.32.32,0,0,1-.12.14,1.84,1.84,0,0,1-1.21.61c-.36,0-.46.49-.72.76s-1.22.23-1.45.74a.71.71,0,0,1-.54.47c-.26,0-.46-.36-.26-.51a.2.2,0,0,1,0-.24.68.68,0,0,1,.95-.15.12.12,0,0,0,.1,0,.3.3,0,0,0,.2-.08Zm-4.25,0c-.16-.09-.08-.35.06-.44a4.56,4.56,0,0,1,.52-.18,2.14,2.14,0,0,0,.32-.2,1.2,1.2,0,0,1,.8-.19.31.31,0,0,1,.18.07c.11.12,0,.31-.18.4a2.84,2.84,0,0,1-1.5.57h0a.37.37,0,0,1-.15,0Zm5.32,1.45a.47.47,0,0,1-.17,0,.41.41,0,0,1-.13-.62.87.87,0,0,1,.64-.32.88.88,0,0,0,.33-.07c.17-.08.25-.27.35-.43a2.08,2.08,0,0,1,.92-.84.61.61,0,0,1,.29-.06.36.36,0,0,1,.27.39.73.73,0,0,1-.23.46,1.76,1.76,0,0,1-.79.49c-.23.06-.53.16-.51.39a.57.57,0,0,1-.33.53,1,1,0,0,1-.51.11ZM97,95.43A.35.35,0,0,1,97,94.9a.85.85,0,0,1,.56-.24,3.79,3.79,0,0,1,.58,0,.47.47,0,0,1,.33.09c.09.07.09.25,0,.28l-1,.41a1,1,0,0,1-.28.07.27.27,0,0,1-.12,0Zm-2.47-.65a.53.53,0,0,1,.74.2.52.52,0,0,1-.27.07.53.53,0,0,1-.47-.27ZM100.2,96a.58.58,0,0,1,.41-.38c.2,0,.4.18.33.36a.46.46,0,0,1-.36.22l-.21,0a.2.2,0,0,0-.17-.25Zm-2.36.74a.55.55,0,0,1,.82-.63.26.26,0,0,1,.11.1c.07.15-.09.32-.22.41l-.33.25a.33.33,0,0,1-.16.07h0c-.1,0-.18-.1-.21-.2Zm3.27.13a1,1,0,0,1,.45-.25c.18,0,.37.18.29.33s-.13.12-.21.17-.34.28-.53.4a.53.53,0,0,1-.62,0c-.17-.14-.07-.5.15-.47h0a.69.69,0,0,0,.42-.2Zm-4.21,2c.36-.4,1.18-.1,1.45-.56.05-.1.18-.12.29-.13l1-.08c.15,0,.33,0,.39.14s0,.26-.13.36c-.29.32-.67.67-1.1.57a2.52,2.52,0,0,0-1.3.14c-.6.19-1.29.4-1.78,0h.11a1.46,1.46,0,0,0,1.07-.48Zm-49.72,0a.46.46,0,0,1,0-.41c.06-.1.25-.15.25,0h0c.12.18.23.46.05.58a.19.19,0,0,1-.1,0,.28.28,0,0,1-.24-.16Zm58.72,1.48a1.1,1.1,0,0,1,0-.51.29.29,0,0,1,.1-.22c.1-.05.22,0,.3.14A4.82,4.82,0,0,1,107,101a9.91,9.91,0,0,0-.19,1.88c0,.17-.21.27-.37.23a.81.81,0,0,1-.4-.31,2.2,2.2,0,0,1-.61.74.46.46,0,0,1-.26-.57.76.76,0,0,1,.18-.26c.24-.25.53-.45.76-.71a1.1,1.1,0,0,0,.3-1,.56.56,0,0,0,.36,0,.56.56,0,0,0-.53-.36h0a.4.4,0,0,1-.35-.3Zm-12.37.1c.09-.2.36-.25.58-.26a19.42,19.42,0,0,1,2.75,0c.13,0,.17.2.08.3a.51.51,0,0,1-.36.12c-.28,0-.56,0-.85,0a13.51,13.51,0,0,1-2.2-.18Zm-36.68-.23a.31.31,0,0,1,.23,0h0a.16.16,0,0,1-.14.19h0a.15.15,0,0,1-.11-.21Zm36.23.23c0-.09.14-.13.19,0h0c0,.06-.06.1-.13.1a.08.08,0,0,1-.07,0Zm9.79.73h0a.28.28,0,0,1,.29.35h0a.27.27,0,0,1-.25-.34Zm1.81.81h0l.33-.48.21.11a.68.68,0,0,1-.57.55,1.1,1.1,0,0,1,0-.18Zm-6.89,2.18a.73.73,0,0,0,.32-.18c.72-.62,1.44-1.25,2.15-1.89a.82.82,0,0,1,.6-.29c.16.3-.09.65-.35.88a8.91,8.91,0,0,1-1.42,1,.41.41,0,0,0-.19.2c0,.09,0,.22.12.21a1.22,1.22,0,0,1,1,.52.89.89,0,0,1,.32.55,1,1,0,0,1-.25.59l-.49.69c-.08.11-.17.23-.3.24s-.36-.24-.36-.46,0-.37,0-.55a.55.55,0,0,0-.24-.48.3.3,0,0,0-.43.18,2,2,0,0,1-.42,1.13.22.22,0,0,1-.13.1.21.21,0,0,1-.2-.09,1.55,1.55,0,0,1-.5-1c0-.15-.12-.29-.15-.45s.05-.36.22-.34.13,0,.15.08a.64.64,0,0,0,0,.2c.07.13.26.08.4,0a.32.32,0,0,0,.14-.12c.15-.25-.56-.42-.41-.68.05-.09.17-.08.28-.08Zm5.64-.87a.59.59,0,0,1,.18-.37.53.53,0,0,1,.47-.24c.17,0,.24.34,0,.38s-.21.44-.44.5h0a.26.26,0,0,1-.23-.27Zm-2.63.63c0-.17.07-.42-.09-.47l.23-.32c.25,0,.33.36.35.6s0,.37.07.56,0,.53-.23.55a1,1,0,0,1-.33-.92Zm1.56.37c0-.06,0-.11,0-.18s-.16-.31-.3-.44-.24-.38-.07-.46.28.08.35.23.14.32.29.33l-.12.23a.27.27,0,0,1,.16.39.2.2,0,0,1-.16.07.19.19,0,0,1-.2-.17Zm3.14-.12c.2,0,.2-.31.34-.45s.4-.08.59,0a.91.91,0,0,1-.17.61.45.45,0,0,1-.31.12.45.45,0,0,1-.45-.29Zm-3.39,2.09a1.27,1.27,0,0,0,.81-.58l.8-1a2.66,2.66,0,0,0,.3-.61.52.52,0,0,1,.56-.3.53.53,0,0,1,.28.34.75.75,0,0,1-.22.82c-.19.13-.45.13-.61.28a1.13,1.13,0,0,0-.23.51,1.3,1.3,0,0,1-1.14.84,2.48,2.48,0,0,1-.47,0,1.78,1.78,0,0,0-.69,0,2.07,2.07,0,0,0-.63.39,1.06,1.06,0,0,1-.66.3c-.25,0-.51-.2-.48-.44s.26-.13.42-.11c.46.06.84-.31,1.16-.65a.62.62,0,0,0-.18-.36.73.73,0,0,1-.19-.37c0-.14.13-.29.26-.25a1.17,1.17,0,0,0,.57.7c.21.1.11.55.33.55Zm-59.07-1a.3.3,0,0,1-.22.42.51.51,0,0,1-.48-.23c.13-.21.43-.19.66-.14l0,0Zm53.78.88a.79.79,0,0,1-.16.51.24.24,0,0,1-.15-.41h0a.2.2,0,0,1,.29-.11Zm-52.55.48a.4.4,0,0,0,0-.24h0a.21.21,0,0,1,.33-.08.26.26,0,0,1-.24.12l.13.24h0a.25.25,0,0,1-.13,0Zm53.77,1a.35.35,0,0,1-.09-.52.47.47,0,0,1,.5,0,.55.55,0,0,1,.26.22.22.22,0,0,1-.08.29.78.78,0,0,1-.33.07.46.46,0,0,1-.26-.06Zm-51.35-.25a.28.28,0,0,1-.34.32.3.3,0,0,1-.15-.45l0,.06a.26.26,0,0,1,.44.07Zm49.63.72a.26.26,0,0,1,.06-.43.25.25,0,1,1,.08.48.19.19,0,0,1-.14-.05Zm-17,.79q.06-.31.12-.6h0a.32.32,0,0,1,.23.39.33.33,0,0,1-.31.22Zm-22.08-.28h0c0-.11.13-.2.21-.14a.29.29,0,0,1-.25.29.08.08,0,0,1,0-.14Zm3.3.55a.3.3,0,0,1,0-.4.67.67,0,0,1,.4-.18.32.32,0,0,1,.29,0c.17.15,0,.41-.22.52a.75.75,0,0,1-.29.09.27.27,0,0,1-.19-.08Zm14.87,0c-.1-.06-.14-.22,0-.28a.24.24,0,0,1,.14,0c.44,0,.87-.09,1.31-.12a.34.34,0,0,1,.31.06.26.26,0,0,1-.08.38.76.76,0,0,1-.42.08h-.89a.52.52,0,0,1-.33-.07Zm13.46,0a.26.26,0,0,1,.09-.41.25.25,0,0,1,.31.28.27.27,0,0,1-.25.18.25.25,0,0,1-.15,0Zm-25.22,0c-.1-.16.11-.33.28-.37a.35.35,0,0,1,.36.06c.11.12,0,.34-.16.39l-.13,0a.88.88,0,0,1-.35-.1Zm-7.42.21a1.52,1.52,0,0,1,.35-.48c.1-.11.33-.16.35,0s0,.11-.08.16a2.85,2.85,0,0,1-.23.26.42.42,0,0,1-.28.14.11.11,0,0,1-.11-.07Zm22.17-.4a.12.12,0,0,1,.07-.18h0a.44.44,0,0,1,.39.32l-.45-.14Zm8.7,0a.35.35,0,0,1,.53-.12l.06,0a.32.32,0,0,1-.21.39h-.08a.31.31,0,0,1-.3-.24Zm-13.2-.15a.72.72,0,0,1,.55.12.68.68,0,0,1-1,.12.39.39,0,0,1,.45-.23Zm8.49.23a.38.38,0,0,1,.16-.23.51.51,0,0,1,.38.1.28.28,0,0,1-.21.3h-.07a.27.27,0,0,1-.26-.17Zm-24.88-.06h0a.45.45,0,0,1,.62-.05c0,.13-.11.25-.24.25h0a.67.67,0,0,1-.35-.19Z" transform="translate(-1.1 -1.9)"/><path class="cls-3" d="M109.23,98.13v0h0l0-.06v0Z" transform="translate(-1.1 -1.9)"/><path class="cls-3" d="M112.32,101.5a1.42,1.42,0,0,0,0-.16h0a1.19,1.19,0,0,1,.08.16Z" transform="translate(-1.1 -1.9)"/><path class="cls-3" d="M99.05,46.75a.89.89,0,0,0,.17-1l-.35-.06a2.16,2.16,0,0,0,.18,1Z" transform="translate(-1.1 -1.9)"/><path class="cls-3" d="M109.91,46.12a.22.22,0,0,0,0,.18.22.22,0,0,0,.23,0h0a.19.19,0,0,0-.17-.13Z" transform="translate(-1.1 -1.9)"/><path class="cls-3" d="M110.52,46.76a.23.23,0,0,0,.21.4c0-.13,0-.27,0-.41s-.3-.34-.54-.36c.09.12.18.25.28.37Z" transform="translate(-1.1 -1.9)"/><path class="cls-3" d="M114.71,47.12h0c-.09,0-.21,0-.17.12a.51.51,0,0,0,.49-.14.25.25,0,0,0-.15-.05.22.22,0,0,0-.17.07Z" transform="translate(-1.1 -1.9)"/><path class="cls-3" d="M103.18,52.47c-.1,0-.16.13-.2.23a.61.61,0,0,0-.1.41.23.23,0,0,0,.31.19c.2-.11,0-.47.16-.65s0-.19-.13-.19Z" transform="translate(-1.1 -1.9)"/><path class="cls-3" d="M77.46,52.68c.06.06.2,0,.17-.1h0a.05.05,0,0,0,0,0,.14.14,0,0,0-.12.14Z" transform="translate(-1.1 -1.9)"/><path class="cls-3" d="M61.05,53.35a.3.3,0,1,0,.3-.43h0c-.09.15-.19.29-.29.44Z" transform="translate(-1.1 -1.9)"/><path class="cls-3" d="M78.35,53.22l.14.27v0a.35.35,0,0,0,.1-.47.51.51,0,0,0-.25.18Z" transform="translate(-1.1 -1.9)"/><path class="cls-3" d="M80.15,53.16a.21.21,0,0,0-.1.06.61.61,0,0,0-.28.44.31.31,0,0,0,.32.33c.17-.05.23-.24.27-.41s0-.37-.12-.42h-.09Z" transform="translate(-1.1 -1.9)"/><path class="cls-3" d="M61.18,55.14a1,1,0,0,0,0,.51.35.35,0,0,0,.13.29.24.24,0,0,0,.33-.07.75.75,0,0,0,.13-.35c0-.21.07-.49-.13-.59l-.11,0a.38.38,0,0,0-.32.23Z" transform="translate(-1.1 -1.9)"/><path class="cls-3" d="M62.38,56.12a.18.18,0,0,0,.25.14l0,0,0-.3h0a.19.19,0,0,0-.18.2Z" transform="translate(-1.1 -1.9)"/><path class="cls-3" d="M70.37,56.08a.28.28,0,0,0,.11.17.24.24,0,0,0,.17-.1c.07,0,0-.16-.07-.17h0a.3.3,0,0,0-.19.1Z" transform="translate(-1.1 -1.9)"/><path class="cls-3" d="M65.34,56.94a1.12,1.12,0,0,0,.11-.25,1.89,1.89,0,0,0-.11.25Z" transform="translate(-1.1 -1.9)"/><path class="cls-3" d="M109.61,57.32a1,1,0,0,0,.71.1l.66-.07a.42.42,0,0,0,.29-.09c.07-.07.07-.22,0-.25a2.26,2.26,0,0,0-.86,0,.84.84,0,0,1-.78-.27c-.22.08-.19.45,0,.59Z" transform="translate(-1.1 -1.9)"/><path class="cls-3" d="M87,59.63a.31.31,0,0,0,0,.29c0,.08.2.1.22,0a1.64,1.64,0,0,1,.41-.61c.15-.2.24-.51.07-.68a3.7,3.7,0,0,0-.66,1Z" transform="translate(-1.1 -1.9)"/><path class="cls-3" d="M57.21,60.57l0,0a.43.43,0,0,0,.17.54l.06-.3a.41.41,0,0,0,0-.29.17.17,0,0,0-.13-.07.11.11,0,0,0-.12.09Z" transform="translate(-1.1 -1.9)"/><path class="cls-3" d="M88.77,62.28a.18.18,0,0,0,.27-.07h0a.31.31,0,0,0,0-.52,1.79,1.79,0,0,1-.26.6Z" transform="translate(-1.1 -1.9)"/><path class="cls-3" d="M88.51,62.86l0,0a.29.29,0,0,0,.19-.44,1,1,0,0,0-.22.42Z" transform="translate(-1.1 -1.9)"/><path class="cls-3" d="M74.79,63.7a1.69,1.69,0,0,0,.13-.27.57.57,0,0,0-.13.27Z" transform="translate(-1.1 -1.9)"/><path class="cls-3" d="M90.26,63.84a.55.55,0,0,0-.39.64c.21.1.41-.14.53-.34s.09-.27,0-.31h-.12Z" transform="translate(-1.1 -1.9)"/><path class="cls-3" d="M68.3,66.47a.21.21,0,0,0,.24,0,.4.4,0,0,0,.1-.18c.08-.2.14-.48,0-.62a.71.71,0,0,0-.31.84Z" transform="translate(-1.1 -1.9)"/><path class="cls-3" d="M69,65.81a.14.14,0,0,0,0-.07.25.25,0,0,0,0,.07Z" transform="translate(-1.1 -1.9)"/><path class="cls-3" d="M70.88,65.84a.53.53,0,0,0-.14.47c0,.13.21.18.31.1A.54.54,0,0,0,71.2,66h0c.07-.11-.07-.23-.2-.23a.21.21,0,0,0-.1,0Z" transform="translate(-1.1 -1.9)"/><path class="cls-3" d="M37.75,66.26c-.31.39-.32,1.1-.81,1.17-.29,0-.53-.2-.82-.26a1.32,1.32,0,0,0-.68.06l-2.26.61a1.11,1.11,0,0,1,.81.51,2.22,2.22,0,0,1,2.08.34,2,2,0,0,1-1.09.39A6.07,6.07,0,0,0,32.3,70.8a.84.84,0,0,0,0,1.18c.16-.62,1-.65,1.64-.53a3.67,3.67,0,0,1,1.57.54.33.33,0,0,1,.15.18c.07.23-.26.35-.5.35l-2.69,0a.55.55,0,0,1-.38-.07c-.11-.08-.14-.27,0-.34-.09-.15-.3,0-.37.18a3.51,3.51,0,0,0,1.53,4,1,1,0,0,0,.4.16,1,1,0,0,0,.72-.3,1,1,0,0,1,.73-.29c.26,0,.43.46.19.59l-.92.2c.15.4.81.28,1-.08a2.28,2.28,0,0,0,.12-1.25,1.18,1.18,0,0,1,.41-1.13,18.26,18.26,0,0,0,2.64,2.25,2.82,2.82,0,0,0-1-1.78A15,15,0,0,1,36,73.23a.43.43,0,0,1,.5-.26,1.13,1.13,0,0,1,.52.34c.44.39.88.8,1.32,1.2.18,0,.13-.31,0-.45a18.56,18.56,0,0,0-2.25-2.27c.05-.41.7-.41,1-.13s.44.73.79,1,1,0,.87-.37c-.18-.6-.37-1.2-.56-1.8l-.18-.6a1.35,1.35,0,0,1,1.25.63,4.23,4.23,0,0,1,.54,1.38,1.29,1.29,0,0,0,.05-1.48,3.64,3.64,0,0,0-1.12-1.09.62.62,0,0,1-.66.34,1.18,1.18,0,0,1,1.71-.25c.13.11.27-.12.28-.29a6.1,6.1,0,0,0-.14-1.54,2.34,2.34,0,0,0-.74-1.38,1.25,1.25,0,0,0-.73-.24.85.85,0,0,0-.7.32Zm-.14,5a.39.39,0,0,1,.4-.33.35.35,0,0,1,.25.1.38.38,0,0,1-.15.54.39.39,0,0,1-.18.06h0a.33.33,0,0,1-.31-.37Zm-5.54,3a.47.47,0,0,1,.08-.56.9.9,0,0,1,.65-.17h1.32a.61.61,0,0,1,.53.18.91.91,0,0,1-.76.32,1.8,1.8,0,0,0-.84.14,2.86,2.86,0,0,1-.44.3l-.14,0a.46.46,0,0,1-.4-.22Zm.79,1.21c0-.14.09-.29.23-.35a1.59,1.59,0,0,0,.41-.16,1.62,1.62,0,0,1,1.43-.24c0,.28-.47.2-.68.38l-.42.36a1,1,0,0,1-.52.3h-.06a.38.38,0,0,1-.39-.3Z" transform="translate(-1.1 -1.9)"/><path class="cls-3" d="M41.37,66.34a.12.12,0,0,0-.07-.19h0A.4.4,0,0,0,41,66a.62.62,0,0,0,.39.32Z" transform="translate(-1.1 -1.9)"/><path class="cls-3" d="M80.36,67.29a.29.29,0,0,0,.36,0l.06,0a1,1,0,0,0-.1-.55.57.57,0,0,0-.32.57Z" transform="translate(-1.1 -1.9)"/><path class="cls-3" d="M74,67.64a.14.14,0,0,0,.07.19h0s.09-.06.07-.11a.11.11,0,0,0-.11-.07Z" transform="translate(-1.1 -1.9)"/><path class="cls-3" d="M92.46,69.24a.5.5,0,0,0,.23.18h0c0-.09-.06-.2-.16-.2a.11.11,0,0,0-.08,0Z" transform="translate(-1.1 -1.9)"/><path class="cls-3" d="M59.81,69.69a.12.12,0,0,0,.17,0,.13.13,0,0,0-.07-.19h0c-.06,0-.1.08-.08.14Z" transform="translate(-1.1 -1.9)"/><path class="cls-3" d="M59.29,72.14a.23.23,0,0,0,.15.25h0a.17.17,0,0,0,.07-.26Z" transform="translate(-1.1 -1.9)"/><path class="cls-3" d="M60.42,72.65a.19.19,0,0,0,.11.31c0-.12,0-.32-.08-.32Z" transform="translate(-1.1 -1.9)"/><path class="cls-3" d="M93.9,76.53a.76.76,0,0,0,.3.45.32.32,0,0,0,.46-.16c.06-.17-.16-.38-.32-.28l0-.09-.4.08Z" transform="translate(-1.1 -1.9)"/><path class="cls-3" d="M90.36,77.66c-.13.13,0,.33,0,.51a.55.55,0,0,1-.16.3c-.33.41-.65.82-1,1.22,0,.17.19.29.37.26a.86.86,0,0,0,.41-.3,2,2,0,0,0,.77-1.75.39.39,0,0,0-.3-.29.16.16,0,0,0-.11,0Z" transform="translate(-1.1 -1.9)"/><path class="cls-3" d="M81.94,78.92a11.68,11.68,0,0,0-2.71,2.49c-.21.25-.49-.3-.81-.34a.7.7,0,0,0-.36.08c-.2.08-.36.16-.44,0s0-.27.15-.36L79,79.58a.58.58,0,0,1,.22.74l.77-.39c.11-.07.24-.15.24-.28s-.25-.17-.48-.15-.46,0-.48-.16a.32.32,0,0,0-.38-.23.84.84,0,0,0-.41.27A6.63,6.63,0,0,0,77.34,81c-.13.25-.58.06-.6-.23a1,1,0,0,1,.39-.74c.17-.18.34-.34.5-.52s-.16-.65-.49-.55a1.2,1.2,0,0,0-.59.77c-.47-.19-1,.19-1.31.57s-.69.84-1.2.85c-.24,0-.6,0-.57.24,0-.14.28-.09.31.06a.46.46,0,0,1-.19.39c-.37.41-.75.81-1.13,1.21-.13.15.16.37.34.27s.25-.31.4-.46.45-.18.5,0,.39.25.57.1a2.78,2.78,0,0,0,.41-.56c.15-.19.42-.33.61-.2a.61.61,0,0,0-.32.68c.09.25.52.33.62.08a1.35,1.35,0,0,1,2-.49.72.72,0,0,1,1.19-.14,1.45,1.45,0,0,0-.91,1.27l1.27-1.21a1.42,1.42,0,0,1,.61-.39c.24,0,.53.11.54.35a2,2,0,0,0-1.12,1.19.61.61,0,0,0,.77-.17c.2-.21.32-.49.51-.7.61-.65,1.82-.53,2.31-1.27a7,7,0,0,1,2.37-2.25c0,.27,0,.54,0,.81s.38.12.5-.06.36-.42.52-.27.09.35.24.39.16,0,.23-.1c.4-.37.84-1,.49-1.39a1.43,1.43,0,0,1-2,.14c-.25-.22-.64,0-.85.29-.66.78-1.46,1.73-2.45,1.52L83.56,79c0-.06.12-.12.1-.2s-.06-.11-.12-.14a.8.8,0,0,0-.45-.12,2.29,2.29,0,0,0-1.15.43Zm-6.37,2a.2.2,0,0,1-.08-.08s0-.1.07-.14l.15-.16a.5.5,0,0,1,.19-.13c.2,0,.33.25.22.41a.4.4,0,0,1-.32.14.59.59,0,0,1-.23,0Zm5.77-.22.34-.2s.11,0,.12,0,0,.1,0,.15a.43.43,0,0,1-.23.19h0c-.09,0-.18-.07-.15-.16Zm-.89.08a.19.19,0,0,1,.09,0,.54.54,0,0,1,.21,0,.75.75,0,0,1,.35.26c.07.13,0,.33-.14.34h0c-.26,0-.22-.58-.49-.61Z" transform="translate(-1.1 -1.9)"/><polygon class="cls-3" points="79.19 77.27 79.19 77.27 79.18 77.26 79.19 77.27 79.19 77.27 79.19 77.27"/><path class="cls-3" d="M80.22,79.36c.09,0,.14-.13.07-.19a.14.14,0,0,0-.07.19Z" transform="translate(-1.1 -1.9)"/><path class="cls-3" d="M48.16,79.87c0,.06.16,0,.13-.07h0l-.1-.11a.19.19,0,0,0,0,.19Z" transform="translate(-1.1 -1.9)"/><path class="cls-3" d="M46.31,80.05h0a.3.3,0,0,0,.06.38l.15-.1a.21.21,0,0,0-.18-.29Z" transform="translate(-1.1 -1.9)"/><path class="cls-3" d="M83.09,82.79v0c.1,0,.12-.21,0-.25s-.13.28,0,.28Z" transform="translate(-1.1 -1.9)"/><path class="cls-3" d="M76.87,82.59a1.47,1.47,0,0,0-.42.37c-.18.23-.37.53-.24.79a3.25,3.25,0,0,0,1.18-1.09.42.42,0,0,0-.3-.12.54.54,0,0,0-.22,0Z" transform="translate(-1.1 -1.9)"/><path class="cls-3" d="M88.55,83.54l-.2.22a.2.2,0,0,0,.33.09.2.2,0,0,0-.11-.33l0,0Z" transform="translate(-1.1 -1.9)"/><path class="cls-3" d="M46.58,85.94a.25.25,0,0,0,.1.22c.09,0,.21,0,.27-.1a.56.56,0,0,0-.17-.77,1,1,0,0,0-.2.65Z" transform="translate(-1.1 -1.9)"/><path class="cls-3" d="M55.65,88.82c0,.16,0,.33-.09.5s-.21.33-.29.51-.06.44.12.52a1.24,1.24,0,0,1,.63-.77c.12,0,.12-.23.13-.36s.11-.56-.12-.65H56a.39.39,0,0,0-.31.26Z" transform="translate(-1.1 -1.9)"/><path class="cls-3" d="M72.74,91.83a5.08,5.08,0,0,0-1,1.06,8.67,8.67,0,0,0-1,8.15c.37.92,1.6,1.07,2.6,1.07H78.5a2.16,2.16,0,0,0,2.79-2.51c0-.72,0-1.45,0-2.17a7,7,0,0,0-.57-3.35,5.31,5.31,0,0,0-1.79-1.8,7.08,7.08,0,0,0-3-1.2,3.81,3.81,0,0,0-.59,0,4.23,4.23,0,0,0-2.54.79Zm-.45,6.41a.61.61,0,0,1-.09-.44c0-.56,0-1.12,0-1.67,0-.16,0-.35.17-.42s.26-.54.4-.81a1.89,1.89,0,0,1,.25-.31l.84-.84a2.14,2.14,0,0,1,1.42-.82.4.4,0,0,1,.15,0,.29.29,0,0,1,.06.4,1.22,1.22,0,0,1-.36.27,4.93,4.93,0,0,0-1.73,2.62c-.26.66-.52,1.32-.77,2a.18.18,0,0,1-.18.1.25.25,0,0,1-.21-.1Z" transform="translate(-1.1 -1.9)"/><path class="cls-3" d="M45.63,96a.73.73,0,0,1-.28.55.84.84,0,0,0-.31.54c0,.22.34.38.45.19s.29-.51.44-.77a1,1,0,0,0,.13-.36.3.3,0,0,0-.16-.33h-.07a.19.19,0,0,0-.2.19Z" transform="translate(-1.1 -1.9)"/><path class="cls-3" d="M89.46,98.65a.37.37,0,0,0-.27.07c-.08.06-.08.2,0,.23a.7.7,0,0,0,1-.18c0-.1-.19-.12-.3-.12Z" transform="translate(-1.1 -1.9)"/><path class="cls-3" d="M91,99.2c-.16,0-.38.08-.33.23a.23.23,0,0,0,.21.13,2.94,2.94,0,0,0,1,0,.26.26,0,0,0,.18-.07.2.2,0,0,0-.07-.26.54.54,0,0,0-.31-.06Z" transform="translate(-1.1 -1.9)"/><path class="cls-3" d="M110.45,99.7h0Z" transform="translate(-1.1 -1.9)"/><path class="cls-3" d="M65.6,101.4a3.43,3.43,0,0,0,1,.63c.19.08.34-.16.38-.36s0-.73-.29-.81h-.1c-.35,0-.61.51-1,.55Z" transform="translate(-1.1 -1.9)"/><path class="cls-3" d="M67.89,101.79a.14.14,0,0,0-.14.19.31.31,0,0,0,.18-.07c0-.06,0-.16-.05-.16v0Z" transform="translate(-1.1 -1.9)"/><path class="cls-3" d="M42.36,102.84a.78.78,0,0,1-.55.24.33.33,0,0,0-.31.25,1,1,0,0,0,0,.41,4.48,4.48,0,0,0,1.56-.7c.17-.12,0-.42-.18-.44h0a.81.81,0,0,0-.49.24Z" transform="translate(-1.1 -1.9)"/><path class="cls-3" d="M98.48,104.14a.75.75,0,0,0-.41.22.16.16,0,0,0,0,.16.26.26,0,0,0,.17.07c.19,0,.47,0,.5-.17s-.13-.28-.28-.28Z" transform="translate(-1.1 -1.9)"/><path class="cls-3" d="M47.61,106.08h0a.31.31,0,0,0,.28.07A.91.91,0,0,1,48,106a.19.19,0,0,0-.17-.1.22.22,0,0,0-.23.2Z" transform="translate(-1.1 -1.9)"/><path class="cls-3" d="M49.83,106.31l.09-.06-.09.06Z" transform="translate(-1.1 -1.9)"/><path class="cls-3" d="M66.86,106.9v0c-.06,0-.1.09,0,.14a.23.23,0,0,0,.2,0,.25.25,0,0,0,0-.17.15.15,0,0,0-.11,0Z" transform="translate(-1.1 -1.9)"/></svg>