<svg xmlns="http://www.w3.org/2000/svg" viewBox="0 0 298.56 198.33"><defs><style>.cls-1{fill:#2c2c2c;}.cls-2{fill:#e4ba00;}.cls-3{fill:#fff;}.cls-4{fill:#e7f6bd;}.cls-5{fill:#595959;}.cls-6{fill:#ecbb00;}.cls-7{fill:#f2f2f2;}</style></defs><g id="flower"><path class="cls-1" d="M121.72,32a74.53,74.53,0,0,0-9.66,4.85,75.44,75.44,0,0,0-8.77,6.2,73.37,73.37,0,0,0,31.35,128.47,74.55,74.55,0,0,0,15.12,1.57h0a74.48,74.48,0,0,0,21.74-3.28,73.43,73.43,0,0,0,45.7-41.26,70.53,70.53,0,0,0,5.52-21.33A73.32,73.32,0,0,0,121.72,32Zm37.4,1.34a66.6,66.6,0,0,1,31.71,13.41,72.34,72.34,0,0,1,12.07,12.1A71.88,71.88,0,0,1,211.7,74a71.35,71.35,0,0,1,4.53,16.78,71.72,71.72,0,0,1,0,17.93,70.93,70.93,0,0,1-4.57,16.87,71.75,71.75,0,0,1-8.9,15.24,67.43,67.43,0,0,1-27.15,20.81,71.2,71.2,0,0,1-16.86,4.57,71,71,0,0,1-18,0,66.68,66.68,0,0,1-32.14-13.51A72.17,72.17,0,0,1,96.78,140.8,71.5,71.5,0,0,1,88,125.92a71.29,71.29,0,0,1-4.66-16.83,72.1,72.1,0,0,1,0-18.68A71.12,71.12,0,0,1,88,73.71a71.54,71.54,0,0,1,8.66-14.84A67.3,67.3,0,0,1,123.74,38a71.12,71.12,0,0,1,16.7-4.61,72.1,72.1,0,0,1,18.68,0Zm16.27,4.42.34.15-.34-.15Zm-51.23,0-.29.13.29-.13Zm78.38,20.62.27.35-.27-.35ZM87.92,73.84c0,.1-.08.19-.13.29,0-.1.09-.19.13-.29ZM83.36,90.49c0,.16,0,.31-.07.47,0-.16,0-.31.07-.47Zm-.07,18,.06.39-.06-.39Zm4.5,16.83.15.34-.15-.34ZM203,140.47l-.15.19.15-.19Zm-12.29,12.35-.25.19.25-.19Z" transform="translate(-0.88 -0.83)"/><path class="cls-1" d="M150.41,37.72a63.16,63.16,0,0,0-14.21,1.63,62,62,0,0,0-19.23,8A62.92,62.92,0,0,0,95.89,69.56a62.43,62.43,0,0,0,5.51,69.58,62.9,62.9,0,0,0,15.23,13.77,61.82,61.82,0,0,0,19.15,8.17,63.08,63.08,0,0,0,25.38.78,61.39,61.39,0,0,0,10.3-2.72,63.09,63.09,0,0,0,9.43-4.3,64,64,0,0,0,8.52-5.75,62.41,62.41,0,0,0,13.71-15.27,61.68,61.68,0,0,0,8.11-19.18A62.52,62.52,0,0,0,212.48,93a64.29,64.29,0,0,0-2.12-10.41,62.45,62.45,0,0,0-15.71-26.46,62.39,62.39,0,0,0-16.72-12,62.53,62.53,0,0,0-27.52-6.41Z" transform="translate(-0.88 -0.83)"/><path class="cls-2" d="M144.05,77.62a1.16,1.16,0,0,0,2.32,0,1.16,1.16,0,1,0-2.32,0Z" transform="translate(-0.88 -0.83)"/><path class="cls-2" d="M146.52,71.44a4.62,4.62,0,0,0-1.25.48,5,5,0,0,0-1.73,1.72,3.94,3.94,0,0,0-.44.84l-.07.06a3.56,3.56,0,0,0-.85,1.56,9.2,9.2,0,0,0-.28,2.77,6.38,6.38,0,0,0,.66,2.78,6,6,0,0,0,2.17,2.09c.33.27.65.54,1,.79a2.19,2.19,0,0,0,.4.21,8,8,0,0,0,1.05.43,6.25,6.25,0,0,0,4.22-.6,4.82,4.82,0,0,0,2.44-3.2,14.9,14.9,0,0,0,.31-2.58,5.55,5.55,0,0,0-.19-2.07,10.73,10.73,0,0,0-.92-2,7,7,0,0,0-2.07-2.1l.58.45c-.15-.12-.3-.24-.44-.37a5.05,5.05,0,0,0-1.79-1.08,4.27,4.27,0,0,0-1.49-.24,9.51,9.51,0,0,0-1.31.11Z" transform="translate(-0.88 -0.83)"/><path class="cls-3" d="M151.69,53.34a4.82,4.82,0,0,0-4.28,1.89,7,7,0,0,0-1,3.77l-.3,4L145.89,66a31.91,31.91,0,0,0-.86-5.61,5.53,5.53,0,0,0-.81-2.09,3.74,3.74,0,0,0-2.94-1.2,6.24,6.24,0,0,0-1.83.3,7.74,7.74,0,0,0-5.39,4.08,5,5,0,0,0,.26,4.6,2.77,2.77,0,0,0-1.65-.47,6,6,0,0,0-4.1,1.66c-1.72,1.72-2.6,4.31-2.68,7.9a3.74,3.74,0,0,0,.44,2.2c.68,1.13,1.91,1.26,3.2,1.4.47.05,1,.1,1.46.2h0a6.31,6.31,0,0,0-4.1,11.19,5.7,5.7,0,0,0,2.22,1.1,5.5,5.5,0,0,0,1.09.14,8.38,8.38,0,0,0,3.39-.91,5.2,5.2,0,0,0-1.7,4.72,7.67,7.67,0,0,0,4.34,5.54,7,7,0,0,0,3.22.85,4.79,4.79,0,0,0,2.47-.68,6.65,6.65,0,0,0,2.8-4,5.44,5.44,0,0,0,1.16,4.06,6.62,6.62,0,0,0,5,2.39l.64,0c.3,5.87.36,11.5.17,16.72h-.12a34.47,34.47,0,0,0-12.21,2.31c-1.54.55-3.22,1.32-4,2.86a7.09,7.09,0,0,0-.6,2.78c-.17,2.81-.08,5.64,1.79,7.26s2.6,4.09,3.28,6.51c.74,2.61,1.51,5.3,3.6,6.93a11.9,11.9,0,0,0,4.85,1.83,37.21,37.21,0,0,0,5,.4,30.25,30.25,0,0,0,8.1-1.11c2.83-.73,4.32-3.72,5.07-6.1.18-.57.34-1.14.5-1.71a14.81,14.81,0,0,1,2.51-5.72c2.46-3,4-7.45,2-10.83-1.1-1.84-3.13-3.17-6.21-4.07a26,26,0,0,0-6-1.11,1,1,0,0,0,.25-.07,23.91,23.91,0,0,0,3.9-1.54,35.36,35.36,0,0,0,19.22-23.21l-.47-.14c-.7.06-1.48.18-2.53.36a34.77,34.77,0,0,0-16.48,8.55,33.75,33.75,0,0,0-7.27,9.63l0-.47-.12-1.37-.31-3.09-.56-5.38c-.07-.65-.07-1.3.34-1.61A5.23,5.23,0,0,0,157.1,97,4.17,4.17,0,0,0,160,98.37a6.7,6.7,0,0,0,4.22-1.65c2.6-2.09,4.21-6.13,2.48-9.33a.44.44,0,0,0,.4.2c2.14,0,3.92-2.14,4.57-4.26a7.42,7.42,0,0,0-.36-5.92,4.85,4.85,0,0,0-3.46-2.4l.15-.07a6.24,6.24,0,0,0,3.09-3.71,9,9,0,0,0-.75-6.7,7,7,0,0,0-4.58-4,5.67,5.67,0,0,0-.9-.08c-2.87,0-5.28,2.48-7.07,4.64l.68-1.32.48-1c1-2,1.87-3.77,1.19-5.57s-2.94-2.76-4.78-3.27a12.86,12.86,0,0,0-3.7-.63Zm-3.61,30.6h0a5.7,5.7,0,0,1-5.12-4c0-.18-.09-.45-.12-.71s0-.43,0-.64a5.54,5.54,0,0,1,3-4.56,5.7,5.7,0,0,1,2.31-.46,5.21,5.21,0,0,1,5.31,5.93,5.06,5.06,0,0,1-.69,2,4.81,4.81,0,0,1-1.31,1.36,5.4,5.4,0,0,1-2.39.86,5.87,5.87,0,0,1-.94.09l0,.13Zm10.63,37.28c-.58-.06-1.14-.1-1.68-.14a1,1,0,0,1-.65-.22l.32,0c.68.13,1.35.23,2,.33Zm-12,10.43-.19,0-.25,0-.27,0-.27,0-.37,0-.38,0-.53-.11-.47-.08a4,4,0,0,0-.65-.12,22.07,22.07,0,0,1-4.85-1.7,5.87,5.87,0,0,1-1.84-1.34,2.23,2.23,0,0,1-.61-2,2.94,2.94,0,0,1,1-1.41,12.49,12.49,0,0,1,4.95-2.38,42.75,42.75,0,0,1,7.91-1.35c-3.54.41-7.18.86-10.3,2.84a4,4,0,0,0-1.23,1.12,3.21,3.21,0,0,0,.6,3.84,7.77,7.77,0,0,0,3.54,1.81,36.38,36.38,0,0,0,4.21,1Zm10.22.46a37.36,37.36,0,0,0,7.6-1.52,8,8,0,0,0,3.53-1.82,3.18,3.18,0,0,0,.55-3.83,3.24,3.24,0,0,0-1.25-1.09,17.12,17.12,0,0,0-5.83-2.21c1,.13,1.81.27,2.55.44a18.44,18.44,0,0,1,4.85,1.94c1.3.8,2,1.6,2,2.46.08,1.32-1.24,2.31-2.37,2.91a28.71,28.71,0,0,1-11.63,2.72Zm2.65-9.31,0-.15.22.11a6.39,6.39,0,0,1,.68,0h.16a.44.44,0,0,0-.32.24c-.14-.14-.23-.2-.33-.2a1.73,1.73,0,0,1-.37,0Zm-11.88.08-.27,0c-.29,0-.48,0-.55-.12l.25.05.19,0,.38.09Zm-2.44.35h0l.21-.18c-.07.11,0,.19,0,.21l-.76,0-.28-.19.2,0a2.68,2.68,0,0,1,.59.06l.05,0Zm17.79.39a1.26,1.26,0,0,0,.47-.12c0,.13.11.15.18.15a.5.5,0,0,0,.27-.11l.21.13-.18,0a1,1,0,0,0-.09.31.31.31,0,0,0-.34-.25c0-.07-.05-.13-.13-.13l-.21.14a1.35,1.35,0,0,1-.26-.15Zm-19.7.08h0a.7.7,0,0,0,.36-.11.11.11,0,0,0,0,.15l-.26,0-.53-.12-.2,0,.32,0,.29,0Zm24.25,2.06-.82-.66a1.2,1.2,0,0,0-.11-.12l-.33-.17-.93-.35c.15,0,.17-.11.15-.2a1.17,1.17,0,0,0-.28-.23,7.58,7.58,0,0,1,2.32,1.73Zm-28.43.17a5.4,5.4,0,0,1,1.32-1.19l.19-.12.07.23-.32.22a1.1,1.1,0,0,0-.47.2,4.15,4.15,0,0,0-.49.35,1.27,1.27,0,0,1-.3.31Zm10.64,6.16-1.43-.11-.61-.13-.26,0-.12,0c.8.13,1.61.24,2.42.32Z" transform="translate(-0.88 -0.83)"/><path class="cls-3" d="M146.38,122.3l-.08,0,0,0-.28-.1c-.21,0-.44-.08-.66-.11a2,2,0,0,0-.87.16,4.8,4.8,0,0,1-.76.24h-.18a2,2,0,0,0-.77.06,2.75,2.75,0,0,0-.71.3,2.33,2.33,0,0,0-.7.62h0l-.15.19h0c-.2.11-.41.19-.6.31a7.42,7.42,0,0,0-.64.46.8.8,0,0,0-.13.13,1.7,1.7,0,0,0-.41.15,1.75,1.75,0,0,0-.68.67,1.9,1.9,0,0,0,0,1.82,1.5,1.5,0,0,0,.55.54,1.53,1.53,0,0,0,.75.2,1.17,1.17,0,0,0,.67-.16,1.14,1.14,0,0,0,.46-.31,1.41,1.41,0,0,0,.34-.59.75.75,0,0,0,0-.26l.13-.1a5.28,5.28,0,0,1,.53-.27l-.33.14.48-.22a5.89,5.89,0,0,0,.58-.24c.43-.15.88-.27,1.32-.4.22-.07.44-.15.67-.21l.38-.13.25-.11h.16a2.29,2.29,0,0,0,1-.26,3.22,3.22,0,0,0,.7-.45l.36,0h0l.46.16a2,2,0,0,0,.41.14,4,4,0,0,0,.49,0,1.36,1.36,0,0,0,.59-.12c.16-.06.3-.15.45-.22l0,0a6,6,0,0,1,.73,0l.34.08c.2.11.37.25.56.38a.38.38,0,0,0,.53-.14.39.39,0,0,0-.14-.54,6.1,6.1,0,0,0-.59-.4,2.11,2.11,0,0,0-.61-.16c-.3,0-.6,0-.89,0h0a1.75,1.75,0,0,0-.56,0l.13,0a1.41,1.41,0,0,1-.29,0,.9.9,0,0,1-.22-.06l-.18-.09c-.05,0-.09-.11-.14-.17l-.18-.15a1.15,1.15,0,0,0-.24-.35.86.86,0,0,0-.28-.2l-.08-.08-.1-.11a1.26,1.26,0,0,0-.92-.4,1.34,1.34,0,0,0-.93.38Zm1.69-.06.08.06-.08-.06Zm.89.87h0c0,.06,0,.12.07.17s-.05-.12-.07-.17Zm.57.41h0Zm-1.79.72h0Zm0,0Zm0,0Zm.11.07-.17,0,.17,0Zm-.18,0h0Zm-.29,0h0Zm3.79,0h0ZM139.43,126h0l0,0,0,0Zm0,0a2.51,2.51,0,0,1,0,.27,2.51,2.51,0,0,0,0-.27Zm1.72,1.5-.2.16h0l-.06,0a2,2,0,0,0,.25-.18Z" transform="translate(-0.88 -0.83)"/><path d="M154.64,77.92a2.51,2.51,0,0,1,.89-.76,2.36,2.36,0,0,1,1.25-.34,1.11,1.11,0,0,1,1,.71.7.7,0,0,1-.54.91c-.41,0-.7-.6-.37-.83a2,2,0,0,0-2,2.31,3.05,3.05,0,0,1,3.06,2.92l.38.15a17.3,17.3,0,0,1,3.06-4.31A7.6,7.6,0,0,1,166,76.42a3.62,3.62,0,0,1,2.92,1,3,3,0,0,1,.43,3.23,4.35,4.35,0,0,1-2.5,2.22,3.14,3.14,0,0,1,.84,2.38,2.42,2.42,0,0,1-1.48,2,3.85,3.85,0,0,1-1.55.14,20,20,0,0,1-2.9-.4l.12.51a1.92,1.92,0,0,1,2.49,1.47L162,88.16v.76a1.26,1.26,0,0,1,1,.53.54.54,0,0,1,.12.34c0,.28-.36.43-.63.35a1.38,1.38,0,0,1-.63-.52,4.39,4.39,0,0,1-6.08,2.88,1.49,1.49,0,0,1,0,.81.52.52,0,0,1-.64.34.59.59,0,0,1-.28-.48,1.29,1.29,0,0,1,.33-1l-.61-.54L153.73,94a1.93,1.93,0,0,1,.52-2.92l-.4-.5a20,20,0,0,1-1.59,2.67,3.83,3.83,0,0,1-1.09,1.14,2.39,2.39,0,0,1-2.47-.1,3.07,3.07,0,0,1-1.31-2.17,4.15,4.15,0,0,1-3.5.53A3,3,0,0,1,141.81,90,3.69,3.69,0,0,1,143,87.43a7.73,7.73,0,0,1,4.54-2.15,15.51,15.51,0,0,1,5.08.26l.12-.51a2.71,2.71,0,0,1,.11-4.28,1.93,1.93,0,0,0-2.93.21.49.49,0,0,1,.51.64.63.63,0,0,1-.85.29.89.89,0,0,1-.43-.86,1.57,1.57,0,0,1,.44-.89,2.44,2.44,0,0,1,3.63.33,5.65,5.65,0,0,1,1.26-.48,3,3,0,0,1,.19-2.07Zm13.81.75a2.33,2.33,0,0,0-.85-.91,2.69,2.69,0,0,0-2.12-.17,7.09,7.09,0,0,0-1.92,1,14.28,14.28,0,0,0-4.55,4.5c0,.07-.07.18,0,.22a4.84,4.84,0,0,1,1.4,1.15c.09.1.25.07.37,0a40.72,40.72,0,0,0,6-2.47,3.33,3.33,0,0,0,1.83-1.8,2.12,2.12,0,0,0-.2-1.56Zm-25,9.78a2.4,2.4,0,0,0-.41,2.1A2.16,2.16,0,0,0,144.58,92a3.78,3.78,0,0,0,2.29-.43,43.82,43.82,0,0,0,5.76-3.21s.07,0,.08-.07a.17.17,0,0,0,0-.12l-.17-1.83a.13.13,0,0,0,0-.09.2.2,0,0,0-.13-.06,10.52,10.52,0,0,0-3.79.13,16.18,16.18,0,0,0-3.48,1,4.08,4.08,0,0,0-1.67,1.15Zm5.77,5.1a1.68,1.68,0,0,0,1.3-.06,5.47,5.47,0,0,0,2.14-2c.29-.39.57-.79.84-1.19a.22.22,0,0,0,.05-.11.28.28,0,0,0,0-.13L153,88.9a.14.14,0,0,0-.16-.06.38.38,0,0,0-.17.08c-1.4,1-2.85,1.92-4.34,2.77-.09.06-.08.19-.06.29a3.53,3.53,0,0,0,.33.91,1.4,1.4,0,0,0,.68.66Zm14-7a5.22,5.22,0,0,0,2.69-.44,1.68,1.68,0,0,0,.87-1,1.5,1.5,0,0,0-.08-.91,3.41,3.41,0,0,0-.48-.79c-.08-.1-.2-.22-.33-.17q-2.4.93-4.89,1.64c-.06,0-.14.06-.14.12a.14.14,0,0,1,0,.06l.66,1.25a.28.28,0,0,0,.08.11.29.29,0,0,0,.16,0c.48,0,1,.07,1.44.09ZM154,88.23l.64,1.2c0,.08.13.17.19.12a19.61,19.61,0,0,1,5.7-3c.08,0,.06-.14,0-.22-.13-.29-.27-.58-.42-.86a2.59,2.59,0,0,0-.38-.59.23.23,0,0,0-.1-.07.2.2,0,0,0-.15,0,23.11,23.11,0,0,0-5.21,2.79,1.6,1.6,0,0,0-.26.26.39.39,0,0,0,0,.36Zm7-.35s0-.06,0-.06h-.05a9.68,9.68,0,0,0-1.35.62c-1.3.68-2.59,1.4-3.86,2.14,0,0,0,0,0,.06s0,.06,0,.09a3,3,0,0,0,3.29.61,3.62,3.62,0,0,0,1.06-.76,3.12,3.12,0,0,0,1-2.7Zm-3.9-4.76a.58.58,0,0,0-.31.08,31.75,31.75,0,0,0-3,1.52.38.38,0,0,0-.14.11.42.42,0,0,0,0,.16,7.88,7.88,0,0,0,0,1.88.27.27,0,0,0,.11.22,11.37,11.37,0,0,1,5-3.08,12.63,12.63,0,0,0-1.37-.81.53.53,0,0,0-.24-.08Z" transform="translate(-0.88 -0.83)"/><path class="cls-2" d="M155.16,76a.39.39,0,0,0,.39.39.4.4,0,1,0,0-.79.39.39,0,0,0-.39.4Z" transform="translate(-0.88 -0.83)"/><path class="cls-2" d="M156.87,75.44a.4.4,0,1,0,.79,0,.4.4,0,0,0-.79,0Z" transform="translate(-0.88 -0.83)"/><path class="cls-2" d="M156.79,78.67a.4.4,0,0,0,.79,0,.4.4,0,1,0-.79,0Z" transform="translate(-0.88 -0.83)"/><path class="cls-2" d="M158.66,78.45a.4.4,0,0,0,.79,0,.4.4,0,1,0-.79,0Z" transform="translate(-0.88 -0.83)"/><path class="cls-2" d="M154.39,76.32a.4.4,0,1,0,.4-.4.4.4,0,0,0-.4.4Z" transform="translate(-0.88 -0.83)"/><path class="cls-2" d="M155.27,79.18a.4.4,0,0,0,.4.39.4.4,0,0,0,0-.79.4.4,0,0,0-.4.4Z" transform="translate(-0.88 -0.83)"/><path class="cls-2" d="M153.55,78.76a.4.4,0,1,0,.79,0,.4.4,0,0,0-.79,0Z" transform="translate(-0.88 -0.83)"/><path class="cls-2" d="M152.39,79.11a.4.4,0,1,0,.39-.39.4.4,0,0,0-.39.39Z" transform="translate(-0.88 -0.83)"/><path class="cls-2" d="M155.45,93.67a.4.4,0,0,0,.79,0,.4.4,0,1,0-.79,0Z" transform="translate(-0.88 -0.83)"/><path class="cls-2" d="M154.4,93.28a.4.4,0,1,0,.79,0,.4.4,0,0,0-.79,0Z" transform="translate(-0.88 -0.83)"/><path class="cls-2" d="M153.85,91.31a.4.4,0,1,0,.79,0,.4.4,0,0,0-.79,0Z" transform="translate(-0.88 -0.83)"/><path class="cls-2" d="M152.67,92.51a.4.4,0,1,0,.79,0,.4.4,0,0,0-.79,0Z" transform="translate(-0.88 -0.83)"/><path class="cls-2" d="M153.7,93.5a.4.4,0,0,0,.4.4.4.4,0,0,0,0-.79.4.4,0,0,0-.4.39Z" transform="translate(-0.88 -0.83)"/><path class="cls-2" d="M161.85,90.16a.4.4,0,1,0,.79,0,.4.4,0,0,0-.79,0Z" transform="translate(-0.88 -0.83)"/><path class="cls-2" d="M162.1,89.13a.4.4,0,0,0,.79,0,.4.4,0,1,0-.79,0Z" transform="translate(-0.88 -0.83)"/><path class="cls-2" d="M163.18,89.78a.4.4,0,0,0,.79,0,.4.4,0,1,0-.79,0Z" transform="translate(-0.88 -0.83)"/><path class="cls-2" d="M164.17,87.55a.4.4,0,1,0,.79,0,.4.4,0,0,0-.79,0Z" transform="translate(-0.88 -0.83)"/><path class="cls-2" d="M162.24,86.92a.4.4,0,0,0,.79,0,.4.4,0,1,0-.79,0Z" transform="translate(-0.88 -0.83)"/><path class="cls-2" d="M162.18,88.4a.39.39,0,0,0,.39.39.4.4,0,1,0,0-.79.39.39,0,0,0-.39.4Z" transform="translate(-0.88 -0.83)"/><path class="cls-2" d="M164.15,78.56a.4.4,0,1,0,.79,0,.4.4,0,0,0-.79,0Z" transform="translate(-0.88 -0.83)"/><path class="cls-2" d="M166.6,79.18a.4.4,0,0,0,.4.39.4.4,0,0,0,0-.79.4.4,0,0,0-.4.4Z" transform="translate(-0.88 -0.83)"/><path class="cls-2" d="M165.18,81.58a.4.4,0,1,0,.4-.4.4.4,0,0,0-.4.4Z" transform="translate(-0.88 -0.83)"/><path class="cls-2" d="M165.82,84.63a.4.4,0,1,0,.39-.39.4.4,0,0,0-.39.39Z" transform="translate(-0.88 -0.83)"/><path class="cls-2" d="M165.64,86.4a.4.4,0,0,0,.4.4.4.4,0,0,0,0-.79.4.4,0,0,0-.4.39Z" transform="translate(-0.88 -0.83)"/><path class="cls-2" d="M146.89,86.29a.39.39,0,0,0,.39.4.4.4,0,1,0,0-.79.39.39,0,0,0-.39.39Z" transform="translate(-0.88 -0.83)"/><path class="cls-2" d="M144.81,87.3a.4.4,0,0,0,.79,0,.4.4,0,1,0-.79,0Z" transform="translate(-0.88 -0.83)"/><path class="cls-2" d="M144.87,87.42a.4.4,0,0,0,.79,0,.4.4,0,1,0-.79,0Z" transform="translate(-0.88 -0.83)"/><path class="cls-2" d="M146.27,89a.4.4,0,0,0,.79,0,.4.4,0,1,0-.79,0Z" transform="translate(-0.88 -0.83)"/><path class="cls-2" d="M145,90.87a.4.4,0,1,0,.79,0,.4.4,0,0,0-.79,0Z" transform="translate(-0.88 -0.83)"/><path class="cls-2" d="M143.44,89.39a.4.4,0,0,0,.79,0,.4.4,0,1,0-.79,0Z" transform="translate(-0.88 -0.83)"/><path class="cls-2" d="M147.25,90.9a.4.4,0,1,0,.4-.4.4.4,0,0,0-.4.4Z" transform="translate(-0.88 -0.83)"/><path class="cls-2" d="M149.77,90.71a.4.4,0,0,0,.79,0,.4.4,0,1,0-.79,0Z" transform="translate(-0.88 -0.83)"/><path class="cls-2" d="M150.47,92.84a.4.4,0,1,0,.39-.39.4.4,0,0,0-.39.39Z" transform="translate(-0.88 -0.83)"/></g><g id="tree"><path class="cls-4" d="M150,43.39c-1.16,1.29-2.35,2.55-3.54,3.81a2,2,0,0,0-1-1.91,1.58,1.58,0,0,0-1.91.25c-1.3,1.13-2.61,2.26-3.89,3.43a1.12,1.12,0,0,0-1.29.21c-2.28,2.31-4.55,4.63-6.76,7-2.41,2.61-4.77,5.27-7.13,7.94-.81.92-1.6,1.84-2.38,2.78a1.59,1.59,0,0,0-.57-.06c1.44-1.66,2.88-3.32,4.36-5,2.13-2.36,4.3-4.69,6.38-7.1a.91.91,0,0,0,0-1.23.89.89,0,0,0-1.24,0c-4.81,4.94-9.47,10-13.92,15.29-1,1.21-2.11,2.4-3.1,3.65-1.27,1.61-2.54,3.2-3.82,4.81-2.07,2.62-4,5.34-6,8-2.15,2.91-4.17,5.91-6.18,8.91-1.1,1.64-2.16,3.3-3.2,5-.46.74-.89,1.48-1.32,2.23a14.86,14.86,0,0,0-1.42,2.85,1.07,1.07,0,0,0,1.31,1.32,7.11,7.11,0,0,0,.75-.33,2.55,2.55,0,0,0,.6-.45c-.53.85-1,1.71-1.52,2.58a1.49,1.49,0,0,0,.52,2l.16.08c0,.08-.09.16-.12.24a1.92,1.92,0,0,0,.29,2.3,1.9,1.9,0,0,0,2.31.3,9.17,9.17,0,0,0,2.17-2.18c.38-.5.75-1,1.13-1.5l2.07-2.79a2.84,2.84,0,0,0,2.57.12l-.29.46a2.13,2.13,0,0,0,1.25,3.08,2.16,2.16,0,0,0,1.06.08,2.2,2.2,0,0,0,.77.45,2.41,2.41,0,0,0,.3.6l0,.07a3.19,3.19,0,0,0,.5,3.81,3.15,3.15,0,0,0,4.44,0c.55-.62,1.06-1.25,1.58-1.9l0,0a3.34,3.34,0,0,0,2.33,1,3.29,3.29,0,0,0,2.32-.92,3.41,3.41,0,0,0,.66.93,3.68,3.68,0,0,0,2.59,1.07,3.5,3.5,0,0,0,2.59-1.07c.28-.37.56-.73.85-1.09a3.66,3.66,0,0,0,4.18-.44,3.94,3.94,0,0,0,1.12,2.81,3.8,3.8,0,0,0,2.68,1.11,4,4,0,0,0,.79-.08,3.33,3.33,0,0,0,.54.65,4,4,0,0,0,2.79,1.17,4.12,4.12,0,0,0,2.79-1.17l.19-.16a4,4,0,0,0,2.28.32,1.17,1.17,0,0,1,.08-.36c.07-.18.13-.35.21-.52l.3-.62.48-.89,0,0a.5.5,0,0,1-.21,0h-.18a.42.42,0,0,1-.16,0l-.22.18a1.75,1.75,0,0,1-.29.18.83.83,0,0,1-.21.06.69.69,0,0,1-.4-.06.54.54,0,0,1-.15-.15c0-.08-.07-.16-.1-.25a1.23,1.23,0,0,1,0-.43c0-.11,0-.22,0-.33s.07-.3.12-.46a.32.32,0,0,1,0-.27l0-.1-.36.43c-.26.32-.54.62-.81.92a.42.42,0,0,1-.4.11.5.5,0,0,1-.24-.19,0,0,0,0,1,0,0,.41.41,0,0,1,0-.4c.12-.19.26-.36.39-.53l.32-.42a.4.4,0,0,1-.19,0,.42.42,0,0,1-.29-.4.5.5,0,0,1,0-.32,1.76,1.76,0,0,1,.12-.39,3.45,3.45,0,0,1,.24-.47c0-.08.09-.15.14-.23h-.1a.38.38,0,0,1-.29-.12.43.43,0,0,1-.09-.43.37.37,0,0,1-.27,0l0,0,0,0-.3.2,0,0,0,0h0l0,0a0,0,0,0,1,0,0l0,0,0,0a6.41,6.41,0,0,1-.58.45l0,0a3.82,3.82,0,0,1-.48.34,1.45,1.45,0,0,1-.31.11.65.65,0,0,1-.34,0,2.28,2.28,0,0,1-.38-.2l-.22-.16a.43.43,0,0,1-.18-.24.42.42,0,0,1,0-.31.41.41,0,0,1,.55-.15,3.51,3.51,0,0,0,.4.27,1.32,1.32,0,0,0,.35-.23h0s0,0,0,0a1.09,1.09,0,0,0,.17-.13l.43-.34c.16-.14.34-.25.52-.38l.19-.14,0,0s0,0,0,0h0l0,0,.35-.26h0a1.92,1.92,0,0,0,.36-.39l.42-.51.18-.22a1.61,1.61,0,0,1,.28-.24h0c.11-.1.21-.21.31-.32a3.57,3.57,0,0,1,.27-.28l.19-.14h0l.26-.2a1.23,1.23,0,0,1,.48-.32l.24-.08.16,0a3.24,3.24,0,0,1,.33-.13,2.65,2.65,0,0,1,.48-.07c.31,0,.62,0,.93,0a4.9,4.9,0,0,1,.93.1l.44.09.29,0a4.55,4.55,0,0,0,.52,0c.17,0,.35.06.53.08l-.11,0a8.55,8.55,0,0,0,1.13,0h.63c.2,0,.41,0,.61.08l-.11,0a7,7,0,0,0,1,0,1.65,1.65,0,0,1,.57.11l.26.07.3.12.18.08-.1,0,.47.2.45.23a6.27,6.27,0,0,1,.86.51,4.15,4.15,0,0,0,.34.24c.12.07.23.14.36.2s.48.26.73.37h0c.2.09.41.13.61.21a3.34,3.34,0,0,0,.52.14h0l.47.07h0a5.74,5.74,0,0,0,.71,0,.69.69,0,0,1,.53.19.8.8,0,0,1,.27.48,5.23,5.23,0,0,1,.12.54,1.53,1.53,0,0,1,0,.37c0,.17,0,.35-.06.52l-.06.41a5.79,5.79,0,0,0,0,.72v.48a3.11,3.11,0,0,0,0,.43.43.43,0,0,1,0-.11c0,.16.06.33.09.48s.09.27.14.4,0,0,0,0,0,0,0,0,0,0,0,0a.08.08,0,0,1,0,0c.17.38.39.75.54,1.14a.42.42,0,0,1-.29.49.38.38,0,0,1-.31,0,.5.5,0,0,1-.19-.24v0c-.17-.36-.37-.7-.52-1.07a2.72,2.72,0,0,1-.18-.55c-.05-.21-.08-.42-.11-.63a5.42,5.42,0,0,1,0-.57c0-.13,0-.27,0-.41a.05.05,0,0,1,0,0,.66.66,0,0,1-.18-.19l-.08-.14,0,0h0s0,0,0,0h0l0,0,0,0a2,2,0,0,0-.25.26l0,0a2.08,2.08,0,0,1-.16.48,4.66,4.66,0,0,1-.25.5s0,0,0,0-.09.24-.14.36-.11.34-.16.52a.41.41,0,0,1,.1.27.44.44,0,0,1-.13.32l-.26.36c-.22.31-.45.62-.68.92-.55.74-1.09,1.49-1.62,2.24-.26.38-.53.76-.81,1.15l-.79,1.14c-.12.19-.25.38-.38.56a4.79,4.79,0,0,0,1.26-.42,4.77,4.77,0,0,0,4.67-1.29l.3-.32a5.24,5.24,0,0,0,5.56-1.13l.58-.58a5.45,5.45,0,0,0,3.71.51,4.77,4.77,0,0,0,1.31,1.1,5.05,5.05,0,0,0,3.59.58,5.14,5.14,0,0,0,.79.57,5,5,0,0,0,3.38.61,5.24,5.24,0,0,0,5.66-1,5.27,5.27,0,0,0,4.39-.43,8.34,8.34,0,0,0,1.49-1.15l.39.12a6.19,6.19,0,0,0,1.09.19,6,6,0,0,0,2.12,1.15,5.46,5.46,0,0,0,4.64-.7c.37-.26.75-.53,1.1-.83a4.1,4.1,0,0,0,1.15-.47l.9-.7A4.38,4.38,0,0,0,201,114.9a7.56,7.56,0,0,0,1-3.59c.12-.21.23-.42.34-.64a9.89,9.89,0,0,0,.75-1.9,6.32,6.32,0,0,0,0-2.87l.34-.5a4.49,4.49,0,0,0,.38-.76l.53-1.26a15.42,15.42,0,0,0,.21-1.68,4,4,0,0,0-.2-1.55,6.44,6.44,0,0,0,.5-1.18,5.86,5.86,0,0,0,0-3.37A5.15,5.15,0,0,0,201.12,92c0-.17-.07-.34-.11-.51a4.91,4.91,0,0,0-2.32-2.94,4.47,4.47,0,0,0-.59-1.67c-.11-.17-.21-.34-.33-.49a5.36,5.36,0,0,0-1.45-2.94,6.07,6.07,0,0,0-.73-.59,3.27,3.27,0,0,0,.25-.36,5.63,5.63,0,0,0,.72-2.62,4.76,4.76,0,0,0-.73-2.49,4.86,4.86,0,0,0-1.16-1.31,11.29,11.29,0,0,0-.51-1.25,3.48,3.48,0,0,0-.82-1.06A5.48,5.48,0,0,0,195,70a4.33,4.33,0,0,0-.72-2.33,4,4,0,0,0,.16-1.14,4.07,4.07,0,0,0-2-3.43,3.93,3.93,0,0,0-3.2-.5,4.22,4.22,0,0,0-1,.41l0,0a3.49,3.49,0,0,0,.4-1h0a6.22,6.22,0,0,1-5.9-4.56c-.3-.31-.62-.62-.95-.9-.85-.61-1.74-1.19-2.59-1.82a16.22,16.22,0,0,0-1.78-1.19c-1.93-.62-3.94-1-5.84-1.76-1.12-.45-2.23-.85-3.39-1.19a22.84,22.84,0,0,1-3.38-1.38l-.22-.06a14,14,0,0,0-1.94.1,27.53,27.53,0,0,1-5.5.71,6.13,6.13,0,0,1-6.06-6.06,6,6,0,0,1,.11-1.12,2.17,2.17,0,0,0-1.18.67ZM116.15,73.32l-.05.05.05-.05ZM100.1,92.57s0,0,0,0h0l0,0ZM105,105.85a1.77,1.77,0,0,1-.17.14l.17-.14Zm36.55,1.87h0Zm-1.68,1.69h0a0,0,0,0,1,0,0,0,0,0,0,0,0,0Zm-1.08.82h0Zm-.24.18s0,0,0,0,0,0,0,0Zm-13.37,2.33-.08.11a.76.76,0,0,1,.08-.11Zm33.65,1.35Z" transform="translate(-0.88 -0.83)"/><path class="cls-4" d="M144.11,107h0a.39.39,0,0,1,.15.21l.25-.24-.38,0Z" transform="translate(-0.88 -0.83)"/><path class="cls-4" d="M146.83,107.2h0l.3.08c.27,0,.54,0,.8,0h.23l-.32,0-.43-.07h0c-.13,0-.26,0-.39,0l-.27,0,.09,0Z" transform="translate(-0.88 -0.83)"/><path class="cls-4" d="M144.9,107.67a3.61,3.61,0,0,0-.33.35l-.1.15c0,.12-.08.24-.11.36a.35.35,0,0,1,.08.35.56.56,0,0,1,0,.12c0,.16.09.34.14.51a.56.56,0,0,1,0,.07c.19,0,.38-.07.56-.1h0a.6.6,0,0,1,.08-.08.73.73,0,0,1,.2-.19l.08-.06a1.4,1.4,0,0,1,.38-.16,1.27,1.27,0,0,1,.39,0h.1a2.59,2.59,0,0,1,.37-.56,4,4,0,0,1,.28-.3,1.73,1.73,0,0,1-.61-.19c-.22-.12-.43-.24-.66-.34l-.25-.09a1.33,1.33,0,0,0-.28-.1,3.11,3.11,0,0,0-.32.31Z" transform="translate(-0.88 -0.83)"/><path class="cls-4" d="M142.94,107.48a1.07,1.07,0,0,1-.16.14l0,0-.06,0h0l0,0h0l0,0,0,0,.19-.19.07-.07-.05,0Z" transform="translate(-0.88 -0.83)"/><path class="cls-4" d="M142.73,107.65h0Z" transform="translate(-0.88 -0.83)"/><path class="cls-4" d="M151.92,108.38c0,.05,0,.1,0,.15v.23c0,.11,0,.23-.05.34s0,.17-.07.24l-.15.41.16.17.46.43a.4.4,0,0,1,.36.15,3,3,0,0,1,.79.21,4.18,4.18,0,0,1,.9.55l0,0,.09-.11.25-.31.21-.15a.38.38,0,0,1,.4,0,.41.41,0,0,1,.18.21c.12-.1.25-.21.38-.3a4.08,4.08,0,0,1,.72-.44l.48-.2-.56-.09h0a2.14,2.14,0,0,1-.57-.12c-.21-.08-.43-.13-.64-.21a5.51,5.51,0,0,1-.65-.31l-.5-.24c-.16-.09-.31-.21-.46-.31s-.33-.24-.5-.34-.41-.22-.62-.33l-.39-.18a1,1,0,0,1-.3.58Z" transform="translate(-0.88 -0.83)"/><path class="cls-4" d="M147.83,108.46h0Z" transform="translate(-0.88 -0.83)"/><path class="cls-4" d="M151,109l-.06,0s0,0,0,0l.08.06h0a.73.73,0,0,1,.05-.12l-.06,0Z" transform="translate(-0.88 -0.83)"/><path class="cls-4" d="M141.88,109.8s0,0,.05,0v0c.09-.13.18-.25.27-.39-.11.12-.21.24-.33.36Z" transform="translate(-0.88 -0.83)"/><path class="cls-4" d="M157.72,110.16a.38.38,0,0,1,0,.31.45.45,0,0,1-.24.19l-.2.08,0,0,.2.11h0a.64.64,0,0,1,.36.09,3.25,3.25,0,0,0,0-.54c0-.09-.05-.16-.07-.24a1.55,1.55,0,0,0,0-.21h-.19a.39.39,0,0,1,.12.19Z" transform="translate(-0.88 -0.83)"/><path class="cls-4" d="M149.22,110.63s0,0,0,0a.1.1,0,0,0,0,0l0,0Z" transform="translate(-0.88 -0.83)"/><path class="cls-4" d="M153,110.94h0Z" transform="translate(-0.88 -0.83)"/><path class="cls-4" d="M147,111.63a1.32,1.32,0,0,1-.33.18l-.1,0-.16,0h-.1a.81.81,0,0,1-.3.23l0,.07a1.67,1.67,0,0,1-.24.35,1.09,1.09,0,0,1-.29.23.55.55,0,0,1-.09.28c-.38.77-.83,1.51-1.23,2.26l1-1.12c.36-.4.7-.79,1.07-1.19l.44-.46.5-.52c.08-.07.15-.15.24-.22l0,0-.1-.11a.42.42,0,0,1-.09-.14l-.18.13Z" transform="translate(-0.88 -0.83)"/><path class="cls-4" d="M152.29,112.17l-.14.22c0,.07,0,.15.08.23l.18-.26a3.83,3.83,0,0,1,.36-.44.42.42,0,0,1,.12-.08l-.31-.22a4.14,4.14,0,0,1-.29.55Z" transform="translate(-0.88 -0.83)"/><path class="cls-4" d="M157.36,111.82h0Z" transform="translate(-0.88 -0.83)"/><path class="cls-4" d="M148.09,112.49a3.18,3.18,0,0,0-.1.33v0h0a.53.53,0,0,1,0,.13l.12,0,.26-.15a.29.29,0,0,1-.1-.12,1.47,1.47,0,0,1-.1-.22.28.28,0,0,1,0-.09l-.06.13Z" transform="translate(-0.88 -0.83)"/><path class="cls-4" d="M148,112.89a.09.09,0,0,1,0,0h0a.07.07,0,0,0,0,0Z" transform="translate(-0.88 -0.83)"/><path class="cls-4" d="M149.42,113.9a.87.87,0,0,1,.08-.1l.21-.23a0,0,0,0,1,0,0l-.28.36Z" transform="translate(-0.88 -0.83)"/><path class="cls-4" d="M147.16,113.88c-.29.48-.59,1-.89,1.44l-.93,1.56c-.08.13-.15.26-.22.4.62-.67,1.21-1.35,1.8-2l.72-.81.65-.71-.26.07a1,1,0,0,1-.24,0l-.1,0a1.14,1.14,0,0,1-.32-.22h0q-.1.18-.21.33Z" transform="translate(-0.88 -0.83)"/><path class="cls-4" d="M151,113.66a.81.81,0,0,1-.21.1l-.07,0-.36.54-.46.68c-.31.46-.62.91-.92,1.37l-.57.87c.12-.13.23-.27.34-.4l.2-.27a5.25,5.25,0,0,0,.33-.49c.24-.34.47-.69.7-1l.79-1.1.24-.3Z" transform="translate(-0.88 -0.83)"/><path class="cls-4" d="M142.58,113.86Z" transform="translate(-0.88 -0.83)"/><path class="cls-4" d="M145.31,115.21l-1.07,1.17c-.15.18-.3.35-.46.51a4.54,4.54,0,0,1-.38.38.29.29,0,0,1-.13.08,4.66,4.66,0,0,0,.66.43c.08-.17.17-.34.26-.5l.26-.5c.36-.58.7-1.17,1.06-1.75l.07-.12-.27.3Z" transform="translate(-0.88 -0.83)"/><path class="cls-4" d="M147.82,116s0,0,0,0,0,0,0,0Z" transform="translate(-0.88 -0.83)"/><path class="cls-4" d="M147.79,116l0,0,0,0Z" transform="translate(-0.88 -0.83)"/><path class="cls-4" d="M146.13,118.91l.25.11a4,4,0,0,1,.2-.35c.18-.29.35-.58.53-.86a2.68,2.68,0,0,0,.18-.28l-1.16,1.38Z" transform="translate(-0.88 -0.83)"/><polygon class="cls-4" points="141.87 106.8 141.87 106.8 141.87 106.8 141.87 106.8 141.87 106.8"/><polygon class="cls-4" points="141.86 106.81 141.86 106.81 141.86 106.81 141.86 106.81 141.86 106.81"/><path class="cls-4" d="M138.49,110.43h0Z" transform="translate(-0.88 -0.83)"/><path class="cls-4" d="M147.4,107.21h0Z" transform="translate(-0.88 -0.83)"/><path class="cls-4" d="M141.49,107.74h0a0,0,0,0,0,0,0Z" transform="translate(-0.88 -0.83)"/><path class="cls-4" d="M140.25,109.1h0l0,0,0,0Z" transform="translate(-0.88 -0.83)"/><path class="cls-4" d="M139.86,109.4l0,0,0,0Z" transform="translate(-0.88 -0.83)"/><polygon class="cls-4" points="138.97 108.57 138.97 108.57 138.97 108.57 138.97 108.57 138.97 108.57 138.97 108.57"/><path class="cls-1" d="M114.07,35.89A73.31,73.31,0,0,0,84.39,66.46a71.71,71.71,0,0,0-7,20.84,71.47,71.47,0,0,0-.27,23.17,73,73,0,0,0,55.76,60.36,73.51,73.51,0,0,0,16.32,1.84h0a73.56,73.56,0,0,0,22.23-3.45,73.11,73.11,0,0,0,35.07-24.41,71,71,0,0,0,10.87-19.17,72.93,72.93,0,0,0-38.34-92.41,71.19,71.19,0,0,0-21.73-5.93,69.43,69.43,0,0,0-8.14-.47,73.56,73.56,0,0,0-35.14,9.06Zm44-2a70.6,70.6,0,0,1,17.11,4.69A66.82,66.82,0,0,1,202,59.29a71.08,71.08,0,0,1,8.54,14.65,70.62,70.62,0,0,1,4.63,17,71.16,71.16,0,0,1,0,17.62,70.26,70.26,0,0,1-4.69,17.14A71.33,71.33,0,0,1,202,140.23a66.83,66.83,0,0,1-27.1,20.88,70.65,70.65,0,0,1-16.44,4.49,69.46,69.46,0,0,1-18.37,0,66,66,0,0,1-31.47-13.26,72,72,0,0,1-12.07-12.11,71.26,71.26,0,0,1-8.62-14.85,70.47,70.47,0,0,1-4.55-16.8,72.3,72.3,0,0,1,0-17.64,70.4,70.4,0,0,1,4.5-16.7,71.48,71.48,0,0,1,8.67-14.95,66.88,66.88,0,0,1,26.76-20.74,71.6,71.6,0,0,1,17.12-4.69,72.71,72.71,0,0,1,17.69,0Zm31.3,12.92.21.16-.21-.16Zm-80.29,0-.21.16.21-.16Zm80.75,105.6-.46.36.46-.36Zm-81.2,0,.45.36-.45-.36Z" transform="translate(-0.88 -0.83)"/><path class="cls-1" d="M140,40.55a57.68,57.68,0,0,0-20.17,7.18A58.75,58.75,0,0,0,92.2,112.37a57.77,57.77,0,0,0,3.46,10.13,58.83,58.83,0,0,0,40.9,33.42,59.58,59.58,0,0,0,12.75,1.39,60.84,60.84,0,0,0,11-1,58.95,58.95,0,0,0,41.15-30.68,58.49,58.49,0,0,0,6.21-20.5,59.3,59.3,0,0,0-1.7-22,58.71,58.71,0,0,0-16.13-27,59.19,59.19,0,0,0-8.2-6.55,58.21,58.21,0,0,0-19.61-8.32,59.19,59.19,0,0,0-10.92-1.36c-.6,0-1.21,0-1.81,0a59.84,59.84,0,0,0-9.29.74ZM147,54.89a6.09,6.09,0,0,1,2.26-.5,2.35,2.35,0,0,1,2,.84c.59.77,1.78.29,2.69-.06a6.49,6.49,0,0,1,3.75-.27,2.64,2.64,0,0,1,1.33.67,8,8,0,0,1,.84,1.77c.3.58,1.1,1,1.59.61,1.24-1.07,3.13-.3,4.55.51a19.44,19.44,0,0,1,4.77,3.4,6.58,6.58,0,0,1,1.91,5.35c-.22,1.27,1.31,2.2,2.6,2.12s2.46-.78,3.73-1,2.89.37,3,1.66a3,3,0,0,0,4.5,2,54.54,54.54,0,0,0,2.78,9.7c.49,1.27.34,2.69.61,4s1.33,2.74,2.68,2.58c.49,0,.75.55.85,1a9.11,9.11,0,0,1,.21,4.57c-.43,1.49-1.92,2.78-3.42,2.45.52,1.47,1,2.93,1.57,4.4a8.79,8.79,0,0,0,1.56,3.08,3,3,0,0,0,3.12,1c-.54,1.25.33,2.61.78,3.9s0,3.27-1.4,3.12a2.83,2.83,0,0,0,1.32,1.58,17.93,17.93,0,0,1-6,0c-2.82-.3-5.59-.6-7.89.89-1.34.86-3.07,0-4.66,0s-3,.65-4.47,1.07-3.27.49-4.36-.61-2.64-.79-4.26-.49a8.32,8.32,0,0,1-3.16.19,3.78,3.78,0,0,1-2.76-4.54q-3.13,3.74-6.28,7.45c-1.44,1.7-1.45,4.16-1.24,6.37a49.5,49.5,0,0,0,1.05,6.41,98,98,0,0,1,20.68,2.59q-25.09-.53-50.19,0a92.15,92.15,0,0,1,18.77-2.54,96.22,96.22,0,0,0,2.14-12.85c.1-1,.1-2.21-.74-2.79a23.6,23.6,0,0,1-5.25-5,32.72,32.72,0,0,0-5.69,5.59,7,7,0,0,0-4.48-.47,7.75,7.75,0,0,1-3.16.54c-1-.19-1.92-1.6-1.15-2.35a4.6,4.6,0,0,1-7.61-3.52c0-.31-.35-.5-.65-.6a33.59,33.59,0,0,0-6.91-1.58c-2-.25-1.83-4-3.83-4.39a3.06,3.06,0,0,0,.39-3.22c-.85.52-1.74-.69-1.9-1.68s-.33-2.28-1.32-2.46c-1.35-.25,1-3.05-.29-3.55,1.77-.45.28-3.44,1.34-4.92a3,3,0,0,1,1.08-.82,23.81,23.81,0,0,1,7.25-2.45c1.41-.23,3-.45,3.82-1.62-1.21-.51-.84-2.31-.26-3.49,1.06-2.18,2.25-4.5,4.38-5.65a5.26,5.26,0,0,1,2.1-5.11,26.09,26.09,0,0,0,2.53-1.57,2.09,2.09,0,0,0,.61-2.65c1.57,1.32,3.75-.41,5.59-1.3A37.32,37.32,0,0,1,134.92,61c1.52-.49,3.05-1.52,3.37-3.08.3.72.61,1.45.9,2.18l3.43-4.49a2.77,2.77,0,0,0,1.12.23,8.83,8.83,0,0,0,3.24-1Z" transform="translate(-0.88 -0.83)"/><path class="cls-1" d="M145.75,66.15c-.26.22-.23.62-.21,1s-.07.77-.41.84a.29.29,0,0,0-.16.36.55.55,0,0,0,.33.27,1.15,1.15,0,0,0,.37.06,1.33,1.33,0,0,0,.34,0,4.32,4.32,0,0,1,.63-.24c.22,0,.5.06.54.28s.31.32.55.37l.9.15a1.56,1.56,0,0,0,.57,0,.5.5,0,0,0,.4-.36c.09-.44-.58-.69-.65-1.13,0-.21.08-.45,0-.62s-.42-.17-.65-.09-.49.16-.68,0l-.6-.53a2.24,2.24,0,0,0-.58-.38.87.87,0,0,0-.28,0,.58.58,0,0,0-.37.13Z" transform="translate(-0.88 -0.83)"/><path class="cls-1" d="M162.09,66.75a2.36,2.36,0,0,0-.31.2,1.08,1.08,0,0,1-.58.16,1.11,1.11,0,0,1-.54-.14c-.23.35,0,.85-.15,1.23a1.66,1.66,0,0,1-.64.59,1.4,1.4,0,0,0-.51.57.72.72,0,0,0,.09.72,1.32,1.32,0,0,0,.78.31c.28.06.59.21.64.5s.43.34.64.17a.87.87,0,0,0,.22-.74,5.19,5.19,0,0,1-.12-.79c0-.2.08-.43.27-.48a1.6,1.6,0,0,1,.23,0c.24-.07.28-.38.37-.62.14-.41.53-.79.44-1.22a.63.63,0,0,0-.61-.47.54.54,0,0,0-.22,0Zm-1.66,2.87,0,0a.32.32,0,0,1,0,.35.26.26,0,0,1,0-.33Z" transform="translate(-0.88 -0.83)"/><path class="cls-1" d="M134.22,74.35c.11.11.29.12.43.2s.24.28.12.38l-.47.41c-.17.14-.35.38-.22.56a.41.41,0,0,0,.35.13l.33,0a1.41,1.41,0,0,0,.45-.07.61.61,0,0,0,.42-.58c0-.26-.26-.45-.33-.71s0-.43-.13-.56a.61.61,0,0,0-.33-.1l-.55,0h0c-.16,0-.19.26-.07.36Z" transform="translate(-0.88 -0.83)"/><path class="cls-1" d="M178.12,78.12c-.12,0-.08.23,0,.35a11.87,11.87,0,0,0,.54,1.14c0,.09,0,.19-.14.21h0a.53.53,0,0,1-.24-.08,2.27,2.27,0,0,1-.65-.66,3,3,0,0,0-.33-.46,1.61,1.61,0,0,0-1.43-.25,1.41,1.41,0,0,0-.65.23.52.52,0,0,0-.2.61.62.62,0,0,0,.69.23,7.1,7.1,0,0,1,.76-.2c.26,0,.56.15.57.41a1.35,1.35,0,0,0,.14.66.67.67,0,0,0,.54.36,1.26,1.26,0,0,0,.49-.12c.23-.09.46-.19.66-.07s.31.4.53.35.2-.17.23-.31a1.88,1.88,0,0,0-.28-1.3,5.11,5.11,0,0,0-.91-1,.3.3,0,0,0-.2-.1Z" transform="translate(-0.88 -0.83)"/><path class="cls-1" d="M168.79,79.58a.36.36,0,0,0-.2.08l-.68.39c-.09.06-.2.13-.2.23a.77.77,0,0,1-.44.61,4.24,4.24,0,0,0-.7.37.59.59,0,0,0-.24.69.63.63,0,0,0,.18.22q.28.26.57.48a2,2,0,0,0,.88.41h.1a.78.78,0,0,0,.72-.4,1,1,0,0,0-.24-1c-.17-.22-.4-.51-.24-.74s.38-.2.58-.3a.64.64,0,0,0,.23-.9.38.38,0,0,0-.3-.17Z" transform="translate(-0.88 -0.83)"/><path class="cls-1" d="M125.19,80.4a3,3,0,0,1-.42.72c-.41.38-1.18.28-1.46.76a.68.68,0,0,0,.6.33.59.59,0,0,0,.36-.11c.16-.1.29-.29.48-.25a.63.63,0,0,1,.29.25c.09.1.24.17.35.09a.24.24,0,0,0,0-.29c0-.09-.12-.17-.15-.26a.56.56,0,0,1,.19-.55,2.17,2.17,0,0,0,.41-.45.39.39,0,0,0-.09-.53.28.28,0,0,0-.13,0,.61.61,0,0,0-.44.32Z" transform="translate(-0.88 -0.83)"/><path class="cls-1" d="M166.87,89.31a1.58,1.58,0,0,0-.57.63c-.44.72-1,1.56-1.85,1.56h0a3.12,3.12,0,0,0-1.81.48c-.14.09-.3.24-.26.4s.27.23.44.24l1.95.17c-.1.29-.47.34-.77.42A2.32,2.32,0,0,0,162.3,95c-.08.42-.66.5-.94.82a1.29,1.29,0,0,0-.23.77,1.42,1.42,0,0,1-.21.79.49.49,0,0,1-.71.14,1.1,1.1,0,0,0-1-.35c-.36.12-.56.67-.25.91a12.46,12.46,0,0,1,2.41,2.56.25.25,0,0,0,.38,0,.53.53,0,0,0,.08-.41,4.53,4.53,0,0,0-.4-1.06,1.17,1.17,0,0,1,0-1.09,2,2,0,0,0,.25-.72,1,1,0,0,1,.36-.67c.21-.14.57-.08.63.17.16,0,.26-.17.23-.33a1.87,1.87,0,0,1-.14-.44c0-.26.23-.46.49-.51a2,2,0,0,1,.76.1,3.39,3.39,0,0,0,2.16-.11l-1.71-.37A1.05,1.05,0,0,1,164,95a.3.3,0,0,1-.06-.4.43.43,0,0,1,.35-.1l1.77,0c.37,0,.58-.49.46-.83a1.73,1.73,0,0,0-.76-.8,1.64,1.64,0,0,1-.72-.82,1.72,1.72,0,0,1,1.42-.11c.13,0,.25-.12.24-.26s-.09-.25-.11-.39c-.06-.37.3-.66.6-.89s.6-.61.41-.93a.48.48,0,0,0-.44-.23.59.59,0,0,0-.32.08Z" transform="translate(-0.88 -0.83)"/><path class="cls-1" d="M116.28,95.24c0,.21,0,.48-.23.57h-.11c-.19,0-.36-.17-.54-.28a1,1,0,0,0-1,0,3.09,3.09,0,0,0-.81.72.46.46,0,0,0-.15.29c0,.21.26.3.45.25a5.38,5.38,0,0,0,.55-.24.8.8,0,0,1,1,.55c0,.2.35.24.52.13a2.66,2.66,0,0,0,.41-.47c.13-.16.35-.29.53-.2a.43.43,0,0,1,.19.16,5.81,5.81,0,0,1,.72,1.19c.15.36.31.78.69.88a.94.94,0,0,0,.91-.38,1,1,0,0,0,.27-.51.42.42,0,0,0-.26-.47c-.13,0-.29,0-.41-.08s-.15-.34-.09-.53a1.06,1.06,0,0,0,.11-.57,1.23,1.23,0,0,0-.6-.75.7.7,0,0,0-.88.22c-.26-.27-.53-.54-.8-.8a.14.14,0,0,0-.11-.06c-.14,0-.29.17-.32.33Z" transform="translate(-0.88 -0.83)"/><path class="cls-1" d="M180.64,101.53a1.44,1.44,0,0,1-.51,1.2,2.77,2.77,0,0,1-.83.7,1.15,1.15,0,0,1-.41.08.74.74,0,0,1-.59-.24c-.13-.16-.2-.39-.39-.45s-.52.23-.59.51-.12.64-.4.75a.93.93,0,0,1-.44,0,2,2,0,0,0-1.55.59.43.43,0,0,0-.17.33c0,.25.36.3.61.25s.53-.13.71,0,.66,0,.88-.32.6-.6.87-.38a.77.77,0,0,1,.16.6,1.39,1.39,0,0,0,.31.91.71.71,0,0,0,.89.15.48.48,0,0,0,0-.8.77.77,0,0,1-.45-.94.54.54,0,0,1,.91-.12,2.13,2.13,0,0,0,2.26,1,.15.15,0,0,0,.12-.08.09.09,0,0,0,0-.1c-.07-.32-.42-.48-.69-.66s-.55-.52-.39-.81a.92.92,0,0,0,0-.59c0-.2,0-.46.2-.51a1.21,1.21,0,0,0,.88-.84.85.85,0,0,0-.57-1l-.12,0a.66.66,0,0,0-.66.75Z" transform="translate(-0.88 -0.83)"/><path class="cls-1" d="M130,104.61c-.41.15-.9.38-1,.83,0,.09-.1.13-.2.13l-.11,0a.62.62,0,0,0-.37-.07c-.19.06-.2.35-.09.51a1.29,1.29,0,0,0,1.18.33,1.37,1.37,0,0,1,1.19.27.23.23,0,0,0,.32,0,.63.63,0,0,0,.19-.31c.07-.24,0-.6-.21-.65a1.53,1.53,0,0,0-.3,0c-.11,0-.23-.09-.19-.18s.07-.31.1-.46,0-.35-.12-.44a.22.22,0,0,0-.16,0,.88.88,0,0,0-.27.06Z" transform="translate(-0.88 -0.83)"/><path class="cls-1" d="M143.2,106.29A5.7,5.7,0,0,1,142,107.9c-.1.1,0,.27,0,.4a4.66,4.66,0,0,0,1,1.07.66.66,0,0,0,.33.15.2.2,0,0,0,.11,0c.12-.06.14-.21.16-.34a6,6,0,0,0-.11-1.74,1.48,1.48,0,0,1-.05-.66.78.78,0,0,0,.06-.37.2.2,0,0,0-.18-.14.11.11,0,0,0-.09.05Z" transform="translate(-0.88 -0.83)"/><path class="cls-1" d="M152.38,107.18a1.16,1.16,0,0,0-.26.56,20.11,20.11,0,0,0-.63,4.22,1.69,1.69,0,0,0,.14.89.67.67,0,0,0,.55.33.44.44,0,0,0,.22-.05,20.4,20.4,0,0,0,5.13-4.12c.12-.14.18-.43,0-.43a10,10,0,0,1-1.89-.22,3.26,3.26,0,0,1-1-.34c-.39-.24-.67-.6-1-.84a1.36,1.36,0,0,0-.7-.21.74.74,0,0,0-.54.21Z" transform="translate(-0.88 -0.83)"/><path class="cls-3" d="M115.55,91.9h-.17a.84.84,0,0,0-.33.08l-.16.1a1.46,1.46,0,0,0-.55.37l-.13.16-.12.13a2.93,2.93,0,0,0-.64,1.19,1.86,1.86,0,0,0,0,.34s-.05.07-.07.16a3.29,3.29,0,0,0-.13.64c0,.12,0,.25,0,.38a2.16,2.16,0,0,0,0,.35,2.81,2.81,0,0,0,.21.7,4.22,4.22,0,0,0,.8,1.23l.25.22.24.22.38.42.13.1h0l.12.17.19.28-.23,0a2.47,2.47,0,0,0-.41.14,2.13,2.13,0,0,0-.86.52,2.23,2.23,0,0,0-.35.42,2.19,2.19,0,0,0-.32.65c0,.11-.08.22-.11.33a1.9,1.9,0,0,0-.07.36,4.45,4.45,0,0,0,0,.58,1.56,1.56,0,0,0,0,.25,1.21,1.21,0,0,0,.13.42,2.41,2.41,0,0,0,.33.53c.07.09.24.25.4.41a4,4,0,0,0,.6.47l.42.31a4.09,4.09,0,0,0,.48.29,2.23,2.23,0,0,0,.45.18l.23.08.26.05.17.07.32.11.26.08a.38.38,0,0,0,.17.06l.25.07a1.31,1.31,0,0,0,.28.09l.16,0,.23.07.16.05.4.14.31.1a1.23,1.23,0,0,0,.32.07l.32.06a1.93,1.93,0,0,0,.36.06,2.08,2.08,0,0,1-.17.58l-.14.31a3.43,3.43,0,0,1-.2.42,2.5,2.5,0,0,0-.25.53l-.05.2,0,.21a2.32,2.32,0,0,0-.09.54c0,.14,0,.27,0,.4a2.63,2.63,0,0,0,0,.48,2.8,2.8,0,0,0,.06.28c0,.09,0,.2,0,.31s0,.34.08.53a3,3,0,0,0,.21.49,1.59,1.59,0,0,0,.22.35,3.64,3.64,0,0,0,.36.41l.18.18.37.35a6.31,6.31,0,0,0,.62.54,2,2,0,0,0,.61.29l.37.11a2.84,2.84,0,0,0,.42.08h0a2.09,2.09,0,0,0,.38,0l.5-.06.27-.08a1.28,1.28,0,0,1,.31-.08,2.51,2.51,0,0,0,1.23-.72c.13-.14.26-.3.39-.46l.19-.23a5.66,5.66,0,0,0,.49-.37,5.33,5.33,0,0,0,.62-.54c.12-.13.25-.26.37-.41l-.06.09a.45.45,0,0,0,0,.42,1.14,1.14,0,0,1-.05.33h-.24a.41.41,0,0,0-.41.31l0,.18a3.49,3.49,0,0,0-.08,1.12,2.36,2.36,0,0,0,.32.8,1.13,1.13,0,0,0,.12.21,3.85,3.85,0,0,0,.08.58,2.49,2.49,0,0,0,.4,1,3.9,3.9,0,0,0,.25.36l.07.2a3.88,3.88,0,0,0,.5,1.34c.11.16.19.27.34.31a1.24,1.24,0,0,0,.72.31.32.32,0,0,0,0,.31.76.76,0,0,0,.63.46,1.86,1.86,0,0,0,.34,0,2.9,2.9,0,0,0,.44-.07,1.79,1.79,0,0,0,.59-.27l.48-.34a2.22,2.22,0,0,0,.38-.44,3.52,3.52,0,0,0,.28-.46l.06-.15a3.73,3.73,0,0,0,.54.29l.22.1a5.52,5.52,0,0,1,.54.28l.26.14h0a1.59,1.59,0,0,0,.34.18,3.47,3.47,0,0,0,.41.16,3,3,0,0,1,.4.12l.31.13.29.13.23.07a1.83,1.83,0,0,0,.32.07,7.11,7.11,0,0,0,.92.06h0a1.64,1.64,0,0,0,1.24-.58,3.61,3.61,0,0,0,.56-.69,6,6,0,0,0,.44-.83,2.69,2.69,0,0,0,.14-.8v-.36a2.51,2.51,0,0,0,0-.64,1.84,1.84,0,0,0-.19-.49c-.07-.15-.13-.27-.2-.39s-.14-.25-.2-.38-.19-.34-.29-.51a4.65,4.65,0,0,0-.45-.53,1.29,1.29,0,0,1-.16-.17l-.29-.33-.12-.16-.12-.15-.11-.16-.2-.27-.12-.16a2.48,2.48,0,0,0-.19-.26,3.92,3.92,0,0,0-.37-.34l-.3-.2-.22-.15-.22-.16-.22-.16c-.15-.11-.3-.23-.46-.33a1.55,1.55,0,0,0-.22-.12l-.22-.12h0l-.21-.12a2.13,2.13,0,0,0-.47-.21l-.91-.31-.52-.18a4,4,0,0,0-.46-.14l-.31-.08-.36-.11a4.73,4.73,0,0,0-.75-.21c-.39-.09-.75-.17-1.11-.23s-.71-.1-1.07-.14l-.22,0a.84.84,0,0,1,0-.27,4.93,4.93,0,0,0,.17-1c0-.22,0-.38,0-.56v-.57a.46.46,0,0,0,0-.5,1.89,1.89,0,0,0-.42-.9,3.41,3.41,0,0,0-.66-.47,3.81,3.81,0,0,0-.77-.37l-.28-.12-.17-.08-.3-.11L126,103l-.25-.08-.26-.06a1.74,1.74,0,0,0-.3,0,1.4,1.4,0,0,0-.55.15l-.15,0a2.52,2.52,0,0,0-.92.26l-.14.08a.53.53,0,0,0,.12-.42l-.11-.15h0l0-.3-.06-.43a1.66,1.66,0,0,0-.09-.37c-.07-.28-.13-.44-.18-.59l-.14-.28a1.05,1.05,0,0,1-.12-.21l-.1-.23-.14-.32-.15-.42-.12-.32,0-.15-.08-.16,0-.16a.32.32,0,0,0,0-.17,3.33,3.33,0,0,0-.09-.36l0-.18a1.28,1.28,0,0,0-.09-.32l-.06-.16-.11-.33L121.7,97l-.08-.24-.06-.21-.07-.21a3.86,3.86,0,0,0-.2-.51l-.14-.27-.28-.44a3.64,3.64,0,0,0-.31-.5l-.13-.16-.11-.13A2.21,2.21,0,0,0,120,94l-.13-.11-.38-.3-.39-.24-.17-.06-.21-.26-.12-.1a2.88,2.88,0,0,0-.46-.42,2.62,2.62,0,0,0-.5-.3,1.63,1.63,0,0,0-.31-.11,4.08,4.08,0,0,0-1-.2l-.78,0Z" transform="translate(-0.88 -0.83)"/><path class="cls-5" d="M120.58,104.45c-.15.27-.29.55-.45.81a.87.87,0,0,0-.15.25.34.34,0,0,0,0,.32,1.8,1.8,0,0,0-.08.21.61.61,0,0,0,0,.4.47.47,0,0,0,.32.31.33.33,0,0,0,.17,0,.36.36,0,0,0,0,.09,2.17,2.17,0,0,0,.23.3c.07.08.16.16.24.24s.31.28.48.42.61.41.92.6l.6.38,0,0a.66.66,0,0,0,.29.2h0l.09,0c.17.23.35.46.54.67s.36.45.56.66l.31.3.24.27c.08.08.15.17.24.25a3.33,3.33,0,0,0,.39.36h0a.4.4,0,0,0,.2.41.59.59,0,0,0,.47,0l.27-.08a1.05,1.05,0,0,0,.26-.13h0a.91.91,0,0,0,.24-.16l.09-.12h0a.42.42,0,0,0,.21-.26v0l.13-.15a.56.56,0,0,0,.09-.17.37.37,0,0,0,.23,0,.44.44,0,0,0,.21-.38.71.71,0,0,0-.06-.28,3.24,3.24,0,0,0-.13-.41,1.32,1.32,0,0,0-.23-.42.61.61,0,0,0-.25-.23l-.12-.12c-.16-.14-.34-.25-.52-.38s-.41-.36-.61-.55-.31-.31-.46-.48-.16-.24-.23-.37a3.62,3.62,0,0,0-.24-.43c-.08-.14-.17-.27-.26-.4a2.51,2.51,0,0,0-.32-.46,3.12,3.12,0,0,0-.47-.34,3.2,3.2,0,0,0-.51-.29c-.19-.1-.4-.19-.6-.28l-.36-.13a2.21,2.21,0,0,0-.58-.42.49.49,0,0,0-.41,0l-.15-.05-.29,0h0l-.05,0a.36.36,0,0,0-.2-.06.39.39,0,0,0-.35.2Zm.67.72,0,0h0Zm4.39,2.43s0,0,0,0l0,0Zm-1.48,1.2,0,0,0,0v0Zm3.75,1.46Z" transform="translate(-0.88 -0.83)"/><path class="cls-6" d="M133.9,101.42a2.72,2.72,0,0,1,1.25.72,2.8,2.8,0,0,1,.93,1.3,1.38,1.38,0,0,1-.4,1.48.88.88,0,0,1-1.29-.25c-.2-.46.4-1.06.82-.78a2.51,2.51,0,0,0-3.55-1.38,3.79,3.79,0,0,1-2.1,4.8l0,.5a21.83,21.83,0,0,1,6.31,1.74,9.53,9.53,0,0,1,4.6,4.5,4.54,4.54,0,0,1,.1,3.81,3.79,3.79,0,0,1-3.57,1.87,5.4,5.4,0,0,1-3.65-2,3.87,3.87,0,0,1-2.42,2,3,3,0,0,1-2.92-.89,4.85,4.85,0,0,1-.82-1.75,25.06,25.06,0,0,1-.76-3.54l-.53.35a2.4,2.4,0,0,1-.67,3.53l-.12-3.09-.89.33a1.54,1.54,0,0,1-.18,1.41.67.67,0,0,1-.34.28c-.33.1-.66-.24-.68-.59a1.69,1.69,0,0,1,.34-1,5.42,5.42,0,0,1-5.91-5.86,1.93,1.93,0,0,1-.93.37c-.34,0-.7-.26-.67-.6a.73.73,0,0,1,.44-.53,1.69,1.69,0,0,1,1.36-.06l.37-.93-3.24-.06a2.38,2.38,0,0,1,3.61-.64l.42-.66a25.89,25.89,0,0,1-3.79-.74,4.63,4.63,0,0,1-1.77-.78,2.94,2.94,0,0,1-.93-2.92,3.79,3.79,0,0,1,2-2.44,5.13,5.13,0,0,1-2.09-3.85,3.78,3.78,0,0,1,2.3-3.58,4.57,4.57,0,0,1,3.43.3,9.64,9.64,0,0,1,4.42,4.37,19.35,19.35,0,0,1,1.83,6l.65-.08a3.35,3.35,0,0,1,5-1.67,2.4,2.4,0,0,0-1.47-3.33.61.61,0,0,1-.54.87.79.79,0,0,1-.69-.87,1.1,1.1,0,0,1,.81-.86,1.81,1.81,0,0,1,1.23.14,3,3,0,0,1,1.15,4.35,7.32,7.32,0,0,1,1.09,1.27,3.73,3.73,0,0,1,2.49-.64Zm4.95,16.38a2.9,2.9,0,0,0,.7-1.37,3.4,3.4,0,0,0-.7-2.54,8.8,8.8,0,0,0-2-1.8,17.61,17.61,0,0,0-7.16-3.4c-.1,0-.24,0-.25.09a6.18,6.18,0,0,1-.75,2.12c-.08.14,0,.31.13.44a50.53,50.53,0,0,0,5.43,6,4.11,4.11,0,0,0,2.86,1.37,2.65,2.65,0,0,0,1.74-.9Zm-21.93-25a3,3,0,0,0-2.61.41,2.66,2.66,0,0,0-1.06,2.4,4.57,4.57,0,0,0,1.46,2.49,55.06,55.06,0,0,0,6.16,5.35.29.29,0,0,0,.12.07.33.33,0,0,0,.14,0l2.06-1a.26.26,0,0,0,.1-.07.32.32,0,0,0,0-.17,13.27,13.27,0,0,0-1.75-4.36A19.87,19.87,0,0,0,119,94.3a5.05,5.05,0,0,0-2-1.47Zm-3.5,8.88a2.07,2.07,0,0,0,.62,1.48,6.67,6.67,0,0,0,3.19,1.66q.87.25,1.74.48a.38.38,0,0,0,.15,0,.36.36,0,0,0,.14-.1l1.14-1.17a.18.18,0,0,0,0-.21.52.52,0,0,0-.17-.16,63.49,63.49,0,0,1-5.06-3.89c-.1-.08-.25,0-.36.06a4.29,4.29,0,0,0-.93.76,1.83,1.83,0,0,0-.47,1.08Zm14,13.35a6.54,6.54,0,0,0,1.66,3,2.09,2.09,0,0,0,1.52.59,1.9,1.9,0,0,0,1-.48,4.13,4.13,0,0,0,.72-.89c.09-.14.18-.33.07-.46a63.66,63.66,0,0,1-4-5c-.05-.07-.13-.14-.2-.11a.12.12,0,0,0-.05,0L127,113a.6.6,0,0,0-.09.13.42.42,0,0,0,0,.22c.15.57.32,1.14.5,1.7ZM121.6,105l-1.13,1.25c-.07.07-.14.21,0,.27a24.5,24.5,0,0,1,5.9,5.36c.06.08.19,0,.27-.06.28-.28.55-.56.82-.85a3.23,3.23,0,0,0,.53-.7.23.23,0,0,0,0-.14.24.24,0,0,0-.09-.16,28.1,28.1,0,0,0-5.44-4.9,1.33,1.33,0,0,0-.42-.19.46.46,0,0,0-.43.12Zm3.37,8a.09.09,0,0,0,.06-.07s0,0,0-.06a11.31,11.31,0,0,0-1.28-1.31c-1.35-1.23-2.73-2.42-4.13-3.59a.18.18,0,0,0-.09,0,.18.18,0,0,0-.09.08,3.74,3.74,0,0,0,.68,4.1,4.69,4.69,0,0,0,1.33.91,3.87,3.87,0,0,0,3.55,0Zm3.9-6.54a.79.79,0,0,0-.23-.34,41.37,41.37,0,0,0-3-2.88.4.4,0,0,0-.2-.11.41.41,0,0,0-.19,0,9.58,9.58,0,0,0-2.2.77c-.09,0-.2.12-.21.22a14.1,14.1,0,0,1,5.71,4.57,12.75,12.75,0,0,0,.36-1.94.61.61,0,0,0,0-.3Z" transform="translate(-0.88 -0.83)"/><path class="cls-6" d="M136.69,107.57a1.79,1.79,0,1,0,1.79-1.78,1.81,1.81,0,0,0-1.79,1.78Z" transform="translate(-0.88 -0.83)"/><path class="cls-6" d="M136.56,105.07a1.79,1.79,0,1,0,1.79-1.78,1.8,1.8,0,0,0-1.79,1.78Z" transform="translate(-0.88 -0.83)"/><path class="cls-6" d="M134.89,106.87a1.79,1.79,0,1,0,1.79-1.79,1.81,1.81,0,0,0-1.79,1.79Z" transform="translate(-0.88 -0.83)"/><path class="cls-6" d="M136,108.61a1.79,1.79,0,1,0,1.79-1.79,1.81,1.81,0,0,0-1.79,1.79Z" transform="translate(-0.88 -0.83)"/><path class="cls-6" d="M133.6,106.41a1.79,1.79,0,1,0,1.78-1.79,1.81,1.81,0,0,0-1.78,1.79Z" transform="translate(-0.88 -0.83)"/><path class="cls-6" d="M138.21,102.69A1.79,1.79,0,1,0,140,100.9a1.81,1.81,0,0,0-1.79,1.79Z" transform="translate(-0.88 -0.83)"/><path class="cls-6" d="M134.61,98.27a1.79,1.79,0,1,0,1.79-1.79,1.81,1.81,0,0,0-1.79,1.79Z" transform="translate(-0.88 -0.83)"/><path class="cls-6" d="M132.8,97.72a1.79,1.79,0,1,0,1.79-1.79,1.81,1.81,0,0,0-1.79,1.79Z" transform="translate(-0.88 -0.83)"/><path class="cls-6" d="M131.39,93.69a3.73,3.73,0,0,0,.14.8.56.56,0,0,0,.67.38.57.57,0,0,0,.38-.67c-.05-.17-.09-.34-.13-.52a.5.5,0,0,0-.16-.36.51.51,0,0,0-.37-.16.53.53,0,0,0-.53.53Zm1.07.08v0Z" transform="translate(-0.88 -0.83)"/><path class="cls-6" d="M130.44,90a1.39,1.39,0,0,0-.5,1.9l.17.24a1.46,1.46,0,0,0,.83.63,1.38,1.38,0,0,0,1.07-.13,1.4,1.4,0,0,0,.5-1.91l-.17-.24a1.49,1.49,0,0,0-.83-.63,1.12,1.12,0,0,0-.36-.05,1.35,1.35,0,0,0-.71.19Z" transform="translate(-0.88 -0.83)"/><path class="cls-6" d="M126.69,90.62a1.79,1.79,0,1,0,1.78-1.78,1.8,1.8,0,0,0-1.78,1.78Z" transform="translate(-0.88 -0.83)"/><path class="cls-6" d="M119.85,88a1.79,1.79,0,1,0,1.79-1.79A1.81,1.81,0,0,0,119.85,88Z" transform="translate(-0.88 -0.83)"/><path class="cls-6" d="M111.74,87.4a1.79,1.79,0,1,0,1.79-1.79,1.81,1.81,0,0,0-1.79,1.79Z" transform="translate(-0.88 -0.83)"/><path class="cls-6" d="M108.83,88.65a1.79,1.79,0,1,0,1.79-1.79,1.8,1.8,0,0,0-1.79,1.79Z" transform="translate(-0.88 -0.83)"/><path class="cls-6" d="M105,96.71a1.79,1.79,0,1,0,1.78-1.79A1.81,1.81,0,0,0,105,96.71Z" transform="translate(-0.88 -0.83)"/><path class="cls-6" d="M107,98.92a1.79,1.79,0,1,0,1.78-1.79A1.81,1.81,0,0,0,107,98.92Z" transform="translate(-0.88 -0.83)"/><path class="cls-6" d="M105.36,102.86a1.79,1.79,0,1,0,1.78-1.79,1.81,1.81,0,0,0-1.78,1.79Z" transform="translate(-0.88 -0.83)"/><path class="cls-6" d="M107.17,106.16a1.79,1.79,0,1,0,1.79-1.79,1.81,1.81,0,0,0-1.79,1.79Z" transform="translate(-0.88 -0.83)"/><path class="cls-6" d="M115.3,116.64a2.06,2.06,0,1,0,2.06-2,2.08,2.08,0,0,0-2.06,2Z" transform="translate(-0.88 -0.83)"/><path class="cls-6" d="M129.08,122.49a1.79,1.79,0,1,0,1.78-1.78,1.8,1.8,0,0,0-1.78,1.78Z" transform="translate(-0.88 -0.83)"/><path class="cls-6" d="M131.77,123.64a1.79,1.79,0,1,0,1.79-1.79,1.8,1.8,0,0,0-1.79,1.79Z" transform="translate(-0.88 -0.83)"/><path class="cls-6" d="M135.93,122.13a1.79,1.79,0,1,0,1.79-1.79,1.81,1.81,0,0,0-1.79,1.79Z" transform="translate(-0.88 -0.83)"/><path class="cls-6" d="M140.3,117.74a1.79,1.79,0,1,0,1.79-1.78,1.8,1.8,0,0,0-1.79,1.78Z" transform="translate(-0.88 -0.83)"/><path class="cls-6" d="M145.56,114.21a1.79,1.79,0,1,0,1.79-1.79,1.81,1.81,0,0,0-1.79,1.79Z" transform="translate(-0.88 -0.83)"/><path class="cls-6" d="M143.72,108.65a1.79,1.79,0,1,0,1.79-1.79,1.8,1.8,0,0,0-1.79,1.79Z" transform="translate(-0.88 -0.83)"/><path class="cls-6" d="M123.7,121.25a1.92,1.92,0,1,0,1.91-1.91,1.94,1.94,0,0,0-1.91,1.91Z" transform="translate(-0.88 -0.83)"/><path class="cls-6" d="M107.54,113.13a1.74,1.74,0,0,0-.81,2,3.12,3.12,0,0,0,.59,1c.11.13.23.25.35.37A1.79,1.79,0,0,0,110.2,114c-.19-.19-.35-.39-.53-.57a1.78,1.78,0,0,0-1.25-.51,1.74,1.74,0,0,0-.88.24Z" transform="translate(-0.88 -0.83)"/></g><g id="Layer_7" data-name="Layer 7"><path class="cls-7" d="M2.33,3.83a1.5,1.5,0,0,0,0-3,1.5,1.5,0,0,0,0,3Z" transform="translate(-0.88 -0.83)"/><path class="cls-7" d="M298,4a1.5,1.5,0,0,0,0-3,1.5,1.5,0,0,0,0,3Z" transform="translate(-0.88 -0.83)"/><path class="cls-7" d="M297.5,199.17a1.5,1.5,0,0,0,0-3,1.5,1.5,0,0,0,0,3Z" transform="translate(-0.88 -0.83)"/><path class="cls-7" d="M2.5,198.83a1.5,1.5,0,0,0,0-3,1.5,1.5,0,0,0,0,3Z" transform="translate(-0.88 -0.83)"/></g></svg>