<svg id="Layer_5" data-name="Layer 5" xmlns="http://www.w3.org/2000/svg" viewBox="0 0 146.69 146.68"><defs><style>.cls-1{fill:#2c2c2c;}.cls-2{fill:#e4ba00;}.cls-3{fill:#fff;}</style></defs><path class="cls-1" d="M46.93,7.66a74,74,0,0,0-9.67,4.85,76.66,76.66,0,0,0-8.77,6.2,73.32,73.32,0,0,0,17.29,124A72.75,72.75,0,0,0,75,148.75h0a74.79,74.79,0,0,0,21.73-3.27,73.52,73.52,0,0,0,45.7-41.26A77.14,77.14,0,0,0,146,93.87a76,76,0,0,0,2-11,73.31,73.31,0,0,0-101-75.22ZM84.32,9a70.84,70.84,0,0,1,16.83,4.67A71,71,0,0,1,116,22.41a72.34,72.34,0,0,1,12.07,12.1,71.88,71.88,0,0,1,8.8,15.15,71.3,71.3,0,0,1,4.53,16.79,71.64,71.64,0,0,1,0,17.92,70.81,70.81,0,0,1-4.57,16.87A71.46,71.46,0,0,1,128,116.48a72,72,0,0,1-11.72,11.75,71.22,71.22,0,0,1-15.44,9.06A70.73,70.73,0,0,1,84,141.86a70.94,70.94,0,0,1-18,0,71.15,71.15,0,0,1-16.77-4.53,71.79,71.79,0,0,1-15.38-9A72.5,72.5,0,0,1,22,116.47a71.35,71.35,0,0,1-8.74-14.89A70.71,70.71,0,0,1,8.57,84.75a72.1,72.1,0,0,1,0-18.68,71.12,71.12,0,0,1,4.61-16.7,72,72,0,0,1,8.66-14.84A72.93,72.93,0,0,1,34.1,22.27a72,72,0,0,1,14.84-8.66A71.12,71.12,0,0,1,65.64,9,72.55,72.55,0,0,1,84.32,9Zm16.27,4.43.34.14-.34-.14Zm-51.23,0-.29.12.29-.12ZM127.74,34l.27.35-.27-.35ZM13.12,49.5l-.12.29.12-.29ZM8.56,66.15c0,.16,0,.31-.07.47,0-.16,0-.31.07-.47Zm-.07,18,.06.39-.06-.39ZM13,101l.14.33c-.05-.11-.1-.22-.14-.33Zm115.24,15.11-.15.18.15-.18ZM116,128.48l-.24.19.24-.19Z" transform="translate(-1.63 -2.07)"/><path class="cls-1" d="M75.61,13.39A63.15,63.15,0,0,0,61.4,15a61.68,61.68,0,0,0-19.22,8A62.73,62.73,0,0,0,26.86,36.72a64.38,64.38,0,0,0-5.77,8.5,62.56,62.56,0,0,0,20.74,83.35A61.82,61.82,0,0,0,61,136.74a63.3,63.3,0,0,0,14.58,1.72,64.49,64.49,0,0,0,10.8-.94,61.39,61.39,0,0,0,10.3-2.72,63.09,63.09,0,0,0,9.43-4.3,64,64,0,0,0,8.52-5.74,62.78,62.78,0,0,0,13.71-15.27,61.73,61.73,0,0,0,8.11-19.19,62.47,62.47,0,0,0,1.25-21.63,63.36,63.36,0,0,0-2.12-10.42,62.74,62.74,0,0,0-32.43-38.46A63.31,63.31,0,0,0,93.44,16,62.2,62.2,0,0,0,83,13.84a61.12,61.12,0,0,0-7.43-.45Z" transform="translate(-1.63 -2.07)"/><path class="cls-2" d="M69.25,53.29a1.16,1.16,0,1,0,1.16-1.16,1.17,1.17,0,0,0-1.16,1.16Z" transform="translate(-1.63 -2.07)"/><path class="cls-2" d="M71.72,47.11a4,4,0,0,0-1.25.48,5,5,0,0,0-1.73,1.71,3.94,3.94,0,0,0-.44.84l-.07.06a3.56,3.56,0,0,0-.85,1.56,9.2,9.2,0,0,0-.28,2.77,6.38,6.38,0,0,0,.66,2.78,6,6,0,0,0,2.17,2.09c.33.27.65.54,1,.79a2.19,2.19,0,0,0,.4.21,8,8,0,0,0,1,.43,6.31,6.31,0,0,0,4.22-.59A4.83,4.83,0,0,0,79,57a14.79,14.79,0,0,0,.31-2.58,5.57,5.57,0,0,0-.19-2.07,10.73,10.73,0,0,0-.92-2.05,7,7,0,0,0-2.07-2.1l.58.45-.44-.37a5.05,5.05,0,0,0-1.79-1.08A4.51,4.51,0,0,0,73,47a8.18,8.18,0,0,0-1.31.12Z" transform="translate(-1.63 -2.07)"/><path class="cls-3" d="M76.89,29a4.82,4.82,0,0,0-4.28,1.89,7,7,0,0,0-1,3.77l-.3,4-.21,3A30.74,30.74,0,0,0,70.23,36a5.35,5.35,0,0,0-.81-2.1,3.72,3.72,0,0,0-2.93-1.2,6.65,6.65,0,0,0-1.84.3,7.74,7.74,0,0,0-5.39,4.08,5,5,0,0,0,.26,4.6,2.76,2.76,0,0,0-1.65-.46,6,6,0,0,0-4.1,1.65c-1.72,1.72-2.6,4.31-2.68,7.91A3.71,3.71,0,0,0,51.53,53c.68,1.13,1.91,1.26,3.2,1.41a12.42,12.42,0,0,1,1.46.19h0a6.31,6.31,0,0,0-4.1,11.19,5.67,5.67,0,0,0,2.23,1.1,5.33,5.33,0,0,0,1.08.14,8.38,8.38,0,0,0,3.39-.91,5.2,5.2,0,0,0-1.7,4.72,7.67,7.67,0,0,0,4.34,5.54,7,7,0,0,0,3.22.85,4.85,4.85,0,0,0,2.47-.67,6.71,6.71,0,0,0,2.8-4,5.43,5.43,0,0,0,1.16,4,6.59,6.59,0,0,0,5,2.39l.64,0c.3,5.87.36,11.51.17,16.72h-.12A34.69,34.69,0,0,0,64.54,98c-1.54.55-3.22,1.32-4,2.87a7,7,0,0,0-.6,2.77c-.17,2.82-.07,5.64,1.79,7.26s2.61,4.09,3.28,6.51c.75,2.61,1.51,5.3,3.6,6.93a11.89,11.89,0,0,0,4.86,1.83,35.41,35.41,0,0,0,5,.4,30.25,30.25,0,0,0,8.1-1.11c2.83-.73,4.32-3.72,5.07-6.1.18-.56.34-1.14.5-1.71a14.81,14.81,0,0,1,2.51-5.72c2.46-3,4-7.45,2-10.83-1.1-1.84-3.13-3.17-6.21-4.07a26.42,26.42,0,0,0-6-1.11,1,1,0,0,0,.25-.07,24.41,24.41,0,0,0,3.9-1.53,35.42,35.42,0,0,0,19.23-23.22l-.48-.14c-.7.06-1.48.18-2.53.37A34.75,34.75,0,0,0,88.3,79.82,33.75,33.75,0,0,0,81,89.45l0-.47L81,87.61l-.32-3.09-.56-5.38c-.07-.65-.07-1.3.34-1.6a5.23,5.23,0,0,0,1.89-4.89A4.19,4.19,0,0,0,85.23,74a6.68,6.68,0,0,0,4.22-1.65c2.6-2.09,4.21-6.13,2.48-9.33a.43.43,0,0,0,.4.2c2.14,0,3.92-2.14,4.57-4.26a7.39,7.39,0,0,0-.36-5.91,4.87,4.87,0,0,0-3.46-2.41l.15-.07a6.22,6.22,0,0,0,3.09-3.71,9,9,0,0,0-.75-6.7,7,7,0,0,0-4.58-4,5.67,5.67,0,0,0-.9-.08c-2.86,0-5.28,2.48-7.07,4.65l.68-1.32.48-1c1-2,1.87-3.77,1.19-5.57s-2.94-2.76-4.78-3.27a12.86,12.86,0,0,0-3.7-.63ZM73.28,59.61v0a5.69,5.69,0,0,1-5.13-4c0-.18-.09-.45-.12-.71s0-.43,0-.64a5.32,5.32,0,1,1,10.6.91,5.06,5.06,0,0,1-.69,2,4.81,4.81,0,0,1-1.31,1.36,5.53,5.53,0,0,1-2.39.87,5.84,5.84,0,0,1-.93.08l0,.14ZM83.91,96.89c-.58-.07-1.14-.11-1.68-.15a1,1,0,0,1-.65-.22l.32,0,2,.33Zm-12,10.43-.19,0-.25,0-.27,0-.27,0-.37,0-.37,0-.54-.11-.47-.08a5.4,5.4,0,0,0-.65-.12,22.07,22.07,0,0,1-4.85-1.7,6,6,0,0,1-1.84-1.34,2.23,2.23,0,0,1-.61-2,2.94,2.94,0,0,1,1-1.41,12.49,12.49,0,0,1,5-2.38,43.6,43.6,0,0,1,7.91-1.35c-3.53.41-7.18.86-10.3,2.84a4,4,0,0,0-1.23,1.12,3.21,3.21,0,0,0,.6,3.84,7.92,7.92,0,0,0,3.55,1.82,40.19,40.19,0,0,0,4.2,1Zm10.22.45a37.36,37.36,0,0,0,7.6-1.52,7.86,7.86,0,0,0,3.53-1.82,3.18,3.18,0,0,0,.55-3.83,3.28,3.28,0,0,0-1.24-1.09,17.26,17.26,0,0,0-5.84-2.21c1,.13,1.81.27,2.55.44a18.44,18.44,0,0,1,4.85,1.94c1.3.8,2,1.6,2,2.46.08,1.32-1.24,2.31-2.36,2.91a28.8,28.8,0,0,1-11.64,2.72Zm2.65-9.31,0-.15.22.11a6.39,6.39,0,0,1,.68,0h.16a.43.43,0,0,0-.31.24c-.15-.14-.24-.2-.34-.2a1.73,1.73,0,0,1-.37,0Zm-11.88.08-.27-.05c-.29,0-.48,0-.55-.11l.25,0,.19,0,.38.08Zm-2.44.35h0l.21-.18a.2.2,0,0,0,0,.21l-.75,0-.28-.19.19,0a2.84,2.84,0,0,1,.6.06l0,0Zm17.79.39a1.17,1.17,0,0,0,.48-.12c0,.13.1.15.17.15a.5.5,0,0,0,.27-.11l.21.14h-.18a1,1,0,0,0-.09.31.31.31,0,0,0-.34-.25c0-.07,0-.13-.12-.13l-.22.14a1,1,0,0,1-.26-.15Zm-19.69.08h0a.68.68,0,0,0,.36-.11s0,.1,0,.16l-.26,0-.52-.12-.21,0h.32l.29,0Zm24.24,2.06-.82-.65a.69.69,0,0,0-.11-.13l-.33-.17-.93-.35c.15,0,.17-.11.15-.2a1.17,1.17,0,0,0-.28-.23,7.74,7.74,0,0,1,2.32,1.73Zm-28.43.17a5.58,5.58,0,0,1,1.32-1.19l.19-.11.07.22-.32.22a1.16,1.16,0,0,0-.47.2,4.32,4.32,0,0,0-.49.36,1.4,1.4,0,0,1-.3.3ZM75,107.75l-1.43-.11-.61-.13-.26,0-.12,0c.8.14,1.61.24,2.42.32Z" transform="translate(-1.63 -2.07)"/><path class="cls-3" d="M71.58,98l-.08,0,0,0-.28-.1c-.21,0-.44-.08-.66-.11a2,2,0,0,0-.87.16,4.8,4.8,0,0,1-.76.24h-.17a2.29,2.29,0,0,0-.78.06,2.75,2.75,0,0,0-.71.3,2.36,2.36,0,0,0-.7.63v0l-.15.19h0c-.2.11-.41.2-.6.31a5.84,5.84,0,0,0-.64.47.74.74,0,0,0-.13.12,1.7,1.7,0,0,0-.41.15A1.82,1.82,0,0,0,64,101a1.9,1.9,0,0,0,0,1.82,1.5,1.5,0,0,0,.55.54,1.53,1.53,0,0,0,.75.2,1.1,1.1,0,0,0,.67-.16,1.14,1.14,0,0,0,.46-.31,1.41,1.41,0,0,0,.34-.59,1.09,1.09,0,0,0,0-.26l.12-.09a3.84,3.84,0,0,1,.53-.28l-.33.14.48-.21.58-.24c.43-.16.88-.28,1.32-.41.22-.06.44-.15.67-.21l.38-.13.25-.11h.17a2.28,2.28,0,0,0,1-.26,3.22,3.22,0,0,0,.7-.45l.36,0h0c.15.07.3.11.45.17a2.16,2.16,0,0,0,.41.13,4,4,0,0,0,.49,0,1.33,1.33,0,0,0,.59-.12c.16-.06.3-.15.45-.22h0a4.46,4.46,0,0,1,.73,0l.34.08c.2.11.37.25.56.38a.38.38,0,0,0,.53-.14.39.39,0,0,0-.14-.54,6,6,0,0,0-.58-.4,2.27,2.27,0,0,0-.62-.16c-.3,0-.59,0-.89,0h0a2.1,2.1,0,0,0-.56,0l.13,0a1.41,1.41,0,0,1-.29,0l-.22-.07L74.45,99c0-.05-.09-.11-.14-.17l-.18-.15a1.15,1.15,0,0,0-.24-.35,1.17,1.17,0,0,0-.27-.2l-.09-.07a.53.53,0,0,0-.1-.12,1.26,1.26,0,0,0-.92-.4,1.34,1.34,0,0,0-.93.38Zm1.69-.06.08.06-.08-.06Zm.89.87h0a1.11,1.11,0,0,1,.07.16c0-.06,0-.12-.07-.17Zm.57.41h0ZM73,99.9h0Zm0,0Zm0,0ZM73,100l-.17,0,.17,0Zm-.18,0h0Zm-.29,0h0Zm3.79,0h0Zm-11.72,1.65h0s0,0,0,0l0,0Zm0,0,0,.27,0-.27Zm1.72,1.5-.2.16h0l-.06,0a2,2,0,0,0,.25-.18Z" transform="translate(-1.63 -2.07)"/><path d="M79.85,53.58a2.24,2.24,0,0,1,.89-.75A2.31,2.31,0,0,1,82,52.48a1.1,1.1,0,0,1,1,.71.7.7,0,0,1-.54.91c-.41,0-.7-.59-.37-.83a2,2,0,0,0-2,2.31,3.07,3.07,0,0,1,3.07,2.92l.37.15a17.48,17.48,0,0,1,3.06-4.31,7.65,7.65,0,0,1,4.68-2.26,3.62,3.62,0,0,1,2.92,1,3.06,3.06,0,0,1,.44,3.23,4.4,4.4,0,0,1-2.51,2.22,3.14,3.14,0,0,1,.84,2.38,2.41,2.41,0,0,1-1.48,2A3.85,3.85,0,0,1,89.9,63a20,20,0,0,1-2.9-.4l.12.51a1.92,1.92,0,0,1,2.49,1.47l-2.38-.76v.77a1.25,1.25,0,0,1,1,.52.49.49,0,0,1,.12.34c0,.28-.36.43-.63.35a1.42,1.42,0,0,1-.63-.51A4.39,4.39,0,0,1,81,68.16a1.49,1.49,0,0,1,0,.81.51.51,0,0,1-.64.34.6.6,0,0,1-.28-.47,1.34,1.34,0,0,1,.33-1l-.6-.54-.94,2.44a1.92,1.92,0,0,1,.51-2.92l-.39-.5A21.31,21.31,0,0,1,77.46,69a3.79,3.79,0,0,1-1.09,1.13A2.37,2.37,0,0,1,73.9,70a3.07,3.07,0,0,1-1.31-2.16,4.11,4.11,0,0,1-3.5.52A3,3,0,0,1,67,65.62a3.69,3.69,0,0,1,1.16-2.53,7.79,7.79,0,0,1,4.54-2.15,15.5,15.5,0,0,1,5.08.26l.12-.51A2.72,2.72,0,0,1,78,56.42a1.92,1.92,0,0,0-2.93.2.49.49,0,0,1,.51.64.63.63,0,0,1-.85.29.88.88,0,0,1-.43-.85,1.51,1.51,0,0,1,.44-.89,2.44,2.44,0,0,1,3.63.32,5.65,5.65,0,0,1,1.26-.48,3,3,0,0,1,.2-2.07Zm13.8.75a2.33,2.33,0,0,0-.85-.91,2.74,2.74,0,0,0-2.12-.17,7.09,7.09,0,0,0-1.92,1,14.28,14.28,0,0,0-4.55,4.5c0,.07-.07.18,0,.22a5.2,5.2,0,0,1,1.41,1.15c.08.1.24.07.36,0a40.76,40.76,0,0,0,6-2.48,3.3,3.3,0,0,0,1.83-1.8,2.12,2.12,0,0,0-.2-1.56Zm-25,9.78a2.4,2.4,0,0,0-.41,2.1,2.16,2.16,0,0,0,1.53,1.47,3.71,3.71,0,0,0,2.29-.43A42.7,42.7,0,0,0,77.83,64s.07,0,.08-.07a.25.25,0,0,0,0-.12L77.76,62a.29.29,0,0,0,0-.1.2.2,0,0,0-.13-.06,10.53,10.53,0,0,0-3.79.13,16.1,16.1,0,0,0-3.47,1,4,4,0,0,0-1.68,1.15Zm5.77,5.11a1.73,1.73,0,0,0,1.3-.07,5.44,5.44,0,0,0,2.14-2c.29-.4.57-.79.84-1.2a.22.22,0,0,0,.05-.11.28.28,0,0,0,0-.13l-.57-1.19A.16.16,0,0,0,78,64.5a.48.48,0,0,0-.16.08q-2.11,1.5-4.35,2.77c-.09.06-.08.19-.06.3a3.67,3.67,0,0,0,.33.91,1.55,1.55,0,0,0,.68.66Zm14-7a5.27,5.27,0,0,0,2.7-.44,1.7,1.7,0,0,0,.86-1,1.5,1.5,0,0,0-.08-.91,3.44,3.44,0,0,0-.47-.78c-.09-.11-.21-.23-.34-.18-1.6.63-3.23,1.17-4.89,1.64-.06,0-.14.06-.13.13s0,0,0,0L86.76,62a.35.35,0,0,0,.08.1.42.42,0,0,0,.17,0c.47,0,.95.07,1.43.08Zm-9.29,1.67.64,1.21c0,.07.13.16.19.11a19.61,19.61,0,0,1,5.7-3c.08,0,.06-.14,0-.22-.13-.29-.27-.57-.42-.86a2.59,2.59,0,0,0-.38-.59.23.23,0,0,0-.1-.07.22.22,0,0,0-.14,0,22.54,22.54,0,0,0-5.22,2.78,1.34,1.34,0,0,0-.26.27.39.39,0,0,0,0,.35Zm7-.35a.06.06,0,0,0,0-.06h0a9.68,9.68,0,0,0-1.35.62c-1.3.68-2.59,1.4-3.85,2.14,0,0-.06,0-.06.07s0,.06,0,.08a3,3,0,0,0,3.29.61,3.62,3.62,0,0,0,1.06-.76,3.12,3.12,0,0,0,1-2.7Zm-3.9-4.76a.68.68,0,0,0-.31.08c-1,.46-2,1-3,1.52a.39.39,0,0,0-.14.12.37.37,0,0,0,0,.15,7.88,7.88,0,0,0,0,1.88c0,.08,0,.19.11.22a11.37,11.37,0,0,1,5-3.08,12.63,12.63,0,0,0-1.37-.81.68.68,0,0,0-.24-.08Z" transform="translate(-1.63 -2.07)"/><path class="cls-2" d="M80.36,51.66a.4.4,0,0,0,.79,0,.4.4,0,1,0-.79,0Z" transform="translate(-1.63 -2.07)"/><path class="cls-2" d="M82.07,51.1a.4.4,0,1,0,.79,0,.4.4,0,0,0-.79,0Z" transform="translate(-1.63 -2.07)"/><path class="cls-2" d="M82,54.33a.4.4,0,1,0,.79,0,.4.4,0,0,0-.79,0Z" transform="translate(-1.63 -2.07)"/><path class="cls-2" d="M83.86,54.11a.4.4,0,0,0,.4.4.4.4,0,0,0,0-.79.4.4,0,0,0-.4.39Z" transform="translate(-1.63 -2.07)"/><path class="cls-2" d="M79.59,52a.4.4,0,1,0,.4-.4.4.4,0,0,0-.4.4Z" transform="translate(-1.63 -2.07)"/><path class="cls-2" d="M80.48,54.84a.38.38,0,0,0,.39.39.39.39,0,0,0,.4-.39.4.4,0,0,0-.4-.4.39.39,0,0,0-.39.4Z" transform="translate(-1.63 -2.07)"/><path class="cls-2" d="M78.75,54.42a.4.4,0,1,0,.39-.39.4.4,0,0,0-.39.39Z" transform="translate(-1.63 -2.07)"/><path class="cls-2" d="M77.59,54.78a.4.4,0,0,0,.79,0,.4.4,0,1,0-.79,0Z" transform="translate(-1.63 -2.07)"/><path class="cls-2" d="M80.65,69.33a.4.4,0,0,0,.79,0,.4.4,0,1,0-.79,0Z" transform="translate(-1.63 -2.07)"/><path class="cls-2" d="M79.6,69a.4.4,0,1,0,.4-.4.4.4,0,0,0-.4.4Z" transform="translate(-1.63 -2.07)"/><path class="cls-2" d="M79.05,67a.4.4,0,1,0,.4-.4.4.4,0,0,0-.4.4Z" transform="translate(-1.63 -2.07)"/><path class="cls-2" d="M77.87,68.18a.4.4,0,0,0,.4.39.4.4,0,0,0,0-.79.4.4,0,0,0-.4.4Z" transform="translate(-1.63 -2.07)"/><path class="cls-2" d="M78.91,69.17a.39.39,0,0,0,.39.39.4.4,0,1,0,0-.79.39.39,0,0,0-.39.4Z" transform="translate(-1.63 -2.07)"/><path class="cls-2" d="M87.05,65.82a.4.4,0,1,0,.79,0,.4.4,0,0,0-.79,0Z" transform="translate(-1.63 -2.07)"/><path class="cls-2" d="M87.3,64.79a.4.4,0,1,0,.79,0,.4.4,0,0,0-.79,0Z" transform="translate(-1.63 -2.07)"/><path class="cls-2" d="M88.38,65.44a.4.4,0,1,0,.79,0,.4.4,0,0,0-.79,0Z" transform="translate(-1.63 -2.07)"/><path class="cls-2" d="M89.37,63.21a.4.4,0,1,0,.39-.39.4.4,0,0,0-.39.39Z" transform="translate(-1.63 -2.07)"/><path class="cls-2" d="M87.44,62.58a.4.4,0,1,0,.79,0,.4.4,0,0,0-.79,0Z" transform="translate(-1.63 -2.07)"/><path class="cls-2" d="M87.38,64.06a.4.4,0,0,0,.79,0,.4.4,0,1,0-.79,0Z" transform="translate(-1.63 -2.07)"/><path class="cls-2" d="M89.35,54.23a.4.4,0,1,0,.4-.4.4.4,0,0,0-.4.4Z" transform="translate(-1.63 -2.07)"/><path class="cls-2" d="M91.81,54.84a.38.38,0,0,0,.39.39.39.39,0,0,0,.4-.39.4.4,0,0,0-.4-.4.39.39,0,0,0-.39.4Z" transform="translate(-1.63 -2.07)"/><path class="cls-2" d="M90.38,57.24a.4.4,0,1,0,.4-.4.4.4,0,0,0-.4.4Z" transform="translate(-1.63 -2.07)"/><path class="cls-2" d="M91,60.3a.4.4,0,0,0,.79,0,.4.4,0,1,0-.79,0Z" transform="translate(-1.63 -2.07)"/><path class="cls-2" d="M90.85,62.06a.39.39,0,0,0,.39.4.4.4,0,1,0,0-.79.39.39,0,0,0-.39.39Z" transform="translate(-1.63 -2.07)"/><path class="cls-2" d="M72.09,62a.4.4,0,1,0,.39-.39.4.4,0,0,0-.39.39Z" transform="translate(-1.63 -2.07)"/><path class="cls-2" d="M70,63a.4.4,0,1,0,.4-.4.4.4,0,0,0-.4.4Z" transform="translate(-1.63 -2.07)"/><path class="cls-2" d="M70.07,63.08a.4.4,0,0,0,.79,0,.4.4,0,1,0-.79,0Z" transform="translate(-1.63 -2.07)"/><path class="cls-2" d="M71.47,64.7a.4.4,0,0,0,.79,0,.4.4,0,1,0-.79,0Z" transform="translate(-1.63 -2.07)"/><path class="cls-2" d="M70.2,66.54a.4.4,0,1,0,.4-.4.4.4,0,0,0-.4.4Z" transform="translate(-1.63 -2.07)"/><path class="cls-2" d="M68.64,65.05a.4.4,0,1,0,.4-.4.4.4,0,0,0-.4.4Z" transform="translate(-1.63 -2.07)"/><path class="cls-2" d="M72.45,66.56a.4.4,0,1,0,.79,0,.4.4,0,0,0-.79,0Z" transform="translate(-1.63 -2.07)"/><path class="cls-2" d="M75,66.37a.4.4,0,0,0,.79,0,.4.4,0,1,0-.79,0Z" transform="translate(-1.63 -2.07)"/><path class="cls-2" d="M75.67,68.51a.4.4,0,0,0,.79,0,.4.4,0,1,0-.79,0Z" transform="translate(-1.63 -2.07)"/></svg>