<svg xmlns="http://www.w3.org/2000/svg" viewBox="0 0 299.06 198.5"><defs><style>.cls-1{fill:#f2f2f2;}.cls-2{fill:#2c2c2c;}.cls-3{fill:#e4ba00;}.cls-4{fill:#fff;}</style></defs><g id="dots"><path class="cls-1" d="M2.5,4a1.5,1.5,0,0,0,0-3,1.5,1.5,0,0,0,0,3Z" transform="translate(-0.72 -0.83)"/><path class="cls-1" d="M2.17,199.17a1.5,1.5,0,0,0,0-3,1.5,1.5,0,0,0,0,3Z" transform="translate(-0.72 -0.83)"/><path class="cls-1" d="M298.33,199.33a1.5,1.5,0,0,0,0-3,1.5,1.5,0,0,0,0,3Z" transform="translate(-0.72 -0.83)"/><path class="cls-1" d="M298.17,3.83a1.5,1.5,0,0,0,0-3,1.5,1.5,0,0,0,0,3Z" transform="translate(-0.72 -0.83)"/></g><g id="flower"><path class="cls-2" d="M121.72,32a74.53,74.53,0,0,0-9.66,4.85,75.44,75.44,0,0,0-8.77,6.2,73.37,73.37,0,0,0,31.35,128.47,74.55,74.55,0,0,0,15.12,1.57h0a74.48,74.48,0,0,0,21.74-3.28,73.43,73.43,0,0,0,45.7-41.26,70.53,70.53,0,0,0,5.52-21.33A73.32,73.32,0,0,0,121.72,32Zm37.4,1.34a66.6,66.6,0,0,1,31.71,13.41,72.34,72.34,0,0,1,12.07,12.1A71.88,71.88,0,0,1,211.7,74a71.35,71.35,0,0,1,4.53,16.78,71.72,71.72,0,0,1,0,17.93,70.93,70.93,0,0,1-4.57,16.87,71.75,71.75,0,0,1-8.9,15.24,67.43,67.43,0,0,1-27.15,20.81,71.2,71.2,0,0,1-16.86,4.57,71,71,0,0,1-18,0,66.68,66.68,0,0,1-32.14-13.51A72.17,72.17,0,0,1,96.78,140.8,71.5,71.5,0,0,1,88,125.92a71.29,71.29,0,0,1-4.66-16.83,72.1,72.1,0,0,1,0-18.68A71.12,71.12,0,0,1,88,73.71a71.54,71.54,0,0,1,8.66-14.84A67.3,67.3,0,0,1,123.74,38a71.12,71.12,0,0,1,16.7-4.61,72.1,72.1,0,0,1,18.68,0Zm16.27,4.42.34.15-.34-.15Zm-51.23,0-.29.13.29-.13Zm78.38,20.62.27.35-.27-.35ZM87.92,73.84c0,.1-.08.19-.13.29,0-.1.09-.19.13-.29ZM83.36,90.49c0,.16,0,.31-.07.47,0-.16,0-.31.07-.47Zm-.07,18,.06.39-.06-.39Zm4.5,16.83.15.34-.15-.34ZM203,140.47l-.15.19.15-.19Zm-12.29,12.35-.25.19.25-.19Z" transform="translate(-0.72 -0.83)"/><path class="cls-2" d="M150.41,37.72a63.16,63.16,0,0,0-14.21,1.63,62,62,0,0,0-19.23,8A62.92,62.92,0,0,0,95.89,69.56a62.43,62.43,0,0,0,5.51,69.58,62.9,62.9,0,0,0,15.23,13.77,61.82,61.82,0,0,0,19.15,8.17,63.08,63.08,0,0,0,25.38.78,61.39,61.39,0,0,0,10.3-2.72,63.09,63.09,0,0,0,9.43-4.3,64,64,0,0,0,8.52-5.75,62.41,62.41,0,0,0,13.71-15.27,61.68,61.68,0,0,0,8.11-19.18A62.52,62.52,0,0,0,212.48,93a64.29,64.29,0,0,0-2.12-10.41,62.45,62.45,0,0,0-15.71-26.46,62.39,62.39,0,0,0-16.72-12,62.53,62.53,0,0,0-27.52-6.41Z" transform="translate(-0.72 -0.83)"/><path class="cls-3" d="M144.05,77.62a1.16,1.16,0,0,0,2.32,0,1.16,1.16,0,1,0-2.32,0Z" transform="translate(-0.72 -0.83)"/><path class="cls-3" d="M146.52,71.44a4.62,4.62,0,0,0-1.25.48,5,5,0,0,0-1.73,1.72,3.94,3.94,0,0,0-.44.84l-.07.06a3.56,3.56,0,0,0-.85,1.56,9.2,9.2,0,0,0-.28,2.77,6.38,6.38,0,0,0,.66,2.78,6,6,0,0,0,2.17,2.09c.33.27.65.54,1,.79a2.19,2.19,0,0,0,.4.21,8,8,0,0,0,1.05.43,6.25,6.25,0,0,0,4.22-.6,4.82,4.82,0,0,0,2.44-3.2,14.9,14.9,0,0,0,.31-2.58,5.55,5.55,0,0,0-.19-2.07,10.73,10.73,0,0,0-.92-2,7,7,0,0,0-2.07-2.1l.58.45c-.15-.12-.3-.24-.44-.37a5.05,5.05,0,0,0-1.79-1.08,4.27,4.27,0,0,0-1.49-.24,9.51,9.51,0,0,0-1.31.11Z" transform="translate(-0.72 -0.83)"/><path class="cls-4" d="M151.69,53.34a4.82,4.82,0,0,0-4.28,1.89,7,7,0,0,0-1,3.77l-.3,4L145.89,66a31.91,31.91,0,0,0-.86-5.61,5.53,5.53,0,0,0-.81-2.09,3.74,3.74,0,0,0-2.94-1.2,6.24,6.24,0,0,0-1.83.3,7.74,7.74,0,0,0-5.39,4.08,5,5,0,0,0,.26,4.6,2.77,2.77,0,0,0-1.65-.47,6,6,0,0,0-4.1,1.66c-1.72,1.72-2.6,4.31-2.68,7.9a3.74,3.74,0,0,0,.44,2.2c.68,1.13,1.91,1.26,3.2,1.4.47.05,1,.1,1.46.2h0a6.31,6.31,0,0,0-4.1,11.19,5.7,5.7,0,0,0,2.22,1.1,5.5,5.5,0,0,0,1.09.14,8.38,8.38,0,0,0,3.39-.91,5.2,5.2,0,0,0-1.7,4.72,7.67,7.67,0,0,0,4.34,5.54,7,7,0,0,0,3.22.85,4.79,4.79,0,0,0,2.47-.68,6.65,6.65,0,0,0,2.8-4,5.44,5.44,0,0,0,1.16,4.06,6.62,6.62,0,0,0,5,2.39l.64,0c.3,5.87.36,11.5.17,16.72h-.12a34.47,34.47,0,0,0-12.21,2.31c-1.54.55-3.22,1.32-4,2.86a7.09,7.09,0,0,0-.6,2.78c-.17,2.81-.08,5.64,1.79,7.26s2.6,4.09,3.28,6.51c.74,2.61,1.51,5.3,3.6,6.93a11.9,11.9,0,0,0,4.85,1.83,37.21,37.21,0,0,0,5,.4,30.25,30.25,0,0,0,8.1-1.11c2.83-.73,4.32-3.72,5.07-6.1.18-.57.34-1.14.5-1.71a14.81,14.81,0,0,1,2.51-5.72c2.46-3,4-7.45,2-10.83-1.1-1.84-3.13-3.17-6.21-4.07a26,26,0,0,0-6-1.11,1,1,0,0,0,.25-.07,23.91,23.91,0,0,0,3.9-1.54,35.36,35.36,0,0,0,19.22-23.21l-.47-.14c-.7.06-1.48.18-2.53.36a34.77,34.77,0,0,0-16.48,8.55,33.75,33.75,0,0,0-7.27,9.63l0-.47-.12-1.37-.31-3.09-.56-5.38c-.07-.65-.07-1.3.34-1.61A5.23,5.23,0,0,0,157.1,97,4.17,4.17,0,0,0,160,98.37a6.7,6.7,0,0,0,4.22-1.65c2.6-2.09,4.21-6.13,2.48-9.33a.44.44,0,0,0,.4.2c2.14,0,3.92-2.14,4.57-4.26a7.42,7.42,0,0,0-.36-5.92,4.85,4.85,0,0,0-3.46-2.4l.15-.07a6.24,6.24,0,0,0,3.09-3.71,9,9,0,0,0-.75-6.7,7,7,0,0,0-4.58-4,5.67,5.67,0,0,0-.9-.08c-2.87,0-5.28,2.48-7.07,4.64l.68-1.32.48-1c1-2,1.87-3.77,1.19-5.57s-2.94-2.76-4.78-3.27a12.86,12.86,0,0,0-3.7-.63Zm-3.61,30.6h0a5.7,5.7,0,0,1-5.12-4c0-.18-.09-.45-.12-.71s0-.43,0-.64a5.54,5.54,0,0,1,3-4.56,5.7,5.7,0,0,1,2.31-.46,5.21,5.21,0,0,1,5.31,5.93,5.06,5.06,0,0,1-.69,2,4.81,4.81,0,0,1-1.31,1.36,5.4,5.4,0,0,1-2.39.86,5.87,5.87,0,0,1-.94.09l0,.13Zm10.63,37.28c-.58-.06-1.14-.1-1.68-.14a1,1,0,0,1-.65-.22l.32,0c.68.13,1.35.23,2,.33Zm-12,10.43-.19,0-.25,0-.27,0-.27,0-.37,0-.38,0-.53-.11-.47-.08a4,4,0,0,0-.65-.12,22.07,22.07,0,0,1-4.85-1.7,5.87,5.87,0,0,1-1.84-1.34,2.23,2.23,0,0,1-.61-2,2.94,2.94,0,0,1,1-1.41,12.49,12.49,0,0,1,4.95-2.38,42.75,42.75,0,0,1,7.91-1.35c-3.54.41-7.18.86-10.3,2.84a4,4,0,0,0-1.23,1.12,3.21,3.21,0,0,0,.6,3.84,7.77,7.77,0,0,0,3.54,1.81,36.38,36.38,0,0,0,4.21,1Zm10.22.46a37.36,37.36,0,0,0,7.6-1.52,8,8,0,0,0,3.53-1.82,3.18,3.18,0,0,0,.55-3.83,3.24,3.24,0,0,0-1.25-1.09,17.12,17.12,0,0,0-5.83-2.21c1,.13,1.81.27,2.55.44a18.44,18.44,0,0,1,4.85,1.94c1.3.8,2,1.6,2,2.46.08,1.32-1.24,2.31-2.37,2.91a28.71,28.71,0,0,1-11.63,2.72Zm2.65-9.31,0-.15.22.11a6.39,6.39,0,0,1,.68,0h.16a.44.44,0,0,0-.32.24c-.14-.14-.23-.2-.33-.2a1.73,1.73,0,0,1-.37,0Zm-11.88.08-.27,0c-.29,0-.48,0-.55-.12l.25.05.19,0,.38.09Zm-2.44.35h0l.21-.18c-.07.11,0,.19,0,.21l-.76,0-.28-.19.2,0a2.68,2.68,0,0,1,.59.06l.05,0Zm17.79.39a1.26,1.26,0,0,0,.47-.12c0,.13.11.15.18.15a.5.5,0,0,0,.27-.11l.21.13-.18,0a1,1,0,0,0-.09.31.31.31,0,0,0-.34-.25c0-.07-.05-.13-.13-.13l-.21.14a1.35,1.35,0,0,1-.26-.15Zm-19.7.08h0a.7.7,0,0,0,.36-.11.11.11,0,0,0,0,.15l-.26,0-.53-.12-.2,0,.32,0,.29,0Zm24.25,2.06-.82-.66a1.2,1.2,0,0,0-.11-.12l-.33-.17-.93-.35c.15,0,.17-.11.15-.2a1.17,1.17,0,0,0-.28-.23,7.58,7.58,0,0,1,2.32,1.73Zm-28.43.17a5.4,5.4,0,0,1,1.32-1.19l.19-.12.07.23-.32.22a1.1,1.1,0,0,0-.47.2,4.15,4.15,0,0,0-.49.35,1.27,1.27,0,0,1-.3.31Zm10.64,6.16-1.43-.11-.61-.13-.26,0-.12,0c.8.13,1.61.24,2.42.32Z" transform="translate(-0.72 -0.83)"/><path class="cls-4" d="M146.38,122.3l-.08,0,0,0-.28-.1c-.21,0-.44-.08-.66-.11a2,2,0,0,0-.87.16,4.8,4.8,0,0,1-.76.24h-.18a2,2,0,0,0-.77.06,2.75,2.75,0,0,0-.71.3,2.33,2.33,0,0,0-.7.62h0l-.15.19h0c-.2.11-.41.19-.6.31a7.42,7.42,0,0,0-.64.46.8.8,0,0,0-.13.13,1.7,1.7,0,0,0-.41.15,1.75,1.75,0,0,0-.68.67,1.9,1.9,0,0,0,0,1.82,1.5,1.5,0,0,0,.55.54,1.53,1.53,0,0,0,.75.2,1.17,1.17,0,0,0,.67-.16,1.14,1.14,0,0,0,.46-.31,1.41,1.41,0,0,0,.34-.59.75.75,0,0,0,0-.26l.13-.1a5.28,5.28,0,0,1,.53-.27l-.33.14.48-.22a5.89,5.89,0,0,0,.58-.24c.43-.15.88-.27,1.32-.4.22-.07.44-.15.67-.21l.38-.13.25-.11h.16a2.29,2.29,0,0,0,1-.26,3.22,3.22,0,0,0,.7-.45l.36,0h0l.46.16a2,2,0,0,0,.41.14,4,4,0,0,0,.49,0,1.36,1.36,0,0,0,.59-.12c.16-.06.3-.15.45-.22l0,0a6,6,0,0,1,.73,0l.34.08c.2.11.37.25.56.38a.38.38,0,0,0,.53-.14.39.39,0,0,0-.14-.54,6.1,6.1,0,0,0-.59-.4,2.11,2.11,0,0,0-.61-.16c-.3,0-.6,0-.89,0h0a1.75,1.75,0,0,0-.56,0l.13,0a1.41,1.41,0,0,1-.29,0,.9.9,0,0,1-.22-.06l-.18-.09c-.05,0-.09-.11-.14-.17l-.18-.15a1.15,1.15,0,0,0-.24-.35.86.86,0,0,0-.28-.2l-.08-.08-.1-.11a1.26,1.26,0,0,0-.92-.4,1.34,1.34,0,0,0-.93.38Zm1.69-.06.08.06-.08-.06Zm.89.87h0c0,.06,0,.12.07.17s-.05-.12-.07-.17Zm.57.41h0Zm-1.79.72h0Zm0,0Zm0,0Zm.11.07-.17,0,.17,0Zm-.18,0h0Zm-.29,0h0Zm3.79,0h0ZM139.43,126h0l0,0,0,0Zm0,0a2.51,2.51,0,0,1,0,.27,2.51,2.51,0,0,0,0-.27Zm1.72,1.5-.2.16h0l-.06,0a2,2,0,0,0,.25-.18Z" transform="translate(-0.72 -0.83)"/><path d="M154.64,77.92a2.51,2.51,0,0,1,.89-.76,2.36,2.36,0,0,1,1.25-.34,1.11,1.11,0,0,1,1,.71.7.7,0,0,1-.54.91c-.41,0-.7-.6-.37-.83a2,2,0,0,0-2,2.31,3.05,3.05,0,0,1,3.06,2.92l.38.15a17.3,17.3,0,0,1,3.06-4.31A7.6,7.6,0,0,1,166,76.42a3.62,3.62,0,0,1,2.92,1,3,3,0,0,1,.43,3.23,4.35,4.35,0,0,1-2.5,2.22,3.14,3.14,0,0,1,.84,2.38,2.42,2.42,0,0,1-1.48,2,3.85,3.85,0,0,1-1.55.14,20,20,0,0,1-2.9-.4l.12.51a1.92,1.92,0,0,1,2.49,1.47L162,88.16v.76a1.26,1.26,0,0,1,1,.53.54.54,0,0,1,.12.34c0,.28-.36.43-.63.35a1.38,1.38,0,0,1-.63-.52,4.39,4.39,0,0,1-6.08,2.88,1.49,1.49,0,0,1,0,.81.52.52,0,0,1-.64.34.59.59,0,0,1-.28-.48,1.29,1.29,0,0,1,.33-1l-.61-.54L153.73,94a1.93,1.93,0,0,1,.52-2.92l-.4-.5a20,20,0,0,1-1.59,2.67,3.83,3.83,0,0,1-1.09,1.14,2.39,2.39,0,0,1-2.47-.1,3.07,3.07,0,0,1-1.31-2.17,4.15,4.15,0,0,1-3.5.53A3,3,0,0,1,141.81,90,3.69,3.69,0,0,1,143,87.43a7.73,7.73,0,0,1,4.54-2.15,15.51,15.51,0,0,1,5.08.26l.12-.51a2.71,2.71,0,0,1,.11-4.28,1.93,1.93,0,0,0-2.93.21.49.49,0,0,1,.51.64.63.63,0,0,1-.85.29.89.89,0,0,1-.43-.86,1.57,1.57,0,0,1,.44-.89,2.44,2.44,0,0,1,3.63.33,5.65,5.65,0,0,1,1.26-.48,3,3,0,0,1,.19-2.07Zm13.81.75a2.33,2.33,0,0,0-.85-.91,2.69,2.69,0,0,0-2.12-.17,7.09,7.09,0,0,0-1.92,1,14.28,14.28,0,0,0-4.55,4.5c0,.07-.07.18,0,.22a4.84,4.84,0,0,1,1.4,1.15c.09.1.25.07.37,0a40.72,40.72,0,0,0,6-2.47,3.33,3.33,0,0,0,1.83-1.8,2.12,2.12,0,0,0-.2-1.56Zm-25,9.78a2.4,2.4,0,0,0-.41,2.1A2.16,2.16,0,0,0,144.58,92a3.78,3.78,0,0,0,2.29-.43,43.82,43.82,0,0,0,5.76-3.21s.07,0,.08-.07a.17.17,0,0,0,0-.12l-.17-1.83a.13.13,0,0,0,0-.09.2.2,0,0,0-.13-.06,10.52,10.52,0,0,0-3.79.13,16.18,16.18,0,0,0-3.48,1,4.08,4.08,0,0,0-1.67,1.15Zm5.77,5.1a1.68,1.68,0,0,0,1.3-.06,5.47,5.47,0,0,0,2.14-2c.29-.39.57-.79.84-1.19a.22.22,0,0,0,.05-.11.28.28,0,0,0,0-.13L153,88.9a.14.14,0,0,0-.16-.06.38.38,0,0,0-.17.08c-1.4,1-2.85,1.92-4.34,2.77-.09.06-.08.19-.06.29a3.53,3.53,0,0,0,.33.91,1.4,1.4,0,0,0,.68.66Zm14-7a5.22,5.22,0,0,0,2.69-.44,1.68,1.68,0,0,0,.87-1,1.5,1.5,0,0,0-.08-.91,3.41,3.41,0,0,0-.48-.79c-.08-.1-.2-.22-.33-.17q-2.4.93-4.89,1.64c-.06,0-.14.06-.14.12a.14.14,0,0,1,0,.06l.66,1.25a.28.28,0,0,0,.08.11.29.29,0,0,0,.16,0c.48,0,1,.07,1.44.09ZM154,88.23l.64,1.2c0,.08.13.17.19.12a19.61,19.61,0,0,1,5.7-3c.08,0,.06-.14,0-.22-.13-.29-.27-.58-.42-.86a2.59,2.59,0,0,0-.38-.59.23.23,0,0,0-.1-.07.2.2,0,0,0-.15,0,23.11,23.11,0,0,0-5.21,2.79,1.6,1.6,0,0,0-.26.26.39.39,0,0,0,0,.36Zm7-.35s0-.06,0-.06h-.05a9.68,9.68,0,0,0-1.35.62c-1.3.68-2.59,1.4-3.86,2.14,0,0,0,0,0,.06s0,.06,0,.09a3,3,0,0,0,3.29.61,3.62,3.62,0,0,0,1.06-.76,3.12,3.12,0,0,0,1-2.7Zm-3.9-4.76a.58.58,0,0,0-.31.08,31.75,31.75,0,0,0-3,1.52.38.38,0,0,0-.14.11.42.42,0,0,0,0,.16,7.88,7.88,0,0,0,0,1.88.27.27,0,0,0,.11.22,11.37,11.37,0,0,1,5-3.08,12.63,12.63,0,0,0-1.37-.81.53.53,0,0,0-.24-.08Z" transform="translate(-0.72 -0.83)"/><path class="cls-3" d="M155.16,76a.39.39,0,0,0,.39.39.4.4,0,1,0,0-.79.39.39,0,0,0-.39.4Z" transform="translate(-0.72 -0.83)"/><path class="cls-3" d="M156.87,75.44a.4.4,0,1,0,.79,0,.4.4,0,0,0-.79,0Z" transform="translate(-0.72 -0.83)"/><path class="cls-3" d="M156.79,78.67a.4.4,0,0,0,.79,0,.4.4,0,1,0-.79,0Z" transform="translate(-0.72 -0.83)"/><path class="cls-3" d="M158.66,78.45a.4.4,0,0,0,.79,0,.4.4,0,1,0-.79,0Z" transform="translate(-0.72 -0.83)"/><path class="cls-3" d="M154.39,76.32a.4.4,0,1,0,.4-.4.4.4,0,0,0-.4.4Z" transform="translate(-0.72 -0.83)"/><path class="cls-3" d="M155.27,79.18a.4.4,0,0,0,.4.39.4.4,0,0,0,0-.79.4.4,0,0,0-.4.4Z" transform="translate(-0.72 -0.83)"/><path class="cls-3" d="M153.55,78.76a.4.4,0,1,0,.79,0,.4.4,0,0,0-.79,0Z" transform="translate(-0.72 -0.83)"/><path class="cls-3" d="M152.39,79.11a.4.4,0,1,0,.39-.39.4.4,0,0,0-.39.39Z" transform="translate(-0.72 -0.83)"/><path class="cls-3" d="M155.45,93.67a.4.4,0,0,0,.79,0,.4.4,0,1,0-.79,0Z" transform="translate(-0.72 -0.83)"/><path class="cls-3" d="M154.4,93.28a.4.4,0,1,0,.79,0,.4.4,0,0,0-.79,0Z" transform="translate(-0.72 -0.83)"/><path class="cls-3" d="M153.85,91.31a.4.4,0,1,0,.79,0,.4.4,0,0,0-.79,0Z" transform="translate(-0.72 -0.83)"/><path class="cls-3" d="M152.67,92.51a.4.4,0,1,0,.79,0,.4.4,0,0,0-.79,0Z" transform="translate(-0.72 -0.83)"/><path class="cls-3" d="M153.7,93.5a.4.4,0,0,0,.4.4.4.4,0,0,0,0-.79.4.4,0,0,0-.4.39Z" transform="translate(-0.72 -0.83)"/><path class="cls-3" d="M161.85,90.16a.4.4,0,1,0,.79,0,.4.4,0,0,0-.79,0Z" transform="translate(-0.72 -0.83)"/><path class="cls-3" d="M162.1,89.13a.4.4,0,0,0,.79,0,.4.4,0,1,0-.79,0Z" transform="translate(-0.72 -0.83)"/><path class="cls-3" d="M163.18,89.78a.4.4,0,0,0,.79,0,.4.4,0,1,0-.79,0Z" transform="translate(-0.72 -0.83)"/><path class="cls-3" d="M164.17,87.55a.4.4,0,1,0,.79,0,.4.4,0,0,0-.79,0Z" transform="translate(-0.72 -0.83)"/><path class="cls-3" d="M162.24,86.92a.4.4,0,0,0,.79,0,.4.4,0,1,0-.79,0Z" transform="translate(-0.72 -0.83)"/><path class="cls-3" d="M162.18,88.4a.39.39,0,0,0,.39.39.4.4,0,1,0,0-.79.39.39,0,0,0-.39.4Z" transform="translate(-0.72 -0.83)"/><path class="cls-3" d="M164.15,78.56a.4.4,0,1,0,.79,0,.4.4,0,0,0-.79,0Z" transform="translate(-0.72 -0.83)"/><path class="cls-3" d="M166.6,79.18a.4.4,0,0,0,.4.39.4.4,0,0,0,0-.79.4.4,0,0,0-.4.4Z" transform="translate(-0.72 -0.83)"/><path class="cls-3" d="M165.18,81.58a.4.4,0,1,0,.4-.4.4.4,0,0,0-.4.4Z" transform="translate(-0.72 -0.83)"/><path class="cls-3" d="M165.82,84.63a.4.4,0,1,0,.39-.39.4.4,0,0,0-.39.39Z" transform="translate(-0.72 -0.83)"/><path class="cls-3" d="M165.64,86.4a.4.4,0,0,0,.4.4.4.4,0,0,0,0-.79.4.4,0,0,0-.4.39Z" transform="translate(-0.72 -0.83)"/><path class="cls-3" d="M146.89,86.29a.39.39,0,0,0,.39.4.4.4,0,1,0,0-.79.39.39,0,0,0-.39.39Z" transform="translate(-0.72 -0.83)"/><path class="cls-3" d="M144.81,87.3a.4.4,0,0,0,.79,0,.4.4,0,1,0-.79,0Z" transform="translate(-0.72 -0.83)"/><path class="cls-3" d="M144.87,87.42a.4.4,0,0,0,.79,0,.4.4,0,1,0-.79,0Z" transform="translate(-0.72 -0.83)"/><path class="cls-3" d="M146.27,89a.4.4,0,0,0,.79,0,.4.4,0,1,0-.79,0Z" transform="translate(-0.72 -0.83)"/><path class="cls-3" d="M145,90.87a.4.4,0,1,0,.79,0,.4.4,0,0,0-.79,0Z" transform="translate(-0.72 -0.83)"/><path class="cls-3" d="M143.44,89.39a.4.4,0,0,0,.79,0,.4.4,0,1,0-.79,0Z" transform="translate(-0.72 -0.83)"/><path class="cls-3" d="M147.25,90.9a.4.4,0,1,0,.4-.4.4.4,0,0,0-.4.4Z" transform="translate(-0.72 -0.83)"/><path class="cls-3" d="M149.77,90.71a.4.4,0,0,0,.79,0,.4.4,0,1,0-.79,0Z" transform="translate(-0.72 -0.83)"/><path class="cls-3" d="M150.47,92.84a.4.4,0,1,0,.39-.39.4.4,0,0,0-.39.39Z" transform="translate(-0.72 -0.83)"/></g></svg>