<svg xmlns="http://www.w3.org/2000/svg" viewBox="0 0 299.06 198.5"><defs><style>.cls-1{fill:#f2f2f2;}.cls-2{fill:#2c2c2c;}.cls-3{fill:#fff;}.cls-4{fill:#d4b32c;}</style></defs><g id="dots"><path class="cls-1" d="M2.5,4a1.5,1.5,0,0,0,0-3,1.5,1.5,0,0,0,0,3Z" transform="translate(-0.72 -0.83)"/><path class="cls-1" d="M2.17,199.17a1.5,1.5,0,0,0,0-3,1.5,1.5,0,0,0,0,3Z" transform="translate(-0.72 -0.83)"/><path class="cls-1" d="M298.33,199.33a1.5,1.5,0,0,0,0-3,1.5,1.5,0,0,0,0,3Z" transform="translate(-0.72 -0.83)"/><path class="cls-1" d="M298.17,3.83a1.5,1.5,0,0,0,0-3,1.5,1.5,0,0,0,0,3Z" transform="translate(-0.72 -0.83)"/></g><g id="Layer_4" data-name="Layer 4"><path class="cls-2" d="M140.57,26.78a71,71,0,0,0-21.39,6A73.46,73.46,0,0,0,89.76,142.67a73.95,73.95,0,0,0,33.7,25.85,72.69,72.69,0,0,0,25.93,4.74h0a74.38,74.38,0,0,0,21.93-3.34,73.58,73.58,0,0,0,34.93-23.62,71.58,71.58,0,0,0,11.14-18.64A73.47,73.47,0,0,0,140.57,26.78Zm17.71,6.38a70.76,70.76,0,0,1,17,4.6,72.23,72.23,0,0,1,15,8.74,73.15,73.15,0,0,1,12.31,12.31,72,72,0,0,1,8.58,14.66A71.07,71.07,0,0,1,216,90.93a72.21,72.21,0,0,1,0,17.69A70.84,70.84,0,0,1,211.24,126a71.83,71.83,0,0,1-8.74,14.87A72.07,72.07,0,0,1,190.35,153a72.57,72.57,0,0,1-14.79,8.65,71.88,71.88,0,0,1-16.95,4.66,70.76,70.76,0,0,1-18.39,0,66.77,66.77,0,0,1-31.94-13.46A67.62,67.62,0,0,1,87.59,126a71.62,71.62,0,0,1-4.76-17.39,72.62,72.62,0,0,1,0-17.74,71.89,71.89,0,0,1,4.77-17.45A72.48,72.48,0,0,1,96.18,58.8a72.76,72.76,0,0,1,12.1-12.14,71.57,71.57,0,0,1,15.24-8.9,70.84,70.84,0,0,1,17-4.6,72,72,0,0,1,17.73,0Zm17.11,4.63.64.27-.64-.27Zm-51.95,0-.64.27.64-.27Zm78.87,20.57.25.33-.25-.33Zm.5,82.13-.2.25.2-.25ZM176,161.43l-.28.12.28-.12Zm-53.23,0,.27.12-.27-.12Z" transform="translate(-0.72 -0.83)"/><path class="cls-2" d="M150,41.05c-1.18,0-2.36,0-3.53.1a59.24,59.24,0,0,0-10.67,1.61,58.24,58.24,0,0,0-10,3.42,59.58,59.58,0,0,0-17.49,97,60.61,60.61,0,0,0,8,6.56A59.32,59.32,0,0,0,150,160.26a60.76,60.76,0,0,0,10.86-1,59.27,59.27,0,0,0,19.7-7.44,59.7,59.7,0,0,0,21.46-22.07,59.4,59.4,0,0,0,6.89-20,59.64,59.64,0,0,0-.63-21.71,59,59,0,0,0-8-19.42,60.25,60.25,0,0,0-13.87-15.19,61.52,61.52,0,0,0-8.8-5.65A59.14,59.14,0,0,0,150,41.05Z" transform="translate(-0.72 -0.83)"/><path class="cls-3" d="M119.33,55.25a.69.69,0,0,0-.49.18.72.72,0,0,0-.12.59,7.34,7.34,0,0,0,.75,2.92,9.17,9.17,0,0,0,2.41,2.6A4.4,4.4,0,0,0,120.72,67a6.05,6.05,0,0,0,.86,1.15,4.26,4.26,0,0,0,1.52,1.16c.48.18,1.19,0,1.22-.45a3.88,3.88,0,0,1,.56-1.84.81.81,0,0,1,.25-.27.6.6,0,0,1,.76.34,4.4,4.4,0,0,1,.23.9c.27,1,1.3,1.6,1.45,2.59,0,.26.44.32.62.13a.72.72,0,0,0,.07-.75c-.1-.24-.26-.46-.35-.7-.15-.43-.09-.91-.2-1.34-.25-1-1.28-1.6-1.39-2.58a.3.3,0,0,1,0-.23c.13-.16.37.05.48.23.5.94,1,1.88,1.44,2.84.11.21.46.12.56-.09a1,1,0,0,0-.07-.68,28.51,28.51,0,0,0-1.34-3,.93.93,0,0,1-.16-.76c.09-.25.53-.32.59-.06a8.87,8.87,0,0,0,1.53,3.24,1.22,1.22,0,0,0,.82-.87,3.44,3.44,0,0,0,.07-1.24c0-.67-.08-1.35-.11-2a.39.39,0,0,1,.06-.3c.17-.2.48.08.58.33a5.68,5.68,0,0,1,.39,2.38.7.7,0,0,0,.05.43c.07.13.27.21.37.1a.3.3,0,0,0,.08-.16,4,4,0,0,0,.17-2.73c-.09-.22-.14-.58.09-.57s.19.51.43.61.33-.14.41-.31a7.31,7.31,0,0,0,.55-3.36c0-.28.29-.44.56-.53l.77-.26c-.44.27-.48.89-.46,1.4l0,1.64c0,.19.1.45.28.4a.38.38,0,0,0,.14-.11,1.3,1.3,0,0,0,.12-.89,2.79,2.79,0,0,1,0-.91.71.71,0,0,1,.59-.61c.31,0,.55.43.34.63a1.27,1.27,0,0,0-.16,1.61,7.47,7.47,0,0,1,.6-1.2,1.09,1.09,0,0,0-.06-1.26c-.26-.26-.77-.39-.73-.75s-.38-.6-.74-.59-.7.18-1.05.18c-.86,0-1.66-1-2.41-.56-.31.17-.46.54-.69.82s-.7.45-.93.17a1.93,1.93,0,0,0-1.51-.6h-.5a3.79,3.79,0,0,1-1.17-.09,4.34,4.34,0,0,1-1-.43c-1.75-1-3.62-2-5.6-2Zm1,3.68a.59.59,0,0,1-.41-.21.69.69,0,0,1-.1-.19,1.37,1.37,0,0,1,.26-1.34,2.45,2.45,0,0,1,1.21-.74,1.58,1.58,0,0,1,1.28,0,.52.52,0,0,1-.48.25,1.32,1.32,0,0,0-.56.08c-.17.09-.27.34-.13.47a.29.29,0,0,1-.08.44.47.47,0,0,1-.49-.08,1.24,1.24,0,0,1-.31-.41c-.27,0-.45.31-.39.57a1.24,1.24,0,0,0,.51.6.26.26,0,0,1,0,.36.4.4,0,0,1-.33.15Zm2.45-1.24a1,1,0,0,1,.06-.54l.08,0c0-.17.28-.23.38-.08a.45.45,0,0,1-.08.49.45.45,0,0,1-.32.2.21.21,0,0,1-.12-.05Zm-1.08-.15a.46.46,0,0,1,.38.53l-.06,0c-.12-.19-.22-.37-.32-.56Zm-.37,2.15a8.29,8.29,0,0,1-.06-.85.67.67,0,0,1,.44-.66c.28-.08.6.26.43.49s-.26.16-.4.23-.24.28-.12.38.13.56,0,.81l-.51,0a.15.15,0,0,1-.27,0,.34.34,0,0,1,.39-.22h0c.07,0,.1-.1.1-.17Zm1.93-.77c-.08-.1-.21-.11-.32-.15s-.22-.14-.19-.25.3-.24.46-.14.3.26.48.33a.78.78,0,0,0,.3,0h.12a.43.43,0,0,1,.37.16c.08.12,0,.32-.12.32a1.56,1.56,0,0,0-1.06.46c-.19-.19.12-.56,0-.77Zm1.83.5a.44.44,0,0,1,.35-.12,16.69,16.69,0,0,1,1.87-.06.67.67,0,0,1,.5.16c.12.14,0,.42-.14.39a13.69,13.69,0,0,0-2.48-.08h0c-.13,0-.18-.19-.1-.29ZM121.8,61a.81.81,0,0,1,.12-.37.34.34,0,0,0,.3-.19.27.27,0,1,1,.37-.4.37.37,0,0,1,0,.48,1,1,0,0,1-.47.26,1.84,1.84,0,0,0,.05.25.35.35,0,0,1-.14,0,.3.3,0,0,1-.18-.06Zm-.52-.43a.23.23,0,0,1,.23-.29h0l.23.1a.66.66,0,0,1-.11.36h-.07a.28.28,0,0,1-.28-.19Zm2,1.66,0,0a.43.43,0,0,1,.6,0,.35.35,0,0,1-.3.16.35.35,0,0,1-.25-.1Zm-.5.5a1.26,1.26,0,0,1-.45-.22.3.3,0,0,1,.53.06.15.15,0,0,1-.09.16Zm1.84.56-.32-.52a7.09,7.09,0,0,1,1.49.85.13.13,0,0,1,.06.07c0,.05,0,.1-.08.13-.33.14-.63-.32-1-.35h-.13a.54.54,0,0,1-.18,0c-.09,0-.19-.11-.16-.21a.21.21,0,0,0,.16.08.2.2,0,0,0,.14-.06Zm-.79-.42a1.11,1.11,0,0,1,.47.17c0,.1-.2.07-.18,0h0A.14.14,0,0,0,124,63a.21.21,0,0,1-.11-.21Zm5.79.78a.39.39,0,0,1-.61,0,.25.25,0,0,1,.1-.16h0a.57.57,0,0,1,.51.16Zm-7.89,1.2a.28.28,0,0,1-.19-.34.58.58,0,0,1,.56.13l0,0a.3.3,0,0,1-.28.18Zm-.19,1.9c0-.11.12-.18.23-.2a1.57,1.57,0,0,1,1.36.13l-1.31.17h-.09a.18.18,0,0,1-.19-.11Zm1.64,1.75a.27.27,0,0,1,.39-.1.47.47,0,0,1-.21.23h0a.08.08,0,0,1-.07,0c-.07,0-.16-.09-.1-.16Z" transform="translate(-0.72 -0.83)"/><path class="cls-3" d="M189.42,66.81a18,18,0,0,0-5.16,1.45,2.77,2.77,0,0,1-2,.43,3.74,3.74,0,0,0-3.23.47.48.48,0,0,1-.63-.16,4.28,4.28,0,0,1-.33-.64,1.52,1.52,0,0,0-2.21-.43c-.18.15-.46.08-.68,0a5.08,5.08,0,0,0-1.9-.13c-.21,0-.44.09-.49.29s0,.26,0,.38-.44.22-.66.35a.89.89,0,0,0-.31.78,12.18,12.18,0,0,0,.16,2.33,2,2,0,0,0,.38-2c-.1-.26.2-.55.48-.51a.7.7,0,0,1,.52.6,1.86,1.86,0,0,1-.1.84c-.12.5-.25,1-.38,1.5.78-.07,1.1-1.08,1-1.86a1.9,1.9,0,0,1,0-1c.14-.28.59-.43.78-.17,0,1.24.09,2.49.13,3.73,0,.19,0,.41.19.51s.58-.13.77-.39.56-.55.78-.31a3.07,3.07,0,0,0-.79,1.83,5.78,5.78,0,0,1-.13,1.91c0,.26.41.32.61.16a1.11,1.11,0,0,0,.29-.71l.18-1.14a2.48,2.48,0,0,1,.42-1.22.85.85,0,0,1,1.15-.22c-.54.47-.42,1.31-.44,2a4.07,4.07,0,0,1-.73,2.13c-.16.22-.29.61,0,.69a1.41,1.41,0,0,0,.94-1.29c.28,0,.34.43.22.69a2.07,2.07,0,0,0-.34.76c0,.28.41.53.54.28l1.87-3.41c.16-.28.54-.59.74-.35a.52.52,0,0,1,0,.51c-.64,1.42-1.76,2.61-2.26,4.09-.11.32-.05.82.28.77.15,0,.25-.15.33-.27l1.86-2.87c.12-.18.33-.38.51-.27s.13.27.09.42c-.22.92-1.19,1.45-1.65,2.27a5.44,5.44,0,0,0-.28.66c-.23.66-.47,1.32-.71,2a1,1,0,0,0,0,.84c.15.25.63.25.65,0,.06-1.24,1.63-1.86,2-3,.15-.4.2-.93.59-1.1s.92.27,1,.75a13.85,13.85,0,0,1,0,1.44c0,.48.38,1,.86,1a5,5,0,0,0,4.1-6.88A24.39,24.39,0,0,0,187,72.77a.25.25,0,0,1,0-.25,2,2,0,0,1,1-.87.93.93,0,0,1,1.13.51,3.1,3.1,0,0,0,1.94-2.41c.09-.61.78-1,.89-1.61a1.25,1.25,0,0,0-.86-1.28,2.4,2.4,0,0,0-.8-.13,6.4,6.4,0,0,0-.86.08Zm1.7,1.57a.59.59,0,0,1-.41-.33.14.14,0,0,1,0-.14.16.16,0,0,1,.07-.07.7.7,0,0,1,.5-.1.36.36,0,0,1,.29.38.35.35,0,0,1-.36.27Zm-1.89.34c.11,0,.1-.21,0-.29a.52.52,0,0,0-.32-.09l-2.22-.16V68l1.54-.17a1.46,1.46,0,0,1,.93.09c.28.16.42.58.18.79,0,0,0,0-.07,0a.07.07,0,0,1-.06,0Zm-15.4.08c-.16,0-.36-.1-.33-.26s.13-.15.22-.17a1.21,1.21,0,0,1,1.05.27.77.77,0,0,1-.57.2,2.33,2.33,0,0,1-.37,0Zm12.58-.22a.54.54,0,0,1,.56.49.55.55,0,0,1-.51.54c0-.35,0-.69-.05-1Zm1.2,1.39a.67.67,0,0,1,.17-.82,1.74,1.74,0,0,1,.82-.33,1,1,0,0,1,.61,0,.5.5,0,0,1,.22.67.53.53,0,0,1-.68.21c-.21-.11-.43,0-.65.1a1.08,1.08,0,0,1-.47.15ZM190,69.2a.25.25,0,0,1,.1-.24l.25.1a1,1,0,0,1-.18.38.27.27,0,0,1-.17-.24Zm-1.06,1.74a.41.41,0,0,1,.17-.26l.95-.94a.31.31,0,0,1,.14-.09c.06,0,.13,0,.11.1a.68.68,0,0,1-.24,1c-.23.08-.38.28-.59.38a.41.41,0,0,1-.19,0c-.18,0-.36-.1-.35-.27Zm-3.13-.87a1,1,0,0,1,.64-.33.57.57,0,0,1-.18.56,1.31,1.31,0,0,0-.34.51.16.16,0,0,1-.2.18,1.06,1.06,0,0,1-.72-.42c-.33-.47-1.15-.07-1.61-.43a.29.29,0,0,1,.32-.21,3,3,0,0,0,.42,0c.23,0,.46-.24.66-.14s.2.27.34.37a.31.31,0,0,0,.2.07.86.86,0,0,0,.47-.2Zm1.69.59c0-.19.16-.35.35-.39a.53.53,0,0,1,.46.06.3.3,0,0,1,.09.41.44.44,0,0,1-.33.13h-.14c-.19,0-.39,0-.43-.22Zm-6,.18c-.22,0-.51-.13-.46-.34s.24-.2.39-.21a4.09,4.09,0,0,1,1.35.15c.11.13-.1.29-.28.32a3.84,3.84,0,0,1-.83.09Zm2.16.32a.13.13,0,0,1,0-.21.62.62,0,0,1,.53,0h.35a.14.14,0,0,1,0,.22.45.45,0,0,1-.25,0h-.36a.4.4,0,0,1-.24,0Zm2.81.49a1.11,1.11,0,0,1,0-.48v0a.33.33,0,0,1,.47.29.33.33,0,0,1-.34.28.27.27,0,0,1-.17-.06Zm-.82.38a.42.42,0,0,1,0-.4.24.24,0,0,1,.06-.08c.1,0,.2.06.24.16s0,.22.13.28-.07.11-.11.17v0a.19.19,0,0,1-.12,0,.28.28,0,0,1-.24-.15Zm-1,2.2a.58.58,0,0,1,.62-.06l-.38.31-.42.34a.59.59,0,0,1,.18-.59Zm1.88.25a.19.19,0,0,1,.22.15.18.18,0,0,1,.29,0,1,1,0,0,1-.16.12l0,0a.54.54,0,0,1-.43.2l.1-.46Zm-7.61.4c.12,0,.27,0,.28.14s-.06.18-.13.24l-.46.42a.53.53,0,0,1,.31-.8Zm6.68.05c.08.08-.12.19-.16.09h0c0-.09.11-.17.17-.1Zm-2.78.73a.34.34,0,0,1,0-.28.76.76,0,0,1,1.2-.11,1.81,1.81,0,0,1-1.14.39Zm1.27,1.42a.38.38,0,0,1,.3-.08l2,0a3.44,3.44,0,0,1,1,.1c-.14.28-.55.26-.87.22a7.47,7.47,0,0,0-2.36,0h0c-.09,0-.14-.15-.07-.23Zm.76,2.06a.36.36,0,0,1,.24-.13,2.69,2.69,0,0,1,2,.34c.13.07.08.3-.06.35a.41.41,0,0,1-.41-.08c-.13-.09-.23-.2-.36-.28a1.36,1.36,0,0,0-.7-.09h-.16a1,1,0,0,1-.53-.11Zm0,2.11c-.14,0-.22-.26-.1-.35l0,.07a.58.58,0,0,1,.32,0,.24.24,0,0,1,.18.24.78.78,0,0,1-.33.09l-.11,0Z" transform="translate(-0.72 -0.83)"/><path class="cls-3" d="M151.05,70.07c-5.86.32-12.29.87-16.48,5a38.08,38.08,0,0,1-2.66,2.73,28.34,28.34,0,0,0-9.1,13.38c-.86,2.73-3.21,5.16-2.77,8,.19,1.19.82,2.62-.05,3.46a8,8,0,0,0-1.53,9,9.79,9.79,0,0,0-2.38,7.9c.46,3.06-2.28,5.84-2.12,8.93a6.6,6.6,0,0,0,4,5.25,18.55,18.55,0,0,0,6.7,1.41,317,317,0,0,0,55.28-.36c.14-.17.27-.34.41-.5l.47-.51a9.8,9.8,0,0,0,.75-.84c.14-.19.29-.39.45-.57l.44-.54h0s0,0,0,0l.05,0,0,0c.19-.27.38-.54.55-.83s.41-.75.58-1.13l0,.09c.15-.37.31-.75.43-1.14.07-.18.13-.37.19-.55a3.67,3.67,0,0,0,.14-.64c0-.24,0-.48,0-.72a5.53,5.53,0,0,0,0-.71,1.11,1.11,0,0,0-.08-.3,2.64,2.64,0,0,0-.29-.49,5.32,5.32,0,0,0-.47-.48,5.8,5.8,0,0,1-.52-.61,3,3,0,0,1-.39-.78,2.62,2.62,0,0,1-.14-.89c0-.3,0-.59.07-.89a5.59,5.59,0,0,1,.08-.59c0-.18.07-.34.11-.52s.12-.52.19-.78.09-.29.14-.44a4.21,4.21,0,0,0,.09-.49,4.5,4.5,0,0,0,0-.64c0-.2,0-.41,0-.61h0v0a3.15,3.15,0,0,0-.09-.42,5.44,5.44,0,0,0-.19-.52s0,0,0,0v0l0,0c-.11-.25-.23-.49-.35-.73s-.24-.45-.35-.68a5.68,5.68,0,0,1-.32-.81,4.76,4.76,0,0,1-.13-.57l-.08-.09-.07.09a.4.4,0,0,1-.39.1.37.37,0,0,1-.2-.12.44.44,0,0,1-.12-.15c0-.09-.08-.18-.11-.27s-.09-.23-.13-.35a2.45,2.45,0,0,1-.12-.41,2.69,2.69,0,0,1,0-.4c0-.17,0-.34,0-.51a3.52,3.52,0,0,1,.4-1.4,2.21,2.21,0,0,1,.26-.39,3.26,3.26,0,0,1,.41-.42.39.39,0,0,1,.3-.11l.12-.25a1,1,0,0,1,.26-.51,7.26,7.26,0,0,0-2.78-6.47,6.7,6.7,0,0,0,1.12-7.08c-1-2.16-3.15-4.05-2.7-6.37.31-1.6-.71-3.15-1.84-4.31s-2.48-2.23-3.09-3.73a9.24,9.24,0,0,0-2.69-3.25c-3.39-3-7-6.08-11.38-7.11a19.28,19.28,0,0,0-4.35-.43c-1.13,0-2.27.07-3.4.12Zm-14.51,6.22a.35.35,0,0,1,.33-.3c-.05.1-.1.2-.14.3h0s-.05.06-.09.06-.08,0-.08,0Zm11.83-.07a.15.15,0,0,1-.21.14h0c-.06-.12.13-.24.22-.14Zm7.36,1a.2.2,0,0,1,.12-.17.11.11,0,0,1,.15.1h0a.18.18,0,0,1-.17.1s-.07,0-.09,0ZM135.61,77c.12.07,0,.32-.11.28l0,0a.22.22,0,0,1,.14-.3Zm4.24,0c.1,0,.2.1.3.08a.31.31,0,0,1-.42.06v0c-.09-.06,0-.19.13-.16Zm7.87.13a.13.13,0,0,1,.07.19h0a.93.93,0,0,0-.14.14.21.21,0,0,1,.07-.33Zm4.59.43a1.07,1.07,0,0,1,.32-.38l.12.16h0a.3.3,0,0,1-.3.23l-.1,0Zm-14.48.06a.41.41,0,0,1,0-.44.27.27,0,0,1,.17.1.42.42,0,0,0-.07.31h-.05a.26.26,0,0,1-.11.26.14.14,0,0,1-.14-.19h.05a.23.23,0,0,0,.14,0Zm15.93.55c0-.15-.09-.29-.14-.43a.28.28,0,0,1,.26.18.19.19,0,0,1-.13.26Zm-11.34,0h0l-.44-.17a.33.33,0,0,1,0-.24l.59.44a.09.09,0,0,1-.08,0,.09.09,0,0,1-.09-.07Zm.66-.26a.16.16,0,0,1,.16.09,1.31,1.31,0,0,0-.06.27l-.06,0c0-.13,0-.26,0-.39Zm-.33.05.24,0h0a.21.21,0,0,1-.1.17h0a.15.15,0,0,1-.12-.21Zm11,.28a.27.27,0,0,1-.07.34.35.35,0,0,1-.1-.21c0-.08.1-.15.17-.12Zm-7.05,1.4h0c0-.06.09-.12.12-.06a.17.17,0,0,1,0,.14h0s-.08,0-.05-.08Zm-14.34.5-.43-.07a1,1,0,0,1,.59-.4c0,.16-.08.33-.12.48Zm3-.45h0c.07,0,.11.09.1.17l-.24.1a.22.22,0,0,1,.14-.26Zm1.06.57a1,1,0,0,1,.31-.3.72.72,0,0,1,0,.5h0a1.7,1.7,0,0,0-.19.19.32.32,0,0,1-.08-.39Zm10.43-.25a.74.74,0,0,1-.27.53.24.24,0,0,1-.23,0,.32.32,0,0,1,.11-.17h0a.54.54,0,0,1,.38-.35Zm-13.36.11.06,0a.43.43,0,0,1-.26.63.74.74,0,0,1,.2-.58Zm-2.44.44a.36.36,0,0,1,.4-.12v0L131,81a.34.34,0,0,1,0-.41Zm33.06.16c.08-.06.21-.11.26,0a.14.14,0,0,1,0,.11,4.07,4.07,0,0,1-.48,1.27,1.19,1.19,0,0,1,.22-1.35Zm-24.61.36c-.1.05-.16-.16-.05-.18h0c.09,0,.14.14.06.18Zm1.07.12a.25.25,0,0,1,.17,0c.06.08,0,.21-.14.21a.28.28,0,0,1,0-.18Zm26.55,4.85a.31.31,0,0,1,0,.42.29.29,0,0,1-.4-.1.3.3,0,0,1,.41-.28l0,0Zm-32.57,0a.27.27,0,0,1-.22.38l-.05.06a.34.34,0,0,1,.27-.44Zm-7.36.15a.24.24,0,0,1-.11.42v0l-.19.24a.72.72,0,0,1,.29-.68Zm8.28.15h0c.09-.1.3,0,.3.09a.15.15,0,0,1-.09,0,.19.19,0,0,1-.17-.12Zm-8.93,1h0a.23.23,0,0,1,.17-.25,1.28,1.28,0,0,1-.09.55h0a.17.17,0,0,1-.09-.3Zm37.9.1c-.09-.06,0-.23.11-.17h0c0,.08,0,.18-.06.18Zm-24.52-.14.18,0c0,.07,0,.12,0,.18h0a.15.15,0,0,1-.11-.21Zm27.68.3a.27.27,0,0,1,.4-.11c.06.08,0,.19-.12.2h0a.49.49,0,0,1-.25-.1Zm5.83.46c.15,0,.3.2.17.31v0a.22.22,0,0,1-.16-.33ZM126,88.54a.18.18,0,0,1,0-.16c.06,0,.16,0,.13.07h0c0,.06-.05.11-.1.11s0,0,0,0Zm21.51.06a.67.67,0,0,1,.86,0,.63.63,0,0,1-.45.18.6.6,0,0,1-.41-.14Zm21.71-.1,0,0c.07,0,.09.1.05.15a.27.27,0,0,1-.17.08c-.08-.08,0-.2.14-.21Zm-36.14.13a1.36,1.36,0,0,1,1.16.13.83.83,0,0,1-.5.16.88.88,0,0,1-.66-.29Zm17.64.39a.11.11,0,0,1-.19.06h0a.12.12,0,0,1,.2-.07Zm-14.17.33c.08-.28.45-.33.74-.31.56,0,1.11.06,1.66.11,0,.13-.17.18-.3.19a9.61,9.61,0,0,1-1.07.07,8.89,8.89,0,0,1-1-.06Zm-.67-.06c0-.1.11-.18.21-.16a.56.56,0,0,1,.25.18.21.21,0,0,1-.27,0l0,0H136a.19.19,0,0,1-.12,0Zm4,.31a.18.18,0,0,1,.25,0,.25.25,0,0,1-.21.28.19.19,0,0,1,0-.24Zm1.11.5a.36.36,0,0,1,.13-.19.14.14,0,0,1,.21,0,1.13,1.13,0,0,1-.64.8l.3-.66Zm-1.8.69a.32.32,0,0,1,.07-.26,1.74,1.74,0,0,1,.56-.52,1.06,1.06,0,0,1-.55.87.18.18,0,0,1-.08-.09Zm3.21-.06c-.08,0-.09-.12-.09-.2a.57.57,0,0,1,.11-.46c.13-.1.39,0,.3.18h0c-.09.06-.09.19-.11.29s-.09.2-.17.2Zm2.4-.14h-.06a.6.6,0,0,1,.27-.37.45.45,0,0,1,.09.41.16.16,0,0,1-.16.1c-.08,0-.15,0-.14-.13Zm5.21.19c.09-.11.32-.13.35,0h0a1,1,0,0,1-.23.26,2.77,2.77,0,0,0-.1-.26Zm24.1.22a.52.52,0,0,1-.31.16.2.2,0,0,1,0-.17h0a.19.19,0,0,1,.33,0Zm-4.89.33a.13.13,0,0,1,.13-.17.14.14,0,0,1,.09.19l0,0a.12.12,0,0,1-.1,0,.13.13,0,0,1-.1,0Zm-14.77.33a.27.27,0,0,1,.08-.41c.2.06.14.43-.07.43v0Zm12.34.09a.33.33,0,0,1,.2-.11.17.17,0,0,1,0,.17l-.17.09v0a.12.12,0,0,1-.07-.18Zm.39,1.33c.09,0,.19.07.19.16a.2.2,0,0,1-.17,0h0c-.08,0-.1-.17,0-.2Zm2.1.72a.58.58,0,0,1,.62-.23.4.4,0,0,1-.44.27l0,.06-.16-.1Zm-2.67.74a.86.86,0,0,1,.29-.25.8.8,0,0,1,.67.18s0,.09,0,.13a.64.64,0,0,1-.42.15.62.62,0,0,1-.49-.21Zm-26.08.55h0c-.06,0,0-.15,0-.15a.1.1,0,0,1,.09.12.1.1,0,0,1-.09.06l-.05,0Zm-13.16.22a.5.5,0,0,1,.69,0l-.06,0-.24,0a1.27,1.27,0,0,1-.39-.06Zm27.35.86a1.36,1.36,0,0,1,1.4-.13.12.12,0,0,1,0,.13.26.26,0,0,1-.21.06c-.39,0-.79,0-1.18-.06Zm10.74-.07c.06-.09.24,0,.18.11l0,0,0,0a.12.12,0,0,1-.12-.11Zm1.61.76a.86.86,0,0,1,.4-.35.26.26,0,0,1,.21,0,.12.12,0,0,1,.06.19h0a.56.56,0,0,1-.46.24.49.49,0,0,1-.2,0Zm-3.48,0,.38-.39h0l.33.06a.9.9,0,0,1-.7.33Zm-41.45.22a.36.36,0,0,1-.09.37,1.45,1.45,0,0,1-.17-.18.27.27,0,0,1,.1-.16h0a.1.1,0,0,1,.16,0Zm23.9.54a.76.76,0,0,0,.31-.4l0-.06a.29.29,0,0,1,0,.37.29.29,0,0,1-.23.12.35.35,0,0,1-.14,0ZM122,99a1.41,1.41,0,0,1,0-1.34,1.66,1.66,0,0,1,.11,1.29s-.06.09-.09.09a0,0,0,0,1,0,0Zm40.91-.19a.15.15,0,0,1-.26,0h0a.18.18,0,0,1,.28,0Zm13.15.92a.21.21,0,0,1,.06-.1,1.1,1.1,0,0,1,.56-.3.63.63,0,0,1-.53.5.09.09,0,0,1-.09-.1Zm.45,1.18a3.71,3.71,0,0,1,.61-.28h0a.45.45,0,0,1-.45.35.32.32,0,0,1-.21-.06Zm-6.24.35s.1-.07.14,0,0,.11,0,.1h0s0,0,0,0-.1,0-.08-.09Zm-21.92,1.09c.07-.1.27,0,.26.11l0,0h-.05a.21.21,0,0,1-.18-.1Zm16.69,1.59v0a.4.4,0,0,1,.27-.2,1.18,1.18,0,0,1-.24.44.12.12,0,0,1,0-.21Zm-13,.51.27-.2v.08c0,.09-.07.17-.16.17a.1.1,0,0,1-.1,0Zm-31.37-.06a.81.81,0,0,1-.12.37.19.19,0,0,1-.2-.06h0a.24.24,0,0,1,.32-.31Zm28.43.36a.3.3,0,0,1,0,.38c-.11.1-.32-.07-.21-.17l0,0,.18-.25Zm26.38.53,0,0a.21.21,0,0,1,0-.28.24.24,0,0,1,.3,0c-.11,0-.05.16,0,.26a.19.19,0,0,1-.16.2h0a.18.18,0,0,1-.17-.17Zm-55.53.2h0a.32.32,0,0,1,.1-.32.57.57,0,0,1-.07.84v-.52Zm20.53.29a.19.19,0,0,1,.09-.16.42.42,0,0,1,.31-.06l1.52.1a4.25,4.25,0,0,1-1.23.17,5.34,5.34,0,0,1-.69,0Zm-12.68.64c0-.11.14-.15.25-.15a.87.87,0,0,1,.45.12.31.31,0,0,1-.25.13h0a.48.48,0,0,1-.24.07h0a.17.17,0,0,1-.17-.17Zm2.33.53a.26.26,0,0,1,.11-.2.65.65,0,0,1,.19,0l1.43,0c.17,0,.38,0,.45.17L132,107a13,13,0,0,0-1.87-.12Zm6.9,0c.07-.13.24-.15.39-.16,1.29-.06,2.59-.08,3.89-.08a.76.76,0,0,1,.59.18c0,.13-.21.15-.34.15q-2.27,0-4.53-.09Zm-1.22-.22a.21.21,0,0,1,.17.1.15.15,0,0,1-.09.13,1.34,1.34,0,0,0-.66,0,.44.44,0,0,1,.56-.22l0,0Zm-1,0a.25.25,0,0,1,.19.14h0a.15.15,0,0,1-.15-.16Zm19.19.13a.48.48,0,0,1,.35-.09.57.57,0,0,1-.38.39v0a.27.27,0,0,1,0-.34Zm-2.42,1.12a3.29,3.29,0,0,1,1.1-1,3.53,3.53,0,0,1-.88,1,.24.24,0,0,1-.14,0,.08.08,0,0,1-.08-.06Zm-.83-.59a1,1,0,0,1-.83.63c.1-.13.18-.27.28-.4h0a.37.37,0,0,1,.52-.24Zm2.4.59a.85.85,0,0,1,.6-.59c-.09.15-.19.29-.27.44h0a.26.26,0,0,1-.24.17Zm-6.89-.3a.19.19,0,0,1,.23-.09.18.18,0,0,1-.08.26h0a.14.14,0,0,1-.11-.17Zm31.32.28h0c.12-.05.23.19.11.25a.21.21,0,0,1-.1-.24ZM122.08,110v0a.58.58,0,0,1-.15.38.26.26,0,0,1,.15-.42Zm.86,1,0,0a.49.49,0,0,1,.1-.37.22.22,0,0,1,.17.28.23.23,0,0,1-.22.16l-.08,0Zm46.8,1a.9.9,0,0,0,0-.16h0a.27.27,0,0,1,.16.1.15.15,0,0,1-.13.09.13.13,0,0,1-.08,0Zm-44.33.48a.6.6,0,0,0-.07-.41.27.27,0,0,1,.33.08,1.45,1.45,0,0,1-.06.85.75.75,0,0,1-.2-.52Zm50,.13a.35.35,0,0,1-.18-.1.22.22,0,0,1,.08-.28.6.6,0,0,1,.3-.07l.41,0c-.05.2-.12.4-.17.6l-.44-.12Zm-50.18,1.19a.79.79,0,0,1,.39-.74,1.35,1.35,0,0,1,0,.72.39.39,0,0,1-.2.06.37.37,0,0,1-.18,0Zm4.72-.65a.14.14,0,0,1,.07.19h0a.11.11,0,0,1-.06-.19Zm.93.52c.07-.12.28-.16.34,0l0,0a.36.36,0,0,1-.35.42h0a.54.54,0,0,1,0-.4Zm38.94.11c0-.13.3-.07.27.07h0a.1.1,0,0,1-.1.07c-.08,0-.17-.06-.16-.14Zm-41.81,1a1.71,1.71,0,0,1,1.13-.33c0,.1.14.08.23.1a.18.18,0,0,1,.1.27l-.47,0c-.33,0-.66,0-1-.06Zm9.36,0a1.93,1.93,0,0,1,1.39-.19.12.12,0,0,1,0,.15,2.84,2.84,0,0,1-.76.1,3.05,3.05,0,0,1-.6-.06Zm38.94-.09a.37.37,0,0,1,.25,0,.21.21,0,0,1-.33.12l0,0a.15.15,0,0,1,.11-.2Zm-27.88.38c.47,0,.94,0,1.41,0h1.08a.42.42,0,0,1,.25.05c.06,0,.09.17,0,.22l-3.09,0c-.09-.14.14-.27.32-.28Zm26.68.39c-.09-.06,0-.2.12-.25a.73.73,0,0,1,.6-.1c-.09.22-.36.3-.59.36h-.06a.1.1,0,0,1-.07,0Zm-52.76-.11v0l.1-.1a.15.15,0,0,1,0,.18.05.05,0,0,1,0,0,.08.08,0,0,1-.08-.09Zm54.72.64c-.09,0-.1-.17,0-.24a.45.45,0,0,1,.25-.12v0a.38.38,0,0,1,.37.09.83.83,0,0,1-.47.31h-.11Zm-51.74.14a1,1,0,0,1-.35-.16.29.29,0,0,1-.08-.34l.61.11c.13,0,.28.07.31.2a.22.22,0,0,1-.18.22h-.08a.79.79,0,0,1-.23,0Zm11.36-.32c.08,0,.08.16,0,.17v0c-.1,0-.1-.2,0-.2Zm-2.91.41a.26.26,0,0,1,.37-.07l.07,0a.64.64,0,0,1-.32.46.28.28,0,0,1-.12-.37Zm-4.29.22h0a.27.27,0,0,1,.45-.07,1.62,1.62,0,0,1-.36.59l-.12-.52Zm-2.07.07a.18.18,0,0,1,.06-.09c.1-.06.2.11.18.23a.81.81,0,0,1-.26.52,1.06,1.06,0,0,1,0-.66Zm48,.27.16-.18a.63.63,0,0,1,.31,0,.27.27,0,0,1-.29.22.21.21,0,0,1-.18-.08Zm2.18.13a.41.41,0,0,1,.4-.15c0,.12-.13.23-.23.18h0a.11.11,0,0,1-.07,0,.1.1,0,0,1-.1-.07Zm-31.85.52,0,0,.24-.47c.13.18,0,.51-.17.51Zm28.24-.11a.34.34,0,0,1,.49-.08h0a.27.27,0,0,1-.26.18.25.25,0,0,1-.2-.1Zm-28.61.75c0-.07,0-.15.11-.17s.12.11.05.13h0a.11.11,0,0,1-.11.07.07.07,0,0,1-.06,0Zm30.6,0s.06-.11.11-.09a.1.1,0,0,1,0,.14h0s0,0-.06,0-.09,0-.09-.07Zm-28.43,1.71c.12-.18.31-.32.45-.49s.28-.54.47-.78a1.29,1.29,0,0,1,.76-.44l-1,1.19c-.07.09-.15.2-.11.31a2.06,2.06,0,0,1-.57.82.51.51,0,0,1,0-.61Zm30.16-1.38a1.33,1.33,0,0,0,.3-.18.33.33,0,0,1,.34,0c.1.06.08.26,0,.26v0a.54.54,0,0,1-.27.07.47.47,0,0,1-.34-.13Zm-32.62.45a.61.61,0,0,1-.12.52l0,0a.37.37,0,0,1,.16-.56Zm-.77,1.78a.68.68,0,0,1,.29-.82c0,.2-.06.39-.08.59h0v.2a.22.22,0,0,1-.13,0Zm2.67.75a1.49,1.49,0,0,1,.16-.52,1.07,1.07,0,0,1,.14-.35c.09-.09.28-.09.32,0a.23.23,0,0,1,0,.14l-.15.74a.33.33,0,0,1-.08.19.15.15,0,0,1-.11,0,.32.32,0,0,1-.27-.27Zm9,2c0-.2,0-.4,0-.6s0-.24,0-.33c.31-.35-.15-.94.06-1.36.12,0,.18.14.19.26a22.4,22.4,0,0,1,0,2.46c-.2,0-.33-.23-.35-.43Zm-30.4-2a.21.21,0,0,1,.1.23.1.1,0,0,1-.16,0h0a.13.13,0,0,1,.07-.2Zm45.42.19h0c-.05-.09.15-.12.14,0s0,.08-.08.08-.05,0-.07-.05Zm-.71.18c0-.1.17-.13.18,0h0a.12.12,0,0,1-.1.06l-.07,0Zm-23.17-.07a.66.66,0,0,1,.1.38c0,.13-.18.24-.3.17a1.42,1.42,0,0,1,0-.5l0,0a.08.08,0,0,1,.11-.07Zm-23.62.4a1.6,1.6,0,0,0,.1-.23.46.46,0,0,1,.24.17.33.33,0,0,1-.1.17h0a.22.22,0,0,1-.2-.11Zm-1.94-.17c.08,0,.08.15,0,.21a.32.32,0,0,1-.23.07.25.25,0,0,1,.21-.28Zm47.62.13a.46.46,0,0,1,.26,0,.15.15,0,0,1,.06.22.21.21,0,0,1-.16.05l-.63.06c0-.22.25-.33.47-.36Zm-39.89.78a.62.62,0,0,1,.21-.44c0,.15,0,.31,0,.46a.11.11,0,0,1-.07,0,.12.12,0,0,1-.09-.05Zm38,0a1,1,0,0,1,.94-.17.73.73,0,0,1-.58.27.68.68,0,0,1-.36-.1Zm6.71-.18c.12-.05.2.15.14.25a.49.49,0,0,1-.35.15.28.28,0,0,1-.2,0c-.11-.07-.07-.26.05-.33a.61.61,0,0,1,.38,0Zm-49,0a.18.18,0,0,1,.16,0v.54a.32.32,0,0,1-.1.18.31.31,0,0,0-.4-.1,1.92,1.92,0,0,1,.34-.65Zm-2,.37a.59.59,0,0,1,.27-.29v0l.24.18c-.15,0-.13.34-.29.39h0a.22.22,0,0,1-.17-.27Zm21.25.93c0-.13,0-.26,0-.39a2.45,2.45,0,0,1,0-.27c0-.09.09-.19.18-.17a1.66,1.66,0,0,1,0,1.1c-.13,0-.21-.14-.22-.27Zm21.27-.65c0-.09.08-.14.17-.15a1.46,1.46,0,0,1,.51.07c0,.07-.05.13-.11.16a.54.54,0,0,1-.22,0,.58.58,0,0,1-.35-.13Zm2.23.45.46,0,0,0a.24.24,0,0,1-.44,0Zm-11.78,1.43A.26.26,0,0,1,156,125a1.76,1.76,0,0,1,.15-1.06l.19,0q0,.42,0,.84a.38.38,0,0,1-.06.26.19.19,0,0,1-.14.08.11.11,0,0,1-.09,0Zm9.39-.74a.45.45,0,0,1,.58-.19.29.29,0,0,1-.35.17v0a.11.11,0,0,1-.08,0,.24.24,0,0,1-.14,0Zm-24.85,0a.27.27,0,0,1,0-.18c.1,0,.12.13.09.23h0s0,0,0,0a.15.15,0,0,1-.11-.08Zm20.44.19h0c.09,0,.25,0,.21.07a.11.11,0,0,1-.09,0c-.05,0-.12,0-.12-.1Zm-20.54.14v0a.34.34,0,0,1,.14.49.33.33,0,0,1-.14-.44Zm-23.41.36a.63.63,0,0,1,.16.23.42.42,0,0,1-.18.5.56.56,0,0,1,0-.73Zm43.3.68a3.28,3.28,0,0,1,2,.09,4.58,4.58,0,0,1-.83.08,4.46,4.46,0,0,1-1.2-.17Zm-33.67.11a.21.21,0,0,1,.11-.16c.1,0,.17.16.06.19h-.06a.17.17,0,0,1-.11,0Zm40.55.35a1.31,1.31,0,0,1,.32-.1c.12,0,.25.08.22.19a.56.56,0,0,1,.68,0,1.06,1.06,0,0,1-.7.13l-1.17,0c0-.1,0-.2,0-.3a1.34,1.34,0,0,0,.44.1.51.51,0,0,0,.17,0Zm-50.79.36c0-.11.23-.15.29,0s-.05.2-.13.27v0l-.17.09a.43.43,0,0,1,0-.35Zm30.41.14.6,0,1.66,0c.94,0,1.88,0,2.82,0,.19,0,.44.08.42.27h-3.7c-.57,0-1.14,0-1.71,0l-.09-.27Zm6.1.27c-.16,0-.35-.09-.33-.24a.77.77,0,0,1,.52-.06l1.1.11a2.77,2.77,0,0,1-1.06.2Zm-6.52-.09a.24.24,0,0,1,.36-.09h0a.22.22,0,0,1-.21.14.2.2,0,0,1-.14-.06Zm8,.14v0a.18.18,0,0,1-.1-.16.28.28,0,0,1,.15.06s0,.13,0,.13,0,0,0,0Zm-36.6.72a.84.84,0,0,1,.73-.2,1.92,1.92,0,0,1-.74.43c-.1,0,0-.16,0-.23Zm7.86.83h0a.27.27,0,0,1,.37,0,.25.25,0,0,1-.2.1.3.3,0,0,1-.15,0Zm-2.91,2.45a.24.24,0,0,1,.11-.25.94.94,0,0,0,.23-.16.27.27,0,0,1-.16.39l0,0c0,.05,0,.07-.09.07a.12.12,0,0,1-.12-.07Zm1.81.13a1.17,1.17,0,0,1,.33-.29l.11.15h0a.32.32,0,0,1-.28.18.21.21,0,0,1-.13-.05Zm44.38.33a.31.31,0,0,1,.06-.36.39.39,0,0,1,.25.38h0a.17.17,0,0,1-.14.08.23.23,0,0,1-.2-.11Zm-43.07.37a.53.53,0,0,1,.6-.38.67.67,0,0,1-.3.4h0l-.3,0Zm3.73-.21c0,.1-.16.17-.19.07h0a.12.12,0,0,1,.18-.07Zm52.82,0,0,0a0,0,0,0,1,0,0l0-.05Zm-54.1,1c-.12,0,0-.2.07-.27L129,132c.1,0,.07.15,0,.23a1.94,1.94,0,0,1-.55.44.14.14,0,0,1-.09,0Zm20.9-.46c0-.08.07-.16.16-.16a.43.43,0,0,1,.24.1h0a.26.26,0,0,1-.24.13.23.23,0,0,1-.18-.06Z" transform="translate(-0.72 -0.83)"/><path class="cls-3" d="M183.06,117.59h0v0Z" transform="translate(-0.72 -0.83)"/><polygon class="cls-3" points="182.34 116.77 182.34 116.76 182.34 116.77 182.34 116.77 182.34 116.77"/><polygon class="cls-3" points="182.34 116.77 182.35 116.78 182.34 116.77 182.34 116.77 182.34 116.77 182.34 116.77"/><path class="cls-3" d="M184.28,126.12v0Z" transform="translate(-0.72 -0.83)"/><path class="cls-3" d="M187.81,72.27a.67.67,0,0,0-.2,1,.77.77,0,0,0,.42-.35c.08-.14.29-.1.45-.07a.53.53,0,0,0,.41-.07.26.26,0,0,0,0-.38.61.61,0,0,0-.14-.07,2.21,2.21,0,0,0-.62-.13.72.72,0,0,0-.35.08Z" transform="translate(-0.72 -0.83)"/><path class="cls-3" d="M114.66,90c-.61.13-1.22.6-1.8.35-.27-.12-.56.13-.71.39s-.26.56-.52.69-.7,0-1,0a5.66,5.66,0,0,0-1.61.5c-1.2.34-2.45-.38-3.69-.39a6.53,6.53,0,0,0-2.07.46,1,1,0,0,0-.43,1.21,2.63,2.63,0,0,0,.94,1,2.14,2.14,0,0,1,1.65,0,2.17,2.17,0,0,1-1.52.17,3.72,3.72,0,0,0,2.3,1.54c.21,0,0-.37-.2-.37s-.52,0-.53-.22a.38.38,0,0,1,0-.1c.14-.4.82-.23.95.17a2.12,2.12,0,0,1-.19,1.25,3.78,3.78,0,0,0,3,4.82,1,1,0,0,0,1.07-.29c.22-.36,0-.81-.06-1.22s.13-1,.54-.89a.62.62,0,0,1,.32.21l2.27,2.16c.13.12.36,0,.39-.2a.79.79,0,0,0-.18-.5l-1.41-2.12a1.27,1.27,0,0,1,.77.78.77.77,0,0,0,.18-1,3.37,3.37,0,0,0-.84-.8,3.81,3.81,0,0,1-1.11-1.41c.23-.19.55.06.73.29l.59.73a1.84,1.84,0,0,0,.81.68.66.66,0,0,0,.87-.38c.07-.33-.19-.61-.4-.86A3.16,3.16,0,0,1,113,94.7c-.11-.1,0-.29.19-.28a.52.52,0,0,1,.33.27,5.69,5.69,0,0,1,.77,1.61c.05.16.3.15.4,0a.63.63,0,0,0,.08-.49,2.7,2.7,0,0,0-.62-1.8.41.41,0,0,0,.52-.21,1.26,1.26,0,0,0,.09-.61,3.73,3.73,0,0,0-.4-1.93c-.16-.26.23-.56.51-.43a.87.87,0,0,1,.37.77,1.87,1.87,0,0,0,.13.88c.15.26.56.39.74.15-.5-.17-.51-.85-.43-1.36a.43.43,0,0,1,.15-.32c.19-.1.39.13.4.34s-.09.41-.07.62.26.42.43.28a.33.33,0,0,0,.09-.21A1.87,1.87,0,0,0,115,89.91a1,1,0,0,0-.3,0Zm-9.23,3.77c.07-.1,0-.23-.11-.28a.73.73,0,0,0-.33,0,1.76,1.76,0,0,1-.39-.06.26.26,0,0,1-.17-.11c-.07-.11,0-.24.12-.31.34-.2.78.06,1,.34a.82.82,0,0,1,.23.36.29.29,0,0,1-.18.34h-.05c-.12,0-.24-.14-.17-.25Zm3.84-.61c0-.13.17-.18.31-.18h.47a.31.31,0,0,1,.19,0,.19.19,0,0,1,0,.27.36.36,0,0,1-.26.12h-.09a.92.92,0,0,1-.62-.25Zm-2.4.94a.49.49,0,0,1,.49-.6.28.28,0,0,1,.2.1c.07.14-.08.3-.23.36s-.34.1-.39.25a.18.18,0,0,1-.07-.11Zm5.57,1.68a.18.18,0,0,1,0-.21.19.19,0,0,1,.16.11.83.83,0,0,1-.15.11Zm-5.49,1c0-.16.15-.27.31-.31a3.14,3.14,0,0,1,1,0l1.48.09a.42.42,0,0,1,.24.07.15.15,0,0,1,0,.22.2.2,0,0,1-.11,0h-.94c-.65,0-1.31,0-2,0Zm4.49,1.61a1.1,1.1,0,0,1-.23-.2c-.08-.1-.17-.19-.26-.29a.3.3,0,0,1-.1-.19c0-.11.12-.18.22-.18a.5.5,0,0,1,.28.14,1.8,1.8,0,0,1,.53.72.43.43,0,0,1-.22.06.46.46,0,0,1-.22-.06Zm-3.73-.19a.23.23,0,0,1,0,.16.17.17,0,0,0-.27,0h0a.87.87,0,0,1-.45.13.5.5,0,0,1,.77-.28Zm.14,1.57a.39.39,0,0,1,.55-.09h0a.34.34,0,0,1-.31.17.35.35,0,0,1-.22-.08Zm1.47,1.1a.09.09,0,0,1-.08-.12.15.15,0,0,1,.15-.07.15.15,0,0,1-.08.2Z" transform="translate(-0.72 -0.83)"/><path class="cls-4" d="M119.75,55.27a.39.39,0,0,0-.26.07.16.16,0,0,0,0,.23.3.3,0,0,0,.11.06,2.34,2.34,0,0,0,1.31,0,.9.9,0,0,0-.86-.36Z" transform="translate(-0.72 -0.83)"/><path class="cls-4" d="M121.78,55.83c.14.26.5.3.79.31a.32.32,0,0,0,.22,0c.06-.05.08-.16,0-.19a1.42,1.42,0,0,0-.61-.13,1.4,1.4,0,0,0-.41.06Z" transform="translate(-0.72 -0.83)"/><path class="cls-4" d="M120.55,56.45c.1.08.24-.14.13-.2l-.05,0c-.09,0-.17.16-.08.22Z" transform="translate(-0.72 -0.83)"/><path class="cls-4" d="M122.59,57.14h0a.53.53,0,0,0,.24-.18.46.46,0,0,0-.18-.23.22.22,0,0,0,0,.4Z" transform="translate(-0.72 -0.83)"/><path class="cls-4" d="M130.93,57.84a4.08,4.08,0,0,1-.36.61c-.16.18-.45.28-.62.11a3.58,3.58,0,0,0-4.28-.33c0,.3.39.38.71.38a2.75,2.75,0,0,1,1.76.61c.26.21,0,.66-.33.7a2.3,2.3,0,0,1-1-.24c-1.29-.44-2.63.44-3.71,1.28l-.19.14c-1.2.94-2.51,2.07-2.58,3.59-.06,1.33.87,2.48,1.75,3.49a.94.94,0,0,0,.41.33.34.34,0,0,0,.44-.2c0-.17-.21-.34-.33-.2.18-.32.57-.33,1-.33a1.31,1.31,0,0,0,1-.23c.31-.3.26-.89.62-1.12s.88.11,1,.52.17.87.35,1.28c.35.76,1.35,1.25,1.26,2.08,0,.21.3.33.46.19a.48.48,0,0,0,0-.59,1.34,1.34,0,0,0-.51-.37,2.4,2.4,0,0,0-.17-1.89A12.65,12.65,0,0,0,126.61,66a1.15,1.15,0,0,1-.28-.88c.08-.32.57-.47.72-.19l1.48,2.92a.35.35,0,0,0,.17.19c.13.06.28-.08.3-.21a.74.74,0,0,0-.1-.41l-1.3-2.79a1.35,1.35,0,0,1-.18-1.11c.16-.36.82-.4.87,0A4.9,4.9,0,0,0,129.35,66a3.88,3.88,0,0,0,.24-1.21,1.23,1.23,0,0,0-.55-1.07c-.18-.1,0-.41.15-.48s.43,0,.63-.09.36-.34.2-.47a.49.49,0,0,1,0-.76l1.21.4a30.26,30.26,0,0,0,.37,3.16,3.55,3.55,0,0,0-.05-3.39c-.19-.22.21-.55.47-.42a1,1,0,0,1,.41.75c0,.12.19.15.28.08a.61.61,0,0,0,.17-.29,7.41,7.41,0,0,0,.45-3.41,1.87,1.87,0,0,0-1.07-1.46,1.13,1.13,0,0,0-.36-.06,1.24,1.24,0,0,0-1,.53Zm-5.5,6c-.4-.16-.91,0-1.25-.33-.61-.5-1.67-.19-2.17-.79a.21.21,0,0,1-.07-.16.28.28,0,0,1,.11-.17c.34-.32.69-.63,1-.94a.2.2,0,0,1,.14-.08c.12,0,.18.12.27.2s.51.13.74.26a.92.92,0,0,1,.27.25,3.68,3.68,0,0,0,1.15.88,1.73,1.73,0,0,1,.67.42.48.48,0,0,1-.06.69.35.35,0,0,1-.17,0,1.89,1.89,0,0,1-.67-.27ZM122,65.16a1.21,1.21,0,0,1-.84-.24.54.54,0,0,1-.15-.56.47.47,0,0,1,.46-.33,3.68,3.68,0,0,1,1.62.48,1.77,1.77,0,0,0,.79.15l.72,0a.79.79,0,0,1,.43.11c.13.08.18.29.07.38a.43.43,0,0,1-.27.06L122,65.16Zm-.49,2a.59.59,0,0,1-.09-.31c0-.25,0-.59.27-.62a6.25,6.25,0,0,1,2.24.07.43.43,0,0,1,.3.16c.07.09,0,.26-.1.25a4.61,4.61,0,0,0-2.33.55l-.08,0a.27.27,0,0,1-.21-.12Z" transform="translate(-0.72 -0.83)"/><path class="cls-4" d="M123.9,57.53a.2.2,0,0,0,.27-.08h0a.1.1,0,0,0-.1-.07.2.2,0,0,0-.18.14Z" transform="translate(-0.72 -0.83)"/><path class="cls-4" d="M134.53,57.81l-1.09.06c0,.22.23.38.46.37s.42-.14.65-.17.49.1.49.33a.16.16,0,0,0,.15.16.23.23,0,0,0,.18-.08.42.42,0,0,0-.17-.59,1,1,0,0,0-.45-.09Z" transform="translate(-0.72 -0.83)"/><path class="cls-4" d="M134.84,58.8a.24.24,0,0,0-.08.06,1,1,0,0,0-.07,1.1c.19-.11.09-.39.15-.6s.13-.2.17-.32,0-.24-.13-.24Z" transform="translate(-0.72 -0.83)"/><path class="cls-4" d="M135.6,58.93s0,.16.06.12l.32.05a.32.32,0,0,0-.29-.19l-.09,0Z" transform="translate(-0.72 -0.83)"/><path class="cls-4" d="M134.69,60.73a.47.47,0,0,0,.08.44.44.44,0,0,0-.05-.5l0,.06Z" transform="translate(-0.72 -0.83)"/><path class="cls-4" d="M130.05,65a3.07,3.07,0,0,0-.07.42,1.07,1.07,0,0,0,.17.6,1,1,0,0,0,0-1.24l-.06.22Z" transform="translate(-0.72 -0.83)"/><path class="cls-4" d="M190.05,67.06a1.73,1.73,0,0,0,1.55,0,.33.33,0,0,0-.14-.22.6.6,0,0,0-.26-.05h-.08a2.47,2.47,0,0,0-1.07.25Z" transform="translate(-0.72 -0.83)"/><path class="cls-4" d="M188.84,67.49a1.27,1.27,0,0,0,1.24,0c0-.15-.21-.2-.37-.22h-.24a.74.74,0,0,0-.63.24Z" transform="translate(-0.72 -0.83)"/><path class="cls-4" d="M186.87,67.46a.12.12,0,0,0-.05.15,1.78,1.78,0,0,0,1.07,0,.13.13,0,0,0,.1-.06c.06-.09-.05-.19-.15-.22a1.19,1.19,0,0,0-.37-.06,1.25,1.25,0,0,0-.6.16Z" transform="translate(-0.72 -0.83)"/><path class="cls-4" d="M176.63,67.75a2.21,2.21,0,0,0-1.39,1.57,6.7,6.7,0,0,0-.08,2.19l.08,1c0,.36.23.86.58.74a3.06,3.06,0,0,1,1-.91.28.28,0,0,1,.2-.06c.24,0,.14.41,0,.6a4.3,4.3,0,0,0-.71,3.67.38.38,0,0,0,.06.13c.13.11.29-.12.31-.28.08-.46.16-.92.23-1.38a2.9,2.9,0,0,1,.63-1.6,1,1,0,0,1,1.5.09,2.23,2.23,0,0,0-.76,2.27c.21.8.43,1.61.63,2.42.5-.92,1-1.85,1.51-2.77.22-.41.68-.89,1.06-.62s.13.83-.14,1.19a24.82,24.82,0,0,0-1.93,3.21c-.17.33-.29.81,0,1l2-3c.22-.33.71-.68.93-.35a.49.49,0,0,1,0,.41c-.3,1.35-2.14,2.09-2.13,3.48a2.64,2.64,0,0,1-.46,1.1c-.18.36-.21.89.15,1.07a5,5,0,0,1,1.67-2.31c.4-.31.47-.86.66-1.33s.7-.91,1.14-.67.32,1,.68,1.46,1.29.25,1.73.72a1,1,0,0,0,1.12.2,1.13,1.13,0,0,0,.63-1c0-.06,0-.13-.07-.15L185,79.18c-.15,0-.33-.15-.28-.28a5.26,5.26,0,0,1,2-.19,1.55,1.55,0,0,1,.76.24.61.61,0,0,1,.23.71c.1.2.38,0,.48-.2a5.61,5.61,0,0,0,.8-2.7,5.3,5.3,0,0,0-.82-2.23A6.9,6.9,0,0,0,187,72.88a8.33,8.33,0,0,0-3.36-1.72,3.55,3.55,0,0,0-2.17-.23c-.27.09-.49-.33-.33-.57a.89.89,0,0,1,.77-.3,2.15,2.15,0,0,0,.84-.06l-.35-.39c.35-.34.91-.16,1.36,0s1.07.21,1.29-.21l-1.13-.33a5.82,5.82,0,0,0-3.72-.22,4.75,4.75,0,0,1-1,.38.73.73,0,0,1-.84-.51,1.3,1.3,0,0,0-1.33-1,1.12,1.12,0,0,0-.36,0Zm6.26,8.14a.56.56,0,0,1-.56-.47.53.53,0,0,1,.31-.46,2.6,2.6,0,0,1,.56-.17,3.21,3.21,0,0,0,1.46-.76,1,1,0,0,1,.39-.3c.14,0,.28,0,.42,0,.34-.08.62-.51.93-.37a.5.5,0,0,1,.2.15l.86.88a.66.66,0,0,1,.21.29.46.46,0,0,1-.22.47,1.11,1.11,0,0,1-.54.14,3.25,3.25,0,0,0-1.59.23,4.21,4.21,0,0,1-1.63.28,4.88,4.88,0,0,1-.73.13Zm-4.24-1.27c0-.1,0-.21.15-.23a.25.25,0,0,1,.16,0l.4.23c.18.1.37.33.23.46a1.79,1.79,0,0,0-.73,1.09,3,3,0,0,1-.21-1.6Zm5.4,2.58a.48.48,0,0,1-.14-.09.21.21,0,0,1,.09-.27.6.6,0,0,1,.3,0l2.43,0a1.75,1.75,0,0,0,.76-.28.89.89,0,0,1,.79-.07l.05,0a.14.14,0,0,1,0,.11l-.12.73c0,.18-.09.39-.25.44a.48.48,0,0,1-.35,0,.49.49,0,0,0-.31,0c-.31.08-.63-.12-.95-.23a3.49,3.49,0,0,0-1.12-.09h-.34a2.23,2.23,0,0,1-.85-.13Z" transform="translate(-0.72 -0.83)"/><path class="cls-4" d="M173.67,67.78a.67.67,0,0,0-.37.07.58.58,0,0,0-.14.58.45.45,0,0,0,.15.26c.1,0,.24,0,.23-.1,0-.31.39-.46.7-.44s.67.11.91-.08c0-.23-.34-.29-.58-.29Z" transform="translate(-0.72 -0.83)"/><path class="cls-4" d="M123.87,68.67l-.52.14a.18.18,0,0,0-.08,0c-.07.08,0,.19.15.23a.85.85,0,0,0,.65.11c.22-.08.31-.41.12-.52a.23.23,0,0,0-.14,0,1.13,1.13,0,0,0-.18,0Z" transform="translate(-0.72 -0.83)"/><path class="cls-4" d="M186,69.21a.43.43,0,0,0,.42-.25l-.19-.13v0h0a.26.26,0,0,0-.19.41Z" transform="translate(-0.72 -0.83)"/><path class="cls-4" d="M173.53,69a.56.56,0,0,0,.33.26c.14,0,.28-.18.18-.28h0a.44.44,0,0,0-.52,0Z" transform="translate(-0.72 -0.83)"/><path class="cls-4" d="M172.29,69a.43.43,0,0,0,.05.58l.32-.41,0,0,.22-.21a.38.38,0,0,0-.25-.09.42.42,0,0,0-.32.15Z" transform="translate(-0.72 -0.83)"/><path class="cls-4" d="M191,70.16a1.46,1.46,0,0,0,.1-1.12.8.8,0,0,0-.1,1.12Z" transform="translate(-0.72 -0.83)"/><path class="cls-4" d="M187.29,69.38h0a.3.3,0,0,0,0,.23.18.18,0,0,0,.23-.09.18.18,0,0,0-.1-.23.26.26,0,0,0-.17.09Z" transform="translate(-0.72 -0.83)"/><path class="cls-4" d="M172.29,69.86a.34.34,0,0,0,0,.17,3.19,3.19,0,0,0,.1,1.3.52.52,0,0,0,.2-.48,1.38,1.38,0,0,0-.17-.52.46.46,0,0,0,.17-.58h-.06a.22.22,0,0,0-.19.12Z" transform="translate(-0.72 -0.83)"/><path class="cls-4" d="M150.17,70.27l-5,.63c-4.18.52-9,1.44-11,5.13a8,8,0,0,1-2.22,2.2,25.73,25.73,0,0,0-8.6,12.56c-.56,1.86-1.74,3.49-2.46,5.31s-.89,4.07.4,5.55a8.48,8.48,0,0,0-2.94,8.33c.22,1,.54,2.16-.21,2.79-3.17,2.67-.19,8.53-2.86,11.7-2,2.39-.78,6.32,1.74,8.19s5.81,2.2,8.93,2.43a325.1,325.1,0,0,0,54.49-.59l.28-.09.43-.13.3-.08.37-.2a4.66,4.66,0,0,1,.45-.22,3.24,3.24,0,0,1,.52-.19c.11-.13.21-.26.32-.38s.38-.4.57-.59.48-.52.7-.79l.45-.59.39-.48-.06.08a7.15,7.15,0,0,0,.9-1.59l0,.09.24-.62c.08-.17.15-.33.23-.49s0,0,0,0l-.34-.05.37,0a2.19,2.19,0,0,0,.1-.34,4.42,4.42,0,0,0,0-.51.45.45,0,0,0,0-.11,14.72,14.72,0,0,1-1.43-.44l1.37-.12c0-.06,0-.12-.07-.19a4,4,0,0,0-.43-.75l-.16-.18a4,4,0,0,1-3.14-2.79h0s0-.08,0-.12a1.85,1.85,0,0,1,0-.47,1.6,1.6,0,0,1,.16-.48,3.44,3.44,0,0,1,.35-.58,6.89,6.89,0,0,0-.56-5.66c-.77-1.32-2-2.82-1.27-4.15a6.73,6.73,0,0,0-1.28-8.09c-.7-.63-.15-1.74.26-2.57a7,7,0,0,0-.79-7.18c-.91-1.15-2.3-2.42-1.76-3.79.65-1.64-.36-3.47-1.57-4.76s-2.68-2.43-3.29-4.08a7.53,7.53,0,0,0-2.26-2.79c-3.94-3.51-8.2-7.17-13.43-7.92a15.6,15.6,0,0,0-2.26-.15,40.13,40.13,0,0,0-4.9.4Zm3.75,4.22a.27.27,0,0,1,.41,0v0a.19.19,0,0,1-.2.14.18.18,0,0,1-.2-.14ZM138.29,75a.31.31,0,0,1,.21-.16.16.16,0,0,1,.2.15.69.69,0,0,1,0,.1c-.09.14-.18.3-.26.45-.23,0-.25-.36-.11-.54Zm-2.77,2.81c-.21-.11-.46-.27-.41-.5a.56.56,0,0,1,.16-.24q.82-.83,1.71-1.59a.37.37,0,0,1,.32-.13c.18,0,.2.28.18.46,0,.38-.07.76-.1,1.14a1,1,0,0,0,.68-.48,2,2,0,0,1,.56-.67.52.52,0,0,1,.74.16c.16.44.74.51,1.21.47s1-.11,1.32.24.25.58.46.82.75.15.67-.15a1.33,1.33,0,0,1,.7-1.47c.39-.1.66.37.8.74s.5.81.85.61c.08-.32.17-.64.26-1,.33-.25.84.1.88.52a1.61,1.61,0,0,1-.47,1.11,2.31,2.31,0,0,0-.59,1.08c0,.18-.3.22-.43.08a.72.72,0,0,1-.11-.52c-.22,0-.32.23-.38.43s-.3.42-.45.27A.36.36,0,0,1,144,79c0-.31,0-.62,0-.94a1.21,1.21,0,0,0-.6.66,1.06,1.06,0,0,1-1.12.58,1.91,1.91,0,0,1-1.12-.71,1.32,1.32,0,0,1-1.65,0,1.31,1.31,0,0,0,1.22-1.19,2.91,2.91,0,0,1-2,.63.58.58,0,0,0-.37.15,1.67,1.67,0,0,1-.94.26,4.85,4.85,0,0,1-2-.57Zm13.4-2.21c.08.56.16,1.13.25,1.7.15-.28.32-.55.48-.83l4-.68c0,.32,0,.63,0,.94l3.12-.28a1.74,1.74,0,0,1-1.38,1.06,1.63,1.63,0,0,0,2.15.49,1.68,1.68,0,0,1,2,.4,5,5,0,0,1,1,1.93,5.09,5.09,0,0,1,.94-.85A1,1,0,0,1,161,80.8c2.17,2,4.5,4.37,4.48,7.32a4.87,4.87,0,0,1,1.37-2,1.66,1.66,0,0,1,2.21.1,3.91,3.91,0,0,0-3,1.39l3.8-.83c-.62,1-1.89,1.38-3,1.89s-2.17,1.59-1.82,2.73a7.26,7.26,0,0,1,.38,1c0,.37-.29.81-.63.68a1.62,1.62,0,0,0,1.37.12c.41-.22.45-1,0-1.1a3.57,3.57,0,0,0,.49-2.8.86.86,0,0,1,1,.3,1.53,1.53,0,0,0,.42,1.93,1.93,1.93,0,0,1,2.38-2.08l-1.92,1.29a4.3,4.3,0,0,0,3.44-.86c.21-.21.58.15.48.43s-.4.41-.68.51l-4.19,1.58c.46,1,1.82,1,2.83.67s2.07-.85,3.07-.52a47.77,47.77,0,0,1-11.87,3.55l4.87-.22-4.38,2.33h.14a.79.79,0,0,1-.5.11,1.46,1.46,0,0,0-.37,0,1.21,1.21,0,0,0-.56.47c-.11.14-.17.42,0,.44.11-.3.48-.38.8-.45s.67-.29.63-.6a10.67,10.67,0,0,0,4.3-1.49c.45.37,0,1.06-.51,1.41l-3.26,2.42a1.65,1.65,0,0,1,2.16,1.08l1.09-2c-.11.69-.2,1.38-.3,2.07a.92.92,0,0,0,.4-.89l1,.54a4.3,4.3,0,0,1-.31-3.09,4.89,4.89,0,0,0,2.13,2.36,1.68,1.68,0,0,1,.06-1.37.77.77,0,0,1,1.13.44,1.45,1.45,0,0,1-.36,1.32l8.93-2.39a23.77,23.77,0,0,1-8.34,2.83,2,2,0,0,0,1.81.47,3.21,3.21,0,0,1-1.9,2.07,2.85,2.85,0,0,0,.48-1.81l-2.82,1.89c-.33.21-1,.16-.83-.19a.6.6,0,0,0,.38-1L166,104.07c-.79.59-2.09,1.1-2.6.26a3.38,3.38,0,0,1-4.07.43,2.43,2.43,0,0,1-1.15.82c0,.78.08,1.56.13,2.34a1.39,1.39,0,0,1,1.71-.59,2.93,2.93,0,0,1,1.38-1.27l-1.26,2.88a5.69,5.69,0,0,0,3.37-2.49c.09.47.17.93.25,1.39l.81-.53-.33,1.53,2.7-3.27-1.1,2.89,4.45-3a5.34,5.34,0,0,1-2.48,2.51c.29,1.33.57,2.65.86,4,.82-.5,2.27-.73,2.4.23l-3.42,1.54a.94.94,0,0,1,1,.86,2,2,0,0,1-1.84-.41,1,1,0,0,1-.44.74c-.19-.39-.37-.77-.55-1.17a2.72,2.72,0,0,1-.82,1.52.72.72,0,0,0-1.14.28c.07-.5.15-1,.22-1.47a9.68,9.68,0,0,1-5.06,2.2c.63.28,1.31,1.18.7,1.49.74-.35,1.64.69,1.2,1.38a10.28,10.28,0,0,1,4.74-1.13,1.59,1.59,0,0,0,0,1.58,4.49,4.49,0,0,1,4.88-2,43.81,43.81,0,0,1-7.69,4.23,30.74,30.74,0,0,0,8.14-2.34c.47.15,0,.84-.43,1l-5.14,2.35a70.33,70.33,0,0,0,7.1-2.08,9,9,0,0,1-4.81,2.4,6.5,6.5,0,0,0,3.45-.56,11.51,11.51,0,0,1-6.22,2.29c-.69,0-1.38,0-2.08,0a11.77,11.77,0,0,0-3.89.28,62.63,62.63,0,0,0,14.67.56,7.17,7.17,0,0,0-2.75,2.43,39.38,39.38,0,0,0,4.28-2.75,14.73,14.73,0,0,1-4.35,3.7.65.65,0,0,1,.12,1.1,4.32,4.32,0,0,0-1.63-2.07,18.92,18.92,0,0,1,1.35,2.93,7.17,7.17,0,0,0-1.37-1.08,4.62,4.62,0,0,1,.75,2.31l-1.69-1.28a5.86,5.86,0,0,0,.7,1.88,7.58,7.58,0,0,1-2.48-1.9c-.36.34,0,.92.3,1.35s0,1.26-.43,1a2.42,2.42,0,0,0-.94-1.38c-.16.31-.34.63-.51.95a2.16,2.16,0,0,1-1-1.4,1.74,1.74,0,0,1-.77.89c-.38.16-.92-.12-.85-.52a1.78,1.78,0,0,1-1.48.44c-.51-.16-.64-1.08-.11-1.15-.57-.37-1.11.52-1.73.8a2,2,0,0,1-.82.13l-13.8.27c-1.2,0-2.56,0-3.36-.91l-1.32,1a.94.94,0,0,1,.89-1.26c-.82-.17-1.57.43-2.27.9s-1.73.79-2.3.18a1.09,1.09,0,0,0,.42-1c-.9,1.25-2.81.78-4.34,1a4.39,4.39,0,0,0-2.81,1.57,3,3,0,0,1,1.21-1.85c-.82.34-1.63.69-2.45,1l1-1.39a4.8,4.8,0,0,0-1.79.83.8.8,0,0,1,.24-.84c-.86.44-1.73.88-2.58,1.33l1.3-1.91-2.14.84a1.65,1.65,0,0,1,.6-1.25,3.15,3.15,0,0,1-1.43.73,1.13,1.13,0,0,1-1.29-.86,2.48,2.48,0,0,1-2.39-.17,1.32,1.32,0,0,1,.52-1.09l-1.75.23.18-1.05a5,5,0,0,1-2.46.23,7.67,7.67,0,0,1,.88-3.6,2.67,2.67,0,0,1,3.19-1.22c2.6,1.24,5.55,1.46,8.42,1.66l9.77.67A2.91,2.91,0,0,0,140,126a1,1,0,0,0,.32-1.48,4.11,4.11,0,0,1-3.18,1l-.71-1.46a7.69,7.69,0,0,1-1.21,1.73c-.12-.43-.24-.87-.35-1.31l-.64.57a2.37,2.37,0,0,1-2.59-1.78,1.36,1.36,0,0,1-1.17,1.42,1.72,1.72,0,0,0-.22-2.37,2.29,2.29,0,0,1-4.11,1.25c-.27.54-1,1-1.47.51-.81-.81,1.27-2.16.64-3.13a7.62,7.62,0,0,0-1.54,2.94,4.24,4.24,0,0,1-1.46-1.84,1.92,1.92,0,0,1-1.38.91c.28-.65.56-1.3.85-1.95a3,3,0,0,0-1.52,1.82,6.55,6.55,0,0,1,.05-9.29,1.51,1.51,0,0,1,2,.33,4.41,4.41,0,0,1,.78,2.16l.33-1.09a4.82,4.82,0,0,1,3.89,1.66.77.77,0,0,1,.9-.79c0,.54-.07,1.08-.11,1.62.75-1.44,2.65-1.7,4.26-1.8l7.11-.43-7.34-.53c-.11-.29-.23-.57-.34-.86-1.07,1.62-3.55,1.14-5.37.46v-1.11l-1.16,1.45a2.76,2.76,0,0,1,0-2.2c-.37.45-.73.9-1.09,1.36a2.62,2.62,0,0,1-1.38-3.71l-1.26,2a16.61,16.61,0,0,1-.33-6,1.78,1.78,0,0,0-1.08,1.54,3.31,3.31,0,0,1,1.5-4.6.66.66,0,0,0,.1,1c.2-.49.93-.54,1.41-.26a10.19,10.19,0,0,1,1.2,1.09,5.28,5.28,0,0,0,2.67,1,61.09,61.09,0,0,0,15.81.37l-10.39-.87-.84-.77c0,.38-.25.82-.63.86s-.63-.64-.26-.73a1.17,1.17,0,0,0-1.16.19,2.41,2.41,0,0,0-.49-1,.56.56,0,0,0-.11.82c-.15.26-.55-.09-.48-.37s.32-.51.36-.79-.41-.58-.5-.31a.52.52,0,0,1-.24.76,1.57,1.57,0,0,0-.24-1.14c-.45.56-.89,1.13-1.33,1.7a11.81,11.81,0,0,0,.28-3l-1.33,1.17a.53.53,0,0,1,0,1,3.23,3.23,0,0,1,.2-2.53.71.71,0,0,0-1.06.31l-1.28-1.33-.74.81a6.32,6.32,0,0,1,.82-6.71,1.49,1.49,0,0,1,1-.64,1.74,1.74,0,0,1,.63.17l4.18,1.74,5.95.45a1.15,1.15,0,0,1,.26.87l.74-.64c2.67.28,5.34.64,8,1.07l.85-.29.59.85a2,2,0,0,1,1.31-.91c0,.33.09.65.14,1,.28-.51,1-.6,1.54-.62l9-.34c-1-.8-2.46-.61-3.74-.55s-2.85-.2-3.35-1.39c0,.27,0,.53,0,.8a2.5,2.5,0,0,1-1.21-.47,14.21,14.21,0,0,1-6.18.54l-.38-1.1a2.42,2.42,0,0,0-.51,1.1l-2.09-.12a.58.58,0,0,0,0-1,1.49,1.49,0,0,1-.95.9c0-.28,0-.57,0-.85a1.89,1.89,0,0,1-1.17.67,1.53,1.53,0,0,0-.46-1,1,1,0,0,1-.51.79l-2.68-1a2,2,0,0,1-1.85.36l-.33-.79L131,94.3a2.72,2.72,0,0,0-.27-1.43,5.54,5.54,0,0,1-1.78.94,2.58,2.58,0,0,0-.67-1.52l-.83,1-1.2-3c-.38.32-1-.09-1.07-.57a2.14,2.14,0,0,1,.46-1.37l1.38-2.19a2,2,0,0,1,.61-.7c.78-.49,1.74.2,2.46.78a12.66,12.66,0,0,0,9.32,2.63c-.29.67-.58,1.34-.86,2,.61,0,.88-.72,1.17-1.26s1.22-.89,1.4-.3a1.78,1.78,0,0,0-1,1.74l1.62-1.93a3.42,3.42,0,0,1-.1,1.82,2.38,2.38,0,0,1,.89-1.18.85.85,0,0,1,1.19.38c0-.21.34-.32.59-.31l5.24.23a2.1,2.1,0,0,0-.4,1.66,2.39,2.39,0,0,1,3.15-1.16l.45.5,7.39-1.25-6-.14-.42-.77a.6.6,0,0,1-1-.36,3.26,3.26,0,0,1-2.06.89A1.24,1.24,0,0,1,149.58,88c-.5.8-1.79.84-2.81.73l-9.4-1.12c-.92-.1-2.08-.44-2.16-1.37a2.57,2.57,0,0,1-1.08,1,5.47,5.47,0,0,1-.52-2.46,2.68,2.68,0,0,0-.86,1.53,2.68,2.68,0,0,1-1.51-3.07,3.27,3.27,0,0,0-1.66,1A5.59,5.59,0,0,1,133.41,79a1.43,1.43,0,0,0-.23,1.47,2.07,2.07,0,0,1,1.61-1.58,2.47,2.47,0,0,0-.55,1.92,2.72,2.72,0,0,1,1.56-1.64,1.49,1.49,0,0,1,1.88.91,1.43,1.43,0,0,1,1.89-.7,1.47,1.47,0,0,1,.68,1.7A2.14,2.14,0,0,1,142.51,80a.82.82,0,0,0-.28,1.06,3.1,3.1,0,0,1,4-.73,5.25,5.25,0,0,1,2.66-4.72Zm8.91.7c.12.17-.05.42-.26.46a1,1,0,0,1-.59-.15.26.26,0,0,1,.3-.22c.18,0,.36-.06.55-.09Zm3.33.09a.25.25,0,0,1,.4.06.25.25,0,0,1-.23.33h0a.25.25,0,0,1-.14-.39Zm-1,2.35a.3.3,0,0,1-.15-.38.41.41,0,0,1,.29-.17,9.09,9.09,0,0,1,2.38-.31.7.7,0,0,0,.32,0,1.68,1.68,0,0,0,.26-.27,1,1,0,0,1,.71-.18l.8,0c.07,0,.17,0,.21.08s0,.19-.11.26-.6.4-.82.19a.28.28,0,0,0-.36,0c.05.22-.17.42-.39.45a3.88,3.88,0,0,1-.67-.06.56.56,0,0,0-.57.25c-.08.21-.35.24-.57.26l-.88,0h-.13a.7.7,0,0,1-.32-.06ZM162,81.19a.92.92,0,0,1,.09-1,4.28,4.28,0,0,0,.54-.86c.08-.2.41-.13.49.07a.78.78,0,0,1-.08.61l-.39.92c-.09.17-.2.38-.4.38h0a.41.41,0,0,1-.24-.17Zm1.25.27c.22,0,.36-.25.46-.45a1.4,1.4,0,0,1,.45-.61.55.55,0,0,1,.7.07c.19.25,0,.6-.11.89s-.23.68,0,.85.51,0,.73-.16c-.12.27.13.69-.13.84s-.21.91-.59,1.12a7.12,7.12,0,0,1-1.35-1.39,1,1,0,0,1-.31-.83.6.6,0,0,1-.21-.14.29.29,0,0,1,.29-.19Zm2.5-.3a.48.48,0,0,1,.06-.69.71.71,0,0,1,.73,0c0,.28.11.66-.13.81a.42.42,0,0,1-.25.05.59.59,0,0,1-.41-.13Zm1.51,1.52c-.35-.32-.72-.73-.63-1.19.08-.09.25,0,.33.06s.13.23.25.28.45-.14.58-.36a.55.55,0,0,1,.16.64,1.55,1.55,0,0,1-.43.58.17.17,0,0,1-.11.06h0a.21.21,0,0,1-.13-.07Zm-1.92-.85,0,0a.18.18,0,0,1-.08-.26.36.36,0,0,1,.23.17.11.11,0,0,1-.11.13s-.05,0-.06,0Zm-.11,2.94c-.16-.11-.11-.38-.25-.51h0a.63.63,0,0,0,.61-.68c0-.15.22-.2.32-.1a1.06,1.06,0,0,1,.19.4,4.21,4.21,0,0,0,.36.57.58.58,0,0,1,0,.63c-.14.18-.51.1-.49-.12s-.2-.22-.34-.19a2.5,2.5,0,0,1-.29,0,.3.3,0,0,1-.15,0Zm2.18-.37a.33.33,0,0,1,.24-.07.43.43,0,0,1,.36.13.25.25,0,0,1-.17.34.36.36,0,0,1-.37-.19v0h0c-.08,0-.1-.13-.05-.18Zm2.73,2.22c-.16-.19,0-.47.24-.6l.52-.34a1.47,1.47,0,0,1,.48-.29.37.37,0,0,1,.46.2,3.52,3.52,0,0,1-1.07,1,.91.91,0,0,1-.43.16.22.22,0,0,1-.2-.09Zm2.1-.58v0c.07,0,.09.1.05.15a.33.33,0,0,1-.18.08c-.07-.08,0-.2.14-.21Zm.85,2.27a.91.91,0,0,1,.48-.74c.05-.12-.13-.22-.25-.28a.61.61,0,0,1-.26-.72.58.58,0,0,1,.68-.33.56.56,0,0,1,.35.66,2.82,2.82,0,0,0,0,1.08c0,.36-.1.82-.46.88h-.07a.58.58,0,0,1-.52-.56Zm-40.09-2a.29.29,0,0,1,.37,0l0,0a.24.24,0,0,1-.18.37h0a.24.24,0,0,1-.14-.4Zm38.56,1.22a1,1,0,0,1,0-.46c0-.11,0-.23.08-.34s.08-.21.16-.17a.1.1,0,0,1,.06.05,1.49,1.49,0,0,1,.26.67c0,.21,0,.47-.24.51h0a.34.34,0,0,1-.3-.26Zm-3,1.35a2.78,2.78,0,0,1,2.28-1l.1,0c.13.08,0,.31-.1.34a1.43,1.43,0,0,1-.46,0c-.15,0-.34.07-.33.22s-.21.33-.4.37a1.32,1.32,0,0,0-.56.14,1.68,1.68,0,0,1-.94.34c-.11,0-.25,0-.27-.13s.16-.2.29-.18l.2,0a.23.23,0,0,0,.19-.07Zm3.1,0c-.07-.2,0-.5.22-.51s.31.23.31.42a.89.89,0,0,1-.33.68,2.06,2.06,0,0,0-.2-.59Zm-1.1.6a.91.91,0,0,1,.28-.56c.08,0,.13.07.16.14a1.31,1.31,0,0,1,.09.34.37.37,0,0,1-.09.35.18.18,0,0,1-.12.05.35.35,0,0,1-.32-.32Zm-17.9-.06a.28.28,0,0,1,.35-.12.29.29,0,0,1-.19.4l0,.07a.27.27,0,0,1-.13-.35ZM173,91.32a.87.87,0,0,0,.64-1.11l-.24-.61a.23.23,0,0,1,0-.14c0-.07.1-.08.16-.1a.87.87,0,0,1,.55,0,.33.33,0,0,1,.22.43c-.11.2.06.44.2.62a1,1,0,0,1,.27.57.41.41,0,0,1-.37.44,3.3,3.3,0,0,0-1.25.35,1.24,1.24,0,0,1-1.24,0,.5.5,0,0,1,.47-.33h.43a.55.55,0,0,0,.18,0Zm-7.38-1.56a.33.33,0,1,1-.11.56,1.28,1.28,0,0,0,0-.19h0a.3.3,0,0,1,.13-.38Zm-40.42,1.53a.2.2,0,0,1-.09-.09.8.8,0,0,1,.08-.85.14.14,0,0,1,.1-.07c.1,0,.15.1.17.2a1.44,1.44,0,0,1-.07.65c0,.08-.09.16-.16.16Zm50.17.2-.25.24a1.85,1.85,0,0,1-.61.47.65.65,0,0,1-.73-.12c-.07-.08-.09-.25,0-.28h.06l.9,0a.41.41,0,0,1,.61-.36Zm-5.05.54a1.42,1.42,0,0,1,1.14-.09c.1,0,.21.12.17.21a.26.26,0,0,1-.16.11,3.07,3.07,0,0,1-.51.06.68.68,0,0,1-.64-.29Zm-1.07.77c-.12,0-.27-.12-.23-.24a.21.21,0,0,1,.14-.12,1,1,0,0,1,.74-.15c.25.08.38.45.17.59h-.12a3.27,3.27,0,0,1-.7-.08Zm3,2.8c.13-.16.35-.21.51-.33s.39-.64.67-.89.56-.26.69-.52.07-.33.14-.47.31-.24.4-.11a.42.42,0,0,1,0,.15c0,.19,0,.43-.15.53A3.65,3.65,0,0,0,173.35,95c-.28.41-.54.93-1,1h0c-.18,0-.24-.29-.11-.44Zm3.46-1.34c-.2-.11-.1-.41,0-.6l0,0,.25-.33a.6.6,0,0,1,.12.84.41.41,0,0,1-.27.13.16.16,0,0,1-.1,0Zm-1.06,1a.64.64,0,0,1,0-.41.39.39,0,0,1,.25-.29.28.28,0,0,1,.3.24.66.66,0,0,1-.08.41.29.29,0,0,1-.15.2.16.16,0,0,1-.09,0,.29.29,0,0,1-.25-.18Zm-7.4,1.93a.42.42,0,0,1-.09-.54.81.81,0,0,1,.4-.3l.92-.44a5.23,5.23,0,0,0,1.08-.62,2.36,2.36,0,0,1,.45-.33.47.47,0,0,1,.52,0c0,.24-.21.44-.42.56a9.87,9.87,0,0,0-2.31,1.59.43.43,0,0,1-.31.12.37.37,0,0,1-.24-.08Zm9-1.86h0a.53.53,0,0,1,.18-.24l.23.11a.43.43,0,0,1-.33.56l-.09-.42Zm-2.27.24a.51.51,0,0,1,.13.73.27.27,0,0,1-.37-.3h0a.58.58,0,0,1,.24-.43Zm1.25,1a.32.32,0,0,1-.12-.31.48.48,0,0,1,.19-.39.31.31,0,0,1,.42,0,.84.84,0,0,1-.09.49.4.4,0,0,1-.31.21.16.16,0,0,1-.09,0Zm-6.33,2.33a1.74,1.74,0,0,1-.66-.74c-.11-.32,0-.76.38-.8a1.44,1.44,0,0,0,.73-.52,4,4,0,0,1,1.06-.78c.1,0,.24-.08.3,0a.45.45,0,0,1,0,.11.69.69,0,0,1-.77.7.39.39,0,0,0-.18,0,1.3,1.3,0,0,0-.68,1,1.28,1.28,0,0,0,.39,1.11.25.25,0,0,1-.19.09.79.79,0,0,1-.41-.18Zm3.84-1.78a.54.54,0,0,1,.36-.63.24.24,0,0,1,.23,0,.33.33,0,0,1,0,.26.68.68,0,0,1-.21.39.31.31,0,0,1-.18.07.22.22,0,0,1-.21-.13Zm4.15-.27h0a.91.91,0,0,1,.25-.3l.18.12a1.07,1.07,0,0,1-.39.34c-.07,0-.09-.13,0-.15Zm-2.57.15a.26.26,0,0,1,.43-.08,3.57,3.57,0,0,0-.1.35h0a.12.12,0,0,1-.08,0,.26.26,0,0,1-.25-.3Zm-3.51.4a.28.28,0,0,1-.12-.43.28.28,0,0,1,.43.12.27.27,0,0,1-.26.31Zm3.51.74c0-.13.11-.25.24-.27s.27,0,.39,0,.39-.36.55-.58.49-.4.69-.22,0,.53-.18.66-.5.16-.72.29a2.94,2.94,0,0,1-.49.32.47.47,0,0,1-.17,0,.3.3,0,0,1-.31-.2Zm3.31-.33c-.1-.07,0-.22.11-.28l.63-.43c.16-.1.44-.16.48,0a1.22,1.22,0,0,1-1.06.72h-.07a.14.14,0,0,1-.09,0Zm-5.9-.16a.7.7,0,0,1,.94-.1,1.65,1.65,0,0,1-1,.38.69.69,0,0,1-.1.73.67.67,0,0,1-.69.22.7.7,0,0,1-.13-.68.52.52,0,0,1,.61-.29h.05c.12,0,.23-.16.31-.27Zm4.84.32a1,1,0,0,1,.46.1.42.42,0,0,1-.49.07h0a.26.26,0,0,1,0-.17Zm-3.19.67c-.06-.21.25-.3.47-.28s.22,0,.26.11-.14.29-.31.32h-.14c-.13,0-.26,0-.28-.16Zm-1.1.37a.38.38,0,0,1,.39-.16A1.28,1.28,0,0,1,173,99a.47.47,0,0,1-.6.2l0,.1h0a.23.23,0,0,1-.17-.33Zm-1.07.84a.48.48,0,0,1,.37-.49,1.52,1.52,0,0,1,.67,0,.54.54,0,0,1-.15.3.86.86,0,0,1-.63.2l-.26,0Zm4.62,1.06a1.38,1.38,0,0,0,.54-.24,3.22,3.22,0,0,1,1.39-.42.42.42,0,0,1,.22,0c.21.09.2.39.14.61a5.39,5.39,0,0,1-.79,1.72c-.11.17-.31.36-.5.28s-.19-.43-.06-.64a2,2,0,0,1,.4-.46c.14-.12,0-.36-.19-.36a.67.67,0,0,0-.44.27q-.22.25-.48.51c-.09.1-.28,0-.34-.1a.61.61,0,0,1,0-.42c.06-.14-.15-.25-.29-.19a.74.74,0,0,0-.28.35,3.51,3.51,0,0,1-.47.69c-.28.34-.55.69-.83,1a.59.59,0,0,1-.25.22.22.22,0,0,1-.28-.1c-.09-.23.38-.36.35-.61-.05-.48.7-.85.5-1.29a.64.64,0,0,0-.59.19,2.44,2.44,0,0,0-.37.52,6.28,6.28,0,0,1-.73,1c-.09.11-.26.22-.36.13a15.61,15.61,0,0,1,.75-1.54.38.38,0,0,1-.22-.3c.38.06.66-.4,1-.41a1,1,0,0,1,.56.26c.21-.36.49-.75.9-.79l.31,0,.24,0Zm-52.18.25.09,0c0-.11-.08-.22-.13-.32.12,0,.23.1.25.22a.15.15,0,0,1-.14.16.07.07,0,0,1-.07,0Zm51.92,1.32a1.64,1.64,0,0,1,0,.23.18.18,0,0,1-.17,0h0c-.08-.11,0-.31.18-.27Zm-.63.88c.12.1.14.33,0,.35h0a.21.21,0,0,1,0-.36Zm-5.72.2a.22.22,0,0,1,.34-.14.22.22,0,0,1,0,.35l-.07,0a.22.22,0,0,1-.22-.23Zm5,3.82a.47.47,0,0,1-.3-.68c.16-.27.58-.3.74-.57a16.3,16.3,0,0,1,1-1.45,1,1,0,0,1,.34-.32.37.37,0,0,1,.43,0c.13.13.08.35,0,.52l-.15.57c0,.15-.1.33-.25.38a.7.7,0,0,1-.4,0c-.13,0-.31,0-.38.08s0,.12,0,.18c-.07.31-.6.44-.53.75a.48.48,0,0,1-.45.54Zm3.11-1.46a1.89,1.89,0,0,1,.27-.38c.12-.17.16-.38.31-.52s.46-.12.47.08a1.83,1.83,0,0,1-.75,1.11l-.09,0h0c-.13,0-.23-.19-.18-.33Zm-3.43-.85c0-.1.14-.16.23-.11a.29.29,0,0,1,.12.26.41.41,0,0,1-.21.33.29.29,0,0,1-.35-.12.21.21,0,0,1,.18-.28l0-.08Zm-2.7,1.09c0-.5.47-.83.91-1.07.15-.08.33-.17.48-.07s.12.41,0,.56-.36.22-.52.37-.38.74-.75.86c-.14,0-.34,0-.39.2a2.63,2.63,0,0,1-.49,1,.55.55,0,0,1-.47.27.4.4,0,0,1-.26-.44,1.08,1.08,0,0,1,.25-.5c.22-.27.51-.56.86-.52-.11-.25.42-.37.42-.65Zm8.17.31a.34.34,0,0,1,.22-.44l0,0c.14.12,0,.4-.18.4Zm-20.65-.28h0a.2.2,0,0,1,.27.08s-.06.06-.11.06-.17,0-.15-.13Zm14.3.27a.28.28,0,0,1-.09.3.18.18,0,0,1-.11-.31h0a.17.17,0,0,1,.2,0Zm3,.73c0-.09.06-.16.13-.22a.38.38,0,0,1,.34-.06.2.2,0,0,1,.09.3v0a.6.6,0,0,1-.29.16h0a.2.2,0,0,1-.22-.16Zm1.92,1.14a.32.32,0,0,1-.13-.15.9.9,0,0,1,.16-1c.28,0,.35.4.34.68a.84.84,0,0,1-.07.35.31.31,0,0,1-.23.14l-.07,0Zm-16.43-1a.36.36,0,0,1,.05.56h0a.33.33,0,0,1-.05-.57Zm10.37.19h0a.12.12,0,0,1,.2,0,.12.12,0,0,1-.07.19.17.17,0,0,1-.11-.15Zm1,.49a.41.41,0,0,1,.63-.47,2.58,2.58,0,0,1-.33.76.57.57,0,0,1-.3-.29Zm1.64.11a.4.4,0,0,1,.65-.09h0a.37.37,0,0,1-.37.25.33.33,0,0,1-.32-.17Zm1.85.78a1.23,1.23,0,0,1,0-.71.26.26,0,0,1,.37-.13.76.76,0,0,1,.26.37c.09.23.15.55-.05.7a.28.28,0,0,1-.18.06.48.48,0,0,1-.41-.29Zm-5.83.49a.33.33,0,0,1,0-.47l.16-.21a.62.62,0,0,1,.28-.25c.11,0,.28,0,.29.14s-.51.36-.41.61.37.06.54.17a.3.3,0,0,1,0,.44.86.86,0,0,1-.44.24l-.44-.67Zm-1.43,1.31a.45.45,0,0,0,0-.7,1.51,1.51,0,0,1-.32-1.37c0-.18.29-.23.42-.1a.54.54,0,0,1,.12.51,1.66,1.66,0,0,0-.06.54c0,.18.17.37.35.34a.51.51,0,0,1,.48.67.49.49,0,0,1-.47.28,1.41,1.41,0,0,1-.55-.17Zm3.16-2.21a.53.53,0,0,1,.34.11l-.31.25a.23.23,0,0,1-.16-.1h0c-.08-.1,0-.26.14-.27Zm2.68,1.57c-.08,0-.1-.13-.12-.21a.91.91,0,0,1,.05-.71.5.5,0,0,1,.53-.18.51.51,0,0,1,.32.46c0,.31-.32.53-.61.63h-.17Zm3.15-.59c.11-.25.31-.55.57-.49a.43.43,0,0,1,.3.3.65.65,0,0,1-.14.69.48.48,0,0,1-.67,0l-.89.68a.27.27,0,0,1-.16.08.26.26,0,0,1-.13-.06.48.48,0,0,1-.09-.61.49.49,0,0,1,.59-.18.27.27,0,0,0,.12,0c.2,0,.39-.23.5-.43Zm-4.22,1a.48.48,0,0,1-.05-.17.85.85,0,0,1,0-.42c.07-.13.24-.22.36-.14a.66.66,0,0,1,0,.58.34.34,0,0,1-.27.2.16.16,0,0,1-.11-.05Zm-1,.76a.38.38,0,0,1-.09-.12.88.88,0,0,1,.18-.94c.23,0,.32.33.33.56a.69.69,0,0,1-.06.4.3.3,0,0,1-.24.14.17.17,0,0,1-.12,0Zm1.1.5.4-.28,1.24-.82a.74.74,0,0,1,.39-.16.26.26,0,0,1,.3.23c0,.35-.37.58-.72.62a2.16,2.16,0,0,0-1,.23c-.1.07-.18.15-.28.21a.42.42,0,0,1-.15,0,.18.18,0,0,1-.16-.07Zm-2.44-.29a.59.59,0,0,1-.12-.63.62.62,0,0,1,.55-.31,1.86,1.86,0,0,1,.64.15.43.43,0,0,1-.28.25,1,1,0,0,1-.23.93,1.57,1.57,0,0,1-.56-.39Zm4.28.44,1.48-.47a.88.88,0,0,1,.53,0c.17.08.25.33.1.44l-.85.58c-.5.35-1,.69-1.53,1a10.6,10.6,0,0,1-1.81.83c-.31.11-.79.13-.85-.2.13-.26-.16-.56-.45-.57a1.74,1.74,0,0,0-.8.3,3,3,0,0,1-2.25.3,3.52,3.52,0,0,1-.63-.27c.56-.62,1.72-.06,2.37-.58.36-.29.89-.19,1.35-.28a8,8,0,0,0,1.12-.42,1.14,1.14,0,0,1,1.12.11,1.69,1.69,0,0,1,1.1-.72Zm-2,5.37a.89.89,0,0,1,.62-.35,1.65,1.65,0,0,0,.69-.22,4.43,4.43,0,0,1,1.23-.66,2.51,2.51,0,0,0,.54-.28l1.11-.66c.13-.14.37,0,.54-.12a.76.76,0,0,0,.2-.2.86.86,0,0,1,.5-.4c.21,0,.47.17.38.37a.36.36,0,0,1-.14.16,1.55,1.55,0,0,1-.93.31c-.18,0-.2.26-.29.42a.72.72,0,0,1-.3.27l-1.33.78a2.42,2.42,0,0,1-.49.23,2,2,0,0,0-.66.17,7.93,7.93,0,0,1-1.25.67.64.64,0,0,1-.17,0h0c-.24,0-.37-.34-.24-.54Zm-3,.16a.31.31,0,0,1,0-.41.75.75,0,0,1,.38-.24l2.82-1.21.9-.38,1.49-.63a1.29,1.29,0,0,1,1.48.38,1.84,1.84,0,0,0-1.44.32,4.91,4.91,0,0,1-1.34.7.91.91,0,0,0-.6.46c0-.2-.3-.26-.49-.19a2.46,2.46,0,0,1-.55.25H173a.81.81,0,0,0-.37.21,2.92,2.92,0,0,1-1.67.79.39.39,0,0,1-.24-.06Zm4.88,1.08a2.22,2.22,0,0,0,.14-.31,1.21,1.21,0,0,1,.89-.72c.65-.12,1-.93,1.63-1,.2,0,.47.1.41.29a.39.39,0,0,1-.12.14,1.89,1.89,0,0,1-1.21.61c-.36,0-.46.49-.72.75s-1.22.23-1.45.75a.71.71,0,0,1-.55.47c-.25,0-.46-.36-.25-.51a.21.21,0,0,1,0-.25.71.71,0,0,1,1-.14.12.12,0,0,0,.1,0,.3.3,0,0,0,.2-.08Zm-4.25,0c-.16-.1-.09-.35.06-.44a4.56,4.56,0,0,1,.52-.18,3.45,3.45,0,0,0,.32-.2,1.18,1.18,0,0,1,.8-.19.26.26,0,0,1,.17.07c.12.12,0,.31-.18.4a2.86,2.86,0,0,1-1.5.57h-.05a.35.35,0,0,1-.14,0Zm5.32,1.45a.47.47,0,0,1-.17,0,.42.42,0,0,1-.13-.63.89.89,0,0,1,.64-.31,1.14,1.14,0,0,0,.33-.07c.17-.08.25-.27.35-.43a2.08,2.08,0,0,1,.92-.84.51.51,0,0,1,.29-.06.35.35,0,0,1,.27.39.73.73,0,0,1-.23.46,1.76,1.76,0,0,1-.79.49c-.23.06-.53.16-.51.39a.57.57,0,0,1-.33.53,1,1,0,0,1-.51.11Zm-4.79-.14a.35.35,0,0,1-.07-.53.85.85,0,0,1,.56-.24,3.79,3.79,0,0,1,.58,0,.47.47,0,0,1,.33.09.17.17,0,0,1,0,.28l-1,.41a.94.94,0,0,1-.28.06.25.25,0,0,1-.12,0Zm-2.48-.65a.53.53,0,0,1,.74.2.46.46,0,0,1-.26.06.58.58,0,0,1-.48-.26Zm5.64,1.23a.57.57,0,0,1,.41-.37c.19,0,.4.18.33.36s-.22.19-.36.22l-.21,0a.21.21,0,0,0-.17-.26Zm-2.36.75a.56.56,0,0,1,.18-.6.57.57,0,0,1,.64,0,.19.19,0,0,1,.1.1c.08.15-.08.31-.21.41a4.08,4.08,0,0,0-.33.25.46.46,0,0,1-.16.07h0c-.1,0-.18-.11-.21-.2Zm3.27.13a1,1,0,0,1,.45-.25c.18,0,.37.18.29.33a.51.51,0,0,1-.21.17c-.19.11-.34.28-.53.4a.53.53,0,0,1-.62,0c-.17-.15-.07-.51.15-.48h.05a.69.69,0,0,0,.42-.2Zm-4.21,2c.36-.4,1.18-.1,1.45-.57,0-.09.18-.11.29-.12l1-.08c.14,0,.33,0,.39.13s0,.27-.13.37c-.3.32-.68.67-1.1.57a2.57,2.57,0,0,0-1.31.14c-.59.19-1.28.4-1.77,0h.11a1.46,1.46,0,0,0,1.07-.48Zm-49.72,0a.44.44,0,0,1,0-.4c.06-.1.25-.16.25,0h0c.13.18.24.46.06.58a.35.35,0,0,1-.11,0,.27.27,0,0,1-.23-.17Zm58.71,1.49a1.1,1.1,0,0,1,0-.51c0-.09,0-.19.1-.22s.22,0,.3.13a5.05,5.05,0,0,1,.73,1.25,9.91,9.91,0,0,0-.19,1.88c0,.17-.21.27-.38.23a.9.9,0,0,1-.39-.31,2.31,2.31,0,0,1-.61.74.47.47,0,0,1-.26-.58.72.72,0,0,1,.18-.25c.24-.26.53-.45.76-.72a1.07,1.07,0,0,0,.3-1,.52.52,0,0,0,.35,0,.53.53,0,0,0-.52-.36h0a.42.42,0,0,1-.36-.3Zm-12.36.1c.09-.2.36-.25.58-.27a21,21,0,0,1,2.75,0c.13,0,.17.2.08.3a.51.51,0,0,1-.36.12l-.85,0a13.51,13.51,0,0,1-2.2-.18Zm-36.68-.24a.37.37,0,0,1,.23,0h0a.16.16,0,0,1-.14.19h0a.16.16,0,0,1-.11-.22Zm36.23.24c0-.09.14-.14.19-.06h0c0,.06-.07.1-.13.1a.08.08,0,0,1-.07,0Zm9.79.73h0a.28.28,0,0,1,.29.35h0a.27.27,0,0,1-.25-.34Zm1.81.81h0l.33-.48.21.11a.68.68,0,0,1-.57.55,1.1,1.1,0,0,1,0-.18Zm-6.89,2.18a.65.65,0,0,0,.31-.18c.73-.62,1.45-1.26,2.16-1.89a.82.82,0,0,1,.6-.29c.16.3-.09.65-.35.87a9,9,0,0,1-1.42,1,.48.48,0,0,0-.2.2c0,.09,0,.22.13.2.37-.05.7.25,1,.53a.89.89,0,0,1,.32.55,1,1,0,0,1-.25.59l-.5.69c-.07.11-.16.23-.29.24s-.37-.24-.37-.46,0-.38,0-.56a.57.57,0,0,0-.24-.48.3.3,0,0,0-.43.19,2,2,0,0,1-.42,1.13.22.22,0,0,1-.13.1.24.24,0,0,1-.21-.09,1.64,1.64,0,0,1-.49-1c0-.16-.12-.29-.15-.45s0-.36.22-.35.13,0,.14.09,0,.14,0,.19.26.09.39,0a.3.3,0,0,0,.15-.12c.15-.25-.56-.43-.41-.68,0-.09.16-.08.28-.08Zm5.63-.87a.66.66,0,0,1,.19-.37.56.56,0,0,1,.47-.25c.17,0,.23.35.05.38s-.21.45-.44.51h0a.27.27,0,0,1-.23-.27Zm-2.62.63c0-.18.07-.42-.09-.47.07-.1.15-.22.23-.32.24,0,.33.35.35.6s0,.37.07.56,0,.53-.23.55a1,1,0,0,1-.33-.92Zm1.56.37a1.21,1.21,0,0,1,.05-.18c0-.18-.16-.32-.3-.44s-.24-.39-.07-.47.28.09.35.23.14.33.29.34l-.12.22a.29.29,0,0,1,.16.4.2.2,0,0,1-.16.07c-.1,0-.21-.07-.2-.17Zm3.14-.12c.2,0,.2-.31.34-.46s.4-.07.59,0a1,1,0,0,1-.17.61.47.47,0,0,1-.32.12.45.45,0,0,1-.44-.29Zm-3.39,2.09a1.29,1.29,0,0,0,.81-.59l.8-1a2.66,2.66,0,0,0,.3-.61.52.52,0,0,1,.56-.3.53.53,0,0,1,.28.34.76.76,0,0,1-.22.82c-.19.12-.45.12-.61.28a1.13,1.13,0,0,0-.23.51,1.32,1.32,0,0,1-1.14.84,2.48,2.48,0,0,1-.47,0,1.78,1.78,0,0,0-.69,0,2.32,2.32,0,0,0-.63.4,1.06,1.06,0,0,1-.66.3c-.25,0-.51-.2-.48-.45s.26-.12.42-.1a1.52,1.52,0,0,0,1.16-.65.68.68,0,0,0-.18-.37.7.7,0,0,1-.19-.36c0-.15.13-.3.26-.25a1.12,1.12,0,0,0,.57.69c.2.11.11.56.33.56Zm-59.07-1a.3.3,0,0,1-.22.42.51.51,0,0,1-.48-.23c.13-.21.43-.19.66-.14l0-.05Zm53.78.88a.79.79,0,0,1-.16.51.24.24,0,0,1-.15-.41h0a.2.2,0,0,1,.29-.11Zm-52.55.48a.48.48,0,0,0,0-.24h0a.21.21,0,0,1,.33-.08.26.26,0,0,1-.24.12c0,.08.09.16.12.24h0a.25.25,0,0,1-.13,0Zm53.77,1a.35.35,0,0,1-.09-.52.47.47,0,0,1,.5,0,.55.55,0,0,1,.26.22.22.22,0,0,1-.08.29.78.78,0,0,1-.33.07.53.53,0,0,1-.26-.06Zm-51.35-.25a.28.28,0,0,1-.34.32.31.31,0,0,1-.15-.46l0,.07a.26.26,0,0,1,.44.07Zm49.63.72a.26.26,0,1,1,.14.05.24.24,0,0,1-.14-.05Zm-17,.79.12-.61h.05a.31.31,0,0,1-.08.62ZM132,132.92v0a.14.14,0,0,1,.21-.13.29.29,0,0,1-.25.29.08.08,0,0,1,.05-.14Zm3.3.55a.29.29,0,0,1,0-.4.62.62,0,0,1,.4-.18.32.32,0,0,1,.29.05c.17.14,0,.41-.22.52a.75.75,0,0,1-.29.09.27.27,0,0,1-.19-.08Zm14.86,0a.18.18,0,0,1,0-.29s.09,0,.14,0c.44,0,.87-.09,1.31-.12a.34.34,0,0,1,.31.06.26.26,0,0,1-.08.38.77.77,0,0,1-.43.08h-.89a.55.55,0,0,1-.33-.07Zm13.47,0a.25.25,0,0,1,.09-.41.26.26,0,0,1,.31.29.27.27,0,0,1-.25.18.2.2,0,0,1-.15-.06Zm-25.22,0c-.1-.15.11-.32.28-.36a.35.35,0,0,1,.36.06c.11.12,0,.34-.16.39l-.13,0a.76.76,0,0,1-.35-.11Zm-7.42.22a1.52,1.52,0,0,1,.35-.48c.1-.11.33-.17.35,0s0,.12-.08.17a2,2,0,0,1-.24.26.38.38,0,0,1-.27.14.11.11,0,0,1-.11-.07Zm22.17-.4a.12.12,0,0,1,.07-.18h0a.44.44,0,0,1,.39.32l-.45-.14Zm8.7,0a.35.35,0,0,1,.53-.12l.06,0a.32.32,0,0,1-.21.39h-.08a.31.31,0,0,1-.3-.23Zm-13.2-.15a.72.72,0,0,1,.55.12.68.68,0,0,1-1,.12.41.41,0,0,1,.45-.24Zm8.49.23a.38.38,0,0,1,.16-.23.52.52,0,0,1,.38.1.28.28,0,0,1-.21.3h-.07a.29.29,0,0,1-.26-.17Zm-24.89-.06h0a.45.45,0,0,1,.62-.05c0,.13-.11.24-.25.24h0a.72.72,0,0,1-.36-.18Z" transform="translate(-0.72 -0.83)"/><path class="cls-4" d="M184,122.47v0h0l0-.06v0Z" transform="translate(-0.72 -0.83)"/><path class="cls-4" d="M187.12,125.84a1,1,0,0,0-.05-.16h0l.08.16Z" transform="translate(-0.72 -0.83)"/><path class="cls-4" d="M173.85,71.09a.89.89,0,0,0,.17-1l-.35-.06a2.16,2.16,0,0,0,.18,1Z" transform="translate(-0.72 -0.83)"/><path class="cls-4" d="M184.71,70.46a.23.23,0,0,0,0,.18.22.22,0,0,0,.23,0h0a.18.18,0,0,0-.17-.13Z" transform="translate(-0.72 -0.83)"/><path class="cls-4" d="M185.32,71.1a.24.24,0,0,0-.09.31.24.24,0,0,0,.3.09c-.05-.13.05-.27.05-.41s-.3-.34-.54-.36c.09.12.18.25.28.37Z" transform="translate(-0.72 -0.83)"/><path class="cls-4" d="M189.51,71.46h0c-.09,0-.21,0-.17.11a.49.49,0,0,0,.49-.13.2.2,0,0,0-.15,0,.22.22,0,0,0-.17.07Z" transform="translate(-0.72 -0.83)"/><path class="cls-4" d="M178,76.81c-.1,0-.16.13-.21.23a.61.61,0,0,0-.09.41.23.23,0,0,0,.31.19c.2-.11,0-.47.16-.65s0-.19-.14-.19Z" transform="translate(-0.72 -0.83)"/><path class="cls-4" d="M152.26,77c.06.06.2,0,.17-.11h0a.05.05,0,0,0-.05,0,.13.13,0,0,0-.12.14Z" transform="translate(-0.72 -0.83)"/><path class="cls-4" d="M135.85,77.68a.3.3,0,1,0,.29-.42h0l-.29.43Z" transform="translate(-0.72 -0.83)"/><path class="cls-4" d="M153.15,77.56l.14.27v0a.35.35,0,0,0,.1-.47.51.51,0,0,0-.25.18Z" transform="translate(-0.72 -0.83)"/><path class="cls-4" d="M155,77.5l-.1,0a.62.62,0,0,0-.28.45.3.3,0,0,0,.32.33c.17,0,.23-.24.27-.41s0-.37-.12-.42H155Z" transform="translate(-0.72 -0.83)"/><path class="cls-4" d="M136,79.48a1,1,0,0,0,0,.51.35.35,0,0,0,.13.29.26.26,0,0,0,.33-.08.67.67,0,0,0,.13-.34c.05-.22.06-.49-.13-.59l-.11,0a.38.38,0,0,0-.32.23Z" transform="translate(-0.72 -0.83)"/><path class="cls-4" d="M137.18,80.46a.18.18,0,0,0,.25.14l0,0,0-.3h0a.18.18,0,0,0-.18.2Z" transform="translate(-0.72 -0.83)"/><path class="cls-4" d="M145.17,80.42a.25.25,0,0,0,.11.17.28.28,0,0,0,.17-.1c.06,0,0-.16-.07-.17h0a.31.31,0,0,0-.19.11Z" transform="translate(-0.72 -0.83)"/><path class="cls-4" d="M140.14,81.27a1.33,1.33,0,0,0,.11-.24,2.56,2.56,0,0,0-.11.24Z" transform="translate(-0.72 -0.83)"/><path class="cls-4" d="M184.41,81.66a1,1,0,0,0,.71.1l.66-.07a.44.44,0,0,0,.29-.09c.07-.07.07-.23,0-.26a2.48,2.48,0,0,0-.86,0,.82.82,0,0,1-.78-.28c-.22.09-.19.46,0,.6Z" transform="translate(-0.72 -0.83)"/><path class="cls-4" d="M161.78,84a.33.33,0,0,0,0,.29c0,.08.2.09.22,0a1.64,1.64,0,0,1,.41-.61c.15-.2.24-.51.06-.68a4.23,4.23,0,0,0-.66,1Z" transform="translate(-0.72 -0.83)"/><path class="cls-4" d="M132,84.91l0,0a.42.42,0,0,0,.17.54c0-.09,0-.19.06-.29a.44.44,0,0,0,0-.3.16.16,0,0,0-.13-.06.11.11,0,0,0-.12.09Z" transform="translate(-0.72 -0.83)"/><path class="cls-4" d="M163.56,86.62a.19.19,0,0,0,.28-.07h0a.31.31,0,0,0,0-.52,1.63,1.63,0,0,1-.27.6Z" transform="translate(-0.72 -0.83)"/><path class="cls-4" d="M163.31,87.2l0,0a.29.29,0,0,0,.19-.44,1,1,0,0,0-.22.42Z" transform="translate(-0.72 -0.83)"/><path class="cls-4" d="M149.58,88a1,1,0,0,0,.13-.28,1,1,0,0,0-.13.28Z" transform="translate(-0.72 -0.83)"/><path class="cls-4" d="M165.06,88.17a.56.56,0,0,0-.39.65c.21.1.41-.14.52-.34s.1-.27,0-.31h-.12Z" transform="translate(-0.72 -0.83)"/><path class="cls-4" d="M143.1,90.81a.22.22,0,0,0,.24,0,.32.32,0,0,0,.1-.17c.08-.21.14-.48,0-.62a.71.71,0,0,0-.31.84Z" transform="translate(-0.72 -0.83)"/><path class="cls-4" d="M143.75,90.15s0-.05,0-.08a.24.24,0,0,0,0,.08Z" transform="translate(-0.72 -0.83)"/><path class="cls-4" d="M145.68,90.18a.52.52,0,0,0-.14.47c0,.13.2.18.31.09a.51.51,0,0,0,.15-.36h0c.08-.11-.06-.23-.19-.23a.13.13,0,0,0-.1,0Z" transform="translate(-0.72 -0.83)"/><path class="cls-4" d="M112.54,90.6c-.3.39-.31,1.1-.8,1.17-.29,0-.53-.2-.82-.27a1.44,1.44,0,0,0-.68.07l-2.26.61a1.11,1.11,0,0,1,.81.51,2.17,2.17,0,0,1,2.07.34,2,2,0,0,1-1.08.39,6,6,0,0,0-2.68,1.72.82.82,0,0,0,0,1.17c.16-.61,1-.64,1.64-.52a3.67,3.67,0,0,1,1.57.54.33.33,0,0,1,.15.18c.07.23-.27.34-.5.34l-2.69,0a.59.59,0,0,1-.39-.07c-.1-.08-.13-.28,0-.34-.09-.15-.3,0-.37.18a3.51,3.51,0,0,0,1.53,4,1.16,1.16,0,0,0,.4.16,1.08,1.08,0,0,0,.72-.3,1,1,0,0,1,.73-.29c.26,0,.42.46.19.59l-.92.2c.15.39.81.28,1-.08a2.39,2.39,0,0,0,.12-1.25,1.18,1.18,0,0,1,.41-1.13,18.73,18.73,0,0,0,2.63,2.25,2.72,2.72,0,0,0-1-1.78,15,15,0,0,1-1.55-1.43.43.43,0,0,1,.5-.26,1.19,1.19,0,0,1,.52.33c.44.4.87.81,1.32,1.21.18,0,.13-.31,0-.45a19.3,19.3,0,0,0-2.25-2.27c.05-.41.7-.41,1-.13s.45.73.79,1,1,0,.88-.38c-.18-.59-.37-1.19-.56-1.79l-.18-.6a1.35,1.35,0,0,1,1.25.63,4.23,4.23,0,0,1,.54,1.38,1.31,1.31,0,0,0,.05-1.48,3.64,3.64,0,0,0-1.12-1.09.62.62,0,0,1-.66.33,1.2,1.2,0,0,1,1.71-.25c.13.12.27-.11.28-.28a6.1,6.1,0,0,0-.14-1.54,2.31,2.31,0,0,0-.74-1.38,1.18,1.18,0,0,0-.73-.24.88.88,0,0,0-.71.32Zm-.13,5a.4.4,0,0,1,.4-.33.35.35,0,0,1,.24.1.38.38,0,0,1-.14.55.39.39,0,0,1-.18.06h0a.33.33,0,0,1-.3-.38Zm-5.54,3a.47.47,0,0,1,.07-.56.9.9,0,0,1,.66-.17h1.32a.61.61,0,0,1,.53.18.91.91,0,0,1-.76.32,1.8,1.8,0,0,0-.84.14,2.22,2.22,0,0,1-.44.29.32.32,0,0,1-.14,0,.46.46,0,0,1-.4-.22Zm.79,1.21c0-.14.09-.29.22-.35a1.92,1.92,0,0,0,.42-.16,1.62,1.62,0,0,1,1.43-.24c0,.28-.47.2-.68.38l-.43.36a1,1,0,0,1-.51.3h-.06a.38.38,0,0,1-.39-.3Z" transform="translate(-0.72 -0.83)"/><path class="cls-4" d="M116.17,90.68a.12.12,0,0,0-.07-.19h0a.43.43,0,0,0-.31-.12.66.66,0,0,0,.39.32Z" transform="translate(-0.72 -0.83)"/><path class="cls-4" d="M155.16,91.63a.29.29,0,0,0,.36,0l.06,0a1,1,0,0,0-.1-.54.57.57,0,0,0-.32.57Z" transform="translate(-0.72 -0.83)"/><path class="cls-4" d="M148.82,92a.13.13,0,0,0,.07.19h0c.05,0,.09-.07.07-.11a.13.13,0,0,0-.11-.08Z" transform="translate(-0.72 -0.83)"/><path class="cls-4" d="M167.26,93.58a.58.58,0,0,0,.23.18h0c.05-.1-.06-.2-.16-.2a.08.08,0,0,0-.08,0Z" transform="translate(-0.72 -0.83)"/><path class="cls-4" d="M134.61,94a.11.11,0,0,0,.17.06.13.13,0,0,0-.07-.19h0a.09.09,0,0,0-.08.13Z" transform="translate(-0.72 -0.83)"/><path class="cls-4" d="M134.09,96.48a.22.22,0,0,0,.15.25h0a.17.17,0,0,0,.07-.26Z" transform="translate(-0.72 -0.83)"/><path class="cls-4" d="M135.22,97c-.12.08,0,.31.11.31s0-.32-.08-.32Z" transform="translate(-0.72 -0.83)"/><path class="cls-4" d="M168.7,100.87a.79.79,0,0,0,.3.45.32.32,0,0,0,.46-.16c.06-.17-.16-.38-.32-.29l0-.08-.4.08Z" transform="translate(-0.72 -0.83)"/><path class="cls-4" d="M165.16,102c-.13.12,0,.33,0,.5a.55.55,0,0,1-.16.31L164,104c0,.17.19.29.37.26a.91.91,0,0,0,.41-.3,2,2,0,0,0,.77-1.75.39.39,0,0,0-.3-.29.16.16,0,0,0-.11,0Z" transform="translate(-0.72 -0.83)"/><path class="cls-4" d="M156.74,103.26a11.68,11.68,0,0,0-2.71,2.49c-.21.25-.49-.3-.81-.35a.8.8,0,0,0-.36.09c-.2.08-.36.16-.44,0s.05-.27.15-.36l1.27-1.2a.58.58,0,0,1,.22.74l.77-.4c.11-.06.24-.14.23-.28s-.24-.16-.47-.14-.46,0-.48-.16a.32.32,0,0,0-.38-.23.8.8,0,0,0-.41.27,6.63,6.63,0,0,0-1.18,1.6c-.13.25-.58.06-.6-.23a1,1,0,0,1,.39-.74l.5-.52c.23-.24-.16-.65-.49-.55s-.47.46-.6.77c-.46-.2-1,.18-1.3.57s-.69.84-1.2.85c-.24,0-.6,0-.58.24,0-.14.29-.09.32.06s-.09.28-.19.39c-.37.41-.75.81-1.13,1.21-.13.15.16.37.34.27s.25-.31.4-.46.44-.18.49,0,.4.25.58.1a2.58,2.58,0,0,0,.41-.57c.15-.18.41-.32.61-.19a.6.6,0,0,0-.32.67c.09.26.52.33.62.08a1.34,1.34,0,0,1,2-.48.72.72,0,0,1,1.19-.14,1.47,1.47,0,0,0-.92,1.27l1.28-1.21a1.42,1.42,0,0,1,.61-.39c.24,0,.53.11.53.35a2,2,0,0,0-1.11,1.18.61.61,0,0,0,.77-.16c.2-.21.32-.49.51-.7.61-.65,1.82-.53,2.31-1.28a7.06,7.06,0,0,1,2.37-2.24c0,.27,0,.54,0,.81s.38.12.5-.07.36-.41.52-.26.09.35.24.39a.25.25,0,0,0,.22-.1c.41-.37.84-1,.5-1.4a1.42,1.42,0,0,1-2,.15c-.25-.23-.64,0-.85.29-.66.78-1.46,1.73-2.45,1.52l1.69-1.53c0-.06.11-.13.1-.2s-.06-.11-.12-.14a.8.8,0,0,0-.45-.12,2.29,2.29,0,0,0-1.15.43Zm-6.37,2a.13.13,0,0,1-.08-.07s0-.1.06-.14l.16-.16a.41.41,0,0,1,.19-.13c.2,0,.33.25.21.41a.37.37,0,0,1-.31.14.46.46,0,0,1-.23,0Zm5.77-.21.34-.2s.11,0,.12,0a.23.23,0,0,1,0,.15.43.43,0,0,1-.23.19h0c-.09,0-.18-.08-.15-.16Zm-.89.08a.19.19,0,0,1,.09,0,.41.41,0,0,1,.21.05.73.73,0,0,1,.35.25.24.24,0,0,1-.14.35h0c-.26,0-.22-.58-.49-.61Z" transform="translate(-0.72 -0.83)"/><polygon class="cls-4" points="154.38 102.67 154.38 102.67 154.37 102.67 154.38 102.67 154.38 102.67 154.38 102.67"/><path class="cls-4" d="M155,103.7a.11.11,0,0,0,.07-.19.13.13,0,0,0-.07.19Z" transform="translate(-0.72 -0.83)"/><path class="cls-4" d="M123,104.21c0,.05.16,0,.13-.07h0L123,104a.17.17,0,0,0,0,.19Z" transform="translate(-0.72 -0.83)"/><path class="cls-4" d="M121.11,104.39h0a.29.29,0,0,0,.06.38l.14-.1a.2.2,0,0,0-.17-.29Z" transform="translate(-0.72 -0.83)"/><path class="cls-4" d="M157.89,107.13v0c.1,0,.12-.21,0-.25s-.13.28,0,.28Z" transform="translate(-0.72 -0.83)"/><path class="cls-4" d="M151.67,106.93a1.47,1.47,0,0,0-.42.37c-.18.23-.37.52-.24.79a3.14,3.14,0,0,0,1.17-1.09.38.38,0,0,0-.29-.12.54.54,0,0,0-.22.05Z" transform="translate(-0.72 -0.83)"/><path class="cls-4" d="M163.35,107.88l-.2.22a.2.2,0,0,0,.33.09.21.21,0,0,0-.11-.33l0,0Z" transform="translate(-0.72 -0.83)"/><path class="cls-4" d="M121.38,110.28a.23.23,0,0,0,.1.22c.09,0,.21,0,.27-.11a.55.55,0,0,0-.17-.76,1,1,0,0,0-.2.65Z" transform="translate(-0.72 -0.83)"/><path class="cls-4" d="M130.45,113.16c0,.16,0,.33-.09.49a5.29,5.29,0,0,1-.29.52c-.08.18-.06.44.12.52a1.24,1.24,0,0,1,.63-.77c.12,0,.12-.23.13-.37s.1-.56-.12-.64h-.07a.37.37,0,0,0-.31.26Z" transform="translate(-0.72 -0.83)"/><path class="cls-4" d="M147.54,116.17a5.08,5.08,0,0,0-1,1.06,8.66,8.66,0,0,0-1.05,8.15c.36.92,1.6,1.07,2.6,1.07h5.22a2.16,2.16,0,0,0,2.79-2.51c0-.72,0-1.45,0-2.17a7.13,7.13,0,0,0-.57-3.35,5.26,5.26,0,0,0-1.8-1.8,7.13,7.13,0,0,0-3-1.21,5.68,5.68,0,0,0-.59,0,4.23,4.23,0,0,0-2.54.79Zm-.45,6.41a.63.63,0,0,1-.09-.45c0-.56,0-1.11.05-1.66,0-.16,0-.35.17-.43s.26-.53.4-.81a1.81,1.81,0,0,1,.25-.3l.84-.85a2.12,2.12,0,0,1,1.41-.81.25.25,0,0,1,.15,0,.28.28,0,0,1,.07.4,1.22,1.22,0,0,1-.36.27,4.94,4.94,0,0,0-1.73,2.61l-.78,2a.17.17,0,0,1-.17.1.25.25,0,0,1-.21-.1Z" transform="translate(-0.72 -0.83)"/><path class="cls-4" d="M120.43,120.31a.73.73,0,0,1-.28.55.84.84,0,0,0-.31.54c0,.22.34.37.44.19l.45-.77a1,1,0,0,0,.13-.36.3.3,0,0,0-.16-.33h-.07a.19.19,0,0,0-.2.19Z" transform="translate(-0.72 -0.83)"/><path class="cls-4" d="M164.26,123a.37.37,0,0,0-.27.07.14.14,0,0,0,0,.23.7.7,0,0,0,1-.18c0-.1-.19-.12-.3-.12Z" transform="translate(-0.72 -0.83)"/><path class="cls-4" d="M165.84,123.53c-.16,0-.38.09-.33.24a.23.23,0,0,0,.21.13,3.23,3.23,0,0,0,1,0,.26.26,0,0,0,.17-.07.2.2,0,0,0-.06-.27.63.63,0,0,0-.31,0Z" transform="translate(-0.72 -0.83)"/><path class="cls-4" d="M185.25,124h0Z" transform="translate(-0.72 -0.83)"/><path class="cls-4" d="M140.4,125.74a3.65,3.65,0,0,0,1,.63c.18.08.34-.17.38-.37s0-.72-.3-.8h-.1c-.35,0-.6.51-1,.55Z" transform="translate(-0.72 -0.83)"/><path class="cls-4" d="M142.69,126.13a.13.13,0,0,0-.14.19.31.31,0,0,0,.18-.07c0-.06,0-.16,0-.16v0Z" transform="translate(-0.72 -0.83)"/><path class="cls-4" d="M117.15,127.18a.75.75,0,0,1-.54.24.32.32,0,0,0-.31.25,1,1,0,0,0,0,.41,4.53,4.53,0,0,0,1.57-.7c.17-.12,0-.42-.18-.44h0a.88.88,0,0,0-.5.25Z" transform="translate(-0.72 -0.83)"/><path class="cls-4" d="M173.28,128.48a.75.75,0,0,0-.41.22.16.16,0,0,0,0,.16.33.33,0,0,0,.17.07c.19,0,.46,0,.5-.18s-.13-.27-.28-.27Z" transform="translate(-0.72 -0.83)"/><path class="cls-4" d="M122.41,130.42h0a.28.28,0,0,0,.28.06s0-.11.08-.16a.16.16,0,0,0-.16-.1c-.11,0-.24.08-.23.2Z" transform="translate(-0.72 -0.83)"/><path class="cls-4" d="M124.63,130.65l.08-.07-.08.07Z" transform="translate(-0.72 -0.83)"/><path class="cls-4" d="M141.66,131.24v0c-.06,0-.1.09,0,.14a.23.23,0,0,0,.2,0,.25.25,0,0,0,0-.17.15.15,0,0,0-.11,0Z" transform="translate(-0.72 -0.83)"/></g></svg>