<svg id="Layer_1" data-name="Layer 1" xmlns="http://www.w3.org/2000/svg" viewBox="0 0 146.69 146.68"><defs><style>.cls-1{fill:#2c2c2c;}.cls-2{fill:#e4ba00;}.cls-3{fill:#fff;}</style></defs><path class="cls-1" d="M72.69,18.91A74,74,0,0,0,63,23.76,75.44,75.44,0,0,0,54.25,30,73.38,73.38,0,0,0,85.6,158.43,74.55,74.55,0,0,0,100.72,160h0a74.47,74.47,0,0,0,21.73-3.28,73.43,73.43,0,0,0,45.7-41.26,70.53,70.53,0,0,0,5.52-21.33,73.31,73.31,0,0,0-101-75.22Zm37.39,1.34a71.16,71.16,0,0,1,16.83,4.66,71.83,71.83,0,0,1,14.89,8.75,72.72,72.72,0,0,1,12.07,12.1,72.27,72.27,0,0,1,8.79,15.15,71.38,71.38,0,0,1,4.54,16.78,72.68,72.68,0,0,1,0,17.93,71,71,0,0,1-4.58,16.87,71.29,71.29,0,0,1-8.89,15.24A72.71,72.71,0,0,1,142,139.48a71.29,71.29,0,0,1-15.45,9.06,71.2,71.2,0,0,1-16.86,4.57,70.94,70.94,0,0,1-17.95,0A71.42,71.42,0,0,1,75,148.58a71.61,71.61,0,0,1-15.39-9,72.56,72.56,0,0,1-11.87-11.89A71.9,71.9,0,0,1,39,112.83,71.31,71.31,0,0,1,34.33,96a73,73,0,0,1,0-18.68,71.6,71.6,0,0,1,4.61-16.7A72,72,0,0,1,47.6,45.78,72.56,72.56,0,0,1,59.86,33.52,71.8,71.8,0,0,1,74.7,24.86a71.38,71.38,0,0,1,16.7-4.61,72.1,72.1,0,0,1,18.68,0Zm16.28,4.42.33.15-.33-.15Zm-51.24,0-.29.13.29-.13Zm78.39,20.62.26.35c-.09-.12-.18-.23-.26-.35ZM38.88,60.75l-.12.29.12-.29ZM34.32,77.4c0,.16,0,.31-.07.47,0-.16,0-.31.07-.47Zm-.07,18,.06.39-.06-.39Zm4.51,16.83c.05.12.1.23.14.34,0-.11-.09-.22-.14-.34ZM154,127.38l-.15.19.15-.19Zm-12.29,12.35-.24.19.24-.19Z" transform="translate(-27.4 -13.32)"/><path class="cls-1" d="M101.37,24.63a63.16,63.16,0,0,0-14.21,1.63,61.89,61.89,0,0,0-19.22,8A62.78,62.78,0,0,0,52.62,48a64.38,64.38,0,0,0-5.77,8.5A62.57,62.57,0,0,0,86.74,148a63.32,63.32,0,0,0,14.59,1.71,64.35,64.35,0,0,0,10.79-.93,61.14,61.14,0,0,0,10.3-2.72,62.31,62.31,0,0,0,18-10.05,62.41,62.41,0,0,0,13.71-15.27,61.68,61.68,0,0,0,8.11-19.18A62.63,62.63,0,0,0,128.9,31a62.47,62.47,0,0,0-20.1-6,60.87,60.87,0,0,0-7.43-.45Z" transform="translate(-27.4 -13.32)"/><path class="cls-2" d="M95,64.53a1.16,1.16,0,1,0,1.16-1.16A1.16,1.16,0,0,0,95,64.53Z" transform="translate(-27.4 -13.32)"/><path class="cls-2" d="M97.48,58.35a4.89,4.89,0,0,0-1.25.48,5.08,5.08,0,0,0-1.73,1.72,3.94,3.94,0,0,0-.44.84l-.07.06A3.67,3.67,0,0,0,93.14,63a9.2,9.2,0,0,0-.28,2.77,6.53,6.53,0,0,0,.66,2.78,6.21,6.21,0,0,0,2.17,2.09c.33.27.66.54,1,.79a2.19,2.19,0,0,0,.4.21,8.58,8.58,0,0,0,1,.43,6.29,6.29,0,0,0,4.23-.6,4.8,4.8,0,0,0,2.43-3.2,14.9,14.9,0,0,0,.31-2.58,5.55,5.55,0,0,0-.19-2.07,11.34,11.34,0,0,0-.91-2.05,7.18,7.18,0,0,0-2.08-2.1l.58.45-.43-.37a5.18,5.18,0,0,0-1.8-1.08,4.27,4.27,0,0,0-1.49-.24,9.65,9.65,0,0,0-1.31.11Z" transform="translate(-27.4 -13.32)"/><path class="cls-3" d="M102.65,40.25a4.82,4.82,0,0,0-4.28,1.89,7.13,7.13,0,0,0-1,3.77l-.3,4-.21,3A31.81,31.81,0,0,0,96,47.27a5.56,5.56,0,0,0-.82-2.09A3.72,3.72,0,0,0,92.25,44a6.19,6.19,0,0,0-1.83.3A7.76,7.76,0,0,0,85,48.36a5.05,5.05,0,0,0,.26,4.6,2.73,2.73,0,0,0-1.65-.47,6,6,0,0,0-4.1,1.66c-1.72,1.72-2.59,4.31-2.67,7.9a3.74,3.74,0,0,0,.43,2.2c.69,1.13,1.91,1.26,3.21,1.4.46,0,1,.1,1.45.2h0A6.31,6.31,0,0,0,77.84,77a5.57,5.57,0,0,0,2.22,1.1,5.33,5.33,0,0,0,1.08.14,8.38,8.38,0,0,0,3.39-.91,5.23,5.23,0,0,0-1.7,4.72,7.67,7.67,0,0,0,4.34,5.54,7,7,0,0,0,3.22.85,4.73,4.73,0,0,0,2.47-.68,6.68,6.68,0,0,0,2.8-4,5.41,5.41,0,0,0,1.17,4.06,6.59,6.59,0,0,0,5,2.39l.64,0c.3,5.87.36,11.5.17,16.72h-.12A34.51,34.51,0,0,0,90.3,109.2c-1.54.55-3.22,1.32-4,2.86a7.27,7.27,0,0,0-.6,2.78c-.17,2.81-.07,5.64,1.8,7.26s2.6,4.09,3.27,6.51c.75,2.61,1.52,5.3,3.6,6.93a11.94,11.94,0,0,0,4.86,1.83,37,37,0,0,0,5,.4,30.6,30.6,0,0,0,8.1-1.11c2.84-.73,4.32-3.72,5.07-6.1.18-.57.34-1.14.5-1.71a14.81,14.81,0,0,1,2.51-5.72c2.46-3,4-7.45,2-10.83-1.1-1.84-3.13-3.17-6.21-4.07a25.89,25.89,0,0,0-6-1.11.91.91,0,0,0,.25-.07,24,24,0,0,0,3.91-1.54A35.39,35.39,0,0,0,133.55,82.3l-.48-.14c-.7.06-1.48.18-2.53.36a34.74,34.74,0,0,0-16.47,8.55,33.6,33.6,0,0,0-7.28,9.63l0-.47-.11-1.37-.32-3.09-.56-5.38c-.07-.65-.07-1.3.35-1.61a5.23,5.23,0,0,0,1.88-4.88A4.21,4.21,0,0,0,111,85.28a6.72,6.72,0,0,0,4.23-1.65c2.59-2.09,4.2-6.13,2.47-9.33a.45.45,0,0,0,.4.2c2.14,0,3.92-2.14,4.57-4.26a7.42,7.42,0,0,0-.36-5.92,4.85,4.85,0,0,0-3.46-2.4l.15-.07a6.21,6.21,0,0,0,3.09-3.71,9,9,0,0,0-.74-6.7,7.08,7.08,0,0,0-4.59-4,5.57,5.57,0,0,0-.9-.08c-2.86,0-5.28,2.48-7.07,4.64l.68-1.32.49-1c1-2,1.86-3.77,1.18-5.57s-2.94-2.76-4.78-3.27a12.86,12.86,0,0,0-3.7-.63Zm-3.6,30.6h0a5.7,5.7,0,0,1-5.13-4,5.35,5.35,0,0,1-.11-.71,4.56,4.56,0,0,1,0-.64,5.56,5.56,0,0,1,3-4.56,5.72,5.72,0,0,1,2.32-.46,5.21,5.21,0,0,1,5.3,5.93,5.2,5.2,0,0,1-.68,2,5.1,5.1,0,0,1-1.31,1.36,5.48,5.48,0,0,1-2.4.86,5.75,5.75,0,0,1-.93.09l0,.13Zm10.63,37.28c-.59-.06-1.15-.1-1.69-.14a1,1,0,0,1-.65-.22l.33,0c.67.13,1.34.23,2,.33ZM97.63,118.56l-.19,0-.25,0-.27,0-.27,0-.37,0-.37,0-.54-.11-.47-.08a4,4,0,0,0-.65-.12,22.07,22.07,0,0,1-4.85-1.7A6,6,0,0,1,87.56,115a2.2,2.2,0,0,1-.6-2,2.85,2.85,0,0,1,1-1.41,12.49,12.49,0,0,1,5-2.38,42.75,42.75,0,0,1,7.91-1.35c-3.53.41-7.17.86-10.3,2.84a4,4,0,0,0-1.23,1.12,3.21,3.21,0,0,0,.6,3.84,7.81,7.81,0,0,0,3.55,1.81,35.73,35.73,0,0,0,4.2,1Zm10.22.46a37.36,37.36,0,0,0,7.6-1.52,7.86,7.86,0,0,0,3.53-1.82,3.17,3.17,0,0,0,.55-3.83,3.28,3.28,0,0,0-1.24-1.09,17.05,17.05,0,0,0-5.84-2.21c1,.13,1.81.27,2.56.44a18.51,18.51,0,0,1,4.84,1.94c1.3.8,2,1.6,2,2.46.08,1.32-1.24,2.31-2.36,2.91A28.8,28.8,0,0,1,107.85,119Zm2.65-9.31,0-.15.22.11a6.56,6.56,0,0,1,.68,0h.16a.41.41,0,0,0-.31.24c-.15-.14-.24-.2-.34-.2a1.73,1.73,0,0,1-.37,0Zm-11.88.08-.27-.05c-.29,0-.47,0-.55-.12l.25,0,.19,0,.38.09Zm-2.44.35h0l.21-.18a.2.2,0,0,0,0,.21l-.75,0-.28-.19.19,0a2.77,2.77,0,0,1,.6.06l0,0Zm17.8.39a1.35,1.35,0,0,0,.47-.12.16.16,0,0,0,.17.15.5.5,0,0,0,.27-.11l.22.13-.19,0a1,1,0,0,0-.09.31.31.31,0,0,0-.34-.25c0-.07,0-.13-.12-.13l-.22.14a1.35,1.35,0,0,1-.26-.15Zm-19.7.08h0a.68.68,0,0,0,.36-.11.11.11,0,0,0,0,.15l-.26,0-.52-.12-.21,0,.32,0,.29,0Zm24.25,2.06-.83-.66-.1-.12-.34-.17-.92-.35c.14,0,.16-.11.14-.2a1.17,1.17,0,0,0-.27-.23,7.82,7.82,0,0,1,2.32,1.73Zm-28.44.17a5.43,5.43,0,0,1,1.33-1.19l.18-.12.07.23-.32.22a1,1,0,0,0-.46.2,4.2,4.2,0,0,0-.5.35,1.27,1.27,0,0,1-.3.31ZM100.73,119l-1.43-.11-.61-.13-.26,0-.12,0c.8.13,1.61.24,2.42.32Z" transform="translate(-27.4 -13.32)"/><path class="cls-3" d="M97.35,109.21l-.09,0,.06,0-.28-.1c-.22,0-.45-.08-.66-.11a2,2,0,0,0-.87.16,5.28,5.28,0,0,1-.77.24h-.17a2.06,2.06,0,0,0-.78.06,2.75,2.75,0,0,0-.71.3,2.46,2.46,0,0,0-.7.62h0c-.06.06-.11.13-.16.19h0c-.19.11-.41.19-.6.31a7.42,7.42,0,0,0-.64.46,1.59,1.59,0,0,0-.13.13,1.87,1.87,0,0,0-.41.15,1.8,1.8,0,0,0-.67.67,1.87,1.87,0,0,0,0,1.82,1.5,1.5,0,0,0,.55.54,1.53,1.53,0,0,0,.75.2,1.17,1.17,0,0,0,.67-.16,1.07,1.07,0,0,0,.46-.31,1.41,1.41,0,0,0,.34-.59,1.09,1.09,0,0,0,0-.26l.12-.1a4.53,4.53,0,0,1,.54-.27l-.34.14.48-.22c.2-.07.39-.15.59-.24.43-.15.87-.27,1.31-.4.22-.07.44-.15.67-.21l.38-.13.25-.11h.17a2.28,2.28,0,0,0,1-.26,3.54,3.54,0,0,0,.71-.45l.35,0h0l.46.16a1.9,1.9,0,0,0,.4.14,4,4,0,0,0,.5,0,1.31,1.31,0,0,0,.58-.12c.16-.06.3-.15.45-.22l0,0a6,6,0,0,1,.73,0l.34.08c.2.11.37.25.56.38a.39.39,0,0,0,.54-.14.4.4,0,0,0-.15-.54,6,6,0,0,0-.58-.4,2.1,2.1,0,0,0-.62-.16c-.3,0-.59,0-.89,0h0a1.77,1.77,0,0,0-.56,0l.13,0a1.31,1.31,0,0,1-.28,0,.86.86,0,0,1-.23-.06l-.18-.09c0-.05-.09-.11-.14-.17s-.12-.1-.18-.15a1.15,1.15,0,0,0-.24-.35.82.82,0,0,0-.27-.2l-.09-.08-.09-.11a1.3,1.3,0,0,0-.93-.4,1.32,1.32,0,0,0-.92.38Zm1.68-.06.08.06-.08-.06Zm.89.87h0c0,.06,0,.12.07.17s0-.12-.07-.17Zm.57.41h0Zm-1.78.72h0Zm0,0h0Zm0,0Zm.11.07-.16,0,.16,0Zm-.18,0h0Zm-.29,0h0Zm3.79,0h0Zm-11.72,1.65h0l0,0,0,0Zm0,0,0,.27,0-.27Zm1.72,1.5-.2.16h0l-.06,0a2,2,0,0,0,.25-.18Z" transform="translate(-27.4 -13.32)"/><path class="cls-3" d="M109.74,109.05a1.5,1.5,0,0,0-.34.11l-.58.25-.48.2.21-.09-.76.37h0l-.14.06a4.16,4.16,0,0,1-.5.16,3.38,3.38,0,0,1-.45,0,2,2,0,0,0-1,.33l-.2,0-.25,0a1,1,0,0,0-.93.94.94.94,0,0,0,.93.94,9.89,9.89,0,0,1,1.21-.11l.2.07a3.4,3.4,0,0,0,.46.08,2,2,0,0,1,.41.14,4,4,0,0,0,1,.17l-.41-.06.56.06a3.23,3.23,0,0,0,.69.07h.22a1.7,1.7,0,0,0,.5,0l.34,0h0l-.39.06.42,0h0a5.83,5.83,0,0,1,.69.39l.27.21a2.44,2.44,0,0,0,.69.28l.25.09a2.47,2.47,0,0,0,.53.29l-.26-.11a6,6,0,0,0,.63.27,6.36,6.36,0,0,0,.65.28l.06,0a2.48,2.48,0,0,0,.25.3,1.42,1.42,0,0,0,.18.22v0l.11.11,0,0,.08.08a1.51,1.51,0,0,0,.55.44,3,3,0,0,0,1.33.34h.12a5.9,5.9,0,0,0,.72-.09,2.4,2.4,0,0,0,1.43-1.1,2.32,2.32,0,0,0,.32-1.18,2.4,2.4,0,0,0-.69-1.66,2.37,2.37,0,0,0-.48-.37,2,2,0,0,0-.46-.65,3.42,3.42,0,0,0-.53-.41,3.82,3.82,0,0,0-.93-.42,4.64,4.64,0,0,0-1.1-.16,2.73,2.73,0,0,0-.57,0c-.13,0-.25-.11-.38-.15a3,3,0,0,0-1.36-.09l-.27-.07-.12-.06.13.06-.34-.15c-.12-.06-.23-.15-.36-.21a2.55,2.55,0,0,0-1.06-.26h-.26a3.74,3.74,0,0,0-.53,0Zm-.57.22-.18.07.18-.07Zm-1,.46-.1,0,.1,0Zm-.73.33-.1,0,.1,0Zm8.84,1.13h0Zm-9.07,1.26.18,0-.18,0Zm3.7.15h0Zm7.27,0,0,.11,0-.09v0Zm-1.55,3.33h0s0,0,0,0Zm-.37-4.75Z" transform="translate(-27.4 -13.32)"/><path d="M105.61,64.83a2.35,2.35,0,0,1,.89-.76,2.31,2.31,0,0,1,1.25-.34,1.13,1.13,0,0,1,1,.71.7.7,0,0,1-.55.91c-.41,0-.7-.6-.36-.83a2,2,0,0,0-2,2.31,3.05,3.05,0,0,1,3.07,2.92l.37.15a17.56,17.56,0,0,1,3.06-4.31A7.62,7.62,0,0,1,117,63.33a3.62,3.62,0,0,1,2.92,1,3.06,3.06,0,0,1,.44,3.23,4.4,4.4,0,0,1-2.51,2.22,3.11,3.11,0,0,1,.84,2.38,2.42,2.42,0,0,1-1.48,2,3.85,3.85,0,0,1-1.55.14,20.42,20.42,0,0,1-2.9-.4l.12.5a1.94,1.94,0,0,1,2.5,1.48L113,75.07v.76a1.27,1.27,0,0,1,1,.53.61.61,0,0,1,.12.34.49.49,0,0,1-.64.35,1.43,1.43,0,0,1-.63-.52,4.38,4.38,0,0,1-6.08,2.88,1.49,1.49,0,0,1,0,.81.52.52,0,0,1-.64.34.62.62,0,0,1-.28-.48,1.33,1.33,0,0,1,.33-1l-.6-.54-.94,2.44a1.92,1.92,0,0,1,.51-2.92l-.39-.5a21.19,21.19,0,0,1-1.6,2.67,3.68,3.68,0,0,1-1.08,1.14,2.4,2.4,0,0,1-2.48-.1,3.07,3.07,0,0,1-1.31-2.17,4.15,4.15,0,0,1-3.5.53,3,3,0,0,1-2.08-2.73,3.66,3.66,0,0,1,1.17-2.52,7.68,7.68,0,0,1,4.53-2.15,15.5,15.5,0,0,1,5.08.26l.13-.51a2.72,2.72,0,0,1,.1-4.28,1.93,1.93,0,0,0-2.93.21.48.48,0,0,1,.51.64.63.63,0,0,1-.85.29.91.91,0,0,1-.43-.86,1.57,1.57,0,0,1,.44-.89,2.44,2.44,0,0,1,3.63.33,5.84,5.84,0,0,1,1.26-.48,3,3,0,0,1,.2-2.07Zm13.8.75a2.33,2.33,0,0,0-.85-.91,2.69,2.69,0,0,0-2.12-.17,7.09,7.09,0,0,0-1.92,1A14.48,14.48,0,0,0,110,70c0,.07-.07.18,0,.22a4.75,4.75,0,0,1,1.41,1.15c.08.1.24.07.36,0a41.28,41.28,0,0,0,6.05-2.47,3.35,3.35,0,0,0,1.82-1.8,2.12,2.12,0,0,0-.2-1.56Zm-25,9.78a2.4,2.4,0,0,0-.41,2.1,2.16,2.16,0,0,0,1.53,1.47,3.82,3.82,0,0,0,2.3-.43,43.71,43.71,0,0,0,5.75-3.21.22.22,0,0,0,.09-.07.49.49,0,0,0,0-.12l-.17-1.83s0-.07,0-.09a.2.2,0,0,0-.12-.06,10.51,10.51,0,0,0-3.79.13,16,16,0,0,0-3.48,1,4.11,4.11,0,0,0-1.68,1.15Zm5.78,5.1a1.68,1.68,0,0,0,1.3-.06,5.51,5.51,0,0,0,2.13-2c.29-.39.57-.79.84-1.19a.22.22,0,0,0,0-.11.19.19,0,0,0,0-.13l-.58-1.19a.14.14,0,0,0-.16-.06.35.35,0,0,0-.16.08c-1.4,1-2.85,1.92-4.35,2.77-.09.06-.08.19,0,.29a3.18,3.18,0,0,0,.32.91,1.42,1.42,0,0,0,.69.66Zm14-7a5.27,5.27,0,0,0,2.7-.44,1.7,1.7,0,0,0,.86-1,1.5,1.5,0,0,0-.08-.91,3.74,3.74,0,0,0-.47-.79c-.08-.1-.21-.22-.34-.17q-2.4.93-4.89,1.64c-.06,0-.14.06-.13.12a.14.14,0,0,0,0,.06l.66,1.25a.41.41,0,0,0,.07.11.31.31,0,0,0,.17,0c.47.05,1,.07,1.43.09Zm-9.28,1.67.63,1.2c0,.08.13.17.2.11a19.64,19.64,0,0,1,5.69-3c.08,0,.06-.14,0-.22l-.42-.86a2.63,2.63,0,0,0-.39-.59.23.23,0,0,0-.1-.07.18.18,0,0,0-.14,0,22.69,22.69,0,0,0-5.21,2.79,1.07,1.07,0,0,0-.26.26.36.36,0,0,0,0,.36Zm7-.35s0-.06,0-.07h0a9.68,9.68,0,0,0-1.35.62c-1.3.68-2.58,1.4-3.85,2.14,0,0,0,0-.06.06s0,.06,0,.09a3,3,0,0,0,3.3.61,3.71,3.71,0,0,0,1-.76,3.13,3.13,0,0,0,1-2.7ZM108,70a.61.61,0,0,0-.32.08,31.58,31.58,0,0,0-3,1.52.42.42,0,0,0-.15.11.75.75,0,0,0,0,.16,7.88,7.88,0,0,0,0,1.88.27.27,0,0,0,.11.22,11.37,11.37,0,0,1,5-3.08,11.74,11.74,0,0,0-1.37-.81A.49.49,0,0,0,108,70Z" transform="translate(-27.4 -13.32)"/><path class="cls-2" d="M106.12,62.91a.4.4,0,0,0,.79,0,.4.4,0,1,0-.79,0Z" transform="translate(-27.4 -13.32)"/><path class="cls-2" d="M107.84,62.35a.39.39,0,0,0,.39.4.4.4,0,1,0,0-.79.39.39,0,0,0-.39.39Z" transform="translate(-27.4 -13.32)"/><path class="cls-2" d="M107.75,65.58a.39.39,0,0,0,.4.39.38.38,0,0,0,.39-.39.39.39,0,0,0-.39-.4.4.4,0,0,0-.4.4Z" transform="translate(-27.4 -13.32)"/><path class="cls-2" d="M109.63,65.36a.4.4,0,0,0,.79,0,.4.4,0,1,0-.79,0Z" transform="translate(-27.4 -13.32)"/><path class="cls-2" d="M105.36,63.23a.39.39,0,0,0,.39.39.4.4,0,1,0,0-.79.39.39,0,0,0-.39.4Z" transform="translate(-27.4 -13.32)"/><path class="cls-2" d="M106.24,66.09a.4.4,0,0,0,.79,0,.4.4,0,1,0-.79,0Z" transform="translate(-27.4 -13.32)"/><path class="cls-2" d="M104.51,65.67a.4.4,0,1,0,.79,0,.4.4,0,0,0-.79,0Z" transform="translate(-27.4 -13.32)"/><path class="cls-2" d="M103.35,66a.4.4,0,1,0,.39-.39.4.4,0,0,0-.39.39Z" transform="translate(-27.4 -13.32)"/><path class="cls-2" d="M106.41,80.58a.4.4,0,0,0,.79,0,.4.4,0,1,0-.79,0Z" transform="translate(-27.4 -13.32)"/><path class="cls-2" d="M105.36,80.19a.4.4,0,0,0,.4.4.4.4,0,0,0,0-.79.4.4,0,0,0-.4.39Z" transform="translate(-27.4 -13.32)"/><path class="cls-2" d="M104.82,78.22a.39.39,0,0,0,.39.4.4.4,0,1,0,0-.79.39.39,0,0,0-.39.39Z" transform="translate(-27.4 -13.32)"/><path class="cls-2" d="M103.64,79.42A.4.4,0,1,0,104,79a.4.4,0,0,0-.39.39Z" transform="translate(-27.4 -13.32)"/><path class="cls-2" d="M104.67,80.41a.4.4,0,1,0,.39-.39.4.4,0,0,0-.39.39Z" transform="translate(-27.4 -13.32)"/><path class="cls-2" d="M112.81,77.07a.4.4,0,1,0,.79,0,.4.4,0,0,0-.79,0Z" transform="translate(-27.4 -13.32)"/><path class="cls-2" d="M113.06,76a.4.4,0,0,0,.79,0,.4.4,0,1,0-.79,0Z" transform="translate(-27.4 -13.32)"/><path class="cls-2" d="M114.14,76.69a.4.4,0,1,0,.4-.4.4.4,0,0,0-.4.4Z" transform="translate(-27.4 -13.32)"/><path class="cls-2" d="M115.13,74.46a.4.4,0,1,0,.79,0,.4.4,0,0,0-.79,0Z" transform="translate(-27.4 -13.32)"/><path class="cls-2" d="M113.2,73.83a.39.39,0,0,0,.4.39.38.38,0,0,0,.39-.39.39.39,0,0,0-.39-.4.4.4,0,0,0-.4.4Z" transform="translate(-27.4 -13.32)"/><path class="cls-2" d="M113.14,75.31a.4.4,0,0,0,.79,0,.4.4,0,1,0-.79,0Z" transform="translate(-27.4 -13.32)"/><path class="cls-2" d="M115.11,65.47a.4.4,0,1,0,.79,0,.4.4,0,0,0-.79,0Z" transform="translate(-27.4 -13.32)"/><path class="cls-2" d="M117.57,66.09a.4.4,0,0,0,.79,0,.4.4,0,1,0-.79,0Z" transform="translate(-27.4 -13.32)"/><path class="cls-2" d="M116.14,68.49a.4.4,0,0,0,.4.39.4.4,0,0,0,0-.79.4.4,0,0,0-.4.4Z" transform="translate(-27.4 -13.32)"/><path class="cls-2" d="M116.78,71.54a.4.4,0,1,0,.79,0,.4.4,0,0,0-.79,0Z" transform="translate(-27.4 -13.32)"/><path class="cls-2" d="M116.61,73.31a.4.4,0,1,0,.39-.39.4.4,0,0,0-.39.39Z" transform="translate(-27.4 -13.32)"/><path class="cls-2" d="M97.85,73.2a.4.4,0,1,0,.39-.39.4.4,0,0,0-.39.39Z" transform="translate(-27.4 -13.32)"/><path class="cls-2" d="M95.77,74.21a.4.4,0,1,0,.4-.4.4.4,0,0,0-.4.4Z" transform="translate(-27.4 -13.32)"/><path class="cls-2" d="M95.83,74.33a.4.4,0,0,0,.79,0,.4.4,0,1,0-.79,0Z" transform="translate(-27.4 -13.32)"/><path class="cls-2" d="M97.23,76a.4.4,0,1,0,.4-.4.4.4,0,0,0-.4.4Z" transform="translate(-27.4 -13.32)"/><path class="cls-2" d="M96,77.78a.4.4,0,1,0,.79,0,.4.4,0,0,0-.79,0Z" transform="translate(-27.4 -13.32)"/><path class="cls-2" d="M94.4,76.3a.4.4,0,1,0,.4-.4.4.4,0,0,0-.4.4Z" transform="translate(-27.4 -13.32)"/><path class="cls-2" d="M98.21,77.81a.4.4,0,0,0,.4.39.4.4,0,0,0,0-.79.4.4,0,0,0-.4.4Z" transform="translate(-27.4 -13.32)"/><path class="cls-2" d="M100.73,77.62a.4.4,0,0,0,.79,0,.4.4,0,1,0-.79,0Z" transform="translate(-27.4 -13.32)"/><path class="cls-2" d="M101.43,79.75a.4.4,0,1,0,.79,0,.4.4,0,0,0-.79,0Z" transform="translate(-27.4 -13.32)"/></svg>